%TF.GenerationSoftware,KiCad,Pcbnew,9.0.2*%
%TF.CreationDate,2025-12-07T23:51:36+09:00*%
%TF.ProjectId,FrostOrtho_L,46726f73-744f-4727-9468-6f5f4c2e6b69,rev?*%
%TF.SameCoordinates,Original*%
%TF.FileFunction,Copper,L1,Top*%
%TF.FilePolarity,Positive*%
%FSLAX46Y46*%
G04 Gerber Fmt 4.6, Leading zero omitted, Abs format (unit mm)*
G04 Created by KiCad (PCBNEW 9.0.2) date 2025-12-07 23:51:36*
%MOMM*%
%LPD*%
G01*
G04 APERTURE LIST*
G04 Aperture macros list*
%AMRoundRect*
0 Rectangle with rounded corners*
0 $1 Rounding radius*
0 $2 $3 $4 $5 $6 $7 $8 $9 X,Y pos of 4 corners*
0 Add a 4 corners polygon primitive as box body*
4,1,4,$2,$3,$4,$5,$6,$7,$8,$9,$2,$3,0*
0 Add four circle primitives for the rounded corners*
1,1,$1+$1,$2,$3*
1,1,$1+$1,$4,$5*
1,1,$1+$1,$6,$7*
1,1,$1+$1,$8,$9*
0 Add four rect primitives between the rounded corners*
20,1,$1+$1,$2,$3,$4,$5,0*
20,1,$1+$1,$4,$5,$6,$7,0*
20,1,$1+$1,$6,$7,$8,$9,0*
20,1,$1+$1,$8,$9,$2,$3,0*%
G04 Aperture macros list end*
%TA.AperFunction,WasherPad*%
%ADD10C,1.900000*%
%TD*%
%TA.AperFunction,WasherPad*%
%ADD11C,3.100000*%
%TD*%
%TA.AperFunction,SMDPad,CuDef*%
%ADD12R,3.500000X1.000000*%
%TD*%
%TA.AperFunction,SMDPad,CuDef*%
%ADD13R,3.400000X1.500000*%
%TD*%
%TA.AperFunction,ComponentPad*%
%ADD14O,2.750000X1.800000*%
%TD*%
%TA.AperFunction,ComponentPad*%
%ADD15C,1.500000*%
%TD*%
%TA.AperFunction,ComponentPad*%
%ADD16C,4.350000*%
%TD*%
%TA.AperFunction,SMDPad,CuDef*%
%ADD17RoundRect,0.200000X0.200000X-0.475000X0.200000X0.475000X-0.200000X0.475000X-0.200000X-0.475000X0*%
%TD*%
%TA.AperFunction,SMDPad,CuDef*%
%ADD18RoundRect,0.287500X0.467500X-0.287500X0.467500X0.287500X-0.467500X0.287500X-0.467500X-0.287500X0*%
%TD*%
%TA.AperFunction,SMDPad,CuDef*%
%ADD19RoundRect,0.262500X0.487500X-0.262500X0.487500X0.262500X-0.487500X0.262500X-0.487500X-0.262500X0*%
%TD*%
%TA.AperFunction,SMDPad,CuDef*%
%ADD20RoundRect,0.275000X0.475000X-0.275000X0.475000X0.275000X-0.475000X0.275000X-0.475000X-0.275000X0*%
%TD*%
%TA.AperFunction,ViaPad*%
%ADD21C,0.600000*%
%TD*%
%TA.AperFunction,Conductor*%
%ADD22C,0.250000*%
%TD*%
%TA.AperFunction,Conductor*%
%ADD23C,0.200000*%
%TD*%
%TA.AperFunction,Conductor*%
%ADD24C,0.500000*%
%TD*%
G04 APERTURE END LIST*
D10*
%TO.P,SW17,*%
%TO.N,*%
X106500000Y-28500000D03*
D11*
X107000000Y-32200000D03*
X112000000Y-34400000D03*
D10*
X117500000Y-28500000D03*
%TD*%
%TO.P,SW1,*%
%TO.N,*%
X49500000Y-28500000D03*
D11*
X49000000Y-24800000D03*
X44000000Y-22600000D03*
D10*
X38500000Y-28500000D03*
%TD*%
D12*
%TO.P,B1,1,+*%
%TO.N,Bat*%
X125000000Y-45000000D03*
%TO.P,B1,2,-*%
%TO.N,Net-(B1--)*%
X125000000Y-47000000D03*
D13*
%TO.P,B1,P1*%
%TO.N,N/C*%
X130750000Y-49350000D03*
%TO.P,B1,P2*%
X130750000Y-42650000D03*
%TD*%
D10*
%TO.P,SW15,*%
%TO.N,*%
X89500000Y-62500000D03*
D11*
X90000000Y-66200000D03*
X95000000Y-68400000D03*
D10*
X100500000Y-62500000D03*
%TD*%
%TO.P,SW14,*%
%TO.N,*%
X89500000Y-45500000D03*
D11*
X90000000Y-49200000D03*
X95000000Y-51400000D03*
D10*
X100500000Y-45500000D03*
%TD*%
%TO.P,SW8,*%
%TO.N,*%
X55500000Y-79500000D03*
D11*
X56000000Y-83200000D03*
X61000000Y-85400000D03*
D10*
X66500000Y-79500000D03*
%TD*%
D14*
%TO.P,U1,1,P0.02_A0_D0*%
%TO.N,RE_B*%
X122880000Y-22924000D03*
%TO.P,U1,2,P0.03_A1_D1*%
%TO.N,Row0*%
X122880000Y-25464000D03*
%TO.P,U1,3,P0.28_A2_D2*%
%TO.N,Row1*%
X122880000Y-28004000D03*
%TO.P,U1,4,P0.29_A3_D3*%
%TO.N,Row2*%
X122880000Y-30544000D03*
%TO.P,U1,5,P0.04_A4_D4_SDA*%
%TO.N,unconnected-(U1-P0.04_A4_D4_SDA-Pad5)*%
X122880000Y-33084000D03*
%TO.P,U1,6,P0.05_A5_D5_SCL*%
%TO.N,RE_A1*%
X122880000Y-35624000D03*
%TO.P,U1,7,P1.11_D6_TX*%
%TO.N,Row3*%
X122880000Y-38164000D03*
%TO.P,U1,8,P1.12_D7_RX*%
%TO.N,Col3*%
X139120000Y-38164000D03*
%TO.P,U1,9,P1.13_D8_SCK*%
%TO.N,Col2*%
X139120000Y-35624000D03*
%TO.P,U1,10,P1.14_D9_MISO*%
%TO.N,Col1*%
X139120000Y-33084000D03*
%TO.P,U1,11,P1.15_D10_MOSI*%
%TO.N,Col0*%
X139120000Y-30544000D03*
%TO.P,U1,12,3V3*%
%TO.N,unconnected-(U1-3V3-Pad12)*%
X139120000Y-28004000D03*
%TO.P,U1,13,GND*%
%TO.N,GND*%
X139120000Y-25464000D03*
%TO.P,U1,14,5V*%
%TO.N,VCC*%
X139120000Y-22924000D03*
D15*
%TO.P,U1,15,NFC1_0.09*%
%TO.N,Col5*%
X134835400Y-39856000D03*
%TO.P,U1,16,NFC2_0.10*%
%TO.N,Col4*%
X136715000Y-39856000D03*
%TO.P,U1,20,BATT+*%
%TO.N,Bat*%
X126555000Y-30227000D03*
%TO.P,U1,21,BATT-*%
%TO.N,GND*%
X126555000Y-28322000D03*
%TD*%
%TO.P,SW21,A1,A1*%
%TO.N,RE_A1*%
X126500000Y-67700000D03*
%TO.P,SW21,B1,B1*%
%TO.N,RE_B*%
X131500000Y-67700000D03*
%TO.P,SW21,C1,C1*%
%TO.N,GND*%
X129000000Y-67700000D03*
D16*
%TO.P,SW21,MH1,MH1*%
%TO.N,Net-(D21-A)*%
X123400000Y-60200000D03*
%TO.P,SW21,MH2,MH2*%
%TO.N,Col5*%
X134600000Y-60200000D03*
%TD*%
D10*
%TO.P,SW18,*%
%TO.N,*%
X106500000Y-45500000D03*
D11*
X107000000Y-49200000D03*
X112000000Y-51400000D03*
D10*
X117500000Y-45500000D03*
%TD*%
%TO.P,SW2,*%
%TO.N,*%
X49500000Y-45500000D03*
D11*
X49000000Y-41800000D03*
X44000000Y-39600000D03*
D10*
X38500000Y-45500000D03*
%TD*%
%TO.P,SW13,*%
%TO.N,*%
X89500000Y-28500000D03*
D11*
X90000000Y-32200000D03*
X95000000Y-34400000D03*
D10*
X100500000Y-28500000D03*
%TD*%
%TO.P,SW20,*%
%TO.N,*%
X106500000Y-79500000D03*
D11*
X107000000Y-83200000D03*
X112000000Y-85400000D03*
D10*
X117500000Y-79500000D03*
%TD*%
%TO.P,SW3,*%
%TO.N,*%
X49500000Y-62475000D03*
D11*
X49000000Y-58775000D03*
X44000000Y-56575000D03*
D10*
X38500000Y-62475000D03*
%TD*%
%TO.P,SW19,*%
%TO.N,*%
X106500000Y-62500000D03*
D11*
X107000000Y-66200000D03*
X112000000Y-68400000D03*
D10*
X117500000Y-62500000D03*
%TD*%
%TO.P,SW7,*%
%TO.N,*%
X55500000Y-62490000D03*
D11*
X56000000Y-66190000D03*
X61000000Y-68390000D03*
D10*
X66500000Y-62490000D03*
%TD*%
%TO.P,SW6,*%
%TO.N,*%
X55500000Y-45500000D03*
D11*
X56000000Y-49200000D03*
X61000000Y-51400000D03*
D10*
X66500000Y-45500000D03*
%TD*%
%TO.P,SW9,*%
%TO.N,*%
X72480000Y-28500000D03*
D11*
X72980000Y-32200000D03*
X77980000Y-34400000D03*
D10*
X83480000Y-28500000D03*
%TD*%
%TO.P,SW4,*%
%TO.N,*%
X49500000Y-79500000D03*
D11*
X49000000Y-75800000D03*
X44000000Y-73600000D03*
D10*
X38500000Y-79500000D03*
%TD*%
%TO.P,SW12,*%
%TO.N,*%
X72500000Y-79500000D03*
D11*
X73000000Y-83200000D03*
X78000000Y-85400000D03*
D10*
X83500000Y-79500000D03*
%TD*%
%TO.P,SW11,*%
%TO.N,*%
X72500000Y-62500000D03*
D11*
X73000000Y-66200000D03*
X78000000Y-68400000D03*
D10*
X83500000Y-62500000D03*
%TD*%
D17*
%TO.P,SW24,*%
%TO.N,*%
X141300000Y-52175000D03*
X139090000Y-52175000D03*
X141300000Y-59825000D03*
X139090000Y-59825000D03*
D18*
%TO.P,SW24,1,A*%
%TO.N,unconnected-(SW24-A-Pad1)*%
X138445000Y-58275000D03*
D19*
%TO.P,SW24,2,B*%
%TO.N,Net-(B1--)*%
X138440000Y-55425000D03*
D20*
%TO.P,SW24,3,C*%
%TO.N,GND*%
X138440000Y-53750000D03*
%TD*%
D10*
%TO.P,SW16,*%
%TO.N,*%
X89490000Y-79485000D03*
D11*
X89990000Y-83185000D03*
X94990000Y-85385000D03*
D10*
X100490000Y-79485000D03*
%TD*%
%TO.P,SW22,*%
%TO.N,*%
X123500000Y-79500000D03*
D11*
X124000000Y-83200000D03*
X129000000Y-85400000D03*
D10*
X134500000Y-79500000D03*
%TD*%
%TO.P,SW5,*%
%TO.N,*%
X55510000Y-28500000D03*
D11*
X56010000Y-32200000D03*
X61010000Y-34400000D03*
D10*
X66510000Y-28500000D03*
%TD*%
%TO.P,SW10,*%
%TO.N,*%
X72500000Y-45500000D03*
D11*
X73000000Y-49200000D03*
X78000000Y-51400000D03*
D10*
X83500000Y-45500000D03*
%TD*%
D21*
%TO.N,Row1*%
X46253800Y-48245300D03*
X61054300Y-40090000D03*
X75571400Y-39238400D03*
%TO.N,Row2*%
X61054300Y-56964700D03*
X75509000Y-56964700D03*
X46151700Y-64751200D03*
X110601600Y-55991000D03*
X87690700Y-56964700D03*
%TO.N,Row3*%
X87690700Y-74421000D03*
X110601600Y-75107400D03*
X75553900Y-74757100D03*
X45993800Y-75354400D03*
X61054300Y-73874700D03*
%TO.N,Net-(D21-A)*%
X129522100Y-59930100D03*
%TO.N,Col0*%
X53383700Y-35675000D03*
%TO.N,Col1*%
X54010400Y-36288100D03*
%TO.N,Col2*%
X70427000Y-36115300D03*
%TO.N,Col3*%
X86800000Y-39172300D03*
%TO.N,Col4*%
X106010600Y-40408700D03*
%TO.N,GND*%
X132089700Y-46550000D03*
X128997700Y-47380500D03*
%TD*%
D22*
%TO.N,Bat*%
X140821000Y-38671826D02*
X134492826Y-45000000D01*
X136386614Y-30613386D02*
X137682000Y-29318000D01*
X126555000Y-30227000D02*
X126555000Y-30234391D01*
X137682000Y-29318000D02*
X140102826Y-29318000D01*
X126933995Y-30613386D02*
X136386614Y-30613386D01*
X126555000Y-30234391D02*
X126933995Y-30613386D01*
X140821000Y-30036174D02*
X140821000Y-38671826D01*
X140102826Y-29318000D02*
X140821000Y-30036174D01*
X134492826Y-45000000D02*
X125000000Y-45000000D01*
D23*
%TO.N,Net-(B1--)*%
X138440000Y-55425000D02*
X133425000Y-55425000D01*
X133425000Y-55425000D02*
X125000000Y-47000000D01*
D22*
%TO.N,Row1*%
X49845500Y-48245300D02*
X46253800Y-48245300D01*
X61054300Y-40090000D02*
X74719800Y-40090000D01*
X58000800Y-40090000D02*
X49845500Y-48245300D01*
X61054300Y-40090000D02*
X58000800Y-40090000D01*
X74719800Y-40090000D02*
X75571400Y-39238400D01*
%TO.N,Row2*%
X49846600Y-64751200D02*
X46151700Y-64751200D01*
X57633100Y-56964700D02*
X49846600Y-64751200D01*
X75509000Y-56964700D02*
X87690700Y-56964700D01*
X61054300Y-56964700D02*
X57633100Y-56964700D01*
X109627900Y-56964700D02*
X110601600Y-55991000D01*
X87690700Y-56964700D02*
X109627900Y-56964700D01*
X75509000Y-56964700D02*
X61054300Y-56964700D01*
%TO.N,Row3*%
X74671500Y-73874700D02*
X61054300Y-73874700D01*
X75553900Y-74757100D02*
X75890000Y-74421000D01*
X109915200Y-74421000D02*
X110601600Y-75107400D01*
X61054300Y-73874700D02*
X47473500Y-73874700D01*
X75890000Y-74421000D02*
X87690700Y-74421000D01*
X47473500Y-73874700D02*
X45993800Y-75354400D01*
X87690700Y-74421000D02*
X109915200Y-74421000D01*
X75553900Y-74757100D02*
X74671500Y-73874700D01*
%TO.N,Net-(D21-A)*%
X129252200Y-60200000D02*
X129522100Y-59930100D01*
X123400000Y-60200000D02*
X129252200Y-60200000D01*
%TO.N,Col0*%
X59890100Y-36288100D02*
X62435000Y-36288100D01*
X111930300Y-31815600D02*
X136146700Y-31815600D01*
X76555300Y-36307200D02*
X96425000Y-36307200D01*
X138620000Y-30544000D02*
X137418300Y-30544000D01*
X63761500Y-34961600D02*
X75209700Y-34961600D01*
X62435000Y-36288100D02*
X63761500Y-34961600D01*
X75209700Y-34961600D02*
X76555300Y-36307200D01*
X96425000Y-36307200D02*
X97859300Y-34872900D01*
X53383700Y-35675000D02*
X53444000Y-35614700D01*
X108873000Y-34872900D02*
X111930300Y-31815600D01*
X53444000Y-35614700D02*
X59216700Y-35614700D01*
X97859300Y-34872900D02*
X108873000Y-34872900D01*
X59216700Y-35614700D02*
X59890100Y-36288100D01*
X136146700Y-31815600D02*
X137418300Y-30544000D01*
%TO.N,Col1*%
X76143400Y-36758900D02*
X74873000Y-35488500D01*
X97289000Y-36307200D02*
X96837300Y-36758900D01*
X64098600Y-35488500D02*
X62847300Y-36739800D01*
X117884600Y-36307200D02*
X97289000Y-36307200D01*
X119837800Y-34354000D02*
X117884600Y-36307200D01*
X54462100Y-36739800D02*
X54010400Y-36288100D01*
X136148300Y-34354000D02*
X119837800Y-34354000D01*
X62847300Y-36739800D02*
X54462100Y-36739800D01*
X138620000Y-33084000D02*
X137418300Y-33084000D01*
X74873000Y-35488500D02*
X64098600Y-35488500D01*
X137418300Y-33084000D02*
X136148300Y-34354000D01*
X96837300Y-36758900D02*
X76143400Y-36758900D01*
%TO.N,Col2*%
X136148300Y-36894000D02*
X137418300Y-35624000D01*
X97024400Y-37210600D02*
X97341000Y-36894000D01*
X71522300Y-37210600D02*
X97024400Y-37210600D01*
X70427000Y-36115300D02*
X71522300Y-37210600D01*
X138620000Y-35624000D02*
X137418300Y-35624000D01*
X97341000Y-36894000D02*
X136148300Y-36894000D01*
D23*
%TO.N,Col3*%
X117821000Y-41548942D02*
X117468942Y-41901000D01*
X138620000Y-38164000D02*
X138620000Y-39437339D01*
X89528700Y-41901000D02*
X86800000Y-39172300D01*
X117468942Y-41901000D02*
X89528700Y-41901000D01*
X136508397Y-41548942D02*
X117821000Y-41548942D01*
X138620000Y-39437339D02*
X136508397Y-41548942D01*
D22*
%TO.N,Col4*%
X118605100Y-40408700D02*
X106010600Y-40408700D01*
X136715000Y-40247100D02*
X135978600Y-40983500D01*
X136715000Y-39856000D02*
X136715000Y-40247100D01*
X119179900Y-40983500D02*
X118605100Y-40408700D01*
X135978600Y-40983500D02*
X119179900Y-40983500D01*
D24*
%TO.N,GND*%
X128997700Y-47380500D02*
X129828200Y-46550000D01*
X129828200Y-46550000D02*
X132089700Y-46550000D01*
X132089700Y-47399700D02*
X132089700Y-46550000D01*
X126479800Y-28246800D02*
X126479800Y-27906700D01*
X138440000Y-53750000D02*
X132089700Y-47399700D01*
X128922500Y-25464000D02*
X138620000Y-25464000D01*
X126479800Y-27906700D02*
X128922500Y-25464000D01*
X126555000Y-28322000D02*
X126479800Y-28246800D01*
%TD*%
M02*
