%TF.GenerationSoftware,KiCad,Pcbnew,9.0.2*%
%TF.CreationDate,2025-12-03T23:59:17+09:00*%
%TF.ProjectId,FrostOrtho_L,46726f73-744f-4727-9468-6f5f4c2e6b69,rev?*%
%TF.SameCoordinates,Original*%
%TF.FileFunction,Legend,Bot*%
%TF.FilePolarity,Positive*%
%FSLAX46Y46*%
G04 Gerber Fmt 4.6, Leading zero omitted, Abs format (unit mm)*
G04 Created by KiCad (PCBNEW 9.0.2) date 2025-12-03 23:59:17*
%MOMM*%
%LPD*%
G01*
G04 APERTURE LIST*
%ADD10C,0.200000*%
%ADD11C,0.150000*%
%ADD12R,1.200000X0.950000*%
%ADD13C,1.900000*%
%ADD14C,3.100000*%
%ADD15C,1.700000*%
%ADD16C,5.000000*%
%ADD17C,1.000000*%
%ADD18R,2.600000X2.600000*%
%ADD19O,2.750000X1.800000*%
%ADD20C,1.500000*%
%ADD21C,4.350000*%
%ADD22C,0.900000*%
G04 APERTURE END LIST*
D10*
%TO.C,D17*%
X111359343Y-23000000D02*
X111557781Y-23000000D01*
X111557781Y-22404686D02*
X111557781Y-23595314D01*
X111557781Y-23595314D02*
X113145285Y-23595314D01*
X111954657Y-23595314D02*
X111954657Y-22404686D01*
X113145285Y-22404686D02*
X111557781Y-22404686D01*
X113145285Y-23000000D02*
X113343723Y-23000000D01*
X113145285Y-23595314D02*
X113145285Y-22404686D01*
%TO.C,D15*%
X94359343Y-57000000D02*
X94557781Y-57000000D01*
X94557781Y-56404686D02*
X94557781Y-57595314D01*
X94557781Y-57595314D02*
X96145285Y-57595314D01*
X94954657Y-57595314D02*
X94954657Y-56404686D01*
X96145285Y-56404686D02*
X94557781Y-56404686D01*
X96145285Y-57000000D02*
X96343723Y-57000000D01*
X96145285Y-57595314D02*
X96145285Y-56404686D01*
D11*
%TO.C,SW17*%
X104700000Y-30900000D02*
X104700000Y-33500000D01*
X104700000Y-30900000D02*
X105725000Y-29875000D01*
X104700000Y-33500000D02*
X105725000Y-34525000D01*
X104850000Y-33650000D02*
X104850000Y-30750000D01*
X105000000Y-33750000D02*
X105000000Y-30600000D01*
X105150000Y-33950000D02*
X105150000Y-30450000D01*
X105300000Y-34100000D02*
X105300000Y-30300000D01*
X105450000Y-34250000D02*
X105450000Y-30150000D01*
X105600000Y-34350000D02*
X105600000Y-30000000D01*
X105750000Y-34500000D02*
X105750000Y-29900000D01*
X105900000Y-34500000D02*
X105900000Y-29900000D01*
X106050000Y-34500000D02*
X106050000Y-29900000D01*
X106200000Y-34500000D02*
X106200000Y-29900000D01*
X106350000Y-34500000D02*
X106350000Y-29900000D01*
X106500000Y-34500000D02*
X106500000Y-29900000D01*
X106650000Y-34500000D02*
X106650000Y-29900000D01*
X106800000Y-34500000D02*
X106800000Y-29900000D01*
X106950000Y-34500000D02*
X106950000Y-29900000D01*
X107100000Y-34500000D02*
X107100000Y-29900000D01*
X107250000Y-34500000D02*
X107250000Y-29900000D01*
X107400000Y-34500000D02*
X107400000Y-29900000D01*
X107550000Y-34500000D02*
X107550000Y-29900000D01*
X107700000Y-34500000D02*
X107700000Y-29900000D01*
X107700000Y-34525000D02*
X105725000Y-34525000D01*
X107850000Y-34500000D02*
X107850000Y-29950000D01*
X108000000Y-34550000D02*
X108000000Y-29900000D01*
X108150000Y-34550000D02*
X108150000Y-29900000D01*
X108275000Y-29875000D02*
X105725000Y-29875000D01*
X108275000Y-29875000D02*
X109550000Y-30900000D01*
X108300000Y-34550000D02*
X108300000Y-29950000D01*
X108450000Y-34600000D02*
X108450000Y-30050000D01*
X108600000Y-34700000D02*
X108600000Y-30150000D01*
X108750000Y-34750000D02*
X108750000Y-30300000D01*
X108900000Y-34850000D02*
X108900000Y-30400000D01*
X109050000Y-34950000D02*
X109050000Y-30550000D01*
X109200000Y-35050000D02*
X109200000Y-30650000D01*
X109350000Y-35200000D02*
X109350000Y-30750000D01*
X109500000Y-35350000D02*
X109500000Y-30900000D01*
X109600000Y-35550000D02*
X109600000Y-31400000D01*
X109700000Y-35700000D02*
X109700000Y-31550000D01*
X109800000Y-35900000D02*
X109800000Y-31750000D01*
X109900000Y-36050000D02*
X109900000Y-31850000D01*
X110000000Y-36300000D02*
X110000000Y-31900000D01*
X110100000Y-36450000D02*
X110100000Y-31950000D01*
X110250000Y-36550000D02*
X110250000Y-32000000D01*
X110400000Y-36650000D02*
X110400000Y-32100000D01*
X110550000Y-36700000D02*
X110550000Y-32100000D01*
X110700000Y-36700000D02*
X110700000Y-32100000D01*
X110850000Y-36700000D02*
X110850000Y-32150000D01*
X111000000Y-36700000D02*
X111000000Y-32100000D01*
X111150000Y-36700000D02*
X111150000Y-32100000D01*
X111300000Y-36700000D02*
X111300000Y-32100000D01*
X111450000Y-36700000D02*
X111450000Y-32100000D01*
X111600000Y-36700000D02*
X111600000Y-32100000D01*
X111750000Y-36700000D02*
X111750000Y-32100000D01*
X111900000Y-36700000D02*
X111900000Y-32100000D01*
X112050000Y-36700000D02*
X112050000Y-32100000D01*
X112200000Y-36700000D02*
X112200000Y-32100000D01*
X112350000Y-36700000D02*
X112350000Y-32100000D01*
X112500000Y-36700000D02*
X112500000Y-32100000D01*
X112650000Y-36700000D02*
X112650000Y-32100000D01*
X112800000Y-36700000D02*
X112800000Y-32100000D01*
X112950000Y-36700000D02*
X112950000Y-32100000D01*
X113100000Y-36700000D02*
X113100000Y-32100000D01*
X113250000Y-36700000D02*
X113250000Y-32100000D01*
X113300000Y-32075000D02*
X110725000Y-32075000D01*
X113300000Y-36725000D02*
X110700000Y-36725000D01*
X113400000Y-36700000D02*
X113400000Y-32150000D01*
X113550000Y-36650000D02*
X113550000Y-32150000D01*
X113700000Y-36600000D02*
X113700000Y-32200000D01*
X113850000Y-36500000D02*
X113850000Y-32300000D01*
X113950000Y-36400000D02*
X113950000Y-32450000D01*
X114050000Y-36300000D02*
X114050000Y-32550000D01*
X114150000Y-36150000D02*
X114150000Y-32600000D01*
X114300000Y-33075000D02*
X114300000Y-35725000D01*
X107700000Y-34525000D02*
G75*
G02*
X109837801Y-36021904I-1J-2275002D01*
G01*
X110699005Y-36723791D02*
G75*
G02*
X109837801Y-36021904I38796J926887D01*
G01*
X110725000Y-32075000D02*
G75*
G02*
X109550000Y-30900000I2J1175002D01*
G01*
X113300000Y-32075000D02*
G75*
G02*
X114300000Y-33075000I0J-1000000D01*
G01*
X114300000Y-35725000D02*
G75*
G02*
X113300000Y-36725000I-1000000J0D01*
G01*
%TO.C,SW1*%
X41700000Y-23925000D02*
X41700000Y-21275000D01*
X41850000Y-20850000D02*
X41850000Y-24400000D01*
X41950000Y-20700000D02*
X41950000Y-24450000D01*
X42050000Y-20600000D02*
X42050000Y-24550000D01*
X42150000Y-20500000D02*
X42150000Y-24700000D01*
X42300000Y-20400000D02*
X42300000Y-24800000D01*
X42450000Y-20350000D02*
X42450000Y-24850000D01*
X42600000Y-20300000D02*
X42600000Y-24850000D01*
X42700000Y-20275000D02*
X45300000Y-20275000D01*
X42700000Y-24925000D02*
X45275000Y-24925000D01*
X42750000Y-20300000D02*
X42750000Y-24900000D01*
X42900000Y-20300000D02*
X42900000Y-24900000D01*
X43050000Y-20300000D02*
X43050000Y-24900000D01*
X43200000Y-20300000D02*
X43200000Y-24900000D01*
X43350000Y-20300000D02*
X43350000Y-24900000D01*
X43500000Y-20300000D02*
X43500000Y-24900000D01*
X43650000Y-20300000D02*
X43650000Y-24900000D01*
X43800000Y-20300000D02*
X43800000Y-24900000D01*
X43950000Y-20300000D02*
X43950000Y-24900000D01*
X44100000Y-20300000D02*
X44100000Y-24900000D01*
X44250000Y-20300000D02*
X44250000Y-24900000D01*
X44400000Y-20300000D02*
X44400000Y-24900000D01*
X44550000Y-20300000D02*
X44550000Y-24900000D01*
X44700000Y-20300000D02*
X44700000Y-24900000D01*
X44850000Y-20300000D02*
X44850000Y-24900000D01*
X45000000Y-20300000D02*
X45000000Y-24900000D01*
X45150000Y-20300000D02*
X45150000Y-24850000D01*
X45300000Y-20300000D02*
X45300000Y-24900000D01*
X45450000Y-20300000D02*
X45450000Y-24900000D01*
X45600000Y-20350000D02*
X45600000Y-24900000D01*
X45750000Y-20450000D02*
X45750000Y-25000000D01*
X45900000Y-20550000D02*
X45900000Y-25050000D01*
X46000000Y-20700000D02*
X46000000Y-25100000D01*
X46100000Y-20950000D02*
X46100000Y-25150000D01*
X46200000Y-21100000D02*
X46200000Y-25250000D01*
X46300000Y-21300000D02*
X46300000Y-25450000D01*
X46400000Y-21450000D02*
X46400000Y-25600000D01*
X46500000Y-21650000D02*
X46500000Y-26100000D01*
X46650000Y-21800000D02*
X46650000Y-26250000D01*
X46800000Y-21950000D02*
X46800000Y-26350000D01*
X46950000Y-22050000D02*
X46950000Y-26450000D01*
X47100000Y-22150000D02*
X47100000Y-26600000D01*
X47250000Y-22250000D02*
X47250000Y-26700000D01*
X47400000Y-22300000D02*
X47400000Y-26850000D01*
X47550000Y-22400000D02*
X47550000Y-26950000D01*
X47700000Y-22450000D02*
X47700000Y-27050000D01*
X47725000Y-27125000D02*
X46450000Y-26100000D01*
X47725000Y-27125000D02*
X50275000Y-27125000D01*
X47850000Y-22450000D02*
X47850000Y-27100000D01*
X48000000Y-22450000D02*
X48000000Y-27100000D01*
X48150000Y-22500000D02*
X48150000Y-27050000D01*
X48300000Y-22475000D02*
X50275000Y-22475000D01*
X48300000Y-22500000D02*
X48300000Y-27100000D01*
X48450000Y-22500000D02*
X48450000Y-27100000D01*
X48600000Y-22500000D02*
X48600000Y-27100000D01*
X48750000Y-22500000D02*
X48750000Y-27100000D01*
X48900000Y-22500000D02*
X48900000Y-27100000D01*
X49050000Y-22500000D02*
X49050000Y-27100000D01*
X49200000Y-22500000D02*
X49200000Y-27100000D01*
X49350000Y-22500000D02*
X49350000Y-27100000D01*
X49500000Y-22500000D02*
X49500000Y-27100000D01*
X49650000Y-22500000D02*
X49650000Y-27100000D01*
X49800000Y-22500000D02*
X49800000Y-27100000D01*
X49950000Y-22500000D02*
X49950000Y-27100000D01*
X50100000Y-22500000D02*
X50100000Y-27100000D01*
X50250000Y-22500000D02*
X50250000Y-27100000D01*
X50400000Y-22650000D02*
X50400000Y-27000000D01*
X50550000Y-22750000D02*
X50550000Y-26850000D01*
X50700000Y-22900000D02*
X50700000Y-26700000D01*
X50850000Y-23050000D02*
X50850000Y-26550000D01*
X51000000Y-23250000D02*
X51000000Y-26400000D01*
X51150000Y-23350000D02*
X51150000Y-26250000D01*
X51300000Y-23500000D02*
X50275000Y-22475000D01*
X51300000Y-26100000D02*
X50275000Y-27125000D01*
X51300000Y-26100000D02*
X51300000Y-23500000D01*
X41700000Y-21275000D02*
G75*
G02*
X42700000Y-20275000I1000000J0D01*
G01*
X42700000Y-24925000D02*
G75*
G02*
X41700000Y-23925000I0J1000000D01*
G01*
X45275000Y-24925000D02*
G75*
G02*
X46450000Y-26100000I-2J-1175002D01*
G01*
X45300995Y-20276209D02*
G75*
G02*
X46162199Y-20978096I-38796J-926887D01*
G01*
X48300000Y-22475000D02*
G75*
G02*
X46162199Y-20978096I1J2275002D01*
G01*
D10*
%TO.C,D19*%
X111359343Y-56975000D02*
X111557781Y-56975000D01*
X111557781Y-56379686D02*
X111557781Y-57570314D01*
X111557781Y-57570314D02*
X113145285Y-57570314D01*
X111954657Y-57570314D02*
X111954657Y-56379686D01*
X113145285Y-56379686D02*
X111557781Y-56379686D01*
X113145285Y-56975000D02*
X113343723Y-56975000D01*
X113145285Y-57570314D02*
X113145285Y-56379686D01*
%TO.C,D22*%
X127859343Y-73500000D02*
X128057781Y-73500000D01*
X128057781Y-72904686D02*
X128057781Y-74095314D01*
X128057781Y-74095314D02*
X129645285Y-74095314D01*
X128454657Y-74095314D02*
X128454657Y-72904686D01*
X129645285Y-72904686D02*
X128057781Y-72904686D01*
X129645285Y-73500000D02*
X129843723Y-73500000D01*
X129645285Y-74095314D02*
X129645285Y-72904686D01*
D11*
%TO.C,SW15*%
X87700000Y-64900000D02*
X87700000Y-67500000D01*
X87700000Y-64900000D02*
X88725000Y-63875000D01*
X87700000Y-67500000D02*
X88725000Y-68525000D01*
X87850000Y-67650000D02*
X87850000Y-64750000D01*
X88000000Y-67750000D02*
X88000000Y-64600000D01*
X88150000Y-67950000D02*
X88150000Y-64450000D01*
X88300000Y-68100000D02*
X88300000Y-64300000D01*
X88450000Y-68250000D02*
X88450000Y-64150000D01*
X88600000Y-68350000D02*
X88600000Y-64000000D01*
X88750000Y-68500000D02*
X88750000Y-63900000D01*
X88900000Y-68500000D02*
X88900000Y-63900000D01*
X89050000Y-68500000D02*
X89050000Y-63900000D01*
X89200000Y-68500000D02*
X89200000Y-63900000D01*
X89350000Y-68500000D02*
X89350000Y-63900000D01*
X89500000Y-68500000D02*
X89500000Y-63900000D01*
X89650000Y-68500000D02*
X89650000Y-63900000D01*
X89800000Y-68500000D02*
X89800000Y-63900000D01*
X89950000Y-68500000D02*
X89950000Y-63900000D01*
X90100000Y-68500000D02*
X90100000Y-63900000D01*
X90250000Y-68500000D02*
X90250000Y-63900000D01*
X90400000Y-68500000D02*
X90400000Y-63900000D01*
X90550000Y-68500000D02*
X90550000Y-63900000D01*
X90700000Y-68500000D02*
X90700000Y-63900000D01*
X90700000Y-68525000D02*
X88725000Y-68525000D01*
X90850000Y-68500000D02*
X90850000Y-63950000D01*
X91000000Y-68550000D02*
X91000000Y-63900000D01*
X91150000Y-68550000D02*
X91150000Y-63900000D01*
X91275000Y-63875000D02*
X88725000Y-63875000D01*
X91275000Y-63875000D02*
X92550000Y-64900000D01*
X91300000Y-68550000D02*
X91300000Y-63950000D01*
X91450000Y-68600000D02*
X91450000Y-64050000D01*
X91600000Y-68700000D02*
X91600000Y-64150000D01*
X91750000Y-68750000D02*
X91750000Y-64300000D01*
X91900000Y-68850000D02*
X91900000Y-64400000D01*
X92050000Y-68950000D02*
X92050000Y-64550000D01*
X92200000Y-69050000D02*
X92200000Y-64650000D01*
X92350000Y-69200000D02*
X92350000Y-64750000D01*
X92500000Y-69350000D02*
X92500000Y-64900000D01*
X92600000Y-69550000D02*
X92600000Y-65400000D01*
X92700000Y-69700000D02*
X92700000Y-65550000D01*
X92800000Y-69900000D02*
X92800000Y-65750000D01*
X92900000Y-70050000D02*
X92900000Y-65850000D01*
X93000000Y-70300000D02*
X93000000Y-65900000D01*
X93100000Y-70450000D02*
X93100000Y-65950000D01*
X93250000Y-70550000D02*
X93250000Y-66000000D01*
X93400000Y-70650000D02*
X93400000Y-66100000D01*
X93550000Y-70700000D02*
X93550000Y-66100000D01*
X93700000Y-70700000D02*
X93700000Y-66100000D01*
X93850000Y-70700000D02*
X93850000Y-66150000D01*
X94000000Y-70700000D02*
X94000000Y-66100000D01*
X94150000Y-70700000D02*
X94150000Y-66100000D01*
X94300000Y-70700000D02*
X94300000Y-66100000D01*
X94450000Y-70700000D02*
X94450000Y-66100000D01*
X94600000Y-70700000D02*
X94600000Y-66100000D01*
X94750000Y-70700000D02*
X94750000Y-66100000D01*
X94900000Y-70700000D02*
X94900000Y-66100000D01*
X95050000Y-70700000D02*
X95050000Y-66100000D01*
X95200000Y-70700000D02*
X95200000Y-66100000D01*
X95350000Y-70700000D02*
X95350000Y-66100000D01*
X95500000Y-70700000D02*
X95500000Y-66100000D01*
X95650000Y-70700000D02*
X95650000Y-66100000D01*
X95800000Y-70700000D02*
X95800000Y-66100000D01*
X95950000Y-70700000D02*
X95950000Y-66100000D01*
X96100000Y-70700000D02*
X96100000Y-66100000D01*
X96250000Y-70700000D02*
X96250000Y-66100000D01*
X96300000Y-66075000D02*
X93725000Y-66075000D01*
X96300000Y-70725000D02*
X93700000Y-70725000D01*
X96400000Y-70700000D02*
X96400000Y-66150000D01*
X96550000Y-70650000D02*
X96550000Y-66150000D01*
X96700000Y-70600000D02*
X96700000Y-66200000D01*
X96850000Y-70500000D02*
X96850000Y-66300000D01*
X96950000Y-70400000D02*
X96950000Y-66450000D01*
X97050000Y-70300000D02*
X97050000Y-66550000D01*
X97150000Y-70150000D02*
X97150000Y-66600000D01*
X97300000Y-67075000D02*
X97300000Y-69725000D01*
X90700000Y-68525000D02*
G75*
G02*
X92837801Y-70021904I-1J-2275002D01*
G01*
X93699005Y-70723791D02*
G75*
G02*
X92837801Y-70021904I38796J926887D01*
G01*
X93725000Y-66075000D02*
G75*
G02*
X92550000Y-64900000I2J1175002D01*
G01*
X96300000Y-66075000D02*
G75*
G02*
X97300000Y-67075000I0J-1000000D01*
G01*
X97300000Y-69725000D02*
G75*
G02*
X96300000Y-70725000I-1000000J0D01*
G01*
D10*
%TO.C,D11*%
X77359343Y-57000000D02*
X77557781Y-57000000D01*
X77557781Y-56404686D02*
X77557781Y-57595314D01*
X77557781Y-57595314D02*
X79145285Y-57595314D01*
X77954657Y-57595314D02*
X77954657Y-56404686D01*
X79145285Y-56404686D02*
X77557781Y-56404686D01*
X79145285Y-57000000D02*
X79343723Y-57000000D01*
X79145285Y-57595314D02*
X79145285Y-56404686D01*
D11*
%TO.C,SW14*%
X87700000Y-47900000D02*
X87700000Y-50500000D01*
X87700000Y-47900000D02*
X88725000Y-46875000D01*
X87700000Y-50500000D02*
X88725000Y-51525000D01*
X87850000Y-50650000D02*
X87850000Y-47750000D01*
X88000000Y-50750000D02*
X88000000Y-47600000D01*
X88150000Y-50950000D02*
X88150000Y-47450000D01*
X88300000Y-51100000D02*
X88300000Y-47300000D01*
X88450000Y-51250000D02*
X88450000Y-47150000D01*
X88600000Y-51350000D02*
X88600000Y-47000000D01*
X88750000Y-51500000D02*
X88750000Y-46900000D01*
X88900000Y-51500000D02*
X88900000Y-46900000D01*
X89050000Y-51500000D02*
X89050000Y-46900000D01*
X89200000Y-51500000D02*
X89200000Y-46900000D01*
X89350000Y-51500000D02*
X89350000Y-46900000D01*
X89500000Y-51500000D02*
X89500000Y-46900000D01*
X89650000Y-51500000D02*
X89650000Y-46900000D01*
X89800000Y-51500000D02*
X89800000Y-46900000D01*
X89950000Y-51500000D02*
X89950000Y-46900000D01*
X90100000Y-51500000D02*
X90100000Y-46900000D01*
X90250000Y-51500000D02*
X90250000Y-46900000D01*
X90400000Y-51500000D02*
X90400000Y-46900000D01*
X90550000Y-51500000D02*
X90550000Y-46900000D01*
X90700000Y-51500000D02*
X90700000Y-46900000D01*
X90700000Y-51525000D02*
X88725000Y-51525000D01*
X90850000Y-51500000D02*
X90850000Y-46950000D01*
X91000000Y-51550000D02*
X91000000Y-46900000D01*
X91150000Y-51550000D02*
X91150000Y-46900000D01*
X91275000Y-46875000D02*
X88725000Y-46875000D01*
X91275000Y-46875000D02*
X92550000Y-47900000D01*
X91300000Y-51550000D02*
X91300000Y-46950000D01*
X91450000Y-51600000D02*
X91450000Y-47050000D01*
X91600000Y-51700000D02*
X91600000Y-47150000D01*
X91750000Y-51750000D02*
X91750000Y-47300000D01*
X91900000Y-51850000D02*
X91900000Y-47400000D01*
X92050000Y-51950000D02*
X92050000Y-47550000D01*
X92200000Y-52050000D02*
X92200000Y-47650000D01*
X92350000Y-52200000D02*
X92350000Y-47750000D01*
X92500000Y-52350000D02*
X92500000Y-47900000D01*
X92600000Y-52550000D02*
X92600000Y-48400000D01*
X92700000Y-52700000D02*
X92700000Y-48550000D01*
X92800000Y-52900000D02*
X92800000Y-48750000D01*
X92900000Y-53050000D02*
X92900000Y-48850000D01*
X93000000Y-53300000D02*
X93000000Y-48900000D01*
X93100000Y-53450000D02*
X93100000Y-48950000D01*
X93250000Y-53550000D02*
X93250000Y-49000000D01*
X93400000Y-53650000D02*
X93400000Y-49100000D01*
X93550000Y-53700000D02*
X93550000Y-49100000D01*
X93700000Y-53700000D02*
X93700000Y-49100000D01*
X93850000Y-53700000D02*
X93850000Y-49150000D01*
X94000000Y-53700000D02*
X94000000Y-49100000D01*
X94150000Y-53700000D02*
X94150000Y-49100000D01*
X94300000Y-53700000D02*
X94300000Y-49100000D01*
X94450000Y-53700000D02*
X94450000Y-49100000D01*
X94600000Y-53700000D02*
X94600000Y-49100000D01*
X94750000Y-53700000D02*
X94750000Y-49100000D01*
X94900000Y-53700000D02*
X94900000Y-49100000D01*
X95050000Y-53700000D02*
X95050000Y-49100000D01*
X95200000Y-53700000D02*
X95200000Y-49100000D01*
X95350000Y-53700000D02*
X95350000Y-49100000D01*
X95500000Y-53700000D02*
X95500000Y-49100000D01*
X95650000Y-53700000D02*
X95650000Y-49100000D01*
X95800000Y-53700000D02*
X95800000Y-49100000D01*
X95950000Y-53700000D02*
X95950000Y-49100000D01*
X96100000Y-53700000D02*
X96100000Y-49100000D01*
X96250000Y-53700000D02*
X96250000Y-49100000D01*
X96300000Y-49075000D02*
X93725000Y-49075000D01*
X96300000Y-53725000D02*
X93700000Y-53725000D01*
X96400000Y-53700000D02*
X96400000Y-49150000D01*
X96550000Y-53650000D02*
X96550000Y-49150000D01*
X96700000Y-53600000D02*
X96700000Y-49200000D01*
X96850000Y-53500000D02*
X96850000Y-49300000D01*
X96950000Y-53400000D02*
X96950000Y-49450000D01*
X97050000Y-53300000D02*
X97050000Y-49550000D01*
X97150000Y-53150000D02*
X97150000Y-49600000D01*
X97300000Y-50075000D02*
X97300000Y-52725000D01*
X90700000Y-51525000D02*
G75*
G02*
X92837801Y-53021904I-1J-2275002D01*
G01*
X93699005Y-53723791D02*
G75*
G02*
X92837801Y-53021904I38796J926887D01*
G01*
X93725000Y-49075000D02*
G75*
G02*
X92550000Y-47900000I2J1175002D01*
G01*
X96300000Y-49075000D02*
G75*
G02*
X97300000Y-50075000I0J-1000000D01*
G01*
X97300000Y-52725000D02*
G75*
G02*
X96300000Y-53725000I-1000000J0D01*
G01*
%TO.C,SW8*%
X53700000Y-81900000D02*
X53700000Y-84500000D01*
X53700000Y-81900000D02*
X54725000Y-80875000D01*
X53700000Y-84500000D02*
X54725000Y-85525000D01*
X53850000Y-84650000D02*
X53850000Y-81750000D01*
X54000000Y-84750000D02*
X54000000Y-81600000D01*
X54150000Y-84950000D02*
X54150000Y-81450000D01*
X54300000Y-85100000D02*
X54300000Y-81300000D01*
X54450000Y-85250000D02*
X54450000Y-81150000D01*
X54600000Y-85350000D02*
X54600000Y-81000000D01*
X54750000Y-85500000D02*
X54750000Y-80900000D01*
X54900000Y-85500000D02*
X54900000Y-80900000D01*
X55050000Y-85500000D02*
X55050000Y-80900000D01*
X55200000Y-85500000D02*
X55200000Y-80900000D01*
X55350000Y-85500000D02*
X55350000Y-80900000D01*
X55500000Y-85500000D02*
X55500000Y-80900000D01*
X55650000Y-85500000D02*
X55650000Y-80900000D01*
X55800000Y-85500000D02*
X55800000Y-80900000D01*
X55950000Y-85500000D02*
X55950000Y-80900000D01*
X56100000Y-85500000D02*
X56100000Y-80900000D01*
X56250000Y-85500000D02*
X56250000Y-80900000D01*
X56400000Y-85500000D02*
X56400000Y-80900000D01*
X56550000Y-85500000D02*
X56550000Y-80900000D01*
X56700000Y-85500000D02*
X56700000Y-80900000D01*
X56700000Y-85525000D02*
X54725000Y-85525000D01*
X56850000Y-85500000D02*
X56850000Y-80950000D01*
X57000000Y-85550000D02*
X57000000Y-80900000D01*
X57150000Y-85550000D02*
X57150000Y-80900000D01*
X57275000Y-80875000D02*
X54725000Y-80875000D01*
X57275000Y-80875000D02*
X58550000Y-81900000D01*
X57300000Y-85550000D02*
X57300000Y-80950000D01*
X57450000Y-85600000D02*
X57450000Y-81050000D01*
X57600000Y-85700000D02*
X57600000Y-81150000D01*
X57750000Y-85750000D02*
X57750000Y-81300000D01*
X57900000Y-85850000D02*
X57900000Y-81400000D01*
X58050000Y-85950000D02*
X58050000Y-81550000D01*
X58200000Y-86050000D02*
X58200000Y-81650000D01*
X58350000Y-86200000D02*
X58350000Y-81750000D01*
X58500000Y-86350000D02*
X58500000Y-81900000D01*
X58600000Y-86550000D02*
X58600000Y-82400000D01*
X58700000Y-86700000D02*
X58700000Y-82550000D01*
X58800000Y-86900000D02*
X58800000Y-82750000D01*
X58900000Y-87050000D02*
X58900000Y-82850000D01*
X59000000Y-87300000D02*
X59000000Y-82900000D01*
X59100000Y-87450000D02*
X59100000Y-82950000D01*
X59250000Y-87550000D02*
X59250000Y-83000000D01*
X59400000Y-87650000D02*
X59400000Y-83100000D01*
X59550000Y-87700000D02*
X59550000Y-83100000D01*
X59700000Y-87700000D02*
X59700000Y-83100000D01*
X59850000Y-87700000D02*
X59850000Y-83150000D01*
X60000000Y-87700000D02*
X60000000Y-83100000D01*
X60150000Y-87700000D02*
X60150000Y-83100000D01*
X60300000Y-87700000D02*
X60300000Y-83100000D01*
X60450000Y-87700000D02*
X60450000Y-83100000D01*
X60600000Y-87700000D02*
X60600000Y-83100000D01*
X60750000Y-87700000D02*
X60750000Y-83100000D01*
X60900000Y-87700000D02*
X60900000Y-83100000D01*
X61050000Y-87700000D02*
X61050000Y-83100000D01*
X61200000Y-87700000D02*
X61200000Y-83100000D01*
X61350000Y-87700000D02*
X61350000Y-83100000D01*
X61500000Y-87700000D02*
X61500000Y-83100000D01*
X61650000Y-87700000D02*
X61650000Y-83100000D01*
X61800000Y-87700000D02*
X61800000Y-83100000D01*
X61950000Y-87700000D02*
X61950000Y-83100000D01*
X62100000Y-87700000D02*
X62100000Y-83100000D01*
X62250000Y-87700000D02*
X62250000Y-83100000D01*
X62300000Y-83075000D02*
X59725000Y-83075000D01*
X62300000Y-87725000D02*
X59700000Y-87725000D01*
X62400000Y-87700000D02*
X62400000Y-83150000D01*
X62550000Y-87650000D02*
X62550000Y-83150000D01*
X62700000Y-87600000D02*
X62700000Y-83200000D01*
X62850000Y-87500000D02*
X62850000Y-83300000D01*
X62950000Y-87400000D02*
X62950000Y-83450000D01*
X63050000Y-87300000D02*
X63050000Y-83550000D01*
X63150000Y-87150000D02*
X63150000Y-83600000D01*
X63300000Y-84075000D02*
X63300000Y-86725000D01*
X56700000Y-85525000D02*
G75*
G02*
X58837801Y-87021904I-1J-2275002D01*
G01*
X59699005Y-87723791D02*
G75*
G02*
X58837801Y-87021904I38796J926887D01*
G01*
X59725000Y-83075000D02*
G75*
G02*
X58550000Y-81900000I2J1175002D01*
G01*
X62300000Y-83075000D02*
G75*
G02*
X63300000Y-84075000I0J-1000000D01*
G01*
X63300000Y-86725000D02*
G75*
G02*
X62300000Y-87725000I-1000000J0D01*
G01*
D10*
%TO.C,D5*%
X60359343Y-22975000D02*
X60557781Y-22975000D01*
X60557781Y-22379686D02*
X60557781Y-23570314D01*
X60557781Y-23570314D02*
X62145285Y-23570314D01*
X60954657Y-23570314D02*
X60954657Y-22379686D01*
X62145285Y-22379686D02*
X60557781Y-22379686D01*
X62145285Y-22975000D02*
X62343723Y-22975000D01*
X62145285Y-23570314D02*
X62145285Y-22379686D01*
%TO.C,D21*%
X127859343Y-57000000D02*
X128057781Y-57000000D01*
X128057781Y-56404686D02*
X128057781Y-57595314D01*
X128057781Y-57595314D02*
X129645285Y-57595314D01*
X128454657Y-57595314D02*
X128454657Y-56404686D01*
X129645285Y-56404686D02*
X128057781Y-56404686D01*
X129645285Y-57000000D02*
X129843723Y-57000000D01*
X129645285Y-57595314D02*
X129645285Y-56404686D01*
D11*
%TO.C,SW18*%
X104700000Y-47900000D02*
X104700000Y-50500000D01*
X104700000Y-47900000D02*
X105725000Y-46875000D01*
X104700000Y-50500000D02*
X105725000Y-51525000D01*
X104850000Y-50650000D02*
X104850000Y-47750000D01*
X105000000Y-50750000D02*
X105000000Y-47600000D01*
X105150000Y-50950000D02*
X105150000Y-47450000D01*
X105300000Y-51100000D02*
X105300000Y-47300000D01*
X105450000Y-51250000D02*
X105450000Y-47150000D01*
X105600000Y-51350000D02*
X105600000Y-47000000D01*
X105750000Y-51500000D02*
X105750000Y-46900000D01*
X105900000Y-51500000D02*
X105900000Y-46900000D01*
X106050000Y-51500000D02*
X106050000Y-46900000D01*
X106200000Y-51500000D02*
X106200000Y-46900000D01*
X106350000Y-51500000D02*
X106350000Y-46900000D01*
X106500000Y-51500000D02*
X106500000Y-46900000D01*
X106650000Y-51500000D02*
X106650000Y-46900000D01*
X106800000Y-51500000D02*
X106800000Y-46900000D01*
X106950000Y-51500000D02*
X106950000Y-46900000D01*
X107100000Y-51500000D02*
X107100000Y-46900000D01*
X107250000Y-51500000D02*
X107250000Y-46900000D01*
X107400000Y-51500000D02*
X107400000Y-46900000D01*
X107550000Y-51500000D02*
X107550000Y-46900000D01*
X107700000Y-51500000D02*
X107700000Y-46900000D01*
X107700000Y-51525000D02*
X105725000Y-51525000D01*
X107850000Y-51500000D02*
X107850000Y-46950000D01*
X108000000Y-51550000D02*
X108000000Y-46900000D01*
X108150000Y-51550000D02*
X108150000Y-46900000D01*
X108275000Y-46875000D02*
X105725000Y-46875000D01*
X108275000Y-46875000D02*
X109550000Y-47900000D01*
X108300000Y-51550000D02*
X108300000Y-46950000D01*
X108450000Y-51600000D02*
X108450000Y-47050000D01*
X108600000Y-51700000D02*
X108600000Y-47150000D01*
X108750000Y-51750000D02*
X108750000Y-47300000D01*
X108900000Y-51850000D02*
X108900000Y-47400000D01*
X109050000Y-51950000D02*
X109050000Y-47550000D01*
X109200000Y-52050000D02*
X109200000Y-47650000D01*
X109350000Y-52200000D02*
X109350000Y-47750000D01*
X109500000Y-52350000D02*
X109500000Y-47900000D01*
X109600000Y-52550000D02*
X109600000Y-48400000D01*
X109700000Y-52700000D02*
X109700000Y-48550000D01*
X109800000Y-52900000D02*
X109800000Y-48750000D01*
X109900000Y-53050000D02*
X109900000Y-48850000D01*
X110000000Y-53300000D02*
X110000000Y-48900000D01*
X110100000Y-53450000D02*
X110100000Y-48950000D01*
X110250000Y-53550000D02*
X110250000Y-49000000D01*
X110400000Y-53650000D02*
X110400000Y-49100000D01*
X110550000Y-53700000D02*
X110550000Y-49100000D01*
X110700000Y-53700000D02*
X110700000Y-49100000D01*
X110850000Y-53700000D02*
X110850000Y-49150000D01*
X111000000Y-53700000D02*
X111000000Y-49100000D01*
X111150000Y-53700000D02*
X111150000Y-49100000D01*
X111300000Y-53700000D02*
X111300000Y-49100000D01*
X111450000Y-53700000D02*
X111450000Y-49100000D01*
X111600000Y-53700000D02*
X111600000Y-49100000D01*
X111750000Y-53700000D02*
X111750000Y-49100000D01*
X111900000Y-53700000D02*
X111900000Y-49100000D01*
X112050000Y-53700000D02*
X112050000Y-49100000D01*
X112200000Y-53700000D02*
X112200000Y-49100000D01*
X112350000Y-53700000D02*
X112350000Y-49100000D01*
X112500000Y-53700000D02*
X112500000Y-49100000D01*
X112650000Y-53700000D02*
X112650000Y-49100000D01*
X112800000Y-53700000D02*
X112800000Y-49100000D01*
X112950000Y-53700000D02*
X112950000Y-49100000D01*
X113100000Y-53700000D02*
X113100000Y-49100000D01*
X113250000Y-53700000D02*
X113250000Y-49100000D01*
X113300000Y-49075000D02*
X110725000Y-49075000D01*
X113300000Y-53725000D02*
X110700000Y-53725000D01*
X113400000Y-53700000D02*
X113400000Y-49150000D01*
X113550000Y-53650000D02*
X113550000Y-49150000D01*
X113700000Y-53600000D02*
X113700000Y-49200000D01*
X113850000Y-53500000D02*
X113850000Y-49300000D01*
X113950000Y-53400000D02*
X113950000Y-49450000D01*
X114050000Y-53300000D02*
X114050000Y-49550000D01*
X114150000Y-53150000D02*
X114150000Y-49600000D01*
X114300000Y-50075000D02*
X114300000Y-52725000D01*
X107700000Y-51525000D02*
G75*
G02*
X109837801Y-53021904I-1J-2275002D01*
G01*
X110699005Y-53723791D02*
G75*
G02*
X109837801Y-53021904I38796J926887D01*
G01*
X110725000Y-49075000D02*
G75*
G02*
X109550000Y-47900000I2J1175002D01*
G01*
X113300000Y-49075000D02*
G75*
G02*
X114300000Y-50075000I0J-1000000D01*
G01*
X114300000Y-52725000D02*
G75*
G02*
X113300000Y-53725000I-1000000J0D01*
G01*
D10*
%TO.C,D8*%
X60359343Y-74000000D02*
X60557781Y-74000000D01*
X60557781Y-73404686D02*
X60557781Y-74595314D01*
X60557781Y-74595314D02*
X62145285Y-74595314D01*
X60954657Y-74595314D02*
X60954657Y-73404686D01*
X62145285Y-73404686D02*
X60557781Y-73404686D01*
X62145285Y-74000000D02*
X62343723Y-74000000D01*
X62145285Y-74595314D02*
X62145285Y-73404686D01*
%TO.C,D16*%
X94359343Y-73500000D02*
X94557781Y-73500000D01*
X94557781Y-72904686D02*
X94557781Y-74095314D01*
X94557781Y-74095314D02*
X96145285Y-74095314D01*
X94954657Y-74095314D02*
X94954657Y-72904686D01*
X96145285Y-72904686D02*
X94557781Y-72904686D01*
X96145285Y-73500000D02*
X96343723Y-73500000D01*
X96145285Y-74095314D02*
X96145285Y-72904686D01*
D11*
%TO.C,SW2*%
X41700000Y-40925000D02*
X41700000Y-38275000D01*
X41850000Y-37850000D02*
X41850000Y-41400000D01*
X41950000Y-37700000D02*
X41950000Y-41450000D01*
X42050000Y-37600000D02*
X42050000Y-41550000D01*
X42150000Y-37500000D02*
X42150000Y-41700000D01*
X42300000Y-37400000D02*
X42300000Y-41800000D01*
X42450000Y-37350000D02*
X42450000Y-41850000D01*
X42600000Y-37300000D02*
X42600000Y-41850000D01*
X42700000Y-37275000D02*
X45300000Y-37275000D01*
X42700000Y-41925000D02*
X45275000Y-41925000D01*
X42750000Y-37300000D02*
X42750000Y-41900000D01*
X42900000Y-37300000D02*
X42900000Y-41900000D01*
X43050000Y-37300000D02*
X43050000Y-41900000D01*
X43200000Y-37300000D02*
X43200000Y-41900000D01*
X43350000Y-37300000D02*
X43350000Y-41900000D01*
X43500000Y-37300000D02*
X43500000Y-41900000D01*
X43650000Y-37300000D02*
X43650000Y-41900000D01*
X43800000Y-37300000D02*
X43800000Y-41900000D01*
X43950000Y-37300000D02*
X43950000Y-41900000D01*
X44100000Y-37300000D02*
X44100000Y-41900000D01*
X44250000Y-37300000D02*
X44250000Y-41900000D01*
X44400000Y-37300000D02*
X44400000Y-41900000D01*
X44550000Y-37300000D02*
X44550000Y-41900000D01*
X44700000Y-37300000D02*
X44700000Y-41900000D01*
X44850000Y-37300000D02*
X44850000Y-41900000D01*
X45000000Y-37300000D02*
X45000000Y-41900000D01*
X45150000Y-37300000D02*
X45150000Y-41850000D01*
X45300000Y-37300000D02*
X45300000Y-41900000D01*
X45450000Y-37300000D02*
X45450000Y-41900000D01*
X45600000Y-37350000D02*
X45600000Y-41900000D01*
X45750000Y-37450000D02*
X45750000Y-42000000D01*
X45900000Y-37550000D02*
X45900000Y-42050000D01*
X46000000Y-37700000D02*
X46000000Y-42100000D01*
X46100000Y-37950000D02*
X46100000Y-42150000D01*
X46200000Y-38100000D02*
X46200000Y-42250000D01*
X46300000Y-38300000D02*
X46300000Y-42450000D01*
X46400000Y-38450000D02*
X46400000Y-42600000D01*
X46500000Y-38650000D02*
X46500000Y-43100000D01*
X46650000Y-38800000D02*
X46650000Y-43250000D01*
X46800000Y-38950000D02*
X46800000Y-43350000D01*
X46950000Y-39050000D02*
X46950000Y-43450000D01*
X47100000Y-39150000D02*
X47100000Y-43600000D01*
X47250000Y-39250000D02*
X47250000Y-43700000D01*
X47400000Y-39300000D02*
X47400000Y-43850000D01*
X47550000Y-39400000D02*
X47550000Y-43950000D01*
X47700000Y-39450000D02*
X47700000Y-44050000D01*
X47725000Y-44125000D02*
X46450000Y-43100000D01*
X47725000Y-44125000D02*
X50275000Y-44125000D01*
X47850000Y-39450000D02*
X47850000Y-44100000D01*
X48000000Y-39450000D02*
X48000000Y-44100000D01*
X48150000Y-39500000D02*
X48150000Y-44050000D01*
X48300000Y-39475000D02*
X50275000Y-39475000D01*
X48300000Y-39500000D02*
X48300000Y-44100000D01*
X48450000Y-39500000D02*
X48450000Y-44100000D01*
X48600000Y-39500000D02*
X48600000Y-44100000D01*
X48750000Y-39500000D02*
X48750000Y-44100000D01*
X48900000Y-39500000D02*
X48900000Y-44100000D01*
X49050000Y-39500000D02*
X49050000Y-44100000D01*
X49200000Y-39500000D02*
X49200000Y-44100000D01*
X49350000Y-39500000D02*
X49350000Y-44100000D01*
X49500000Y-39500000D02*
X49500000Y-44100000D01*
X49650000Y-39500000D02*
X49650000Y-44100000D01*
X49800000Y-39500000D02*
X49800000Y-44100000D01*
X49950000Y-39500000D02*
X49950000Y-44100000D01*
X50100000Y-39500000D02*
X50100000Y-44100000D01*
X50250000Y-39500000D02*
X50250000Y-44100000D01*
X50400000Y-39650000D02*
X50400000Y-44000000D01*
X50550000Y-39750000D02*
X50550000Y-43850000D01*
X50700000Y-39900000D02*
X50700000Y-43700000D01*
X50850000Y-40050000D02*
X50850000Y-43550000D01*
X51000000Y-40250000D02*
X51000000Y-43400000D01*
X51150000Y-40350000D02*
X51150000Y-43250000D01*
X51300000Y-40500000D02*
X50275000Y-39475000D01*
X51300000Y-43100000D02*
X50275000Y-44125000D01*
X51300000Y-43100000D02*
X51300000Y-40500000D01*
X41700000Y-38275000D02*
G75*
G02*
X42700000Y-37275000I1000000J0D01*
G01*
X42700000Y-41925000D02*
G75*
G02*
X41700000Y-40925000I0J1000000D01*
G01*
X45275000Y-41925000D02*
G75*
G02*
X46450000Y-43100000I-2J-1175002D01*
G01*
X45300995Y-37276209D02*
G75*
G02*
X46162199Y-37978096I-38796J-926887D01*
G01*
X48300000Y-39475000D02*
G75*
G02*
X46162199Y-37978096I1J2275002D01*
G01*
D10*
%TO.C,D6*%
X60359343Y-40000000D02*
X60557781Y-40000000D01*
X60557781Y-39404686D02*
X60557781Y-40595314D01*
X60557781Y-40595314D02*
X62145285Y-40595314D01*
X60954657Y-40595314D02*
X60954657Y-39404686D01*
X62145285Y-39404686D02*
X60557781Y-39404686D01*
X62145285Y-40000000D02*
X62343723Y-40000000D01*
X62145285Y-40595314D02*
X62145285Y-39404686D01*
D11*
%TO.C,SW13*%
X87700000Y-30900000D02*
X87700000Y-33500000D01*
X87700000Y-30900000D02*
X88725000Y-29875000D01*
X87700000Y-33500000D02*
X88725000Y-34525000D01*
X87850000Y-33650000D02*
X87850000Y-30750000D01*
X88000000Y-33750000D02*
X88000000Y-30600000D01*
X88150000Y-33950000D02*
X88150000Y-30450000D01*
X88300000Y-34100000D02*
X88300000Y-30300000D01*
X88450000Y-34250000D02*
X88450000Y-30150000D01*
X88600000Y-34350000D02*
X88600000Y-30000000D01*
X88750000Y-34500000D02*
X88750000Y-29900000D01*
X88900000Y-34500000D02*
X88900000Y-29900000D01*
X89050000Y-34500000D02*
X89050000Y-29900000D01*
X89200000Y-34500000D02*
X89200000Y-29900000D01*
X89350000Y-34500000D02*
X89350000Y-29900000D01*
X89500000Y-34500000D02*
X89500000Y-29900000D01*
X89650000Y-34500000D02*
X89650000Y-29900000D01*
X89800000Y-34500000D02*
X89800000Y-29900000D01*
X89950000Y-34500000D02*
X89950000Y-29900000D01*
X90100000Y-34500000D02*
X90100000Y-29900000D01*
X90250000Y-34500000D02*
X90250000Y-29900000D01*
X90400000Y-34500000D02*
X90400000Y-29900000D01*
X90550000Y-34500000D02*
X90550000Y-29900000D01*
X90700000Y-34500000D02*
X90700000Y-29900000D01*
X90700000Y-34525000D02*
X88725000Y-34525000D01*
X90850000Y-34500000D02*
X90850000Y-29950000D01*
X91000000Y-34550000D02*
X91000000Y-29900000D01*
X91150000Y-34550000D02*
X91150000Y-29900000D01*
X91275000Y-29875000D02*
X88725000Y-29875000D01*
X91275000Y-29875000D02*
X92550000Y-30900000D01*
X91300000Y-34550000D02*
X91300000Y-29950000D01*
X91450000Y-34600000D02*
X91450000Y-30050000D01*
X91600000Y-34700000D02*
X91600000Y-30150000D01*
X91750000Y-34750000D02*
X91750000Y-30300000D01*
X91900000Y-34850000D02*
X91900000Y-30400000D01*
X92050000Y-34950000D02*
X92050000Y-30550000D01*
X92200000Y-35050000D02*
X92200000Y-30650000D01*
X92350000Y-35200000D02*
X92350000Y-30750000D01*
X92500000Y-35350000D02*
X92500000Y-30900000D01*
X92600000Y-35550000D02*
X92600000Y-31400000D01*
X92700000Y-35700000D02*
X92700000Y-31550000D01*
X92800000Y-35900000D02*
X92800000Y-31750000D01*
X92900000Y-36050000D02*
X92900000Y-31850000D01*
X93000000Y-36300000D02*
X93000000Y-31900000D01*
X93100000Y-36450000D02*
X93100000Y-31950000D01*
X93250000Y-36550000D02*
X93250000Y-32000000D01*
X93400000Y-36650000D02*
X93400000Y-32100000D01*
X93550000Y-36700000D02*
X93550000Y-32100000D01*
X93700000Y-36700000D02*
X93700000Y-32100000D01*
X93850000Y-36700000D02*
X93850000Y-32150000D01*
X94000000Y-36700000D02*
X94000000Y-32100000D01*
X94150000Y-36700000D02*
X94150000Y-32100000D01*
X94300000Y-36700000D02*
X94300000Y-32100000D01*
X94450000Y-36700000D02*
X94450000Y-32100000D01*
X94600000Y-36700000D02*
X94600000Y-32100000D01*
X94750000Y-36700000D02*
X94750000Y-32100000D01*
X94900000Y-36700000D02*
X94900000Y-32100000D01*
X95050000Y-36700000D02*
X95050000Y-32100000D01*
X95200000Y-36700000D02*
X95200000Y-32100000D01*
X95350000Y-36700000D02*
X95350000Y-32100000D01*
X95500000Y-36700000D02*
X95500000Y-32100000D01*
X95650000Y-36700000D02*
X95650000Y-32100000D01*
X95800000Y-36700000D02*
X95800000Y-32100000D01*
X95950000Y-36700000D02*
X95950000Y-32100000D01*
X96100000Y-36700000D02*
X96100000Y-32100000D01*
X96250000Y-36700000D02*
X96250000Y-32100000D01*
X96300000Y-32075000D02*
X93725000Y-32075000D01*
X96300000Y-36725000D02*
X93700000Y-36725000D01*
X96400000Y-36700000D02*
X96400000Y-32150000D01*
X96550000Y-36650000D02*
X96550000Y-32150000D01*
X96700000Y-36600000D02*
X96700000Y-32200000D01*
X96850000Y-36500000D02*
X96850000Y-32300000D01*
X96950000Y-36400000D02*
X96950000Y-32450000D01*
X97050000Y-36300000D02*
X97050000Y-32550000D01*
X97150000Y-36150000D02*
X97150000Y-32600000D01*
X97300000Y-33075000D02*
X97300000Y-35725000D01*
X90700000Y-34525000D02*
G75*
G02*
X92837801Y-36021904I-1J-2275002D01*
G01*
X93699005Y-36723791D02*
G75*
G02*
X92837801Y-36021904I38796J926887D01*
G01*
X93725000Y-32075000D02*
G75*
G02*
X92550000Y-30900000I2J1175002D01*
G01*
X96300000Y-32075000D02*
G75*
G02*
X97300000Y-33075000I0J-1000000D01*
G01*
X97300000Y-35725000D02*
G75*
G02*
X96300000Y-36725000I-1000000J0D01*
G01*
%TO.C,SW20*%
X104700000Y-81900000D02*
X104700000Y-84500000D01*
X104700000Y-81900000D02*
X105725000Y-80875000D01*
X104700000Y-84500000D02*
X105725000Y-85525000D01*
X104850000Y-84650000D02*
X104850000Y-81750000D01*
X105000000Y-84750000D02*
X105000000Y-81600000D01*
X105150000Y-84950000D02*
X105150000Y-81450000D01*
X105300000Y-85100000D02*
X105300000Y-81300000D01*
X105450000Y-85250000D02*
X105450000Y-81150000D01*
X105600000Y-85350000D02*
X105600000Y-81000000D01*
X105750000Y-85500000D02*
X105750000Y-80900000D01*
X105900000Y-85500000D02*
X105900000Y-80900000D01*
X106050000Y-85500000D02*
X106050000Y-80900000D01*
X106200000Y-85500000D02*
X106200000Y-80900000D01*
X106350000Y-85500000D02*
X106350000Y-80900000D01*
X106500000Y-85500000D02*
X106500000Y-80900000D01*
X106650000Y-85500000D02*
X106650000Y-80900000D01*
X106800000Y-85500000D02*
X106800000Y-80900000D01*
X106950000Y-85500000D02*
X106950000Y-80900000D01*
X107100000Y-85500000D02*
X107100000Y-80900000D01*
X107250000Y-85500000D02*
X107250000Y-80900000D01*
X107400000Y-85500000D02*
X107400000Y-80900000D01*
X107550000Y-85500000D02*
X107550000Y-80900000D01*
X107700000Y-85500000D02*
X107700000Y-80900000D01*
X107700000Y-85525000D02*
X105725000Y-85525000D01*
X107850000Y-85500000D02*
X107850000Y-80950000D01*
X108000000Y-85550000D02*
X108000000Y-80900000D01*
X108150000Y-85550000D02*
X108150000Y-80900000D01*
X108275000Y-80875000D02*
X105725000Y-80875000D01*
X108275000Y-80875000D02*
X109550000Y-81900000D01*
X108300000Y-85550000D02*
X108300000Y-80950000D01*
X108450000Y-85600000D02*
X108450000Y-81050000D01*
X108600000Y-85700000D02*
X108600000Y-81150000D01*
X108750000Y-85750000D02*
X108750000Y-81300000D01*
X108900000Y-85850000D02*
X108900000Y-81400000D01*
X109050000Y-85950000D02*
X109050000Y-81550000D01*
X109200000Y-86050000D02*
X109200000Y-81650000D01*
X109350000Y-86200000D02*
X109350000Y-81750000D01*
X109500000Y-86350000D02*
X109500000Y-81900000D01*
X109600000Y-86550000D02*
X109600000Y-82400000D01*
X109700000Y-86700000D02*
X109700000Y-82550000D01*
X109800000Y-86900000D02*
X109800000Y-82750000D01*
X109900000Y-87050000D02*
X109900000Y-82850000D01*
X110000000Y-87300000D02*
X110000000Y-82900000D01*
X110100000Y-87450000D02*
X110100000Y-82950000D01*
X110250000Y-87550000D02*
X110250000Y-83000000D01*
X110400000Y-87650000D02*
X110400000Y-83100000D01*
X110550000Y-87700000D02*
X110550000Y-83100000D01*
X110700000Y-87700000D02*
X110700000Y-83100000D01*
X110850000Y-87700000D02*
X110850000Y-83150000D01*
X111000000Y-87700000D02*
X111000000Y-83100000D01*
X111150000Y-87700000D02*
X111150000Y-83100000D01*
X111300000Y-87700000D02*
X111300000Y-83100000D01*
X111450000Y-87700000D02*
X111450000Y-83100000D01*
X111600000Y-87700000D02*
X111600000Y-83100000D01*
X111750000Y-87700000D02*
X111750000Y-83100000D01*
X111900000Y-87700000D02*
X111900000Y-83100000D01*
X112050000Y-87700000D02*
X112050000Y-83100000D01*
X112200000Y-87700000D02*
X112200000Y-83100000D01*
X112350000Y-87700000D02*
X112350000Y-83100000D01*
X112500000Y-87700000D02*
X112500000Y-83100000D01*
X112650000Y-87700000D02*
X112650000Y-83100000D01*
X112800000Y-87700000D02*
X112800000Y-83100000D01*
X112950000Y-87700000D02*
X112950000Y-83100000D01*
X113100000Y-87700000D02*
X113100000Y-83100000D01*
X113250000Y-87700000D02*
X113250000Y-83100000D01*
X113300000Y-83075000D02*
X110725000Y-83075000D01*
X113300000Y-87725000D02*
X110700000Y-87725000D01*
X113400000Y-87700000D02*
X113400000Y-83150000D01*
X113550000Y-87650000D02*
X113550000Y-83150000D01*
X113700000Y-87600000D02*
X113700000Y-83200000D01*
X113850000Y-87500000D02*
X113850000Y-83300000D01*
X113950000Y-87400000D02*
X113950000Y-83450000D01*
X114050000Y-87300000D02*
X114050000Y-83550000D01*
X114150000Y-87150000D02*
X114150000Y-83600000D01*
X114300000Y-84075000D02*
X114300000Y-86725000D01*
X107700000Y-85525000D02*
G75*
G02*
X109837801Y-87021904I-1J-2275002D01*
G01*
X110699005Y-87723791D02*
G75*
G02*
X109837801Y-87021904I38796J926887D01*
G01*
X110725000Y-83075000D02*
G75*
G02*
X109550000Y-81900000I2J1175002D01*
G01*
X113300000Y-83075000D02*
G75*
G02*
X114300000Y-84075000I0J-1000000D01*
G01*
X114300000Y-86725000D02*
G75*
G02*
X113300000Y-87725000I-1000000J0D01*
G01*
D10*
%TO.C,D20*%
X111359343Y-73500000D02*
X111557781Y-73500000D01*
X111557781Y-72904686D02*
X111557781Y-74095314D01*
X111557781Y-74095314D02*
X113145285Y-74095314D01*
X111954657Y-74095314D02*
X111954657Y-72904686D01*
X113145285Y-72904686D02*
X111557781Y-72904686D01*
X113145285Y-73500000D02*
X113343723Y-73500000D01*
X113145285Y-74095314D02*
X113145285Y-72904686D01*
D11*
%TO.C,SW3*%
X41700000Y-57900000D02*
X41700000Y-55250000D01*
X41850000Y-54825000D02*
X41850000Y-58375000D01*
X41950000Y-54675000D02*
X41950000Y-58425000D01*
X42050000Y-54575000D02*
X42050000Y-58525000D01*
X42150000Y-54475000D02*
X42150000Y-58675000D01*
X42300000Y-54375000D02*
X42300000Y-58775000D01*
X42450000Y-54325000D02*
X42450000Y-58825000D01*
X42600000Y-54275000D02*
X42600000Y-58825000D01*
X42700000Y-54250000D02*
X45300000Y-54250000D01*
X42700000Y-58900000D02*
X45275000Y-58900000D01*
X42750000Y-54275000D02*
X42750000Y-58875000D01*
X42900000Y-54275000D02*
X42900000Y-58875000D01*
X43050000Y-54275000D02*
X43050000Y-58875000D01*
X43200000Y-54275000D02*
X43200000Y-58875000D01*
X43350000Y-54275000D02*
X43350000Y-58875000D01*
X43500000Y-54275000D02*
X43500000Y-58875000D01*
X43650000Y-54275000D02*
X43650000Y-58875000D01*
X43800000Y-54275000D02*
X43800000Y-58875000D01*
X43950000Y-54275000D02*
X43950000Y-58875000D01*
X44100000Y-54275000D02*
X44100000Y-58875000D01*
X44250000Y-54275000D02*
X44250000Y-58875000D01*
X44400000Y-54275000D02*
X44400000Y-58875000D01*
X44550000Y-54275000D02*
X44550000Y-58875000D01*
X44700000Y-54275000D02*
X44700000Y-58875000D01*
X44850000Y-54275000D02*
X44850000Y-58875000D01*
X45000000Y-54275000D02*
X45000000Y-58875000D01*
X45150000Y-54275000D02*
X45150000Y-58825000D01*
X45300000Y-54275000D02*
X45300000Y-58875000D01*
X45450000Y-54275000D02*
X45450000Y-58875000D01*
X45600000Y-54325000D02*
X45600000Y-58875000D01*
X45750000Y-54425000D02*
X45750000Y-58975000D01*
X45900000Y-54525000D02*
X45900000Y-59025000D01*
X46000000Y-54675000D02*
X46000000Y-59075000D01*
X46100000Y-54925000D02*
X46100000Y-59125000D01*
X46200000Y-55075000D02*
X46200000Y-59225000D01*
X46300000Y-55275000D02*
X46300000Y-59425000D01*
X46400000Y-55425000D02*
X46400000Y-59575000D01*
X46500000Y-55625000D02*
X46500000Y-60075000D01*
X46650000Y-55775000D02*
X46650000Y-60225000D01*
X46800000Y-55925000D02*
X46800000Y-60325000D01*
X46950000Y-56025000D02*
X46950000Y-60425000D01*
X47100000Y-56125000D02*
X47100000Y-60575000D01*
X47250000Y-56225000D02*
X47250000Y-60675000D01*
X47400000Y-56275000D02*
X47400000Y-60825000D01*
X47550000Y-56375000D02*
X47550000Y-60925000D01*
X47700000Y-56425000D02*
X47700000Y-61025000D01*
X47725000Y-61100000D02*
X46450000Y-60075000D01*
X47725000Y-61100000D02*
X50275000Y-61100000D01*
X47850000Y-56425000D02*
X47850000Y-61075000D01*
X48000000Y-56425000D02*
X48000000Y-61075000D01*
X48150000Y-56475000D02*
X48150000Y-61025000D01*
X48300000Y-56450000D02*
X50275000Y-56450000D01*
X48300000Y-56475000D02*
X48300000Y-61075000D01*
X48450000Y-56475000D02*
X48450000Y-61075000D01*
X48600000Y-56475000D02*
X48600000Y-61075000D01*
X48750000Y-56475000D02*
X48750000Y-61075000D01*
X48900000Y-56475000D02*
X48900000Y-61075000D01*
X49050000Y-56475000D02*
X49050000Y-61075000D01*
X49200000Y-56475000D02*
X49200000Y-61075000D01*
X49350000Y-56475000D02*
X49350000Y-61075000D01*
X49500000Y-56475000D02*
X49500000Y-61075000D01*
X49650000Y-56475000D02*
X49650000Y-61075000D01*
X49800000Y-56475000D02*
X49800000Y-61075000D01*
X49950000Y-56475000D02*
X49950000Y-61075000D01*
X50100000Y-56475000D02*
X50100000Y-61075000D01*
X50250000Y-56475000D02*
X50250000Y-61075000D01*
X50400000Y-56625000D02*
X50400000Y-60975000D01*
X50550000Y-56725000D02*
X50550000Y-60825000D01*
X50700000Y-56875000D02*
X50700000Y-60675000D01*
X50850000Y-57025000D02*
X50850000Y-60525000D01*
X51000000Y-57225000D02*
X51000000Y-60375000D01*
X51150000Y-57325000D02*
X51150000Y-60225000D01*
X51300000Y-57475000D02*
X50275000Y-56450000D01*
X51300000Y-60075000D02*
X50275000Y-61100000D01*
X51300000Y-60075000D02*
X51300000Y-57475000D01*
X41700000Y-55250000D02*
G75*
G02*
X42700000Y-54250000I1000000J0D01*
G01*
X42700000Y-58900000D02*
G75*
G02*
X41700000Y-57900000I0J1000000D01*
G01*
X45275000Y-58900000D02*
G75*
G02*
X46450000Y-60075000I-2J-1175002D01*
G01*
X45300995Y-54251209D02*
G75*
G02*
X46162199Y-54953096I-38796J-926887D01*
G01*
X48300000Y-56450000D02*
G75*
G02*
X46162199Y-54953096I1J2275002D01*
G01*
%TO.C,SW19*%
X104700000Y-64900000D02*
X104700000Y-67500000D01*
X104700000Y-64900000D02*
X105725000Y-63875000D01*
X104700000Y-67500000D02*
X105725000Y-68525000D01*
X104850000Y-67650000D02*
X104850000Y-64750000D01*
X105000000Y-67750000D02*
X105000000Y-64600000D01*
X105150000Y-67950000D02*
X105150000Y-64450000D01*
X105300000Y-68100000D02*
X105300000Y-64300000D01*
X105450000Y-68250000D02*
X105450000Y-64150000D01*
X105600000Y-68350000D02*
X105600000Y-64000000D01*
X105750000Y-68500000D02*
X105750000Y-63900000D01*
X105900000Y-68500000D02*
X105900000Y-63900000D01*
X106050000Y-68500000D02*
X106050000Y-63900000D01*
X106200000Y-68500000D02*
X106200000Y-63900000D01*
X106350000Y-68500000D02*
X106350000Y-63900000D01*
X106500000Y-68500000D02*
X106500000Y-63900000D01*
X106650000Y-68500000D02*
X106650000Y-63900000D01*
X106800000Y-68500000D02*
X106800000Y-63900000D01*
X106950000Y-68500000D02*
X106950000Y-63900000D01*
X107100000Y-68500000D02*
X107100000Y-63900000D01*
X107250000Y-68500000D02*
X107250000Y-63900000D01*
X107400000Y-68500000D02*
X107400000Y-63900000D01*
X107550000Y-68500000D02*
X107550000Y-63900000D01*
X107700000Y-68500000D02*
X107700000Y-63900000D01*
X107700000Y-68525000D02*
X105725000Y-68525000D01*
X107850000Y-68500000D02*
X107850000Y-63950000D01*
X108000000Y-68550000D02*
X108000000Y-63900000D01*
X108150000Y-68550000D02*
X108150000Y-63900000D01*
X108275000Y-63875000D02*
X105725000Y-63875000D01*
X108275000Y-63875000D02*
X109550000Y-64900000D01*
X108300000Y-68550000D02*
X108300000Y-63950000D01*
X108450000Y-68600000D02*
X108450000Y-64050000D01*
X108600000Y-68700000D02*
X108600000Y-64150000D01*
X108750000Y-68750000D02*
X108750000Y-64300000D01*
X108900000Y-68850000D02*
X108900000Y-64400000D01*
X109050000Y-68950000D02*
X109050000Y-64550000D01*
X109200000Y-69050000D02*
X109200000Y-64650000D01*
X109350000Y-69200000D02*
X109350000Y-64750000D01*
X109500000Y-69350000D02*
X109500000Y-64900000D01*
X109600000Y-69550000D02*
X109600000Y-65400000D01*
X109700000Y-69700000D02*
X109700000Y-65550000D01*
X109800000Y-69900000D02*
X109800000Y-65750000D01*
X109900000Y-70050000D02*
X109900000Y-65850000D01*
X110000000Y-70300000D02*
X110000000Y-65900000D01*
X110100000Y-70450000D02*
X110100000Y-65950000D01*
X110250000Y-70550000D02*
X110250000Y-66000000D01*
X110400000Y-70650000D02*
X110400000Y-66100000D01*
X110550000Y-70700000D02*
X110550000Y-66100000D01*
X110700000Y-70700000D02*
X110700000Y-66100000D01*
X110850000Y-70700000D02*
X110850000Y-66150000D01*
X111000000Y-70700000D02*
X111000000Y-66100000D01*
X111150000Y-70700000D02*
X111150000Y-66100000D01*
X111300000Y-70700000D02*
X111300000Y-66100000D01*
X111450000Y-70700000D02*
X111450000Y-66100000D01*
X111600000Y-70700000D02*
X111600000Y-66100000D01*
X111750000Y-70700000D02*
X111750000Y-66100000D01*
X111900000Y-70700000D02*
X111900000Y-66100000D01*
X112050000Y-70700000D02*
X112050000Y-66100000D01*
X112200000Y-70700000D02*
X112200000Y-66100000D01*
X112350000Y-70700000D02*
X112350000Y-66100000D01*
X112500000Y-70700000D02*
X112500000Y-66100000D01*
X112650000Y-70700000D02*
X112650000Y-66100000D01*
X112800000Y-70700000D02*
X112800000Y-66100000D01*
X112950000Y-70700000D02*
X112950000Y-66100000D01*
X113100000Y-70700000D02*
X113100000Y-66100000D01*
X113250000Y-70700000D02*
X113250000Y-66100000D01*
X113300000Y-66075000D02*
X110725000Y-66075000D01*
X113300000Y-70725000D02*
X110700000Y-70725000D01*
X113400000Y-70700000D02*
X113400000Y-66150000D01*
X113550000Y-70650000D02*
X113550000Y-66150000D01*
X113700000Y-70600000D02*
X113700000Y-66200000D01*
X113850000Y-70500000D02*
X113850000Y-66300000D01*
X113950000Y-70400000D02*
X113950000Y-66450000D01*
X114050000Y-70300000D02*
X114050000Y-66550000D01*
X114150000Y-70150000D02*
X114150000Y-66600000D01*
X114300000Y-67075000D02*
X114300000Y-69725000D01*
X107700000Y-68525000D02*
G75*
G02*
X109837801Y-70021904I-1J-2275002D01*
G01*
X110699005Y-70723791D02*
G75*
G02*
X109837801Y-70021904I38796J926887D01*
G01*
X110725000Y-66075000D02*
G75*
G02*
X109550000Y-64900000I2J1175002D01*
G01*
X113300000Y-66075000D02*
G75*
G02*
X114300000Y-67075000I0J-1000000D01*
G01*
X114300000Y-69725000D02*
G75*
G02*
X113300000Y-70725000I-1000000J0D01*
G01*
%TO.C,SW7*%
X53700000Y-64890000D02*
X53700000Y-67490000D01*
X53700000Y-64890000D02*
X54725000Y-63865000D01*
X53700000Y-67490000D02*
X54725000Y-68515000D01*
X53850000Y-67640000D02*
X53850000Y-64740000D01*
X54000000Y-67740000D02*
X54000000Y-64590000D01*
X54150000Y-67940000D02*
X54150000Y-64440000D01*
X54300000Y-68090000D02*
X54300000Y-64290000D01*
X54450000Y-68240000D02*
X54450000Y-64140000D01*
X54600000Y-68340000D02*
X54600000Y-63990000D01*
X54750000Y-68490000D02*
X54750000Y-63890000D01*
X54900000Y-68490000D02*
X54900000Y-63890000D01*
X55050000Y-68490000D02*
X55050000Y-63890000D01*
X55200000Y-68490000D02*
X55200000Y-63890000D01*
X55350000Y-68490000D02*
X55350000Y-63890000D01*
X55500000Y-68490000D02*
X55500000Y-63890000D01*
X55650000Y-68490000D02*
X55650000Y-63890000D01*
X55800000Y-68490000D02*
X55800000Y-63890000D01*
X55950000Y-68490000D02*
X55950000Y-63890000D01*
X56100000Y-68490000D02*
X56100000Y-63890000D01*
X56250000Y-68490000D02*
X56250000Y-63890000D01*
X56400000Y-68490000D02*
X56400000Y-63890000D01*
X56550000Y-68490000D02*
X56550000Y-63890000D01*
X56700000Y-68490000D02*
X56700000Y-63890000D01*
X56700000Y-68515000D02*
X54725000Y-68515000D01*
X56850000Y-68490000D02*
X56850000Y-63940000D01*
X57000000Y-68540000D02*
X57000000Y-63890000D01*
X57150000Y-68540000D02*
X57150000Y-63890000D01*
X57275000Y-63865000D02*
X54725000Y-63865000D01*
X57275000Y-63865000D02*
X58550000Y-64890000D01*
X57300000Y-68540000D02*
X57300000Y-63940000D01*
X57450000Y-68590000D02*
X57450000Y-64040000D01*
X57600000Y-68690000D02*
X57600000Y-64140000D01*
X57750000Y-68740000D02*
X57750000Y-64290000D01*
X57900000Y-68840000D02*
X57900000Y-64390000D01*
X58050000Y-68940000D02*
X58050000Y-64540000D01*
X58200000Y-69040000D02*
X58200000Y-64640000D01*
X58350000Y-69190000D02*
X58350000Y-64740000D01*
X58500000Y-69340000D02*
X58500000Y-64890000D01*
X58600000Y-69540000D02*
X58600000Y-65390000D01*
X58700000Y-69690000D02*
X58700000Y-65540000D01*
X58800000Y-69890000D02*
X58800000Y-65740000D01*
X58900000Y-70040000D02*
X58900000Y-65840000D01*
X59000000Y-70290000D02*
X59000000Y-65890000D01*
X59100000Y-70440000D02*
X59100000Y-65940000D01*
X59250000Y-70540000D02*
X59250000Y-65990000D01*
X59400000Y-70640000D02*
X59400000Y-66090000D01*
X59550000Y-70690000D02*
X59550000Y-66090000D01*
X59700000Y-70690000D02*
X59700000Y-66090000D01*
X59850000Y-70690000D02*
X59850000Y-66140000D01*
X60000000Y-70690000D02*
X60000000Y-66090000D01*
X60150000Y-70690000D02*
X60150000Y-66090000D01*
X60300000Y-70690000D02*
X60300000Y-66090000D01*
X60450000Y-70690000D02*
X60450000Y-66090000D01*
X60600000Y-70690000D02*
X60600000Y-66090000D01*
X60750000Y-70690000D02*
X60750000Y-66090000D01*
X60900000Y-70690000D02*
X60900000Y-66090000D01*
X61050000Y-70690000D02*
X61050000Y-66090000D01*
X61200000Y-70690000D02*
X61200000Y-66090000D01*
X61350000Y-70690000D02*
X61350000Y-66090000D01*
X61500000Y-70690000D02*
X61500000Y-66090000D01*
X61650000Y-70690000D02*
X61650000Y-66090000D01*
X61800000Y-70690000D02*
X61800000Y-66090000D01*
X61950000Y-70690000D02*
X61950000Y-66090000D01*
X62100000Y-70690000D02*
X62100000Y-66090000D01*
X62250000Y-70690000D02*
X62250000Y-66090000D01*
X62300000Y-66065000D02*
X59725000Y-66065000D01*
X62300000Y-70715000D02*
X59700000Y-70715000D01*
X62400000Y-70690000D02*
X62400000Y-66140000D01*
X62550000Y-70640000D02*
X62550000Y-66140000D01*
X62700000Y-70590000D02*
X62700000Y-66190000D01*
X62850000Y-70490000D02*
X62850000Y-66290000D01*
X62950000Y-70390000D02*
X62950000Y-66440000D01*
X63050000Y-70290000D02*
X63050000Y-66540000D01*
X63150000Y-70140000D02*
X63150000Y-66590000D01*
X63300000Y-67065000D02*
X63300000Y-69715000D01*
X56700000Y-68515000D02*
G75*
G02*
X58837801Y-70011904I-1J-2275002D01*
G01*
X59699005Y-70713791D02*
G75*
G02*
X58837801Y-70011904I38796J926887D01*
G01*
X59725000Y-66065000D02*
G75*
G02*
X58550000Y-64890000I2J1175002D01*
G01*
X62300000Y-66065000D02*
G75*
G02*
X63300000Y-67065000I0J-1000000D01*
G01*
X63300000Y-69715000D02*
G75*
G02*
X62300000Y-70715000I-1000000J0D01*
G01*
D10*
%TO.C,D4*%
X42781215Y-84204686D02*
X42781215Y-85395314D01*
X42781215Y-84800000D02*
X42582777Y-84800000D01*
X42781215Y-85395314D02*
X44368719Y-85395314D01*
X43971843Y-84204686D02*
X43971843Y-85395314D01*
X44368719Y-84204686D02*
X42781215Y-84204686D01*
X44368719Y-85395314D02*
X44368719Y-84204686D01*
X44567157Y-84800000D02*
X44368719Y-84800000D01*
D11*
%TO.C,SW6*%
X53700000Y-47900000D02*
X53700000Y-50500000D01*
X53700000Y-47900000D02*
X54725000Y-46875000D01*
X53700000Y-50500000D02*
X54725000Y-51525000D01*
X53850000Y-50650000D02*
X53850000Y-47750000D01*
X54000000Y-50750000D02*
X54000000Y-47600000D01*
X54150000Y-50950000D02*
X54150000Y-47450000D01*
X54300000Y-51100000D02*
X54300000Y-47300000D01*
X54450000Y-51250000D02*
X54450000Y-47150000D01*
X54600000Y-51350000D02*
X54600000Y-47000000D01*
X54750000Y-51500000D02*
X54750000Y-46900000D01*
X54900000Y-51500000D02*
X54900000Y-46900000D01*
X55050000Y-51500000D02*
X55050000Y-46900000D01*
X55200000Y-51500000D02*
X55200000Y-46900000D01*
X55350000Y-51500000D02*
X55350000Y-46900000D01*
X55500000Y-51500000D02*
X55500000Y-46900000D01*
X55650000Y-51500000D02*
X55650000Y-46900000D01*
X55800000Y-51500000D02*
X55800000Y-46900000D01*
X55950000Y-51500000D02*
X55950000Y-46900000D01*
X56100000Y-51500000D02*
X56100000Y-46900000D01*
X56250000Y-51500000D02*
X56250000Y-46900000D01*
X56400000Y-51500000D02*
X56400000Y-46900000D01*
X56550000Y-51500000D02*
X56550000Y-46900000D01*
X56700000Y-51500000D02*
X56700000Y-46900000D01*
X56700000Y-51525000D02*
X54725000Y-51525000D01*
X56850000Y-51500000D02*
X56850000Y-46950000D01*
X57000000Y-51550000D02*
X57000000Y-46900000D01*
X57150000Y-51550000D02*
X57150000Y-46900000D01*
X57275000Y-46875000D02*
X54725000Y-46875000D01*
X57275000Y-46875000D02*
X58550000Y-47900000D01*
X57300000Y-51550000D02*
X57300000Y-46950000D01*
X57450000Y-51600000D02*
X57450000Y-47050000D01*
X57600000Y-51700000D02*
X57600000Y-47150000D01*
X57750000Y-51750000D02*
X57750000Y-47300000D01*
X57900000Y-51850000D02*
X57900000Y-47400000D01*
X58050000Y-51950000D02*
X58050000Y-47550000D01*
X58200000Y-52050000D02*
X58200000Y-47650000D01*
X58350000Y-52200000D02*
X58350000Y-47750000D01*
X58500000Y-52350000D02*
X58500000Y-47900000D01*
X58600000Y-52550000D02*
X58600000Y-48400000D01*
X58700000Y-52700000D02*
X58700000Y-48550000D01*
X58800000Y-52900000D02*
X58800000Y-48750000D01*
X58900000Y-53050000D02*
X58900000Y-48850000D01*
X59000000Y-53300000D02*
X59000000Y-48900000D01*
X59100000Y-53450000D02*
X59100000Y-48950000D01*
X59250000Y-53550000D02*
X59250000Y-49000000D01*
X59400000Y-53650000D02*
X59400000Y-49100000D01*
X59550000Y-53700000D02*
X59550000Y-49100000D01*
X59700000Y-53700000D02*
X59700000Y-49100000D01*
X59850000Y-53700000D02*
X59850000Y-49150000D01*
X60000000Y-53700000D02*
X60000000Y-49100000D01*
X60150000Y-53700000D02*
X60150000Y-49100000D01*
X60300000Y-53700000D02*
X60300000Y-49100000D01*
X60450000Y-53700000D02*
X60450000Y-49100000D01*
X60600000Y-53700000D02*
X60600000Y-49100000D01*
X60750000Y-53700000D02*
X60750000Y-49100000D01*
X60900000Y-53700000D02*
X60900000Y-49100000D01*
X61050000Y-53700000D02*
X61050000Y-49100000D01*
X61200000Y-53700000D02*
X61200000Y-49100000D01*
X61350000Y-53700000D02*
X61350000Y-49100000D01*
X61500000Y-53700000D02*
X61500000Y-49100000D01*
X61650000Y-53700000D02*
X61650000Y-49100000D01*
X61800000Y-53700000D02*
X61800000Y-49100000D01*
X61950000Y-53700000D02*
X61950000Y-49100000D01*
X62100000Y-53700000D02*
X62100000Y-49100000D01*
X62250000Y-53700000D02*
X62250000Y-49100000D01*
X62300000Y-49075000D02*
X59725000Y-49075000D01*
X62300000Y-53725000D02*
X59700000Y-53725000D01*
X62400000Y-53700000D02*
X62400000Y-49150000D01*
X62550000Y-53650000D02*
X62550000Y-49150000D01*
X62700000Y-53600000D02*
X62700000Y-49200000D01*
X62850000Y-53500000D02*
X62850000Y-49300000D01*
X62950000Y-53400000D02*
X62950000Y-49450000D01*
X63050000Y-53300000D02*
X63050000Y-49550000D01*
X63150000Y-53150000D02*
X63150000Y-49600000D01*
X63300000Y-50075000D02*
X63300000Y-52725000D01*
X56700000Y-51525000D02*
G75*
G02*
X58837801Y-53021904I-1J-2275002D01*
G01*
X59699005Y-53723791D02*
G75*
G02*
X58837801Y-53021904I38796J926887D01*
G01*
X59725000Y-49075000D02*
G75*
G02*
X58550000Y-47900000I2J1175002D01*
G01*
X62300000Y-49075000D02*
G75*
G02*
X63300000Y-50075000I0J-1000000D01*
G01*
X63300000Y-52725000D02*
G75*
G02*
X62300000Y-53725000I-1000000J0D01*
G01*
D10*
%TO.C,D9*%
X77359343Y-22975000D02*
X77557781Y-22975000D01*
X77557781Y-22379686D02*
X77557781Y-23570314D01*
X77557781Y-23570314D02*
X79145285Y-23570314D01*
X77954657Y-23570314D02*
X77954657Y-22379686D01*
X79145285Y-22379686D02*
X77557781Y-22379686D01*
X79145285Y-22975000D02*
X79343723Y-22975000D01*
X79145285Y-23570314D02*
X79145285Y-22379686D01*
%TO.C,D1*%
X43231215Y-32979686D02*
X43231215Y-34170314D01*
X43231215Y-33575000D02*
X43032777Y-33575000D01*
X43231215Y-34170314D02*
X44818719Y-34170314D01*
X44421843Y-32979686D02*
X44421843Y-34170314D01*
X44818719Y-32979686D02*
X43231215Y-32979686D01*
X44818719Y-34170314D02*
X44818719Y-32979686D01*
X45017157Y-33575000D02*
X44818719Y-33575000D01*
D11*
%TO.C,SW9*%
X70680000Y-30900000D02*
X70680000Y-33500000D01*
X70680000Y-30900000D02*
X71705000Y-29875000D01*
X70680000Y-33500000D02*
X71705000Y-34525000D01*
X70830000Y-33650000D02*
X70830000Y-30750000D01*
X70980000Y-33750000D02*
X70980000Y-30600000D01*
X71130000Y-33950000D02*
X71130000Y-30450000D01*
X71280000Y-34100000D02*
X71280000Y-30300000D01*
X71430000Y-34250000D02*
X71430000Y-30150000D01*
X71580000Y-34350000D02*
X71580000Y-30000000D01*
X71730000Y-34500000D02*
X71730000Y-29900000D01*
X71880000Y-34500000D02*
X71880000Y-29900000D01*
X72030000Y-34500000D02*
X72030000Y-29900000D01*
X72180000Y-34500000D02*
X72180000Y-29900000D01*
X72330000Y-34500000D02*
X72330000Y-29900000D01*
X72480000Y-34500000D02*
X72480000Y-29900000D01*
X72630000Y-34500000D02*
X72630000Y-29900000D01*
X72780000Y-34500000D02*
X72780000Y-29900000D01*
X72930000Y-34500000D02*
X72930000Y-29900000D01*
X73080000Y-34500000D02*
X73080000Y-29900000D01*
X73230000Y-34500000D02*
X73230000Y-29900000D01*
X73380000Y-34500000D02*
X73380000Y-29900000D01*
X73530000Y-34500000D02*
X73530000Y-29900000D01*
X73680000Y-34500000D02*
X73680000Y-29900000D01*
X73680000Y-34525000D02*
X71705000Y-34525000D01*
X73830000Y-34500000D02*
X73830000Y-29950000D01*
X73980000Y-34550000D02*
X73980000Y-29900000D01*
X74130000Y-34550000D02*
X74130000Y-29900000D01*
X74255000Y-29875000D02*
X71705000Y-29875000D01*
X74255000Y-29875000D02*
X75530000Y-30900000D01*
X74280000Y-34550000D02*
X74280000Y-29950000D01*
X74430000Y-34600000D02*
X74430000Y-30050000D01*
X74580000Y-34700000D02*
X74580000Y-30150000D01*
X74730000Y-34750000D02*
X74730000Y-30300000D01*
X74880000Y-34850000D02*
X74880000Y-30400000D01*
X75030000Y-34950000D02*
X75030000Y-30550000D01*
X75180000Y-35050000D02*
X75180000Y-30650000D01*
X75330000Y-35200000D02*
X75330000Y-30750000D01*
X75480000Y-35350000D02*
X75480000Y-30900000D01*
X75580000Y-35550000D02*
X75580000Y-31400000D01*
X75680000Y-35700000D02*
X75680000Y-31550000D01*
X75780000Y-35900000D02*
X75780000Y-31750000D01*
X75880000Y-36050000D02*
X75880000Y-31850000D01*
X75980000Y-36300000D02*
X75980000Y-31900000D01*
X76080000Y-36450000D02*
X76080000Y-31950000D01*
X76230000Y-36550000D02*
X76230000Y-32000000D01*
X76380000Y-36650000D02*
X76380000Y-32100000D01*
X76530000Y-36700000D02*
X76530000Y-32100000D01*
X76680000Y-36700000D02*
X76680000Y-32100000D01*
X76830000Y-36700000D02*
X76830000Y-32150000D01*
X76980000Y-36700000D02*
X76980000Y-32100000D01*
X77130000Y-36700000D02*
X77130000Y-32100000D01*
X77280000Y-36700000D02*
X77280000Y-32100000D01*
X77430000Y-36700000D02*
X77430000Y-32100000D01*
X77580000Y-36700000D02*
X77580000Y-32100000D01*
X77730000Y-36700000D02*
X77730000Y-32100000D01*
X77880000Y-36700000D02*
X77880000Y-32100000D01*
X78030000Y-36700000D02*
X78030000Y-32100000D01*
X78180000Y-36700000D02*
X78180000Y-32100000D01*
X78330000Y-36700000D02*
X78330000Y-32100000D01*
X78480000Y-36700000D02*
X78480000Y-32100000D01*
X78630000Y-36700000D02*
X78630000Y-32100000D01*
X78780000Y-36700000D02*
X78780000Y-32100000D01*
X78930000Y-36700000D02*
X78930000Y-32100000D01*
X79080000Y-36700000D02*
X79080000Y-32100000D01*
X79230000Y-36700000D02*
X79230000Y-32100000D01*
X79280000Y-32075000D02*
X76705000Y-32075000D01*
X79280000Y-36725000D02*
X76680000Y-36725000D01*
X79380000Y-36700000D02*
X79380000Y-32150000D01*
X79530000Y-36650000D02*
X79530000Y-32150000D01*
X79680000Y-36600000D02*
X79680000Y-32200000D01*
X79830000Y-36500000D02*
X79830000Y-32300000D01*
X79930000Y-36400000D02*
X79930000Y-32450000D01*
X80030000Y-36300000D02*
X80030000Y-32550000D01*
X80130000Y-36150000D02*
X80130000Y-32600000D01*
X80280000Y-33075000D02*
X80280000Y-35725000D01*
X73680000Y-34525000D02*
G75*
G02*
X75817801Y-36021904I-1J-2275002D01*
G01*
X76679005Y-36723791D02*
G75*
G02*
X75817801Y-36021904I38796J926887D01*
G01*
X76705000Y-32075000D02*
G75*
G02*
X75530000Y-30900000I2J1175002D01*
G01*
X79280000Y-32075000D02*
G75*
G02*
X80280000Y-33075000I0J-1000000D01*
G01*
X80280000Y-35725000D02*
G75*
G02*
X79280000Y-36725000I-1000000J0D01*
G01*
%TO.C,SW4*%
X41700000Y-74925000D02*
X41700000Y-72275000D01*
X41850000Y-71850000D02*
X41850000Y-75400000D01*
X41950000Y-71700000D02*
X41950000Y-75450000D01*
X42050000Y-71600000D02*
X42050000Y-75550000D01*
X42150000Y-71500000D02*
X42150000Y-75700000D01*
X42300000Y-71400000D02*
X42300000Y-75800000D01*
X42450000Y-71350000D02*
X42450000Y-75850000D01*
X42600000Y-71300000D02*
X42600000Y-75850000D01*
X42700000Y-71275000D02*
X45300000Y-71275000D01*
X42700000Y-75925000D02*
X45275000Y-75925000D01*
X42750000Y-71300000D02*
X42750000Y-75900000D01*
X42900000Y-71300000D02*
X42900000Y-75900000D01*
X43050000Y-71300000D02*
X43050000Y-75900000D01*
X43200000Y-71300000D02*
X43200000Y-75900000D01*
X43350000Y-71300000D02*
X43350000Y-75900000D01*
X43500000Y-71300000D02*
X43500000Y-75900000D01*
X43650000Y-71300000D02*
X43650000Y-75900000D01*
X43800000Y-71300000D02*
X43800000Y-75900000D01*
X43950000Y-71300000D02*
X43950000Y-75900000D01*
X44100000Y-71300000D02*
X44100000Y-75900000D01*
X44250000Y-71300000D02*
X44250000Y-75900000D01*
X44400000Y-71300000D02*
X44400000Y-75900000D01*
X44550000Y-71300000D02*
X44550000Y-75900000D01*
X44700000Y-71300000D02*
X44700000Y-75900000D01*
X44850000Y-71300000D02*
X44850000Y-75900000D01*
X45000000Y-71300000D02*
X45000000Y-75900000D01*
X45150000Y-71300000D02*
X45150000Y-75850000D01*
X45300000Y-71300000D02*
X45300000Y-75900000D01*
X45450000Y-71300000D02*
X45450000Y-75900000D01*
X45600000Y-71350000D02*
X45600000Y-75900000D01*
X45750000Y-71450000D02*
X45750000Y-76000000D01*
X45900000Y-71550000D02*
X45900000Y-76050000D01*
X46000000Y-71700000D02*
X46000000Y-76100000D01*
X46100000Y-71950000D02*
X46100000Y-76150000D01*
X46200000Y-72100000D02*
X46200000Y-76250000D01*
X46300000Y-72300000D02*
X46300000Y-76450000D01*
X46400000Y-72450000D02*
X46400000Y-76600000D01*
X46500000Y-72650000D02*
X46500000Y-77100000D01*
X46650000Y-72800000D02*
X46650000Y-77250000D01*
X46800000Y-72950000D02*
X46800000Y-77350000D01*
X46950000Y-73050000D02*
X46950000Y-77450000D01*
X47100000Y-73150000D02*
X47100000Y-77600000D01*
X47250000Y-73250000D02*
X47250000Y-77700000D01*
X47400000Y-73300000D02*
X47400000Y-77850000D01*
X47550000Y-73400000D02*
X47550000Y-77950000D01*
X47700000Y-73450000D02*
X47700000Y-78050000D01*
X47725000Y-78125000D02*
X46450000Y-77100000D01*
X47725000Y-78125000D02*
X50275000Y-78125000D01*
X47850000Y-73450000D02*
X47850000Y-78100000D01*
X48000000Y-73450000D02*
X48000000Y-78100000D01*
X48150000Y-73500000D02*
X48150000Y-78050000D01*
X48300000Y-73475000D02*
X50275000Y-73475000D01*
X48300000Y-73500000D02*
X48300000Y-78100000D01*
X48450000Y-73500000D02*
X48450000Y-78100000D01*
X48600000Y-73500000D02*
X48600000Y-78100000D01*
X48750000Y-73500000D02*
X48750000Y-78100000D01*
X48900000Y-73500000D02*
X48900000Y-78100000D01*
X49050000Y-73500000D02*
X49050000Y-78100000D01*
X49200000Y-73500000D02*
X49200000Y-78100000D01*
X49350000Y-73500000D02*
X49350000Y-78100000D01*
X49500000Y-73500000D02*
X49500000Y-78100000D01*
X49650000Y-73500000D02*
X49650000Y-78100000D01*
X49800000Y-73500000D02*
X49800000Y-78100000D01*
X49950000Y-73500000D02*
X49950000Y-78100000D01*
X50100000Y-73500000D02*
X50100000Y-78100000D01*
X50250000Y-73500000D02*
X50250000Y-78100000D01*
X50400000Y-73650000D02*
X50400000Y-78000000D01*
X50550000Y-73750000D02*
X50550000Y-77850000D01*
X50700000Y-73900000D02*
X50700000Y-77700000D01*
X50850000Y-74050000D02*
X50850000Y-77550000D01*
X51000000Y-74250000D02*
X51000000Y-77400000D01*
X51150000Y-74350000D02*
X51150000Y-77250000D01*
X51300000Y-74500000D02*
X50275000Y-73475000D01*
X51300000Y-77100000D02*
X50275000Y-78125000D01*
X51300000Y-77100000D02*
X51300000Y-74500000D01*
X41700000Y-72275000D02*
G75*
G02*
X42700000Y-71275000I1000000J0D01*
G01*
X42700000Y-75925000D02*
G75*
G02*
X41700000Y-74925000I0J1000000D01*
G01*
X45275000Y-75925000D02*
G75*
G02*
X46450000Y-77100000I-2J-1175002D01*
G01*
X45300995Y-71276209D02*
G75*
G02*
X46162199Y-71978096I-38796J-926887D01*
G01*
X48300000Y-73475000D02*
G75*
G02*
X46162199Y-71978096I1J2275002D01*
G01*
%TO.C,SW12*%
X70700000Y-81900000D02*
X70700000Y-84500000D01*
X70700000Y-81900000D02*
X71725000Y-80875000D01*
X70700000Y-84500000D02*
X71725000Y-85525000D01*
X70850000Y-84650000D02*
X70850000Y-81750000D01*
X71000000Y-84750000D02*
X71000000Y-81600000D01*
X71150000Y-84950000D02*
X71150000Y-81450000D01*
X71300000Y-85100000D02*
X71300000Y-81300000D01*
X71450000Y-85250000D02*
X71450000Y-81150000D01*
X71600000Y-85350000D02*
X71600000Y-81000000D01*
X71750000Y-85500000D02*
X71750000Y-80900000D01*
X71900000Y-85500000D02*
X71900000Y-80900000D01*
X72050000Y-85500000D02*
X72050000Y-80900000D01*
X72200000Y-85500000D02*
X72200000Y-80900000D01*
X72350000Y-85500000D02*
X72350000Y-80900000D01*
X72500000Y-85500000D02*
X72500000Y-80900000D01*
X72650000Y-85500000D02*
X72650000Y-80900000D01*
X72800000Y-85500000D02*
X72800000Y-80900000D01*
X72950000Y-85500000D02*
X72950000Y-80900000D01*
X73100000Y-85500000D02*
X73100000Y-80900000D01*
X73250000Y-85500000D02*
X73250000Y-80900000D01*
X73400000Y-85500000D02*
X73400000Y-80900000D01*
X73550000Y-85500000D02*
X73550000Y-80900000D01*
X73700000Y-85500000D02*
X73700000Y-80900000D01*
X73700000Y-85525000D02*
X71725000Y-85525000D01*
X73850000Y-85500000D02*
X73850000Y-80950000D01*
X74000000Y-85550000D02*
X74000000Y-80900000D01*
X74150000Y-85550000D02*
X74150000Y-80900000D01*
X74275000Y-80875000D02*
X71725000Y-80875000D01*
X74275000Y-80875000D02*
X75550000Y-81900000D01*
X74300000Y-85550000D02*
X74300000Y-80950000D01*
X74450000Y-85600000D02*
X74450000Y-81050000D01*
X74600000Y-85700000D02*
X74600000Y-81150000D01*
X74750000Y-85750000D02*
X74750000Y-81300000D01*
X74900000Y-85850000D02*
X74900000Y-81400000D01*
X75050000Y-85950000D02*
X75050000Y-81550000D01*
X75200000Y-86050000D02*
X75200000Y-81650000D01*
X75350000Y-86200000D02*
X75350000Y-81750000D01*
X75500000Y-86350000D02*
X75500000Y-81900000D01*
X75600000Y-86550000D02*
X75600000Y-82400000D01*
X75700000Y-86700000D02*
X75700000Y-82550000D01*
X75800000Y-86900000D02*
X75800000Y-82750000D01*
X75900000Y-87050000D02*
X75900000Y-82850000D01*
X76000000Y-87300000D02*
X76000000Y-82900000D01*
X76100000Y-87450000D02*
X76100000Y-82950000D01*
X76250000Y-87550000D02*
X76250000Y-83000000D01*
X76400000Y-87650000D02*
X76400000Y-83100000D01*
X76550000Y-87700000D02*
X76550000Y-83100000D01*
X76700000Y-87700000D02*
X76700000Y-83100000D01*
X76850000Y-87700000D02*
X76850000Y-83150000D01*
X77000000Y-87700000D02*
X77000000Y-83100000D01*
X77150000Y-87700000D02*
X77150000Y-83100000D01*
X77300000Y-87700000D02*
X77300000Y-83100000D01*
X77450000Y-87700000D02*
X77450000Y-83100000D01*
X77600000Y-87700000D02*
X77600000Y-83100000D01*
X77750000Y-87700000D02*
X77750000Y-83100000D01*
X77900000Y-87700000D02*
X77900000Y-83100000D01*
X78050000Y-87700000D02*
X78050000Y-83100000D01*
X78200000Y-87700000D02*
X78200000Y-83100000D01*
X78350000Y-87700000D02*
X78350000Y-83100000D01*
X78500000Y-87700000D02*
X78500000Y-83100000D01*
X78650000Y-87700000D02*
X78650000Y-83100000D01*
X78800000Y-87700000D02*
X78800000Y-83100000D01*
X78950000Y-87700000D02*
X78950000Y-83100000D01*
X79100000Y-87700000D02*
X79100000Y-83100000D01*
X79250000Y-87700000D02*
X79250000Y-83100000D01*
X79300000Y-83075000D02*
X76725000Y-83075000D01*
X79300000Y-87725000D02*
X76700000Y-87725000D01*
X79400000Y-87700000D02*
X79400000Y-83150000D01*
X79550000Y-87650000D02*
X79550000Y-83150000D01*
X79700000Y-87600000D02*
X79700000Y-83200000D01*
X79850000Y-87500000D02*
X79850000Y-83300000D01*
X79950000Y-87400000D02*
X79950000Y-83450000D01*
X80050000Y-87300000D02*
X80050000Y-83550000D01*
X80150000Y-87150000D02*
X80150000Y-83600000D01*
X80300000Y-84075000D02*
X80300000Y-86725000D01*
X73700000Y-85525000D02*
G75*
G02*
X75837801Y-87021904I-1J-2275002D01*
G01*
X76699005Y-87723791D02*
G75*
G02*
X75837801Y-87021904I38796J926887D01*
G01*
X76725000Y-83075000D02*
G75*
G02*
X75550000Y-81900000I2J1175002D01*
G01*
X79300000Y-83075000D02*
G75*
G02*
X80300000Y-84075000I0J-1000000D01*
G01*
X80300000Y-86725000D02*
G75*
G02*
X79300000Y-87725000I-1000000J0D01*
G01*
D10*
%TO.C,D2*%
X43004715Y-49854686D02*
X43004715Y-51045314D01*
X43004715Y-50450000D02*
X42806277Y-50450000D01*
X43004715Y-51045314D02*
X44592219Y-51045314D01*
X44195343Y-49854686D02*
X44195343Y-51045314D01*
X44592219Y-49854686D02*
X43004715Y-49854686D01*
X44592219Y-51045314D02*
X44592219Y-49854686D01*
X44790657Y-50450000D02*
X44592219Y-50450000D01*
D11*
%TO.C,SW11*%
X70700000Y-64900000D02*
X70700000Y-67500000D01*
X70700000Y-64900000D02*
X71725000Y-63875000D01*
X70700000Y-67500000D02*
X71725000Y-68525000D01*
X70850000Y-67650000D02*
X70850000Y-64750000D01*
X71000000Y-67750000D02*
X71000000Y-64600000D01*
X71150000Y-67950000D02*
X71150000Y-64450000D01*
X71300000Y-68100000D02*
X71300000Y-64300000D01*
X71450000Y-68250000D02*
X71450000Y-64150000D01*
X71600000Y-68350000D02*
X71600000Y-64000000D01*
X71750000Y-68500000D02*
X71750000Y-63900000D01*
X71900000Y-68500000D02*
X71900000Y-63900000D01*
X72050000Y-68500000D02*
X72050000Y-63900000D01*
X72200000Y-68500000D02*
X72200000Y-63900000D01*
X72350000Y-68500000D02*
X72350000Y-63900000D01*
X72500000Y-68500000D02*
X72500000Y-63900000D01*
X72650000Y-68500000D02*
X72650000Y-63900000D01*
X72800000Y-68500000D02*
X72800000Y-63900000D01*
X72950000Y-68500000D02*
X72950000Y-63900000D01*
X73100000Y-68500000D02*
X73100000Y-63900000D01*
X73250000Y-68500000D02*
X73250000Y-63900000D01*
X73400000Y-68500000D02*
X73400000Y-63900000D01*
X73550000Y-68500000D02*
X73550000Y-63900000D01*
X73700000Y-68500000D02*
X73700000Y-63900000D01*
X73700000Y-68525000D02*
X71725000Y-68525000D01*
X73850000Y-68500000D02*
X73850000Y-63950000D01*
X74000000Y-68550000D02*
X74000000Y-63900000D01*
X74150000Y-68550000D02*
X74150000Y-63900000D01*
X74275000Y-63875000D02*
X71725000Y-63875000D01*
X74275000Y-63875000D02*
X75550000Y-64900000D01*
X74300000Y-68550000D02*
X74300000Y-63950000D01*
X74450000Y-68600000D02*
X74450000Y-64050000D01*
X74600000Y-68700000D02*
X74600000Y-64150000D01*
X74750000Y-68750000D02*
X74750000Y-64300000D01*
X74900000Y-68850000D02*
X74900000Y-64400000D01*
X75050000Y-68950000D02*
X75050000Y-64550000D01*
X75200000Y-69050000D02*
X75200000Y-64650000D01*
X75350000Y-69200000D02*
X75350000Y-64750000D01*
X75500000Y-69350000D02*
X75500000Y-64900000D01*
X75600000Y-69550000D02*
X75600000Y-65400000D01*
X75700000Y-69700000D02*
X75700000Y-65550000D01*
X75800000Y-69900000D02*
X75800000Y-65750000D01*
X75900000Y-70050000D02*
X75900000Y-65850000D01*
X76000000Y-70300000D02*
X76000000Y-65900000D01*
X76100000Y-70450000D02*
X76100000Y-65950000D01*
X76250000Y-70550000D02*
X76250000Y-66000000D01*
X76400000Y-70650000D02*
X76400000Y-66100000D01*
X76550000Y-70700000D02*
X76550000Y-66100000D01*
X76700000Y-70700000D02*
X76700000Y-66100000D01*
X76850000Y-70700000D02*
X76850000Y-66150000D01*
X77000000Y-70700000D02*
X77000000Y-66100000D01*
X77150000Y-70700000D02*
X77150000Y-66100000D01*
X77300000Y-70700000D02*
X77300000Y-66100000D01*
X77450000Y-70700000D02*
X77450000Y-66100000D01*
X77600000Y-70700000D02*
X77600000Y-66100000D01*
X77750000Y-70700000D02*
X77750000Y-66100000D01*
X77900000Y-70700000D02*
X77900000Y-66100000D01*
X78050000Y-70700000D02*
X78050000Y-66100000D01*
X78200000Y-70700000D02*
X78200000Y-66100000D01*
X78350000Y-70700000D02*
X78350000Y-66100000D01*
X78500000Y-70700000D02*
X78500000Y-66100000D01*
X78650000Y-70700000D02*
X78650000Y-66100000D01*
X78800000Y-70700000D02*
X78800000Y-66100000D01*
X78950000Y-70700000D02*
X78950000Y-66100000D01*
X79100000Y-70700000D02*
X79100000Y-66100000D01*
X79250000Y-70700000D02*
X79250000Y-66100000D01*
X79300000Y-66075000D02*
X76725000Y-66075000D01*
X79300000Y-70725000D02*
X76700000Y-70725000D01*
X79400000Y-70700000D02*
X79400000Y-66150000D01*
X79550000Y-70650000D02*
X79550000Y-66150000D01*
X79700000Y-70600000D02*
X79700000Y-66200000D01*
X79850000Y-70500000D02*
X79850000Y-66300000D01*
X79950000Y-70400000D02*
X79950000Y-66450000D01*
X80050000Y-70300000D02*
X80050000Y-66550000D01*
X80150000Y-70150000D02*
X80150000Y-66600000D01*
X80300000Y-67075000D02*
X80300000Y-69725000D01*
X73700000Y-68525000D02*
G75*
G02*
X75837801Y-70021904I-1J-2275002D01*
G01*
X76699005Y-70723791D02*
G75*
G02*
X75837801Y-70021904I38796J926887D01*
G01*
X76725000Y-66075000D02*
G75*
G02*
X75550000Y-64900000I2J1175002D01*
G01*
X79300000Y-66075000D02*
G75*
G02*
X80300000Y-67075000I0J-1000000D01*
G01*
X80300000Y-69725000D02*
G75*
G02*
X79300000Y-70725000I-1000000J0D01*
G01*
D10*
%TO.C,D13*%
X94359343Y-23000000D02*
X94557781Y-23000000D01*
X94557781Y-22404686D02*
X94557781Y-23595314D01*
X94557781Y-23595314D02*
X96145285Y-23595314D01*
X94954657Y-23595314D02*
X94954657Y-22404686D01*
X96145285Y-22404686D02*
X94557781Y-22404686D01*
X96145285Y-23000000D02*
X96343723Y-23000000D01*
X96145285Y-23595314D02*
X96145285Y-22404686D01*
D11*
%TO.C,SW16*%
X87690000Y-81885000D02*
X87690000Y-84485000D01*
X87690000Y-81885000D02*
X88715000Y-80860000D01*
X87690000Y-84485000D02*
X88715000Y-85510000D01*
X87840000Y-84635000D02*
X87840000Y-81735000D01*
X87990000Y-84735000D02*
X87990000Y-81585000D01*
X88140000Y-84935000D02*
X88140000Y-81435000D01*
X88290000Y-85085000D02*
X88290000Y-81285000D01*
X88440000Y-85235000D02*
X88440000Y-81135000D01*
X88590000Y-85335000D02*
X88590000Y-80985000D01*
X88740000Y-85485000D02*
X88740000Y-80885000D01*
X88890000Y-85485000D02*
X88890000Y-80885000D01*
X89040000Y-85485000D02*
X89040000Y-80885000D01*
X89190000Y-85485000D02*
X89190000Y-80885000D01*
X89340000Y-85485000D02*
X89340000Y-80885000D01*
X89490000Y-85485000D02*
X89490000Y-80885000D01*
X89640000Y-85485000D02*
X89640000Y-80885000D01*
X89790000Y-85485000D02*
X89790000Y-80885000D01*
X89940000Y-85485000D02*
X89940000Y-80885000D01*
X90090000Y-85485000D02*
X90090000Y-80885000D01*
X90240000Y-85485000D02*
X90240000Y-80885000D01*
X90390000Y-85485000D02*
X90390000Y-80885000D01*
X90540000Y-85485000D02*
X90540000Y-80885000D01*
X90690000Y-85485000D02*
X90690000Y-80885000D01*
X90690000Y-85510000D02*
X88715000Y-85510000D01*
X90840000Y-85485000D02*
X90840000Y-80935000D01*
X90990000Y-85535000D02*
X90990000Y-80885000D01*
X91140000Y-85535000D02*
X91140000Y-80885000D01*
X91265000Y-80860000D02*
X88715000Y-80860000D01*
X91265000Y-80860000D02*
X92540000Y-81885000D01*
X91290000Y-85535000D02*
X91290000Y-80935000D01*
X91440000Y-85585000D02*
X91440000Y-81035000D01*
X91590000Y-85685000D02*
X91590000Y-81135000D01*
X91740000Y-85735000D02*
X91740000Y-81285000D01*
X91890000Y-85835000D02*
X91890000Y-81385000D01*
X92040000Y-85935000D02*
X92040000Y-81535000D01*
X92190000Y-86035000D02*
X92190000Y-81635000D01*
X92340000Y-86185000D02*
X92340000Y-81735000D01*
X92490000Y-86335000D02*
X92490000Y-81885000D01*
X92590000Y-86535000D02*
X92590000Y-82385000D01*
X92690000Y-86685000D02*
X92690000Y-82535000D01*
X92790000Y-86885000D02*
X92790000Y-82735000D01*
X92890000Y-87035000D02*
X92890000Y-82835000D01*
X92990000Y-87285000D02*
X92990000Y-82885000D01*
X93090000Y-87435000D02*
X93090000Y-82935000D01*
X93240000Y-87535000D02*
X93240000Y-82985000D01*
X93390000Y-87635000D02*
X93390000Y-83085000D01*
X93540000Y-87685000D02*
X93540000Y-83085000D01*
X93690000Y-87685000D02*
X93690000Y-83085000D01*
X93840000Y-87685000D02*
X93840000Y-83135000D01*
X93990000Y-87685000D02*
X93990000Y-83085000D01*
X94140000Y-87685000D02*
X94140000Y-83085000D01*
X94290000Y-87685000D02*
X94290000Y-83085000D01*
X94440000Y-87685000D02*
X94440000Y-83085000D01*
X94590000Y-87685000D02*
X94590000Y-83085000D01*
X94740000Y-87685000D02*
X94740000Y-83085000D01*
X94890000Y-87685000D02*
X94890000Y-83085000D01*
X95040000Y-87685000D02*
X95040000Y-83085000D01*
X95190000Y-87685000D02*
X95190000Y-83085000D01*
X95340000Y-87685000D02*
X95340000Y-83085000D01*
X95490000Y-87685000D02*
X95490000Y-83085000D01*
X95640000Y-87685000D02*
X95640000Y-83085000D01*
X95790000Y-87685000D02*
X95790000Y-83085000D01*
X95940000Y-87685000D02*
X95940000Y-83085000D01*
X96090000Y-87685000D02*
X96090000Y-83085000D01*
X96240000Y-87685000D02*
X96240000Y-83085000D01*
X96290000Y-83060000D02*
X93715000Y-83060000D01*
X96290000Y-87710000D02*
X93690000Y-87710000D01*
X96390000Y-87685000D02*
X96390000Y-83135000D01*
X96540000Y-87635000D02*
X96540000Y-83135000D01*
X96690000Y-87585000D02*
X96690000Y-83185000D01*
X96840000Y-87485000D02*
X96840000Y-83285000D01*
X96940000Y-87385000D02*
X96940000Y-83435000D01*
X97040000Y-87285000D02*
X97040000Y-83535000D01*
X97140000Y-87135000D02*
X97140000Y-83585000D01*
X97290000Y-84060000D02*
X97290000Y-86710000D01*
X90690000Y-85510000D02*
G75*
G02*
X92827801Y-87006904I-1J-2275002D01*
G01*
X93689005Y-87708791D02*
G75*
G02*
X92827801Y-87006904I38796J926887D01*
G01*
X93715000Y-83060000D02*
G75*
G02*
X92540000Y-81885000I2J1175002D01*
G01*
X96290000Y-83060000D02*
G75*
G02*
X97290000Y-84060000I0J-1000000D01*
G01*
X97290000Y-86710000D02*
G75*
G02*
X96290000Y-87710000I-1000000J0D01*
G01*
%TO.C,SW22*%
X121700000Y-81900000D02*
X121700000Y-84500000D01*
X121700000Y-81900000D02*
X122725000Y-80875000D01*
X121700000Y-84500000D02*
X122725000Y-85525000D01*
X121850000Y-84650000D02*
X121850000Y-81750000D01*
X122000000Y-84750000D02*
X122000000Y-81600000D01*
X122150000Y-84950000D02*
X122150000Y-81450000D01*
X122300000Y-85100000D02*
X122300000Y-81300000D01*
X122450000Y-85250000D02*
X122450000Y-81150000D01*
X122600000Y-85350000D02*
X122600000Y-81000000D01*
X122750000Y-85500000D02*
X122750000Y-80900000D01*
X122900000Y-85500000D02*
X122900000Y-80900000D01*
X123050000Y-85500000D02*
X123050000Y-80900000D01*
X123200000Y-85500000D02*
X123200000Y-80900000D01*
X123350000Y-85500000D02*
X123350000Y-80900000D01*
X123500000Y-85500000D02*
X123500000Y-80900000D01*
X123650000Y-85500000D02*
X123650000Y-80900000D01*
X123800000Y-85500000D02*
X123800000Y-80900000D01*
X123950000Y-85500000D02*
X123950000Y-80900000D01*
X124100000Y-85500000D02*
X124100000Y-80900000D01*
X124250000Y-85500000D02*
X124250000Y-80900000D01*
X124400000Y-85500000D02*
X124400000Y-80900000D01*
X124550000Y-85500000D02*
X124550000Y-80900000D01*
X124700000Y-85500000D02*
X124700000Y-80900000D01*
X124700000Y-85525000D02*
X122725000Y-85525000D01*
X124850000Y-85500000D02*
X124850000Y-80950000D01*
X125000000Y-85550000D02*
X125000000Y-80900000D01*
X125150000Y-85550000D02*
X125150000Y-80900000D01*
X125275000Y-80875000D02*
X122725000Y-80875000D01*
X125275000Y-80875000D02*
X126550000Y-81900000D01*
X125300000Y-85550000D02*
X125300000Y-80950000D01*
X125450000Y-85600000D02*
X125450000Y-81050000D01*
X125600000Y-85700000D02*
X125600000Y-81150000D01*
X125750000Y-85750000D02*
X125750000Y-81300000D01*
X125900000Y-85850000D02*
X125900000Y-81400000D01*
X126050000Y-85950000D02*
X126050000Y-81550000D01*
X126200000Y-86050000D02*
X126200000Y-81650000D01*
X126350000Y-86200000D02*
X126350000Y-81750000D01*
X126500000Y-86350000D02*
X126500000Y-81900000D01*
X126600000Y-86550000D02*
X126600000Y-82400000D01*
X126700000Y-86700000D02*
X126700000Y-82550000D01*
X126800000Y-86900000D02*
X126800000Y-82750000D01*
X126900000Y-87050000D02*
X126900000Y-82850000D01*
X127000000Y-87300000D02*
X127000000Y-82900000D01*
X127100000Y-87450000D02*
X127100000Y-82950000D01*
X127250000Y-87550000D02*
X127250000Y-83000000D01*
X127400000Y-87650000D02*
X127400000Y-83100000D01*
X127550000Y-87700000D02*
X127550000Y-83100000D01*
X127700000Y-87700000D02*
X127700000Y-83100000D01*
X127850000Y-87700000D02*
X127850000Y-83150000D01*
X128000000Y-87700000D02*
X128000000Y-83100000D01*
X128150000Y-87700000D02*
X128150000Y-83100000D01*
X128300000Y-87700000D02*
X128300000Y-83100000D01*
X128450000Y-87700000D02*
X128450000Y-83100000D01*
X128600000Y-87700000D02*
X128600000Y-83100000D01*
X128750000Y-87700000D02*
X128750000Y-83100000D01*
X128900000Y-87700000D02*
X128900000Y-83100000D01*
X129050000Y-87700000D02*
X129050000Y-83100000D01*
X129200000Y-87700000D02*
X129200000Y-83100000D01*
X129350000Y-87700000D02*
X129350000Y-83100000D01*
X129500000Y-87700000D02*
X129500000Y-83100000D01*
X129650000Y-87700000D02*
X129650000Y-83100000D01*
X129800000Y-87700000D02*
X129800000Y-83100000D01*
X129950000Y-87700000D02*
X129950000Y-83100000D01*
X130100000Y-87700000D02*
X130100000Y-83100000D01*
X130250000Y-87700000D02*
X130250000Y-83100000D01*
X130300000Y-83075000D02*
X127725000Y-83075000D01*
X130300000Y-87725000D02*
X127700000Y-87725000D01*
X130400000Y-87700000D02*
X130400000Y-83150000D01*
X130550000Y-87650000D02*
X130550000Y-83150000D01*
X130700000Y-87600000D02*
X130700000Y-83200000D01*
X130850000Y-87500000D02*
X130850000Y-83300000D01*
X130950000Y-87400000D02*
X130950000Y-83450000D01*
X131050000Y-87300000D02*
X131050000Y-83550000D01*
X131150000Y-87150000D02*
X131150000Y-83600000D01*
X131300000Y-84075000D02*
X131300000Y-86725000D01*
X124700000Y-85525000D02*
G75*
G02*
X126837801Y-87021904I-1J-2275002D01*
G01*
X127699005Y-87723791D02*
G75*
G02*
X126837801Y-87021904I38796J926887D01*
G01*
X127725000Y-83075000D02*
G75*
G02*
X126550000Y-81900000I2J1175002D01*
G01*
X130300000Y-83075000D02*
G75*
G02*
X131300000Y-84075000I0J-1000000D01*
G01*
X131300000Y-86725000D02*
G75*
G02*
X130300000Y-87725000I-1000000J0D01*
G01*
D10*
%TO.C,D18*%
X111359343Y-40000000D02*
X111557781Y-40000000D01*
X111557781Y-39404686D02*
X111557781Y-40595314D01*
X111557781Y-40595314D02*
X113145285Y-40595314D01*
X111954657Y-40595314D02*
X111954657Y-39404686D01*
X113145285Y-39404686D02*
X111557781Y-39404686D01*
X113145285Y-40000000D02*
X113343723Y-40000000D01*
X113145285Y-40595314D02*
X113145285Y-39404686D01*
D11*
%TO.C,SW5*%
X53710000Y-30900000D02*
X53710000Y-33500000D01*
X53710000Y-30900000D02*
X54735000Y-29875000D01*
X53710000Y-33500000D02*
X54735000Y-34525000D01*
X53860000Y-33650000D02*
X53860000Y-30750000D01*
X54010000Y-33750000D02*
X54010000Y-30600000D01*
X54160000Y-33950000D02*
X54160000Y-30450000D01*
X54310000Y-34100000D02*
X54310000Y-30300000D01*
X54460000Y-34250000D02*
X54460000Y-30150000D01*
X54610000Y-34350000D02*
X54610000Y-30000000D01*
X54760000Y-34500000D02*
X54760000Y-29900000D01*
X54910000Y-34500000D02*
X54910000Y-29900000D01*
X55060000Y-34500000D02*
X55060000Y-29900000D01*
X55210000Y-34500000D02*
X55210000Y-29900000D01*
X55360000Y-34500000D02*
X55360000Y-29900000D01*
X55510000Y-34500000D02*
X55510000Y-29900000D01*
X55660000Y-34500000D02*
X55660000Y-29900000D01*
X55810000Y-34500000D02*
X55810000Y-29900000D01*
X55960000Y-34500000D02*
X55960000Y-29900000D01*
X56110000Y-34500000D02*
X56110000Y-29900000D01*
X56260000Y-34500000D02*
X56260000Y-29900000D01*
X56410000Y-34500000D02*
X56410000Y-29900000D01*
X56560000Y-34500000D02*
X56560000Y-29900000D01*
X56710000Y-34500000D02*
X56710000Y-29900000D01*
X56710000Y-34525000D02*
X54735000Y-34525000D01*
X56860000Y-34500000D02*
X56860000Y-29950000D01*
X57010000Y-34550000D02*
X57010000Y-29900000D01*
X57160000Y-34550000D02*
X57160000Y-29900000D01*
X57285000Y-29875000D02*
X54735000Y-29875000D01*
X57285000Y-29875000D02*
X58560000Y-30900000D01*
X57310000Y-34550000D02*
X57310000Y-29950000D01*
X57460000Y-34600000D02*
X57460000Y-30050000D01*
X57610000Y-34700000D02*
X57610000Y-30150000D01*
X57760000Y-34750000D02*
X57760000Y-30300000D01*
X57910000Y-34850000D02*
X57910000Y-30400000D01*
X58060000Y-34950000D02*
X58060000Y-30550000D01*
X58210000Y-35050000D02*
X58210000Y-30650000D01*
X58360000Y-35200000D02*
X58360000Y-30750000D01*
X58510000Y-35350000D02*
X58510000Y-30900000D01*
X58610000Y-35550000D02*
X58610000Y-31400000D01*
X58710000Y-35700000D02*
X58710000Y-31550000D01*
X58810000Y-35900000D02*
X58810000Y-31750000D01*
X58910000Y-36050000D02*
X58910000Y-31850000D01*
X59010000Y-36300000D02*
X59010000Y-31900000D01*
X59110000Y-36450000D02*
X59110000Y-31950000D01*
X59260000Y-36550000D02*
X59260000Y-32000000D01*
X59410000Y-36650000D02*
X59410000Y-32100000D01*
X59560000Y-36700000D02*
X59560000Y-32100000D01*
X59710000Y-36700000D02*
X59710000Y-32100000D01*
X59860000Y-36700000D02*
X59860000Y-32150000D01*
X60010000Y-36700000D02*
X60010000Y-32100000D01*
X60160000Y-36700000D02*
X60160000Y-32100000D01*
X60310000Y-36700000D02*
X60310000Y-32100000D01*
X60460000Y-36700000D02*
X60460000Y-32100000D01*
X60610000Y-36700000D02*
X60610000Y-32100000D01*
X60760000Y-36700000D02*
X60760000Y-32100000D01*
X60910000Y-36700000D02*
X60910000Y-32100000D01*
X61060000Y-36700000D02*
X61060000Y-32100000D01*
X61210000Y-36700000D02*
X61210000Y-32100000D01*
X61360000Y-36700000D02*
X61360000Y-32100000D01*
X61510000Y-36700000D02*
X61510000Y-32100000D01*
X61660000Y-36700000D02*
X61660000Y-32100000D01*
X61810000Y-36700000D02*
X61810000Y-32100000D01*
X61960000Y-36700000D02*
X61960000Y-32100000D01*
X62110000Y-36700000D02*
X62110000Y-32100000D01*
X62260000Y-36700000D02*
X62260000Y-32100000D01*
X62310000Y-32075000D02*
X59735000Y-32075000D01*
X62310000Y-36725000D02*
X59710000Y-36725000D01*
X62410000Y-36700000D02*
X62410000Y-32150000D01*
X62560000Y-36650000D02*
X62560000Y-32150000D01*
X62710000Y-36600000D02*
X62710000Y-32200000D01*
X62860000Y-36500000D02*
X62860000Y-32300000D01*
X62960000Y-36400000D02*
X62960000Y-32450000D01*
X63060000Y-36300000D02*
X63060000Y-32550000D01*
X63160000Y-36150000D02*
X63160000Y-32600000D01*
X63310000Y-33075000D02*
X63310000Y-35725000D01*
X56710000Y-34525000D02*
G75*
G02*
X58847801Y-36021904I-1J-2275002D01*
G01*
X59709005Y-36723791D02*
G75*
G02*
X58847801Y-36021904I38796J926887D01*
G01*
X59735000Y-32075000D02*
G75*
G02*
X58560000Y-30900000I2J1175002D01*
G01*
X62310000Y-32075000D02*
G75*
G02*
X63310000Y-33075000I0J-1000000D01*
G01*
X63310000Y-35725000D02*
G75*
G02*
X62310000Y-36725000I-1000000J0D01*
G01*
D10*
%TO.C,D7*%
X60359343Y-57000000D02*
X60557781Y-57000000D01*
X60557781Y-56404686D02*
X60557781Y-57595314D01*
X60557781Y-57595314D02*
X62145285Y-57595314D01*
X60954657Y-57595314D02*
X60954657Y-56404686D01*
X62145285Y-56404686D02*
X60557781Y-56404686D01*
X62145285Y-57000000D02*
X62343723Y-57000000D01*
X62145285Y-57595314D02*
X62145285Y-56404686D01*
%TO.C,D10*%
X77359343Y-40000000D02*
X77557781Y-40000000D01*
X77557781Y-39404686D02*
X77557781Y-40595314D01*
X77557781Y-40595314D02*
X79145285Y-40595314D01*
X77954657Y-40595314D02*
X77954657Y-39404686D01*
X79145285Y-39404686D02*
X77557781Y-39404686D01*
X79145285Y-40000000D02*
X79343723Y-40000000D01*
X79145285Y-40595314D02*
X79145285Y-39404686D01*
%TO.C,D12*%
X77359343Y-74000000D02*
X77557781Y-74000000D01*
X77557781Y-73404686D02*
X77557781Y-74595314D01*
X77557781Y-74595314D02*
X79145285Y-74595314D01*
X77954657Y-74595314D02*
X77954657Y-73404686D01*
X79145285Y-73404686D02*
X77557781Y-73404686D01*
X79145285Y-74000000D02*
X79343723Y-74000000D01*
X79145285Y-74595314D02*
X79145285Y-73404686D01*
%TO.C,D14*%
X94359343Y-40000000D02*
X94557781Y-40000000D01*
X94557781Y-39404686D02*
X94557781Y-40595314D01*
X94557781Y-40595314D02*
X96145285Y-40595314D01*
X94954657Y-40595314D02*
X94954657Y-39404686D01*
X96145285Y-39404686D02*
X94557781Y-39404686D01*
X96145285Y-40000000D02*
X96343723Y-40000000D01*
X96145285Y-40595314D02*
X96145285Y-39404686D01*
%TO.C,D3*%
X42656215Y-67179686D02*
X42656215Y-68370314D01*
X42656215Y-67775000D02*
X42457777Y-67775000D01*
X42656215Y-68370314D02*
X44243719Y-68370314D01*
X43846843Y-67179686D02*
X43846843Y-68370314D01*
X44243719Y-67179686D02*
X42656215Y-67179686D01*
X44243719Y-68370314D02*
X44243719Y-67179686D01*
X44442157Y-67775000D02*
X44243719Y-67775000D01*
D11*
%TO.C,SW10*%
X70700000Y-47900000D02*
X70700000Y-50500000D01*
X70700000Y-47900000D02*
X71725000Y-46875000D01*
X70700000Y-50500000D02*
X71725000Y-51525000D01*
X70850000Y-50650000D02*
X70850000Y-47750000D01*
X71000000Y-50750000D02*
X71000000Y-47600000D01*
X71150000Y-50950000D02*
X71150000Y-47450000D01*
X71300000Y-51100000D02*
X71300000Y-47300000D01*
X71450000Y-51250000D02*
X71450000Y-47150000D01*
X71600000Y-51350000D02*
X71600000Y-47000000D01*
X71750000Y-51500000D02*
X71750000Y-46900000D01*
X71900000Y-51500000D02*
X71900000Y-46900000D01*
X72050000Y-51500000D02*
X72050000Y-46900000D01*
X72200000Y-51500000D02*
X72200000Y-46900000D01*
X72350000Y-51500000D02*
X72350000Y-46900000D01*
X72500000Y-51500000D02*
X72500000Y-46900000D01*
X72650000Y-51500000D02*
X72650000Y-46900000D01*
X72800000Y-51500000D02*
X72800000Y-46900000D01*
X72950000Y-51500000D02*
X72950000Y-46900000D01*
X73100000Y-51500000D02*
X73100000Y-46900000D01*
X73250000Y-51500000D02*
X73250000Y-46900000D01*
X73400000Y-51500000D02*
X73400000Y-46900000D01*
X73550000Y-51500000D02*
X73550000Y-46900000D01*
X73700000Y-51500000D02*
X73700000Y-46900000D01*
X73700000Y-51525000D02*
X71725000Y-51525000D01*
X73850000Y-51500000D02*
X73850000Y-46950000D01*
X74000000Y-51550000D02*
X74000000Y-46900000D01*
X74150000Y-51550000D02*
X74150000Y-46900000D01*
X74275000Y-46875000D02*
X71725000Y-46875000D01*
X74275000Y-46875000D02*
X75550000Y-47900000D01*
X74300000Y-51550000D02*
X74300000Y-46950000D01*
X74450000Y-51600000D02*
X74450000Y-47050000D01*
X74600000Y-51700000D02*
X74600000Y-47150000D01*
X74750000Y-51750000D02*
X74750000Y-47300000D01*
X74900000Y-51850000D02*
X74900000Y-47400000D01*
X75050000Y-51950000D02*
X75050000Y-47550000D01*
X75200000Y-52050000D02*
X75200000Y-47650000D01*
X75350000Y-52200000D02*
X75350000Y-47750000D01*
X75500000Y-52350000D02*
X75500000Y-47900000D01*
X75600000Y-52550000D02*
X75600000Y-48400000D01*
X75700000Y-52700000D02*
X75700000Y-48550000D01*
X75800000Y-52900000D02*
X75800000Y-48750000D01*
X75900000Y-53050000D02*
X75900000Y-48850000D01*
X76000000Y-53300000D02*
X76000000Y-48900000D01*
X76100000Y-53450000D02*
X76100000Y-48950000D01*
X76250000Y-53550000D02*
X76250000Y-49000000D01*
X76400000Y-53650000D02*
X76400000Y-49100000D01*
X76550000Y-53700000D02*
X76550000Y-49100000D01*
X76700000Y-53700000D02*
X76700000Y-49100000D01*
X76850000Y-53700000D02*
X76850000Y-49150000D01*
X77000000Y-53700000D02*
X77000000Y-49100000D01*
X77150000Y-53700000D02*
X77150000Y-49100000D01*
X77300000Y-53700000D02*
X77300000Y-49100000D01*
X77450000Y-53700000D02*
X77450000Y-49100000D01*
X77600000Y-53700000D02*
X77600000Y-49100000D01*
X77750000Y-53700000D02*
X77750000Y-49100000D01*
X77900000Y-53700000D02*
X77900000Y-49100000D01*
X78050000Y-53700000D02*
X78050000Y-49100000D01*
X78200000Y-53700000D02*
X78200000Y-49100000D01*
X78350000Y-53700000D02*
X78350000Y-49100000D01*
X78500000Y-53700000D02*
X78500000Y-49100000D01*
X78650000Y-53700000D02*
X78650000Y-49100000D01*
X78800000Y-53700000D02*
X78800000Y-49100000D01*
X78950000Y-53700000D02*
X78950000Y-49100000D01*
X79100000Y-53700000D02*
X79100000Y-49100000D01*
X79250000Y-53700000D02*
X79250000Y-49100000D01*
X79300000Y-49075000D02*
X76725000Y-49075000D01*
X79300000Y-53725000D02*
X76700000Y-53725000D01*
X79400000Y-53700000D02*
X79400000Y-49150000D01*
X79550000Y-53650000D02*
X79550000Y-49150000D01*
X79700000Y-53600000D02*
X79700000Y-49200000D01*
X79850000Y-53500000D02*
X79850000Y-49300000D01*
X79950000Y-53400000D02*
X79950000Y-49450000D01*
X80050000Y-53300000D02*
X80050000Y-49550000D01*
X80150000Y-53150000D02*
X80150000Y-49600000D01*
X80300000Y-50075000D02*
X80300000Y-52725000D01*
X73700000Y-51525000D02*
G75*
G02*
X75837801Y-53021904I-1J-2275002D01*
G01*
X76699005Y-53723791D02*
G75*
G02*
X75837801Y-53021904I38796J926887D01*
G01*
X76725000Y-49075000D02*
G75*
G02*
X75550000Y-47900000I2J1175002D01*
G01*
X79300000Y-49075000D02*
G75*
G02*
X80300000Y-50075000I0J-1000000D01*
G01*
X80300000Y-52725000D02*
G75*
G02*
X79300000Y-53725000I-1000000J0D01*
G01*
%TD*%
%LPC*%
D12*
%TO.C,D17*%
X110626525Y-23000000D03*
X114076525Y-23000000D03*
%TD*%
%TO.C,D15*%
X93626525Y-57000000D03*
X97076525Y-57000000D03*
%TD*%
D13*
%TO.C,SW17*%
X106500000Y-28500000D03*
X106920000Y-28500000D03*
D14*
X107000000Y-32200000D03*
D15*
X107500000Y-28500000D03*
D16*
X112000000Y-28500000D03*
D14*
X112000000Y-34400000D03*
D15*
X116500000Y-28500000D03*
D13*
X117080000Y-28500000D03*
D17*
X117220000Y-24300000D03*
D13*
X117500000Y-28500000D03*
D18*
X103800000Y-32200000D03*
X115400000Y-34400000D03*
%TD*%
D13*
%TO.C,SW1*%
X49500000Y-28500000D03*
X49080000Y-28500000D03*
D14*
X49000000Y-24800000D03*
D15*
X48500000Y-28500000D03*
D16*
X44000000Y-28500000D03*
D14*
X44000000Y-22600000D03*
D15*
X39500000Y-28500000D03*
D13*
X38920000Y-28500000D03*
D17*
X38780000Y-32700000D03*
D13*
X38500000Y-28500000D03*
D18*
X52200000Y-24800000D03*
X40600000Y-22600000D03*
%TD*%
D12*
%TO.C,D19*%
X110626525Y-56975000D03*
X114076525Y-56975000D03*
%TD*%
%TO.C,D22*%
X127126525Y-73500000D03*
X130576525Y-73500000D03*
%TD*%
D13*
%TO.C,SW15*%
X89500000Y-62500000D03*
X89920000Y-62500000D03*
D14*
X90000000Y-66200000D03*
D15*
X90500000Y-62500000D03*
D16*
X95000000Y-62500000D03*
D14*
X95000000Y-68400000D03*
D15*
X99500000Y-62500000D03*
D13*
X100080000Y-62500000D03*
D17*
X100220000Y-58300000D03*
D13*
X100500000Y-62500000D03*
D18*
X86800000Y-66200000D03*
X98400000Y-68400000D03*
%TD*%
D12*
%TO.C,D11*%
X76626525Y-57000000D03*
X80076525Y-57000000D03*
%TD*%
D13*
%TO.C,SW14*%
X89500000Y-45500000D03*
X89920000Y-45500000D03*
D14*
X90000000Y-49200000D03*
D15*
X90500000Y-45500000D03*
D16*
X95000000Y-45500000D03*
D14*
X95000000Y-51400000D03*
D15*
X99500000Y-45500000D03*
D13*
X100080000Y-45500000D03*
D17*
X100220000Y-41300000D03*
D13*
X100500000Y-45500000D03*
D18*
X86800000Y-49200000D03*
X98400000Y-51400000D03*
%TD*%
D13*
%TO.C,SW8*%
X55500000Y-79500000D03*
X55920000Y-79500000D03*
D14*
X56000000Y-83200000D03*
D15*
X56500000Y-79500000D03*
D16*
X61000000Y-79500000D03*
D14*
X61000000Y-85400000D03*
D15*
X65500000Y-79500000D03*
D13*
X66080000Y-79500000D03*
D17*
X66220000Y-75300000D03*
D13*
X66500000Y-79500000D03*
D18*
X52800000Y-83200000D03*
X64400000Y-85400000D03*
%TD*%
D19*
%TO.C,U1*%
X122880000Y-22924000D03*
X122880000Y-25464000D03*
X122880000Y-28004000D03*
X122880000Y-30544000D03*
X122880000Y-33084000D03*
X122880000Y-35624000D03*
X122880000Y-38164000D03*
X139120000Y-38164000D03*
X139120000Y-35624000D03*
X139120000Y-33084000D03*
X139120000Y-30544000D03*
X139120000Y-28004000D03*
X139120000Y-25464000D03*
X139120000Y-22924000D03*
D20*
X134835400Y-39856000D03*
X136715000Y-39856000D03*
X126555000Y-30227000D03*
X126555000Y-28322000D03*
%TD*%
D12*
%TO.C,D5*%
X59626525Y-22975000D03*
X63076525Y-22975000D03*
%TD*%
%TO.C,D21*%
X127126525Y-57000000D03*
X130576525Y-57000000D03*
%TD*%
D20*
%TO.C,SW21*%
X126500000Y-67700000D03*
X131500000Y-67700000D03*
X129000000Y-67700000D03*
D21*
X123400000Y-60200000D03*
X134600000Y-60200000D03*
%TD*%
D13*
%TO.C,SW18*%
X106500000Y-45500000D03*
X106920000Y-45500000D03*
D14*
X107000000Y-49200000D03*
D15*
X107500000Y-45500000D03*
D16*
X112000000Y-45500000D03*
D14*
X112000000Y-51400000D03*
D15*
X116500000Y-45500000D03*
D13*
X117080000Y-45500000D03*
D17*
X117220000Y-41300000D03*
D13*
X117500000Y-45500000D03*
D18*
X103800000Y-49200000D03*
X115400000Y-51400000D03*
%TD*%
D12*
%TO.C,D8*%
X59626525Y-74000000D03*
X63076525Y-74000000D03*
%TD*%
%TO.C,D16*%
X93626525Y-73500000D03*
X97076525Y-73500000D03*
%TD*%
D13*
%TO.C,SW2*%
X49500000Y-45500000D03*
X49080000Y-45500000D03*
D14*
X49000000Y-41800000D03*
D15*
X48500000Y-45500000D03*
D16*
X44000000Y-45500000D03*
D14*
X44000000Y-39600000D03*
D15*
X39500000Y-45500000D03*
D13*
X38920000Y-45500000D03*
D17*
X38780000Y-49700000D03*
D13*
X38500000Y-45500000D03*
D18*
X52200000Y-41800000D03*
X40600000Y-39600000D03*
%TD*%
D12*
%TO.C,D6*%
X59626525Y-40000000D03*
X63076525Y-40000000D03*
%TD*%
D13*
%TO.C,SW13*%
X89500000Y-28500000D03*
X89920000Y-28500000D03*
D14*
X90000000Y-32200000D03*
D15*
X90500000Y-28500000D03*
D16*
X95000000Y-28500000D03*
D14*
X95000000Y-34400000D03*
D15*
X99500000Y-28500000D03*
D13*
X100080000Y-28500000D03*
D17*
X100220000Y-24300000D03*
D13*
X100500000Y-28500000D03*
D18*
X86800000Y-32200000D03*
X98400000Y-34400000D03*
%TD*%
D13*
%TO.C,SW20*%
X106500000Y-79500000D03*
X106920000Y-79500000D03*
D14*
X107000000Y-83200000D03*
D15*
X107500000Y-79500000D03*
D16*
X112000000Y-79500000D03*
D14*
X112000000Y-85400000D03*
D15*
X116500000Y-79500000D03*
D13*
X117080000Y-79500000D03*
D17*
X117220000Y-75300000D03*
D13*
X117500000Y-79500000D03*
D18*
X103800000Y-83200000D03*
X115400000Y-85400000D03*
%TD*%
D12*
%TO.C,D20*%
X110626525Y-73500000D03*
X114076525Y-73500000D03*
%TD*%
D13*
%TO.C,SW3*%
X49500000Y-62475000D03*
X49080000Y-62475000D03*
D14*
X49000000Y-58775000D03*
D15*
X48500000Y-62475000D03*
D16*
X44000000Y-62475000D03*
D14*
X44000000Y-56575000D03*
D15*
X39500000Y-62475000D03*
D13*
X38920000Y-62475000D03*
D17*
X38780000Y-66675000D03*
D13*
X38500000Y-62475000D03*
D18*
X52200000Y-58775000D03*
X40600000Y-56575000D03*
%TD*%
D13*
%TO.C,SW19*%
X106500000Y-62500000D03*
X106920000Y-62500000D03*
D14*
X107000000Y-66200000D03*
D15*
X107500000Y-62500000D03*
D16*
X112000000Y-62500000D03*
D14*
X112000000Y-68400000D03*
D15*
X116500000Y-62500000D03*
D13*
X117080000Y-62500000D03*
D17*
X117220000Y-58300000D03*
D13*
X117500000Y-62500000D03*
D18*
X103800000Y-66200000D03*
X115400000Y-68400000D03*
%TD*%
D13*
%TO.C,SW7*%
X55500000Y-62490000D03*
X55920000Y-62490000D03*
D14*
X56000000Y-66190000D03*
D15*
X56500000Y-62490000D03*
D16*
X61000000Y-62490000D03*
D14*
X61000000Y-68390000D03*
D15*
X65500000Y-62490000D03*
D13*
X66080000Y-62490000D03*
D17*
X66220000Y-58290000D03*
D13*
X66500000Y-62490000D03*
D18*
X52800000Y-66190000D03*
X64400000Y-68390000D03*
%TD*%
D12*
%TO.C,D4*%
X45299975Y-84800000D03*
X41849975Y-84800000D03*
%TD*%
D13*
%TO.C,SW6*%
X55500000Y-45500000D03*
X55920000Y-45500000D03*
D14*
X56000000Y-49200000D03*
D15*
X56500000Y-45500000D03*
D16*
X61000000Y-45500000D03*
D14*
X61000000Y-51400000D03*
D15*
X65500000Y-45500000D03*
D13*
X66080000Y-45500000D03*
D17*
X66220000Y-41300000D03*
D13*
X66500000Y-45500000D03*
D18*
X52800000Y-49200000D03*
X64400000Y-51400000D03*
%TD*%
D12*
%TO.C,D9*%
X76626525Y-22975000D03*
X80076525Y-22975000D03*
%TD*%
%TO.C,D1*%
X45749975Y-33575000D03*
X42299975Y-33575000D03*
%TD*%
D13*
%TO.C,SW9*%
X72480000Y-28500000D03*
X72900000Y-28500000D03*
D14*
X72980000Y-32200000D03*
D15*
X73480000Y-28500000D03*
D16*
X77980000Y-28500000D03*
D14*
X77980000Y-34400000D03*
D15*
X82480000Y-28500000D03*
D13*
X83060000Y-28500000D03*
D17*
X83200000Y-24300000D03*
D13*
X83480000Y-28500000D03*
D18*
X69780000Y-32200000D03*
X81380000Y-34400000D03*
%TD*%
D13*
%TO.C,SW4*%
X49500000Y-79500000D03*
X49080000Y-79500000D03*
D14*
X49000000Y-75800000D03*
D15*
X48500000Y-79500000D03*
D16*
X44000000Y-79500000D03*
D14*
X44000000Y-73600000D03*
D15*
X39500000Y-79500000D03*
D13*
X38920000Y-79500000D03*
D17*
X38780000Y-83700000D03*
D13*
X38500000Y-79500000D03*
D18*
X52200000Y-75800000D03*
X40600000Y-73600000D03*
%TD*%
D13*
%TO.C,SW12*%
X72500000Y-79500000D03*
X72920000Y-79500000D03*
D14*
X73000000Y-83200000D03*
D15*
X73500000Y-79500000D03*
D16*
X78000000Y-79500000D03*
D14*
X78000000Y-85400000D03*
D15*
X82500000Y-79500000D03*
D13*
X83080000Y-79500000D03*
D17*
X83220000Y-75300000D03*
D13*
X83500000Y-79500000D03*
D18*
X69800000Y-83200000D03*
X81400000Y-85400000D03*
%TD*%
D12*
%TO.C,D2*%
X45523475Y-50450000D03*
X42073475Y-50450000D03*
%TD*%
D13*
%TO.C,SW11*%
X72500000Y-62500000D03*
X72920000Y-62500000D03*
D14*
X73000000Y-66200000D03*
D15*
X73500000Y-62500000D03*
D16*
X78000000Y-62500000D03*
D14*
X78000000Y-68400000D03*
D15*
X82500000Y-62500000D03*
D13*
X83080000Y-62500000D03*
D17*
X83220000Y-58300000D03*
D13*
X83500000Y-62500000D03*
D18*
X69800000Y-66200000D03*
X81400000Y-68400000D03*
%TD*%
D12*
%TO.C,D13*%
X93626525Y-23000000D03*
X97076525Y-23000000D03*
%TD*%
D22*
%TO.C,SW24*%
X140200000Y-54500000D03*
X140200000Y-57500000D03*
%TD*%
D13*
%TO.C,SW16*%
X89490000Y-79485000D03*
X89910000Y-79485000D03*
D14*
X89990000Y-83185000D03*
D15*
X90490000Y-79485000D03*
D16*
X94990000Y-79485000D03*
D14*
X94990000Y-85385000D03*
D15*
X99490000Y-79485000D03*
D13*
X100070000Y-79485000D03*
D17*
X100210000Y-75285000D03*
D13*
X100490000Y-79485000D03*
D18*
X86790000Y-83185000D03*
X98390000Y-85385000D03*
%TD*%
D13*
%TO.C,SW22*%
X123500000Y-79500000D03*
X123920000Y-79500000D03*
D14*
X124000000Y-83200000D03*
D15*
X124500000Y-79500000D03*
D16*
X129000000Y-79500000D03*
D14*
X129000000Y-85400000D03*
D15*
X133500000Y-79500000D03*
D13*
X134080000Y-79500000D03*
D17*
X134220000Y-75300000D03*
D13*
X134500000Y-79500000D03*
D18*
X120800000Y-83200000D03*
X132400000Y-85400000D03*
%TD*%
D12*
%TO.C,D18*%
X110626525Y-40000000D03*
X114076525Y-40000000D03*
%TD*%
D13*
%TO.C,SW5*%
X55510000Y-28500000D03*
X55930000Y-28500000D03*
D14*
X56010000Y-32200000D03*
D15*
X56510000Y-28500000D03*
D16*
X61010000Y-28500000D03*
D14*
X61010000Y-34400000D03*
D15*
X65510000Y-28500000D03*
D13*
X66090000Y-28500000D03*
D17*
X66230000Y-24300000D03*
D13*
X66510000Y-28500000D03*
D18*
X52810000Y-32200000D03*
X64410000Y-34400000D03*
%TD*%
D12*
%TO.C,D7*%
X59626525Y-57000000D03*
X63076525Y-57000000D03*
%TD*%
%TO.C,D10*%
X76626525Y-40000000D03*
X80076525Y-40000000D03*
%TD*%
%TO.C,D12*%
X76626525Y-74000000D03*
X80076525Y-74000000D03*
%TD*%
%TO.C,D14*%
X93626525Y-40000000D03*
X97076525Y-40000000D03*
%TD*%
%TO.C,D3*%
X45174975Y-67775000D03*
X41724975Y-67775000D03*
%TD*%
D13*
%TO.C,SW10*%
X72500000Y-45500000D03*
X72920000Y-45500000D03*
D14*
X73000000Y-49200000D03*
D15*
X73500000Y-45500000D03*
D16*
X78000000Y-45500000D03*
D14*
X78000000Y-51400000D03*
D15*
X82500000Y-45500000D03*
D13*
X83080000Y-45500000D03*
D17*
X83220000Y-41300000D03*
D13*
X83500000Y-45500000D03*
D18*
X69800000Y-49200000D03*
X81400000Y-51400000D03*
%TD*%
%LPD*%
M02*
