M48
; DRILL file {KiCad 9.0.2} date 2025-12-03T23:59:17+0900
; FORMAT={-:-/ absolute / inch / decimal}
; #@! TF.CreationDate,2025-12-03T23:59:17+09:00
; #@! TF.GenerationSoftware,Kicad,Pcbnew,9.0.2
; #@! TF.FileFunction,NonPlated,1,2,NPTH
FMAT,2
INCH
; #@! TA.AperFunction,NonPlated,NPTH,ComponentDrill
T1C0.0354
; #@! TA.AperFunction,NonPlated,NPTH,ComponentDrill
T2C0.0394
; #@! TA.AperFunction,NonPlated,NPTH,ComponentDrill
T3C0.0669
; #@! TA.AperFunction,NonPlated,NPTH,ComponentDrill
T4C0.0748
; #@! TA.AperFunction,NonPlated,NPTH,ComponentDrill
T5C0.1181
; #@! TA.AperFunction,NonPlated,NPTH,ComponentDrill
T6C0.1969
%
G90
G05
T1
X5.5197Y-2.1457
X5.5197Y-2.2638
T2
X1.5268Y-1.2874
X1.5268Y-1.9567
X1.5268Y-2.625
X1.5268Y-3.2953
X2.6071Y-1.626
X2.6071Y-2.2949
X2.6071Y-2.9646
X2.6075Y-0.9567
X3.2756Y-0.9567
X3.2764Y-1.626
X3.2764Y-2.2953
X3.2764Y-2.9646
X3.9453Y-2.964
X3.9457Y-0.9567
X3.9457Y-1.626
X3.9457Y-2.2953
X4.615Y-0.9567
X4.615Y-1.626
X4.615Y-2.2953
X4.615Y-2.9646
X5.2843Y-2.9646
T3
X1.5157Y-1.122
X1.5157Y-1.7913
X1.5157Y-2.4596
X1.5157Y-3.1299
X1.5551Y-1.122
X1.5551Y-1.7913
X1.5551Y-2.4596
X1.5551Y-3.1299
X1.9094Y-1.122
X1.9094Y-1.7913
X1.9094Y-2.4596
X1.9094Y-3.1299
X1.9488Y-1.122
X1.9488Y-1.7913
X1.9488Y-2.4596
X1.9488Y-3.1299
X2.185Y-1.7913
X2.185Y-2.4602
X2.185Y-3.1299
X2.1854Y-1.122
X2.2244Y-1.7913
X2.2244Y-2.4602
X2.2244Y-3.1299
X2.2248Y-1.122
X2.5787Y-1.7913
X2.5787Y-2.4602
X2.5787Y-3.1299
X2.5791Y-1.122
X2.6181Y-1.7913
X2.6181Y-2.4602
X2.6181Y-3.1299
X2.6185Y-1.122
X2.8535Y-1.122
X2.8543Y-1.7913
X2.8543Y-2.4606
X2.8543Y-3.1299
X2.8929Y-1.122
X2.8937Y-1.7913
X2.8937Y-2.4606
X2.8937Y-3.1299
X3.2472Y-1.122
X3.248Y-1.7913
X3.248Y-2.4606
X3.248Y-3.1299
X3.2866Y-1.122
X3.2874Y-1.7913
X3.2874Y-2.4606
X3.2874Y-3.1299
X3.5232Y-3.1293
X3.5236Y-1.122
X3.5236Y-1.7913
X3.5236Y-2.4606
X3.5626Y-3.1293
X3.563Y-1.122
X3.563Y-1.7913
X3.563Y-2.4606
X3.9169Y-3.1293
X3.9173Y-1.122
X3.9173Y-1.7913
X3.9173Y-2.4606
X3.9563Y-3.1293
X3.9567Y-1.122
X3.9567Y-1.7913
X3.9567Y-2.4606
X4.1929Y-1.122
X4.1929Y-1.7913
X4.1929Y-2.4606
X4.1929Y-3.1299
X4.2323Y-1.122
X4.2323Y-1.7913
X4.2323Y-2.4606
X4.2323Y-3.1299
X4.5866Y-1.122
X4.5866Y-1.7913
X4.5866Y-2.4606
X4.5866Y-3.1299
X4.626Y-1.122
X4.626Y-1.7913
X4.626Y-2.4606
X4.626Y-3.1299
X4.8622Y-3.1299
X4.9016Y-3.1299
X5.2559Y-3.1299
X5.2953Y-3.1299
T4
X1.5157Y-1.122
X1.5157Y-1.7913
X1.5157Y-2.4596
X1.5157Y-3.1299
X1.5323Y-1.122
X1.5323Y-1.7913
X1.5323Y-2.4596
X1.5323Y-3.1299
X1.9323Y-1.122
X1.9323Y-1.7913
X1.9323Y-2.4596
X1.9323Y-3.1299
X1.9488Y-1.122
X1.9488Y-1.7913
X1.9488Y-2.4596
X1.9488Y-3.1299
X2.185Y-1.7913
X2.185Y-2.4602
X2.185Y-3.1299
X2.1854Y-1.122
X2.2016Y-1.7913
X2.2016Y-2.4602
X2.2016Y-3.1299
X2.202Y-1.122
X2.6016Y-1.7913
X2.6016Y-2.4602
X2.6016Y-3.1299
X2.602Y-1.122
X2.6181Y-1.7913
X2.6181Y-2.4602
X2.6181Y-3.1299
X2.6185Y-1.122
X2.8535Y-1.122
X2.8543Y-1.7913
X2.8543Y-2.4606
X2.8543Y-3.1299
X2.8701Y-1.122
X2.8709Y-1.7913
X2.8709Y-2.4606
X2.8709Y-3.1299
X3.2701Y-1.122
X3.2709Y-1.7913
X3.2709Y-2.4606
X3.2709Y-3.1299
X3.2866Y-1.122
X3.2874Y-1.7913
X3.2874Y-2.4606
X3.2874Y-3.1299
X3.5232Y-3.1293
X3.5236Y-1.122
X3.5236Y-1.7913
X3.5236Y-2.4606
X3.5398Y-3.1293
X3.5402Y-1.122
X3.5402Y-1.7913
X3.5402Y-2.4606
X3.9398Y-3.1293
X3.9402Y-1.122
X3.9402Y-1.7913
X3.9402Y-2.4606
X3.9563Y-3.1293
X3.9567Y-1.122
X3.9567Y-1.7913
X3.9567Y-2.4606
X4.1929Y-1.122
X4.1929Y-1.7913
X4.1929Y-2.4606
X4.1929Y-3.1299
X4.2094Y-1.122
X4.2094Y-1.7913
X4.2094Y-2.4606
X4.2094Y-3.1299
X4.6094Y-1.122
X4.6094Y-1.7913
X4.6094Y-2.4606
X4.6094Y-3.1299
X4.626Y-1.122
X4.626Y-1.7913
X4.626Y-2.4606
X4.626Y-3.1299
X4.8622Y-3.1299
X4.8787Y-3.1299
X5.2787Y-3.1299
X5.2953Y-3.1299
T5
X1.7323Y-0.8898
X1.7323Y-1.5591
X1.7323Y-2.2274
X1.7323Y-2.8976
X1.9291Y-0.9764
X1.9291Y-1.6457
X1.9291Y-2.314
X1.9291Y-2.9843
X2.2047Y-1.937
X2.2047Y-2.6059
X2.2047Y-3.2756
X2.2051Y-1.2677
X2.4016Y-2.0236
X2.4016Y-2.6925
X2.4016Y-3.3622
X2.402Y-1.3543
X2.8732Y-1.2677
X2.874Y-1.937
X2.874Y-2.6063
X2.874Y-3.2756
X3.0701Y-1.3543
X3.0709Y-2.0236
X3.0709Y-2.6929
X3.0709Y-3.3622
X3.5429Y-3.275
X3.5433Y-1.2677
X3.5433Y-1.937
X3.5433Y-2.6063
X3.7398Y-3.3616
X3.7402Y-1.3543
X3.7402Y-2.0236
X3.7402Y-2.6929
X4.2126Y-1.2677
X4.2126Y-1.937
X4.2126Y-2.6063
X4.2126Y-3.2756
X4.4094Y-1.3543
X4.4094Y-2.0236
X4.4094Y-2.6929
X4.4094Y-3.3622
X4.8819Y-3.2756
X5.0787Y-3.3622
T6
X1.7323Y-1.122
X1.7323Y-1.7913
X1.7323Y-2.4596
X1.7323Y-3.1299
X2.4016Y-1.7913
X2.4016Y-2.4602
X2.4016Y-3.1299
X2.402Y-1.122
X3.0701Y-1.122
X3.0709Y-1.7913
X3.0709Y-2.4606
X3.0709Y-3.1299
X3.7398Y-3.1293
X3.7402Y-1.122
X3.7402Y-1.7913
X3.7402Y-2.4606
X4.4094Y-1.122
X4.4094Y-1.7913
X4.4094Y-2.4606
X4.4094Y-3.1299
X5.0787Y-3.1299
M30
