%TF.GenerationSoftware,KiCad,Pcbnew,9.0.2*%
%TF.CreationDate,2025-12-07T23:51:36+09:00*%
%TF.ProjectId,FrostOrtho_L,46726f73-744f-4727-9468-6f5f4c2e6b69,rev?*%
%TF.SameCoordinates,Original*%
%TF.FileFunction,Soldermask,Top*%
%TF.FilePolarity,Negative*%
%FSLAX46Y46*%
G04 Gerber Fmt 4.6, Leading zero omitted, Abs format (unit mm)*
G04 Created by KiCad (PCBNEW 9.0.2) date 2025-12-07 23:51:36*
%MOMM*%
%LPD*%
G01*
G04 APERTURE LIST*
G04 Aperture macros list*
%AMRoundRect*
0 Rectangle with rounded corners*
0 $1 Rounding radius*
0 $2 $3 $4 $5 $6 $7 $8 $9 X,Y pos of 4 corners*
0 Add a 4 corners polygon primitive as box body*
4,1,4,$2,$3,$4,$5,$6,$7,$8,$9,$2,$3,0*
0 Add four circle primitives for the rounded corners*
1,1,$1+$1,$2,$3*
1,1,$1+$1,$4,$5*
1,1,$1+$1,$6,$7*
1,1,$1+$1,$8,$9*
0 Add four rect primitives between the rounded corners*
20,1,$1+$1,$2,$3,$4,$5,0*
20,1,$1+$1,$4,$5,$6,$7,0*
20,1,$1+$1,$6,$7,$8,$9,0*
20,1,$1+$1,$8,$9,$2,$3,0*%
G04 Aperture macros list end*
%ADD10C,1.900000*%
%ADD11C,3.100000*%
%ADD12RoundRect,0.102000X-1.750000X0.500000X-1.750000X-0.500000X1.750000X-0.500000X1.750000X0.500000X0*%
%ADD13RoundRect,0.102000X-1.700000X0.750000X-1.700000X-0.750000X1.700000X-0.750000X1.700000X0.750000X0*%
%ADD14O,2.750000X1.800000*%
%ADD15C,1.500000*%
%ADD16C,4.350000*%
%ADD17RoundRect,0.200000X0.200000X-0.475000X0.200000X0.475000X-0.200000X0.475000X-0.200000X-0.475000X0*%
%ADD18RoundRect,0.287500X0.467500X-0.287500X0.467500X0.287500X-0.467500X0.287500X-0.467500X-0.287500X0*%
%ADD19RoundRect,0.262500X0.487500X-0.262500X0.487500X0.262500X-0.487500X0.262500X-0.487500X-0.262500X0*%
%ADD20RoundRect,0.275000X0.475000X-0.275000X0.475000X0.275000X-0.475000X0.275000X-0.475000X-0.275000X0*%
G04 APERTURE END LIST*
D10*
%TO.C,SW17*%
X106500000Y-28500000D03*
D11*
X107000000Y-32200000D03*
X112000000Y-34400000D03*
D10*
X117500000Y-28500000D03*
%TD*%
%TO.C,SW1*%
X49500000Y-28500000D03*
D11*
X49000000Y-24800000D03*
X44000000Y-22600000D03*
D10*
X38500000Y-28500000D03*
%TD*%
D12*
%TO.C,B1*%
X125000000Y-45000000D03*
X125000000Y-47000000D03*
D13*
X130750000Y-49350000D03*
X130750000Y-42650000D03*
%TD*%
D10*
%TO.C,SW15*%
X89500000Y-62500000D03*
D11*
X90000000Y-66200000D03*
X95000000Y-68400000D03*
D10*
X100500000Y-62500000D03*
%TD*%
%TO.C,SW14*%
X89500000Y-45500000D03*
D11*
X90000000Y-49200000D03*
X95000000Y-51400000D03*
D10*
X100500000Y-45500000D03*
%TD*%
%TO.C,SW8*%
X55500000Y-79500000D03*
D11*
X56000000Y-83200000D03*
X61000000Y-85400000D03*
D10*
X66500000Y-79500000D03*
%TD*%
D14*
%TO.C,U1*%
X122880000Y-22924000D03*
X122880000Y-25464000D03*
X122880000Y-28004000D03*
X122880000Y-30544000D03*
X122880000Y-33084000D03*
X122880000Y-35624000D03*
X122880000Y-38164000D03*
X139120000Y-38164000D03*
X139120000Y-35624000D03*
X139120000Y-33084000D03*
X139120000Y-30544000D03*
X139120000Y-28004000D03*
X139120000Y-25464000D03*
X139120000Y-22924000D03*
D15*
X134835400Y-39856000D03*
X136715000Y-39856000D03*
X126555000Y-30227000D03*
X126555000Y-28322000D03*
%TD*%
%TO.C,SW21*%
X126500000Y-67700000D03*
X131500000Y-67700000D03*
X129000000Y-67700000D03*
D16*
X123400000Y-60200000D03*
X134600000Y-60200000D03*
%TD*%
D10*
%TO.C,SW18*%
X106500000Y-45500000D03*
D11*
X107000000Y-49200000D03*
X112000000Y-51400000D03*
D10*
X117500000Y-45500000D03*
%TD*%
%TO.C,SW2*%
X49500000Y-45500000D03*
D11*
X49000000Y-41800000D03*
X44000000Y-39600000D03*
D10*
X38500000Y-45500000D03*
%TD*%
%TO.C,SW13*%
X89500000Y-28500000D03*
D11*
X90000000Y-32200000D03*
X95000000Y-34400000D03*
D10*
X100500000Y-28500000D03*
%TD*%
%TO.C,SW20*%
X106500000Y-79500000D03*
D11*
X107000000Y-83200000D03*
X112000000Y-85400000D03*
D10*
X117500000Y-79500000D03*
%TD*%
%TO.C,SW3*%
X49500000Y-62475000D03*
D11*
X49000000Y-58775000D03*
X44000000Y-56575000D03*
D10*
X38500000Y-62475000D03*
%TD*%
%TO.C,SW19*%
X106500000Y-62500000D03*
D11*
X107000000Y-66200000D03*
X112000000Y-68400000D03*
D10*
X117500000Y-62500000D03*
%TD*%
%TO.C,SW7*%
X55500000Y-62490000D03*
D11*
X56000000Y-66190000D03*
X61000000Y-68390000D03*
D10*
X66500000Y-62490000D03*
%TD*%
%TO.C,SW6*%
X55500000Y-45500000D03*
D11*
X56000000Y-49200000D03*
X61000000Y-51400000D03*
D10*
X66500000Y-45500000D03*
%TD*%
%TO.C,SW9*%
X72480000Y-28500000D03*
D11*
X72980000Y-32200000D03*
X77980000Y-34400000D03*
D10*
X83480000Y-28500000D03*
%TD*%
%TO.C,SW4*%
X49500000Y-79500000D03*
D11*
X49000000Y-75800000D03*
X44000000Y-73600000D03*
D10*
X38500000Y-79500000D03*
%TD*%
%TO.C,SW12*%
X72500000Y-79500000D03*
D11*
X73000000Y-83200000D03*
X78000000Y-85400000D03*
D10*
X83500000Y-79500000D03*
%TD*%
%TO.C,SW11*%
X72500000Y-62500000D03*
D11*
X73000000Y-66200000D03*
X78000000Y-68400000D03*
D10*
X83500000Y-62500000D03*
%TD*%
D17*
%TO.C,SW24*%
X141300000Y-52175000D03*
X139090000Y-52175000D03*
X141300000Y-59825000D03*
X139090000Y-59825000D03*
D18*
X138445000Y-58275000D03*
D19*
X138440000Y-55425000D03*
D20*
X138440000Y-53750000D03*
%TD*%
D10*
%TO.C,SW16*%
X89490000Y-79485000D03*
D11*
X89990000Y-83185000D03*
X94990000Y-85385000D03*
D10*
X100490000Y-79485000D03*
%TD*%
%TO.C,SW22*%
X123500000Y-79500000D03*
D11*
X124000000Y-83200000D03*
X129000000Y-85400000D03*
D10*
X134500000Y-79500000D03*
%TD*%
%TO.C,SW5*%
X55510000Y-28500000D03*
D11*
X56010000Y-32200000D03*
X61010000Y-34400000D03*
D10*
X66510000Y-28500000D03*
%TD*%
%TO.C,SW10*%
X72500000Y-45500000D03*
D11*
X73000000Y-49200000D03*
X78000000Y-51400000D03*
D10*
X83500000Y-45500000D03*
%TD*%
M02*
