M48
; DRILL file {KiCad 9.0.2} date 2025-12-03T23:59:17+0900
; FORMAT={-:-/ absolute / inch / decimal}
; #@! TF.CreationDate,2025-12-03T23:59:17+09:00
; #@! TF.GenerationSoftware,Kicad,Pcbnew,9.0.2
; #@! TF.FileFunction,Plated,1,2,PTH
FMAT,2
INCH
; #@! TA.AperFunction,Plated,PTH,ViaDrill
T1C0.0118
; #@! TA.AperFunction,Plated,PTH,ComponentDrill
T2C0.0320
; #@! TA.AperFunction,Plated,PTH,ComponentDrill
T3C0.0394
; #@! TA.AperFunction,Plated,PTH,ComponentDrill
T4C0.0866
%
G90
G05
T1
X1.8108Y-2.9667
X1.817Y-2.5493
X1.821Y-1.8994
X2.1017Y-1.4045
X2.1264Y-1.4287
X2.4037Y-1.5783
X2.4037Y-2.2427
X2.4037Y-2.9085
X2.7727Y-1.4219
X2.9728Y-2.2427
X2.9746Y-2.9432
X2.9753Y-1.5448
X3.4173Y-1.5422
X3.4524Y-2.2427
X3.4524Y-2.93
X4.1736Y-1.5909
X4.3544Y-2.2044
X4.3544Y-2.957
X5.0786Y-1.8654
X5.0993Y-2.3595
X5.2004Y-1.8327
T2
X4.8575Y-0.9025
X4.8575Y-1.0025
X4.8575Y-1.1025
X4.8575Y-1.2025
X4.8575Y-1.3025
X4.8575Y-1.4025
X4.8575Y-1.5025
X5.4575Y-0.9025
X5.4575Y-1.0025
X5.4575Y-1.1025
X5.4575Y-1.2025
X5.4575Y-1.3025
X5.4575Y-1.4025
X5.4575Y-1.5025
T3
X4.9803Y-2.6654
X4.9825Y-1.115
X4.9825Y-1.19
X5.0787Y-2.6654
X5.1772Y-2.6654
X5.3085Y-1.5691
X5.3825Y-1.5691
T4
X4.8583Y-2.3701
X5.2992Y-2.3701
M30
