M48
; DRILL file {KiCad 9.0.2} date 2026-05-28T22:25:02+0900
; FORMAT={-:-/ absolute / inch / decimal}
; #@! TF.CreationDate,2026-05-28T22:25:02+09:00
; #@! TF.GenerationSoftware,Kicad,Pcbnew,9.0.2
; #@! TF.FileFunction,NonPlated,1,2,NPTH
FMAT,2
INCH
; #@! TA.AperFunction,NonPlated,NPTH,ComponentDrill
T1C0.1181
; #@! TA.AperFunction,NonPlated,NPTH,ComponentDrill
T2C0.1969
%
G90
G05
T1
X2.8937Y-1.0866
X2.8937Y-1.7559
X2.8937Y-2.4252
X2.8937Y-3.0945
X3.0906Y-1.1732
X3.0906Y-1.8425
X3.0906Y-2.5118
X3.0906Y-3.1811
X3.563Y-1.0866
X3.563Y-1.7559
X3.563Y-2.4252
X3.563Y-3.0945
X3.7598Y-1.1732
X3.7598Y-1.8425
X3.7598Y-2.5118
X3.7598Y-3.1811
X4.2315Y-2.4252
X4.2323Y-1.0866
X4.2323Y-1.7559
X4.2323Y-3.0945
X4.4283Y-2.5118
X4.4291Y-1.1732
X4.4291Y-1.8425
X4.4291Y-3.1811
X4.9016Y-1.0866
X4.9016Y-1.7559
X4.9016Y-2.4252
X4.9016Y-3.0945
X5.0984Y-1.1732
X5.0984Y-1.8425
X5.0984Y-2.5118
X5.0984Y-3.1811
X5.5709Y-1.0866
X5.5709Y-1.7559
X5.5709Y-2.4252
X5.5709Y-3.0949
X5.7677Y-1.1732
X5.7677Y-1.8425
X5.7677Y-2.5118
X5.7677Y-3.1815
T2
X2.8937Y-1.3189
X2.8937Y-1.9882
X2.8937Y-2.6575
X2.8937Y-3.3268
X3.563Y-1.3189
X3.563Y-1.9882
X3.563Y-2.6575
X3.563Y-3.3268
X4.2315Y-2.6575
X4.2323Y-1.3189
X4.2323Y-1.9882
X4.2323Y-3.3268
X4.9016Y-1.3189
X4.9016Y-1.9882
X4.9016Y-2.6575
X4.9016Y-3.3268
X5.5709Y-1.3189
X5.5709Y-1.9882
X5.5709Y-2.6575
X5.5709Y-3.3272
M30
