%TF.GenerationSoftware,KiCad,Pcbnew,9.0.2*%
%TF.CreationDate,2026-05-28T22:25:02+09:00*%
%TF.ProjectId,FrostOrtho_R,46726f73-744f-4727-9468-6f5f522e6b69,rev?*%
%TF.SameCoordinates,Original*%
%TF.FileFunction,Soldermask,Top*%
%TF.FilePolarity,Negative*%
%FSLAX46Y46*%
G04 Gerber Fmt 4.6, Leading zero omitted, Abs format (unit mm)*
G04 Created by KiCad (PCBNEW 9.0.2) date 2026-05-28 22:25:02*
%MOMM*%
%LPD*%
G01*
G04 APERTURE LIST*
%ADD10C,3.100000*%
%ADD11O,2.750000X1.800000*%
%ADD12C,1.500000*%
%ADD13O,1.200000X1.500000*%
G04 APERTURE END LIST*
D10*
%TO.C,SW15*%
X129500000Y-63800000D03*
X124500000Y-61600000D03*
%TD*%
%TO.C,SW20*%
X146500000Y-80810000D03*
X141500000Y-78610000D03*
%TD*%
%TO.C,SW18*%
X146500000Y-46800000D03*
X141500000Y-44600000D03*
%TD*%
%TO.C,SW5*%
X95500000Y-29800000D03*
X90500000Y-27600000D03*
%TD*%
%TO.C,SW16*%
X129500000Y-80800000D03*
X124500000Y-78600000D03*
%TD*%
%TO.C,SW2*%
X78500000Y-46800000D03*
X73500000Y-44600000D03*
%TD*%
%TO.C,SW12*%
X112500000Y-80800000D03*
X107500000Y-78600000D03*
%TD*%
%TO.C,SW6*%
X95500000Y-46800000D03*
X90500000Y-44600000D03*
%TD*%
%TO.C,SW4*%
X78500000Y-80800000D03*
X73500000Y-78600000D03*
%TD*%
%TO.C,SW3*%
X78500000Y-63800000D03*
X73500000Y-61600000D03*
%TD*%
%TO.C,SW13*%
X129500000Y-29800000D03*
X124500000Y-27600000D03*
%TD*%
%TO.C,SW10*%
X112500000Y-46800000D03*
X107500000Y-44600000D03*
%TD*%
%TO.C,SW14*%
X129500000Y-46800000D03*
X124500000Y-44600000D03*
%TD*%
%TO.C,SW8*%
X95500000Y-80800000D03*
X90500000Y-78600000D03*
%TD*%
%TO.C,SW9*%
X112500000Y-29800000D03*
X107500000Y-27600000D03*
%TD*%
%TO.C,SW11*%
X112480000Y-63800000D03*
X107480000Y-61600000D03*
%TD*%
%TO.C,SW7*%
X95500000Y-63800000D03*
X90500000Y-61600000D03*
%TD*%
D11*
%TO.C,U1*%
X46380000Y-27924000D03*
X46380000Y-30464000D03*
X46380000Y-33004000D03*
X46380000Y-35544000D03*
X46380000Y-38084000D03*
X46380000Y-40624000D03*
X46380000Y-43164000D03*
X62620000Y-43164000D03*
X62620000Y-40624000D03*
X62620000Y-38084000D03*
X62620000Y-35544000D03*
X62620000Y-33004000D03*
X62620000Y-30464000D03*
X62620000Y-27924000D03*
D12*
X58335400Y-44856000D03*
X60215000Y-44856000D03*
X50055000Y-35227000D03*
X50055000Y-33322000D03*
%TD*%
D10*
%TO.C,SW1*%
X78500000Y-29800000D03*
X73500000Y-27600000D03*
%TD*%
%TO.C,SW19*%
X146500000Y-63800000D03*
X141500000Y-61600000D03*
%TD*%
%TO.C,SW17*%
X146500000Y-29800000D03*
X141500000Y-27600000D03*
%TD*%
D13*
%TO.C,SW21*%
X46500000Y-59000000D03*
X46500000Y-61500000D03*
X46500000Y-64000000D03*
%TD*%
M02*
