M48
; DRILL file {KiCad 9.0.2} date 2025-12-07T23:57:28+0900
; FORMAT={-:-/ absolute / inch / decimal}
; #@! TF.CreationDate,2025-12-07T23:57:28+09:00
; #@! TF.GenerationSoftware,Kicad,Pcbnew,9.0.2
; #@! TF.FileFunction,Plated,1,2,PTH
FMAT,2
INCH
; #@! TA.AperFunction,Plated,PTH,ViaDrill
T1C0.0118
; #@! TA.AperFunction,Plated,PTH,ComponentDrill
T2C0.0320
; #@! TA.AperFunction,Plated,PTH,ComponentDrill
T3C0.0394
%
G90
G05
T1
X2.2441Y-1.8641
X2.438Y-1.8085
X2.4906Y-2.4404
X2.6816Y-1.1174
X2.9718Y-2.7471
X3.0314Y-1.5494
X3.0542Y-3.0787
X3.066Y-2.09
X3.142Y-1.4327
X3.1671Y-1.4665
X3.4067Y-1.6232
X3.5337Y-1.7853
X3.5487Y-2.4404
X3.5487Y-3.1412
X3.8377Y-1.4816
X4.1488Y-3.1741
X4.2026Y-2.4404
X4.2032Y-1.7624
X4.5787Y-1.6227
X4.6072Y-1.7395
X4.6072Y-2.4404
X4.8322Y-3.1741
X5.248Y-1.7079
X5.2906Y-1.7395
X5.3864Y-2.4404
X5.3864Y-3.1412
T2
X1.8457Y-1.0994
X1.8457Y-1.1994
X1.8457Y-1.2994
X1.8457Y-1.3994
X1.8457Y-1.4994
X1.8457Y-1.5994
X1.8457Y-1.6994
X2.4457Y-1.0994
X2.4457Y-1.1994
X2.4457Y-1.2994
X2.4457Y-1.3994
X2.4457Y-1.4994
X2.4457Y-1.5994
X2.4457Y-1.6994
T3
X1.8055Y-2.7126
X1.9055Y-2.7126
X1.9707Y-1.3119
X1.9707Y-1.3869
X2.0055Y-2.7126
X2.1055Y-2.7126
X2.2055Y-2.7126
X2.2967Y-1.766
X2.3055Y-2.7126
X2.3707Y-1.766
X2.4055Y-2.7126
M30
