%TF.GenerationSoftware,KiCad,Pcbnew,9.0.2*%
%TF.CreationDate,2025-12-04T00:45:17+09:00*%
%TF.ProjectId,FrostOrtho_R,46726f73-744f-4727-9468-6f5f522e6b69,rev?*%
%TF.SameCoordinates,Original*%
%TF.FileFunction,Copper,L1,Top*%
%TF.FilePolarity,Positive*%
%FSLAX46Y46*%
G04 Gerber Fmt 4.6, Leading zero omitted, Abs format (unit mm)*
G04 Created by KiCad (PCBNEW 9.0.2) date 2025-12-04 00:45:17*
%MOMM*%
%LPD*%
G01*
G04 APERTURE LIST*
G04 Aperture macros list*
%AMRoundRect*
0 Rectangle with rounded corners*
0 $1 Rounding radius*
0 $2 $3 $4 $5 $6 $7 $8 $9 X,Y pos of 4 corners*
0 Add a 4 corners polygon primitive as box body*
4,1,4,$2,$3,$4,$5,$6,$7,$8,$9,$2,$3,0*
0 Add four circle primitives for the rounded corners*
1,1,$1+$1,$2,$3*
1,1,$1+$1,$4,$5*
1,1,$1+$1,$6,$7*
1,1,$1+$1,$8,$9*
0 Add four rect primitives between the rounded corners*
20,1,$1+$1,$2,$3,$4,$5,0*
20,1,$1+$1,$4,$5,$6,$7,0*
20,1,$1+$1,$6,$7,$8,$9,0*
20,1,$1+$1,$8,$9,$2,$3,0*%
G04 Aperture macros list end*
%TA.AperFunction,WasherPad*%
%ADD10C,1.900000*%
%TD*%
%TA.AperFunction,WasherPad*%
%ADD11C,3.100000*%
%TD*%
%TA.AperFunction,SMDPad,CuDef*%
%ADD12R,3.500000X1.000000*%
%TD*%
%TA.AperFunction,SMDPad,CuDef*%
%ADD13R,3.400000X1.500000*%
%TD*%
%TA.AperFunction,SMDPad,CuDef*%
%ADD14RoundRect,0.200000X-0.200000X0.475000X-0.200000X-0.475000X0.200000X-0.475000X0.200000X0.475000X0*%
%TD*%
%TA.AperFunction,SMDPad,CuDef*%
%ADD15RoundRect,0.287500X-0.467500X0.287500X-0.467500X-0.287500X0.467500X-0.287500X0.467500X0.287500X0*%
%TD*%
%TA.AperFunction,SMDPad,CuDef*%
%ADD16RoundRect,0.262500X-0.487500X0.262500X-0.487500X-0.262500X0.487500X-0.262500X0.487500X0.262500X0*%
%TD*%
%TA.AperFunction,SMDPad,CuDef*%
%ADD17RoundRect,0.275000X-0.475000X0.275000X-0.475000X-0.275000X0.475000X-0.275000X0.475000X0.275000X0*%
%TD*%
%TA.AperFunction,ComponentPad*%
%ADD18O,2.750000X1.800000*%
%TD*%
%TA.AperFunction,ComponentPad*%
%ADD19C,1.500000*%
%TD*%
%TA.AperFunction,ComponentPad*%
%ADD20R,1.700000X1.700000*%
%TD*%
%TA.AperFunction,ComponentPad*%
%ADD21O,1.700000X1.700000*%
%TD*%
%TA.AperFunction,ViaPad*%
%ADD22C,0.600000*%
%TD*%
%TA.AperFunction,Conductor*%
%ADD23C,0.200000*%
%TD*%
%TA.AperFunction,Conductor*%
%ADD24C,0.250000*%
%TD*%
%TA.AperFunction,Conductor*%
%ADD25C,0.500000*%
%TD*%
G04 APERTURE END LIST*
D10*
%TO.P,SW15,*%
%TO.N,*%
X119000000Y-67500000D03*
D11*
X119500000Y-71200000D03*
X124500000Y-73400000D03*
D10*
X130000000Y-67500000D03*
%TD*%
%TO.P,SW20,*%
%TO.N,*%
X136000000Y-84510000D03*
D11*
X136500000Y-88210000D03*
X141500000Y-90410000D03*
D10*
X147000000Y-84510000D03*
%TD*%
D12*
%TO.P,BT1,1,+*%
%TO.N,Bat*%
X59875000Y-52000000D03*
%TO.P,BT1,2,-*%
%TO.N,Net-(BT1--)*%
X59875000Y-50000000D03*
D13*
%TO.P,BT1,P1*%
%TO.N,N/C*%
X54125000Y-47650000D03*
%TO.P,BT1,P2*%
X54125000Y-54350000D03*
%TD*%
D10*
%TO.P,SW18,*%
%TO.N,*%
X136000000Y-50500000D03*
D11*
X136500000Y-54200000D03*
X141500000Y-56400000D03*
D10*
X147000000Y-50500000D03*
%TD*%
%TO.P,SW5,*%
%TO.N,*%
X85000000Y-33500000D03*
D11*
X85500000Y-37200000D03*
X90500000Y-39400000D03*
D10*
X96000000Y-33500000D03*
%TD*%
%TO.P,SW16,*%
%TO.N,*%
X119000000Y-84500000D03*
D11*
X119500000Y-88200000D03*
X124500000Y-90400000D03*
D10*
X130000000Y-84500000D03*
%TD*%
%TO.P,SW2,*%
%TO.N,*%
X79000000Y-50500000D03*
D11*
X78500000Y-46800000D03*
X73500000Y-44600000D03*
D10*
X68000000Y-50500000D03*
%TD*%
%TO.P,SW12,*%
%TO.N,*%
X102000000Y-84500000D03*
D11*
X102500000Y-88200000D03*
X107500000Y-90400000D03*
D10*
X113000000Y-84500000D03*
%TD*%
%TO.P,SW6,*%
%TO.N,*%
X85000000Y-50500000D03*
D11*
X85500000Y-54200000D03*
X90500000Y-56400000D03*
D10*
X96000000Y-50500000D03*
%TD*%
%TO.P,SW4,*%
%TO.N,*%
X79000000Y-84500000D03*
D11*
X78500000Y-80800000D03*
X73500000Y-78600000D03*
D10*
X68000000Y-84500000D03*
%TD*%
%TO.P,SW3,*%
%TO.N,*%
X79000000Y-67500000D03*
D11*
X78500000Y-63800000D03*
X73500000Y-61600000D03*
D10*
X68000000Y-67500000D03*
%TD*%
%TO.P,SW13,*%
%TO.N,*%
X119000000Y-33500000D03*
D11*
X119500000Y-37200000D03*
X124500000Y-39400000D03*
D10*
X130000000Y-33500000D03*
%TD*%
%TO.P,SW10,*%
%TO.N,*%
X102000000Y-50500000D03*
D11*
X102500000Y-54200000D03*
X107500000Y-56400000D03*
D10*
X113000000Y-50500000D03*
%TD*%
%TO.P,SW14,*%
%TO.N,*%
X119000000Y-50500000D03*
D11*
X119500000Y-54200000D03*
X124500000Y-56400000D03*
D10*
X130000000Y-50500000D03*
%TD*%
D14*
%TO.P,SW21,*%
%TO.N,*%
X44100000Y-64825000D03*
X46310000Y-64825000D03*
X44100000Y-57175000D03*
X46310000Y-57175000D03*
D15*
%TO.P,SW21,1,A*%
%TO.N,unconnected-(SW21-A-Pad1)*%
X46955000Y-58725000D03*
D16*
%TO.P,SW21,2,B*%
%TO.N,Net-(BT1--)*%
X46960000Y-61575000D03*
D17*
%TO.P,SW21,3,C*%
%TO.N,GND*%
X46960000Y-63250000D03*
%TD*%
D10*
%TO.P,SW8,*%
%TO.N,*%
X85000000Y-84500000D03*
D11*
X85500000Y-88200000D03*
X90500000Y-90400000D03*
D10*
X96000000Y-84500000D03*
%TD*%
%TO.P,SW9,*%
%TO.N,*%
X102000000Y-33500000D03*
D11*
X102500000Y-37200000D03*
X107500000Y-39400000D03*
D10*
X113000000Y-33500000D03*
%TD*%
%TO.P,SW11,*%
%TO.N,*%
X101980000Y-67500000D03*
D11*
X102480000Y-71200000D03*
X107480000Y-73400000D03*
D10*
X112980000Y-67500000D03*
%TD*%
%TO.P,SW7,*%
%TO.N,*%
X85000000Y-67500000D03*
D11*
X85500000Y-71200000D03*
X90500000Y-73400000D03*
D10*
X96000000Y-67500000D03*
%TD*%
D18*
%TO.P,U1,1,P0.02_A0_D0*%
%TO.N,MOTION*%
X46380000Y-27924000D03*
%TO.P,U1,2,P0.03_A1_D1*%
%TO.N,Row0*%
X46380000Y-30464000D03*
%TO.P,U1,3,P0.28_A2_D2*%
%TO.N,Row1*%
X46380000Y-33004000D03*
%TO.P,U1,4,P0.29_A3_D3*%
%TO.N,Row2*%
X46380000Y-35544000D03*
%TO.P,U1,5,P0.04_A4_D4_SDA*%
%TO.N,SDIO*%
X46380000Y-38084000D03*
%TO.P,U1,6,P0.05_A5_D5_SCL*%
%TO.N,SCLK*%
X46380000Y-40624000D03*
%TO.P,U1,7,P1.11_D6_TX*%
%TO.N,Row3*%
X46380000Y-43164000D03*
%TO.P,U1,8,P1.12_D7_RX*%
%TO.N,Col3*%
X62620000Y-43164000D03*
%TO.P,U1,9,P1.13_D8_SCK*%
%TO.N,Col2*%
X62620000Y-40624000D03*
%TO.P,U1,10,P1.14_D9_MISO*%
%TO.N,Col1*%
X62620000Y-38084000D03*
%TO.P,U1,11,P1.15_D10_MOSI*%
%TO.N,Col0*%
X62620000Y-35544000D03*
%TO.P,U1,12,3V3*%
%TO.N,3.3V*%
X62620000Y-33004000D03*
%TO.P,U1,13,GND*%
%TO.N,GND*%
X62620000Y-30464000D03*
%TO.P,U1,14,5V*%
%TO.N,VCC*%
X62620000Y-27924000D03*
D19*
%TO.P,U1,15,NFC1_0.09*%
%TO.N,CS*%
X58335400Y-44856000D03*
%TO.P,U1,16,NFC2_0.10*%
%TO.N,Col4*%
X60215000Y-44856000D03*
%TO.P,U1,20,BATT+*%
%TO.N,Bat*%
X50055000Y-35227000D03*
%TO.P,U1,21,BATT-*%
%TO.N,GND*%
X50055000Y-33322000D03*
%TD*%
D10*
%TO.P,SW1,*%
%TO.N,*%
X79000000Y-33500000D03*
D11*
X78500000Y-29800000D03*
X73500000Y-27600000D03*
D10*
X68000000Y-33500000D03*
%TD*%
%TO.P,SW19,*%
%TO.N,*%
X136000000Y-67500000D03*
D11*
X136500000Y-71200000D03*
X141500000Y-73400000D03*
D10*
X147000000Y-67500000D03*
%TD*%
%TO.P,SW17,*%
%TO.N,*%
X136000000Y-33500000D03*
D11*
X136500000Y-37200000D03*
X141500000Y-39400000D03*
D10*
X147000000Y-33500000D03*
%TD*%
D20*
%TO.P,J1,1,SCLK*%
%TO.N,SCLK*%
X61100000Y-68900000D03*
D21*
%TO.P,J1,2,nCS*%
%TO.N,CS*%
X58560000Y-68900000D03*
%TO.P,J1,3,GND*%
%TO.N,GND*%
X56020000Y-68900000D03*
%TO.P,J1,4,Vin*%
%TO.N,3.3V*%
X53480000Y-68900000D03*
%TO.P,J1,5,nc*%
%TO.N,unconnected-(J1-nc-Pad5)*%
X50940000Y-68900000D03*
%TO.P,J1,6,SDIO*%
%TO.N,SDIO*%
X48400000Y-68900000D03*
%TO.P,J1,7,MOTION*%
%TO.N,MOTION*%
X45860000Y-68900000D03*
%TD*%
D22*
%TO.N,Row0*%
X68112900Y-28383200D03*
%TO.N,Row1*%
X106762200Y-44765400D03*
X89755400Y-45346400D03*
X134381500Y-44184400D03*
X77876000Y-53085100D03*
X76997800Y-39354000D03*
X117023400Y-44184400D03*
%TO.N,Row2*%
X75484400Y-69776200D03*
X106746100Y-61985800D03*
X86530000Y-41228800D03*
X117023400Y-61985800D03*
X136814300Y-61985800D03*
X90137000Y-61985800D03*
%TO.N,Row3*%
X61926200Y-45935400D03*
X136814300Y-79787200D03*
X122738600Y-80622800D03*
X105380500Y-80622800D03*
X77575500Y-78199300D03*
X90137000Y-79787200D03*
%TO.N,GND*%
X63262200Y-61985800D03*
%TO.N,SCLK*%
X57000000Y-47347600D03*
%TO.N,Col0*%
X79806800Y-36390000D03*
%TO.N,Col1*%
X80444900Y-37250000D03*
%TO.N,Col2*%
X97476400Y-37633600D03*
%TO.N,Col3*%
X116300000Y-41217500D03*
%TO.N,Col4*%
X133300000Y-43380200D03*
%TD*%
D23*
%TO.N,Bat*%
X48507700Y-32827545D02*
X47483155Y-31803000D01*
X44233500Y-32977030D02*
X44233500Y-43875755D01*
X60727000Y-52000000D02*
X59875000Y-52000000D01*
X49556745Y-49199000D02*
X61926000Y-49199000D01*
X48507700Y-33679700D02*
X48507700Y-32827545D01*
X61926000Y-49199000D02*
X61926000Y-50801000D01*
X44233500Y-43875755D02*
X49556745Y-49199000D01*
X50055000Y-35227000D02*
X48507700Y-33679700D01*
X61926000Y-50801000D02*
X60727000Y-52000000D01*
X45407530Y-31803000D02*
X44233500Y-32977030D01*
X47483155Y-31803000D02*
X45407530Y-31803000D01*
D24*
%TO.N,Row0*%
X67302200Y-29193900D02*
X49351800Y-29193900D01*
X68112900Y-28383200D02*
X67302200Y-29193900D01*
X49351800Y-29193900D02*
X48081700Y-30464000D01*
X46880000Y-30464000D02*
X48081700Y-30464000D01*
%TO.N,Row1*%
X46880000Y-33004000D02*
X48081700Y-33004000D01*
X48081700Y-33004000D02*
X48081700Y-34835300D01*
X90336400Y-44765400D02*
X89755400Y-45346400D01*
X134381500Y-44184400D02*
X117023400Y-44184400D01*
X89755400Y-45346400D02*
X87062800Y-45346400D01*
X48081700Y-34835300D02*
X52600400Y-39354000D01*
X117023400Y-44184400D02*
X107343200Y-44184400D01*
X52600400Y-39354000D02*
X76997800Y-39354000D01*
X106762200Y-44765400D02*
X90336400Y-44765400D01*
X79324100Y-53085100D02*
X77876000Y-53085100D01*
X87062800Y-45346400D02*
X79324100Y-53085100D01*
X107343200Y-44184400D02*
X106762200Y-44765400D01*
%TO.N,Row2*%
X86015700Y-66107100D02*
X77667900Y-66107100D01*
X67571000Y-41228800D02*
X86530000Y-41228800D01*
X76667700Y-67107300D02*
X76667700Y-68592900D01*
X86897500Y-41228800D02*
X86530000Y-41228800D01*
X77667900Y-66107100D02*
X76667700Y-67107300D01*
X90137000Y-61985800D02*
X86015700Y-66107100D01*
X54431600Y-41893900D02*
X66905900Y-41893900D01*
X117023400Y-61985800D02*
X106746100Y-61985800D01*
X48081700Y-35544000D02*
X54431600Y-41893900D01*
X76667700Y-68592900D02*
X75484400Y-69776200D01*
X66905900Y-41893900D02*
X67571000Y-41228800D01*
X90137000Y-61985800D02*
X106746100Y-61985800D01*
X86530000Y-41228800D02*
X86897500Y-41228800D01*
X136814300Y-61985800D02*
X117023400Y-61985800D01*
X46880000Y-35544000D02*
X48081700Y-35544000D01*
%TO.N,Row3*%
X50853100Y-45935400D02*
X48081700Y-43164000D01*
X90137000Y-79787200D02*
X90450900Y-79473300D01*
X77575500Y-78199300D02*
X88549100Y-78199300D01*
X104231000Y-79473300D02*
X105380500Y-80622800D01*
X61926200Y-45935400D02*
X50853100Y-45935400D01*
X136461800Y-79434700D02*
X122738600Y-79434700D01*
X106568600Y-79434700D02*
X105380500Y-80622800D01*
X122738600Y-79434700D02*
X122738600Y-80622800D01*
X90450900Y-79473300D02*
X104231000Y-79473300D01*
X46880000Y-43164000D02*
X48081700Y-43164000D01*
X136814300Y-79787200D02*
X136461800Y-79434700D01*
X88549100Y-78199300D02*
X90137000Y-79787200D01*
X122738600Y-79434700D02*
X106568600Y-79434700D01*
D25*
%TO.N,GND*%
X49979800Y-33246800D02*
X49979800Y-32906700D01*
X56020000Y-68900000D02*
X50370000Y-63250000D01*
X50055000Y-33322000D02*
X49979800Y-33246800D01*
X57500000Y-67420000D02*
X56020000Y-68900000D01*
X49979800Y-32906700D02*
X52422500Y-30464000D01*
X52422500Y-30464000D02*
X62120000Y-30464000D01*
X57500000Y-66490000D02*
X57500000Y-67420000D01*
X63262200Y-61985800D02*
X62004200Y-61985800D01*
X50370000Y-63250000D02*
X46960000Y-63250000D01*
X62004200Y-61985800D02*
X57500000Y-66490000D01*
D24*
%TO.N,SCLK*%
X44679000Y-42656174D02*
X44679000Y-43671826D01*
X46678200Y-40624000D02*
X46880000Y-40624000D01*
X46880000Y-40624000D02*
X46711174Y-40624000D01*
X47393574Y-46386400D02*
X56038800Y-46386400D01*
X44679000Y-43671826D02*
X47393574Y-46386400D01*
X46711174Y-40624000D02*
X44679000Y-42656174D01*
X56038800Y-46386400D02*
X57000000Y-47347600D01*
%TO.N,Col0*%
X62120000Y-35544000D02*
X64321700Y-35544000D01*
X65167700Y-36390000D02*
X79806800Y-36390000D01*
X64321700Y-35544000D02*
X65167700Y-36390000D01*
%TO.N,Col1*%
X62120000Y-38084000D02*
X64321700Y-38084000D01*
X64321700Y-38084000D02*
X64782600Y-38544900D01*
X79150000Y-38544900D02*
X80444900Y-37250000D01*
X64782600Y-38544900D02*
X79150000Y-38544900D01*
%TO.N,Col2*%
X88502500Y-37505600D02*
X97348400Y-37505600D01*
X97348400Y-37505600D02*
X97476400Y-37633600D01*
X64321700Y-40624000D02*
X85384100Y-40624000D01*
X85384100Y-40624000D02*
X88502500Y-37505600D01*
X62120000Y-40624000D02*
X64321700Y-40624000D01*
%TO.N,Col3*%
X67893200Y-43164000D02*
X69193900Y-41863300D01*
X115654200Y-41863300D02*
X116300000Y-41217500D01*
X62120000Y-43164000D02*
X67893200Y-43164000D01*
X69193900Y-41863300D02*
X115654200Y-41863300D01*
%TO.N,Col4*%
X69698200Y-44856000D02*
X71922300Y-42631900D01*
X71922300Y-42631900D02*
X132551700Y-42631900D01*
X60215000Y-44856000D02*
X69698200Y-44856000D01*
X132551700Y-42631900D02*
X133300000Y-43380200D01*
D23*
%TO.N,Net-(BT1--)*%
X50000000Y-58535000D02*
X50000000Y-55423000D01*
X55423000Y-50000000D02*
X59875000Y-50000000D01*
X50000000Y-55423000D02*
X55423000Y-50000000D01*
X46960000Y-61575000D02*
X50000000Y-58535000D01*
%TD*%
M02*
