%TF.GenerationSoftware,KiCad,Pcbnew,9.0.2*%
%TF.CreationDate,2025-12-07T23:57:28+09:00*%
%TF.ProjectId,FrostOrtho_R,46726f73-744f-4727-9468-6f5f522e6b69,rev?*%
%TF.SameCoordinates,Original*%
%TF.FileFunction,Soldermask,Top*%
%TF.FilePolarity,Negative*%
%FSLAX46Y46*%
G04 Gerber Fmt 4.6, Leading zero omitted, Abs format (unit mm)*
G04 Created by KiCad (PCBNEW 9.0.2) date 2025-12-07 23:57:28*
%MOMM*%
%LPD*%
G01*
G04 APERTURE LIST*
G04 Aperture macros list*
%AMRoundRect*
0 Rectangle with rounded corners*
0 $1 Rounding radius*
0 $2 $3 $4 $5 $6 $7 $8 $9 X,Y pos of 4 corners*
0 Add a 4 corners polygon primitive as box body*
4,1,4,$2,$3,$4,$5,$6,$7,$8,$9,$2,$3,0*
0 Add four circle primitives for the rounded corners*
1,1,$1+$1,$2,$3*
1,1,$1+$1,$4,$5*
1,1,$1+$1,$6,$7*
1,1,$1+$1,$8,$9*
0 Add four rect primitives between the rounded corners*
20,1,$1+$1,$2,$3,$4,$5,0*
20,1,$1+$1,$4,$5,$6,$7,0*
20,1,$1+$1,$6,$7,$8,$9,0*
20,1,$1+$1,$8,$9,$2,$3,0*%
G04 Aperture macros list end*
%ADD10C,1.900000*%
%ADD11C,3.100000*%
%ADD12RoundRect,0.102000X1.750000X-0.500000X1.750000X0.500000X-1.750000X0.500000X-1.750000X-0.500000X0*%
%ADD13RoundRect,0.102000X1.700000X-0.750000X1.700000X0.750000X-1.700000X0.750000X-1.700000X-0.750000X0*%
%ADD14RoundRect,0.200000X-0.200000X0.475000X-0.200000X-0.475000X0.200000X-0.475000X0.200000X0.475000X0*%
%ADD15RoundRect,0.287500X-0.467500X0.287500X-0.467500X-0.287500X0.467500X-0.287500X0.467500X0.287500X0*%
%ADD16RoundRect,0.262500X-0.487500X0.262500X-0.487500X-0.262500X0.487500X-0.262500X0.487500X0.262500X0*%
%ADD17RoundRect,0.275000X-0.475000X0.275000X-0.475000X-0.275000X0.475000X-0.275000X0.475000X0.275000X0*%
%ADD18O,2.750000X1.800000*%
%ADD19C,1.500000*%
%ADD20R,1.700000X1.700000*%
%ADD21O,1.700000X1.700000*%
G04 APERTURE END LIST*
D10*
%TO.C,SW15*%
X119000000Y-67500000D03*
D11*
X119500000Y-71200000D03*
X124500000Y-73400000D03*
D10*
X130000000Y-67500000D03*
%TD*%
%TO.C,SW20*%
X136000000Y-84510000D03*
D11*
X136500000Y-88210000D03*
X141500000Y-90410000D03*
D10*
X147000000Y-84510000D03*
%TD*%
D12*
%TO.C,BT1*%
X59875000Y-52000000D03*
X59875000Y-50000000D03*
D13*
X54125000Y-47650000D03*
X54125000Y-54350000D03*
%TD*%
D10*
%TO.C,SW18*%
X136000000Y-50500000D03*
D11*
X136500000Y-54200000D03*
X141500000Y-56400000D03*
D10*
X147000000Y-50500000D03*
%TD*%
%TO.C,SW5*%
X85000000Y-33500000D03*
D11*
X85500000Y-37200000D03*
X90500000Y-39400000D03*
D10*
X96000000Y-33500000D03*
%TD*%
%TO.C,SW16*%
X119000000Y-84500000D03*
D11*
X119500000Y-88200000D03*
X124500000Y-90400000D03*
D10*
X130000000Y-84500000D03*
%TD*%
%TO.C,SW2*%
X79000000Y-50500000D03*
D11*
X78500000Y-46800000D03*
X73500000Y-44600000D03*
D10*
X68000000Y-50500000D03*
%TD*%
%TO.C,SW12*%
X102000000Y-84500000D03*
D11*
X102500000Y-88200000D03*
X107500000Y-90400000D03*
D10*
X113000000Y-84500000D03*
%TD*%
%TO.C,SW6*%
X85000000Y-50500000D03*
D11*
X85500000Y-54200000D03*
X90500000Y-56400000D03*
D10*
X96000000Y-50500000D03*
%TD*%
%TO.C,SW4*%
X79000000Y-84500000D03*
D11*
X78500000Y-80800000D03*
X73500000Y-78600000D03*
D10*
X68000000Y-84500000D03*
%TD*%
%TO.C,SW3*%
X79000000Y-67500000D03*
D11*
X78500000Y-63800000D03*
X73500000Y-61600000D03*
D10*
X68000000Y-67500000D03*
%TD*%
%TO.C,SW13*%
X119000000Y-33500000D03*
D11*
X119500000Y-37200000D03*
X124500000Y-39400000D03*
D10*
X130000000Y-33500000D03*
%TD*%
%TO.C,SW10*%
X102000000Y-50500000D03*
D11*
X102500000Y-54200000D03*
X107500000Y-56400000D03*
D10*
X113000000Y-50500000D03*
%TD*%
%TO.C,SW14*%
X119000000Y-50500000D03*
D11*
X119500000Y-54200000D03*
X124500000Y-56400000D03*
D10*
X130000000Y-50500000D03*
%TD*%
D14*
%TO.C,SW21*%
X44100000Y-64825000D03*
X46310000Y-64825000D03*
X44100000Y-57175000D03*
X46310000Y-57175000D03*
D15*
X46955000Y-58725000D03*
D16*
X46960000Y-61575000D03*
D17*
X46960000Y-63250000D03*
%TD*%
D10*
%TO.C,SW8*%
X85000000Y-84500000D03*
D11*
X85500000Y-88200000D03*
X90500000Y-90400000D03*
D10*
X96000000Y-84500000D03*
%TD*%
%TO.C,SW9*%
X102000000Y-33500000D03*
D11*
X102500000Y-37200000D03*
X107500000Y-39400000D03*
D10*
X113000000Y-33500000D03*
%TD*%
%TO.C,SW11*%
X101980000Y-67500000D03*
D11*
X102480000Y-71200000D03*
X107480000Y-73400000D03*
D10*
X112980000Y-67500000D03*
%TD*%
%TO.C,SW7*%
X85000000Y-67500000D03*
D11*
X85500000Y-71200000D03*
X90500000Y-73400000D03*
D10*
X96000000Y-67500000D03*
%TD*%
D18*
%TO.C,U1*%
X46380000Y-27924000D03*
X46380000Y-30464000D03*
X46380000Y-33004000D03*
X46380000Y-35544000D03*
X46380000Y-38084000D03*
X46380000Y-40624000D03*
X46380000Y-43164000D03*
X62620000Y-43164000D03*
X62620000Y-40624000D03*
X62620000Y-38084000D03*
X62620000Y-35544000D03*
X62620000Y-33004000D03*
X62620000Y-30464000D03*
X62620000Y-27924000D03*
D19*
X58335400Y-44856000D03*
X60215000Y-44856000D03*
X50055000Y-35227000D03*
X50055000Y-33322000D03*
%TD*%
D10*
%TO.C,SW1*%
X79000000Y-33500000D03*
D11*
X78500000Y-29800000D03*
X73500000Y-27600000D03*
D10*
X68000000Y-33500000D03*
%TD*%
%TO.C,SW19*%
X136000000Y-67500000D03*
D11*
X136500000Y-71200000D03*
X141500000Y-73400000D03*
D10*
X147000000Y-67500000D03*
%TD*%
%TO.C,SW17*%
X136000000Y-33500000D03*
D11*
X136500000Y-37200000D03*
X141500000Y-39400000D03*
D10*
X147000000Y-33500000D03*
%TD*%
D20*
%TO.C,J1*%
X61100000Y-68900000D03*
D21*
X58560000Y-68900000D03*
X56020000Y-68900000D03*
X53480000Y-68900000D03*
X50940000Y-68900000D03*
X48400000Y-68900000D03*
X45860000Y-68900000D03*
%TD*%
M02*
