M48
; DRILL file {KiCad 9.0.2} date 2025-12-04T00:45:17+0900
; FORMAT={-:-/ absolute / inch / decimal}
; #@! TF.CreationDate,2025-12-04T00:45:17+09:00
; #@! TF.GenerationSoftware,Kicad,Pcbnew,9.0.2
; #@! TF.FileFunction,NonPlated,1,2,NPTH
FMAT,2
INCH
; #@! TA.AperFunction,NonPlated,NPTH,ComponentDrill
T1C0.0354
; #@! TA.AperFunction,NonPlated,NPTH,ComponentDrill
T2C0.0394
; #@! TA.AperFunction,NonPlated,NPTH,ComponentDrill
T3C0.0669
; #@! TA.AperFunction,NonPlated,NPTH,ComponentDrill
T4C0.0748
; #@! TA.AperFunction,NonPlated,NPTH,ComponentDrill
T5C0.1181
; #@! TA.AperFunction,NonPlated,NPTH,ComponentDrill
T6C0.1969
%
G90
G05
T1
X1.7795Y-2.3425
X1.7795Y-2.4606
T2
X2.6882Y-1.4843
X2.6882Y-2.1535
X2.6882Y-2.8228
X2.6882Y-3.4921
X3.7685Y-1.1535
X3.7685Y-1.8228
X3.7685Y-2.4921
X3.7685Y-3.1614
X4.437Y-2.4921
X4.4378Y-1.1535
X4.4378Y-1.8228
X4.4378Y-3.1614
X5.1071Y-1.1535
X5.1071Y-1.8228
X5.1071Y-2.4921
X5.1071Y-3.1614
X5.7764Y-1.1535
X5.7764Y-1.8228
X5.7764Y-2.4921
X5.7764Y-3.1618
T3
X2.6772Y-1.3189
X2.6772Y-1.9882
X2.6772Y-2.6575
X2.6772Y-3.3268
X2.7165Y-1.3189
X2.7165Y-1.9882
X2.7165Y-2.6575
X2.7165Y-3.3268
X3.0709Y-1.3189
X3.0709Y-1.9882
X3.0709Y-2.6575
X3.0709Y-3.3268
X3.1102Y-1.3189
X3.1102Y-1.9882
X3.1102Y-2.6575
X3.1102Y-3.3268
X3.3465Y-1.3189
X3.3465Y-1.9882
X3.3465Y-2.6575
X3.3465Y-3.3268
X3.3858Y-1.3189
X3.3858Y-1.9882
X3.3858Y-2.6575
X3.3858Y-3.3268
X3.7402Y-1.3189
X3.7402Y-1.9882
X3.7402Y-2.6575
X3.7402Y-3.3268
X3.7795Y-1.3189
X3.7795Y-1.9882
X3.7795Y-2.6575
X3.7795Y-3.3268
X4.015Y-2.6575
X4.0157Y-1.3189
X4.0157Y-1.9882
X4.0157Y-3.3268
X4.0543Y-2.6575
X4.0551Y-1.3189
X4.0551Y-1.9882
X4.0551Y-3.3268
X4.4087Y-2.6575
X4.4094Y-1.3189
X4.4094Y-1.9882
X4.4094Y-3.3268
X4.448Y-2.6575
X4.4488Y-1.3189
X4.4488Y-1.9882
X4.4488Y-3.3268
X4.685Y-1.3189
X4.685Y-1.9882
X4.685Y-2.6575
X4.685Y-3.3268
X4.7244Y-1.3189
X4.7244Y-1.9882
X4.7244Y-2.6575
X4.7244Y-3.3268
X5.0787Y-1.3189
X5.0787Y-1.9882
X5.0787Y-2.6575
X5.0787Y-3.3268
X5.1181Y-1.3189
X5.1181Y-1.9882
X5.1181Y-2.6575
X5.1181Y-3.3268
X5.3543Y-1.3189
X5.3543Y-1.9882
X5.3543Y-2.6575
X5.3543Y-3.3272
X5.3937Y-1.3189
X5.3937Y-1.9882
X5.3937Y-2.6575
X5.3937Y-3.3272
X5.748Y-1.3189
X5.748Y-1.9882
X5.748Y-2.6575
X5.748Y-3.3272
X5.7874Y-1.3189
X5.7874Y-1.9882
X5.7874Y-2.6575
X5.7874Y-3.3272
T4
X2.6772Y-1.3189
X2.6772Y-1.9882
X2.6772Y-2.6575
X2.6772Y-3.3268
X2.6937Y-1.3189
X2.6937Y-1.9882
X2.6937Y-2.6575
X2.6937Y-3.3268
X3.0937Y-1.3189
X3.0937Y-1.9882
X3.0937Y-2.6575
X3.0937Y-3.3268
X3.1102Y-1.3189
X3.1102Y-1.9882
X3.1102Y-2.6575
X3.1102Y-3.3268
X3.3465Y-1.3189
X3.3465Y-1.9882
X3.3465Y-2.6575
X3.3465Y-3.3268
X3.363Y-1.3189
X3.363Y-1.9882
X3.363Y-2.6575
X3.363Y-3.3268
X3.763Y-1.3189
X3.763Y-1.9882
X3.763Y-2.6575
X3.763Y-3.3268
X3.7795Y-1.3189
X3.7795Y-1.9882
X3.7795Y-2.6575
X3.7795Y-3.3268
X4.015Y-2.6575
X4.0157Y-1.3189
X4.0157Y-1.9882
X4.0157Y-3.3268
X4.0315Y-2.6575
X4.0323Y-1.3189
X4.0323Y-1.9882
X4.0323Y-3.3268
X4.4315Y-2.6575
X4.4323Y-1.3189
X4.4323Y-1.9882
X4.4323Y-3.3268
X4.448Y-2.6575
X4.4488Y-1.3189
X4.4488Y-1.9882
X4.4488Y-3.3268
X4.685Y-1.3189
X4.685Y-1.9882
X4.685Y-2.6575
X4.685Y-3.3268
X4.7016Y-1.3189
X4.7016Y-1.9882
X4.7016Y-2.6575
X4.7016Y-3.3268
X5.1016Y-1.3189
X5.1016Y-1.9882
X5.1016Y-2.6575
X5.1016Y-3.3268
X5.1181Y-1.3189
X5.1181Y-1.9882
X5.1181Y-2.6575
X5.1181Y-3.3268
X5.3543Y-1.3189
X5.3543Y-1.9882
X5.3543Y-2.6575
X5.3543Y-3.3272
X5.3709Y-1.3189
X5.3709Y-1.9882
X5.3709Y-2.6575
X5.3709Y-3.3272
X5.7709Y-1.3189
X5.7709Y-1.9882
X5.7709Y-2.6575
X5.7709Y-3.3272
X5.7874Y-1.3189
X5.7874Y-1.9882
X5.7874Y-2.6575
X5.7874Y-3.3272
T5
X2.8937Y-1.0866
X2.8937Y-1.7559
X2.8937Y-2.4252
X2.8937Y-3.0945
X3.0906Y-1.1732
X3.0906Y-1.8425
X3.0906Y-2.5118
X3.0906Y-3.1811
X3.3661Y-1.4646
X3.3661Y-2.1339
X3.3661Y-2.8031
X3.3661Y-3.4724
X3.563Y-1.5512
X3.563Y-2.2205
X3.563Y-2.8898
X3.563Y-3.5591
X4.0346Y-2.8031
X4.0354Y-1.4646
X4.0354Y-2.1339
X4.0354Y-3.4724
X4.2315Y-2.8898
X4.2323Y-1.5512
X4.2323Y-2.2205
X4.2323Y-3.5591
X4.7047Y-1.4646
X4.7047Y-2.1339
X4.7047Y-2.8031
X4.7047Y-3.4724
X4.9016Y-1.5512
X4.9016Y-2.2205
X4.9016Y-2.8898
X4.9016Y-3.5591
X5.374Y-1.4646
X5.374Y-2.1339
X5.374Y-2.8031
X5.374Y-3.4728
X5.5709Y-1.5512
X5.5709Y-2.2205
X5.5709Y-2.8898
X5.5709Y-3.5594
T6
X2.8937Y-1.3189
X2.8937Y-1.9882
X2.8937Y-2.6575
X2.8937Y-3.3268
X3.563Y-1.3189
X3.563Y-1.9882
X3.563Y-2.6575
X3.563Y-3.3268
X4.2315Y-2.6575
X4.2323Y-1.3189
X4.2323Y-1.9882
X4.2323Y-3.3268
X4.9016Y-1.3189
X4.9016Y-1.9882
X4.9016Y-2.6575
X4.9016Y-3.3268
X5.5709Y-1.3189
X5.5709Y-1.9882
X5.5709Y-2.6575
X5.5709Y-3.3272
M30
