%TF.GenerationSoftware,KiCad,Pcbnew,9.0.2*%
%TF.CreationDate,2026-04-09T01:20:19+09:00*%
%TF.ProjectId,FrostOrtho_fpc,46726f73-744f-4727-9468-6f5f6670632e,rev?*%
%TF.SameCoordinates,Original*%
%TF.FileFunction,Copper,L1,Top*%
%TF.FilePolarity,Positive*%
%FSLAX46Y46*%
G04 Gerber Fmt 4.6, Leading zero omitted, Abs format (unit mm)*
G04 Created by KiCad (PCBNEW 9.0.2) date 2026-04-09 01:20:19*
%MOMM*%
%LPD*%
G01*
G04 APERTURE LIST*
%TA.AperFunction,SMDPad,CuDef*%
%ADD10R,1.800000X1.800000*%
%TD*%
%TA.AperFunction,SMDPad,CuDef*%
%ADD11O,1.800000X1.800000*%
%TD*%
%TA.AperFunction,ViaPad*%
%ADD12C,0.600000*%
%TD*%
%TA.AperFunction,Conductor*%
%ADD13C,0.200000*%
%TD*%
G04 APERTURE END LIST*
D10*
%TO.P,J1,1,SCLK*%
%TO.N,SCLK*%
X143620000Y-122000000D03*
D11*
%TO.P,J1,2,nCS*%
%TO.N,CS*%
X141080000Y-122000000D03*
%TO.P,J1,3,GND*%
%TO.N,GND*%
X138540000Y-122000000D03*
%TO.P,J1,4,Vin*%
%TO.N,3.3V*%
X136000000Y-122000000D03*
%TO.P,J1,5,nc*%
%TO.N,unconnected-(J1-nc-Pad5)*%
X133460000Y-122000000D03*
%TO.P,J1,6,SDIO*%
%TO.N,SDIO*%
X130920000Y-122000000D03*
%TO.P,J1,7,MOTION*%
%TO.N,MOTION*%
X128380000Y-122000000D03*
%TD*%
D12*
%TO.N,3.3V*%
X136000000Y-119000000D03*
%TO.N,CS*%
X141000000Y-120000000D03*
%TO.N,SDIO*%
X136000000Y-55000000D03*
%TO.N,SCLK*%
X143000000Y-119000000D03*
%TO.N,GND*%
X137000000Y-54000000D03*
%TO.N,MOTION*%
X135000000Y-55000000D03*
%TD*%
D13*
%TO.N,3.3V*%
X136000000Y-122000000D02*
X136000000Y-119000000D01*
%TO.N,CS*%
X141000000Y-121920000D02*
X141080000Y-122000000D01*
X141000000Y-120000000D02*
X141000000Y-121920000D01*
%TO.N,SDIO*%
X130920000Y-119080000D02*
X130920000Y-122000000D01*
X134000000Y-116000000D02*
X130920000Y-119080000D01*
X134000000Y-113000000D02*
X134000000Y-116000000D01*
X136000000Y-111000000D02*
X134000000Y-113000000D01*
X136000000Y-55000000D02*
X136000000Y-111000000D01*
%TO.N,MOTION*%
X135000000Y-111000000D02*
X128380000Y-117620000D01*
%TO.N,SCLK*%
X143620000Y-119620000D02*
X143000000Y-119000000D01*
X143620000Y-122000000D02*
X143620000Y-119620000D01*
%TO.N,GND*%
X138540000Y-111540000D02*
X138540000Y-122000000D01*
X137000000Y-110000000D02*
X138540000Y-111540000D01*
X137000000Y-54000000D02*
X137000000Y-110000000D01*
%TO.N,MOTION*%
X128380000Y-117620000D02*
X128380000Y-122000000D01*
X135000000Y-55000000D02*
X135000000Y-111000000D01*
%TD*%
M02*
