%TF.GenerationSoftware,KiCad,Pcbnew,9.0.2*%
%TF.CreationDate,2026-05-06T04:35:33+09:00*%
%TF.ProjectId,FrostOrtho_R,46726f73-744f-4727-9468-6f5f522e6b69,rev?*%
%TF.SameCoordinates,Original*%
%TF.FileFunction,Profile,NP*%
%FSLAX46Y46*%
G04 Gerber Fmt 4.6, Leading zero omitted, Abs format (unit mm)*
G04 Created by KiCad (PCBNEW 9.0.2) date 2026-05-06 04:35:33*
%MOMM*%
%LPD*%
G01*
G04 APERTURE LIST*
%TA.AperFunction,Profile*%
%ADD10C,0.200000*%
%TD*%
%TA.AperFunction,Profile*%
%ADD11C,0.120000*%
%TD*%
G04 APERTURE END LIST*
D10*
X44904195Y-25000000D02*
X151000000Y-24996447D01*
X151000000Y-24996447D02*
G75*
G02*
X152003553Y-26000000I0J-1003553D01*
G01*
X64000000Y-68500000D02*
G75*
G02*
X65000000Y-69500000I0J-1000000D01*
G01*
X65000000Y-69500000D02*
X65001701Y-92122500D01*
X43904195Y-26000000D02*
G75*
G02*
X44904195Y-24999995I1000005J0D01*
G01*
X45000000Y-68578049D02*
G75*
G02*
X43921951Y-67500000I0J1078049D01*
G01*
X43921951Y-67500000D02*
X43904195Y-26000000D01*
X152002888Y-92003027D02*
G75*
G02*
X151000000Y-93002893I-1002888J3027D01*
G01*
X65917468Y-93038299D02*
G75*
G02*
X65001701Y-92122532I32J915799D01*
G01*
X45000000Y-68578049D02*
X64000000Y-68500000D01*
X151000000Y-93002893D02*
X65917468Y-93038298D01*
X152003553Y-26000000D02*
X151996446Y-92003008D01*
D11*
%TO.C,U1*%
X49792247Y-34793447D02*
X49792247Y-33752047D01*
X50478047Y-33066247D02*
X52078247Y-33066247D01*
X52078247Y-35479247D02*
X50478047Y-35479247D01*
X52459247Y-33447247D02*
X52459247Y-35098247D01*
X58072247Y-44435953D02*
X58072247Y-42835753D01*
X58453247Y-42454753D02*
X60104247Y-42454753D01*
X59799447Y-45121753D02*
X58758047Y-45121753D01*
X60485247Y-42835753D02*
X60485247Y-44435953D01*
X49792247Y-34793447D02*
G75*
G02*
X50478047Y-35479247I247753J-438047D01*
G01*
X50478047Y-33066247D02*
G75*
G02*
X49792247Y-33752047I-438047J-247753D01*
G01*
X52078247Y-33066247D02*
G75*
G02*
X52459247Y-33447247I8J-380992D01*
G01*
X52459247Y-35098247D02*
G75*
G02*
X52078247Y-35479247I-380996J-4D01*
G01*
X58072247Y-42835753D02*
G75*
G02*
X58453247Y-42454757I380993J3D01*
G01*
X58072247Y-44435953D02*
G75*
G02*
X58758047Y-45121753I247753J-438047D01*
G01*
X59799447Y-45121753D02*
G75*
G02*
X60485251Y-44435946I438053J247753D01*
G01*
X60104247Y-42454753D02*
G75*
G02*
X60485247Y-42835753I3J-380997D01*
G01*
%TD*%
M02*
