%TF.GenerationSoftware,KiCad,Pcbnew,9.0.2*%
%TF.CreationDate,2026-05-06T04:35:33+09:00*%
%TF.ProjectId,FrostOrtho_R,46726f73-744f-4727-9468-6f5f522e6b69,rev?*%
%TF.SameCoordinates,Original*%
%TF.FileFunction,Legend,Top*%
%TF.FilePolarity,Positive*%
%FSLAX46Y46*%
G04 Gerber Fmt 4.6, Leading zero omitted, Abs format (unit mm)*
G04 Created by KiCad (PCBNEW 9.0.2) date 2026-05-06 04:35:33*
%MOMM*%
%LPD*%
G01*
G04 APERTURE LIST*
%ADD10C,0.100000*%
%ADD11C,0.000000*%
%ADD12O,1.200000X1.500000*%
%ADD13C,3.100000*%
%ADD14C,5.000000*%
%ADD15O,2.750000X1.800000*%
%ADD16C,1.500000*%
G04 APERTURE END LIST*
D10*
X45744360Y-55372419D02*
X45934836Y-55372419D01*
X45934836Y-55372419D02*
X46030074Y-55420038D01*
X46030074Y-55420038D02*
X46125312Y-55515276D01*
X46125312Y-55515276D02*
X46172931Y-55705752D01*
X46172931Y-55705752D02*
X46172931Y-56039085D01*
X46172931Y-56039085D02*
X46125312Y-56229561D01*
X46125312Y-56229561D02*
X46030074Y-56324800D01*
X46030074Y-56324800D02*
X45934836Y-56372419D01*
X45934836Y-56372419D02*
X45744360Y-56372419D01*
X45744360Y-56372419D02*
X45649122Y-56324800D01*
X45649122Y-56324800D02*
X45553884Y-56229561D01*
X45553884Y-56229561D02*
X45506265Y-56039085D01*
X45506265Y-56039085D02*
X45506265Y-55705752D01*
X45506265Y-55705752D02*
X45553884Y-55515276D01*
X45553884Y-55515276D02*
X45649122Y-55420038D01*
X45649122Y-55420038D02*
X45744360Y-55372419D01*
X46934836Y-55848609D02*
X46601503Y-55848609D01*
X46601503Y-56372419D02*
X46601503Y-55372419D01*
X46601503Y-55372419D02*
X47077693Y-55372419D01*
X47791979Y-55848609D02*
X47458646Y-55848609D01*
X47458646Y-56372419D02*
X47458646Y-55372419D01*
X47458646Y-55372419D02*
X47934836Y-55372419D01*
X45994360Y-66372419D02*
X46184836Y-66372419D01*
X46184836Y-66372419D02*
X46280074Y-66420038D01*
X46280074Y-66420038D02*
X46375312Y-66515276D01*
X46375312Y-66515276D02*
X46422931Y-66705752D01*
X46422931Y-66705752D02*
X46422931Y-67039085D01*
X46422931Y-67039085D02*
X46375312Y-67229561D01*
X46375312Y-67229561D02*
X46280074Y-67324800D01*
X46280074Y-67324800D02*
X46184836Y-67372419D01*
X46184836Y-67372419D02*
X45994360Y-67372419D01*
X45994360Y-67372419D02*
X45899122Y-67324800D01*
X45899122Y-67324800D02*
X45803884Y-67229561D01*
X45803884Y-67229561D02*
X45756265Y-67039085D01*
X45756265Y-67039085D02*
X45756265Y-66705752D01*
X45756265Y-66705752D02*
X45803884Y-66515276D01*
X45803884Y-66515276D02*
X45899122Y-66420038D01*
X45899122Y-66420038D02*
X45994360Y-66372419D01*
X46851503Y-67372419D02*
X46851503Y-66372419D01*
X46851503Y-66372419D02*
X47422931Y-67372419D01*
X47422931Y-67372419D02*
X47422931Y-66372419D01*
D11*
%TO.C,G\u002A\u002A\u002A*%
G36*
X61114166Y-47694641D02*
G01*
X61119525Y-47855401D01*
X61277110Y-47860759D01*
X61347512Y-47863860D01*
X61398606Y-47868088D01*
X61432510Y-47874069D01*
X61451343Y-47882429D01*
X61457227Y-47893795D01*
X61452279Y-47908793D01*
X61450380Y-47911961D01*
X61442953Y-47919340D01*
X61429145Y-47924818D01*
X61405647Y-47928854D01*
X61369152Y-47931908D01*
X61316350Y-47934442D01*
X61279144Y-47935780D01*
X61119525Y-47941139D01*
X61114166Y-48101899D01*
X61108808Y-48262658D01*
X61079274Y-48266055D01*
X61054899Y-48263984D01*
X61044559Y-48255338D01*
X61042486Y-48239929D01*
X61040384Y-48207418D01*
X61038464Y-48162133D01*
X61036935Y-48108406D01*
X61036582Y-48091181D01*
X61033786Y-47941139D01*
X60874167Y-47935780D01*
X60810983Y-47933337D01*
X60765925Y-47930626D01*
X60735685Y-47927187D01*
X60716955Y-47922560D01*
X60706426Y-47916284D01*
X60702931Y-47911961D01*
X60696241Y-47896235D01*
X60699996Y-47884255D01*
X60716315Y-47875394D01*
X60747319Y-47869027D01*
X60795126Y-47864527D01*
X60861857Y-47861268D01*
X60876201Y-47860759D01*
X61033786Y-47855401D01*
X61039145Y-47694641D01*
X61044504Y-47533882D01*
X61076656Y-47533882D01*
X61108808Y-47533882D01*
X61114166Y-47694641D01*
G37*
G36*
X60415140Y-48115017D02*
G01*
X60418097Y-48278179D01*
X60580106Y-48281136D01*
X60643844Y-48282612D01*
X60689413Y-48284605D01*
X60720076Y-48287507D01*
X60739099Y-48291710D01*
X60749744Y-48297606D01*
X60753363Y-48301950D01*
X60758258Y-48323036D01*
X60750524Y-48336781D01*
X60741584Y-48343548D01*
X60725646Y-48348301D01*
X60699402Y-48351363D01*
X60659547Y-48353059D01*
X60602775Y-48353713D01*
X60577268Y-48353755D01*
X60418100Y-48353755D01*
X60415142Y-48517194D01*
X60412183Y-48680633D01*
X60384989Y-48683804D01*
X60361578Y-48683518D01*
X60350158Y-48679338D01*
X60347470Y-48666450D01*
X60345197Y-48636100D01*
X60343520Y-48592259D01*
X60342622Y-48538900D01*
X60342521Y-48513007D01*
X60342521Y-48354313D01*
X60179082Y-48351355D01*
X60116771Y-48350142D01*
X60072654Y-48348757D01*
X60043490Y-48346648D01*
X60026042Y-48343261D01*
X60017071Y-48338043D01*
X60013339Y-48330440D01*
X60012026Y-48322815D01*
X60014555Y-48299549D01*
X60022743Y-48288148D01*
X60038198Y-48284864D01*
X60070791Y-48282084D01*
X60116225Y-48280047D01*
X60170204Y-48278991D01*
X60189520Y-48278898D01*
X60341962Y-48278734D01*
X60344921Y-48115295D01*
X60347879Y-47951856D01*
X60380031Y-47951856D01*
X60412183Y-47951856D01*
X60415140Y-48115017D01*
G37*
G36*
X56312382Y-48410498D02*
G01*
X56317078Y-48411467D01*
X56339500Y-48425348D01*
X56344531Y-48447355D01*
X56332107Y-48469502D01*
X56314342Y-48476510D01*
X56280613Y-48481047D01*
X56243689Y-48482371D01*
X56154723Y-48492559D01*
X56072444Y-48522064D01*
X55998661Y-48569333D01*
X55935181Y-48632811D01*
X55883814Y-48710943D01*
X55846369Y-48802175D01*
X55838419Y-48830675D01*
X55835538Y-48851893D01*
X55832521Y-48891537D01*
X55829504Y-48946599D01*
X55826625Y-49014072D01*
X55824022Y-49090950D01*
X55821830Y-49174224D01*
X55821051Y-49211139D01*
X55814462Y-49548734D01*
X55787267Y-49551905D01*
X55763857Y-49551619D01*
X55752436Y-49547440D01*
X55750971Y-49535557D01*
X55749598Y-49504261D01*
X55748344Y-49455571D01*
X55747238Y-49391511D01*
X55746305Y-49314099D01*
X55745573Y-49225358D01*
X55745069Y-49127307D01*
X55744821Y-49021969D01*
X55744799Y-48979653D01*
X55744814Y-48855867D01*
X55744904Y-48751783D01*
X55745136Y-48665667D01*
X55745576Y-48595787D01*
X55746293Y-48540408D01*
X55747352Y-48497799D01*
X55748822Y-48466225D01*
X55750769Y-48443953D01*
X55753261Y-48429252D01*
X55756363Y-48420386D01*
X55760144Y-48415624D01*
X55764671Y-48413232D01*
X55766748Y-48412537D01*
X55786679Y-48409004D01*
X55801080Y-48414683D01*
X55810839Y-48432099D01*
X55816847Y-48463779D01*
X55819992Y-48512246D01*
X55821063Y-48566734D01*
X55821879Y-48615698D01*
X55823230Y-48653835D01*
X55824941Y-48677823D01*
X55826837Y-48684338D01*
X55827208Y-48683312D01*
X55835675Y-48667425D01*
X55841289Y-48664557D01*
X55850873Y-48655777D01*
X55865428Y-48633294D01*
X55875233Y-48614970D01*
X55913269Y-48557641D01*
X55967287Y-48507486D01*
X56039143Y-48463055D01*
X56112294Y-48430031D01*
X56143666Y-48421561D01*
X56187235Y-48414659D01*
X56235126Y-48410039D01*
X56279466Y-48408414D01*
X56312382Y-48410498D01*
G37*
G36*
X50195556Y-48410425D02*
G01*
X50220840Y-48420454D01*
X50228841Y-48438597D01*
X50224501Y-48458249D01*
X50217944Y-48470620D01*
X50206579Y-48477854D01*
X50185370Y-48481304D01*
X50149279Y-48482327D01*
X50134855Y-48482363D01*
X50040935Y-48491997D01*
X49956645Y-48520622D01*
X49882516Y-48567820D01*
X49819079Y-48633174D01*
X49766866Y-48716267D01*
X49732444Y-48798378D01*
X49726329Y-48817631D01*
X49721490Y-48837641D01*
X49717780Y-48861099D01*
X49715051Y-48890699D01*
X49713156Y-48929133D01*
X49711948Y-48979093D01*
X49711278Y-49043272D01*
X49711000Y-49124362D01*
X49710959Y-49190506D01*
X49710754Y-49273091D01*
X49710173Y-49349207D01*
X49709268Y-49416084D01*
X49708091Y-49470956D01*
X49706694Y-49511055D01*
X49705128Y-49533615D01*
X49704454Y-49537140D01*
X49690013Y-49549671D01*
X49666587Y-49554286D01*
X49645749Y-49549137D01*
X49643083Y-49546948D01*
X49641712Y-49535161D01*
X49640427Y-49503959D01*
X49639254Y-49455362D01*
X49638219Y-49391388D01*
X49637346Y-49314057D01*
X49636661Y-49225388D01*
X49636190Y-49127401D01*
X49635958Y-49022115D01*
X49635938Y-48980077D01*
X49635991Y-48855255D01*
X49636184Y-48750176D01*
X49636567Y-48663151D01*
X49637190Y-48592488D01*
X49638104Y-48536498D01*
X49639358Y-48493489D01*
X49641004Y-48461772D01*
X49643092Y-48439655D01*
X49645671Y-48425448D01*
X49648793Y-48417460D01*
X49652507Y-48414002D01*
X49652791Y-48413885D01*
X49675532Y-48413293D01*
X49689973Y-48418299D01*
X49698650Y-48425125D01*
X49704657Y-48437189D01*
X49708618Y-48458276D01*
X49711153Y-48492169D01*
X49712885Y-48542653D01*
X49713311Y-48560264D01*
X49716318Y-48691350D01*
X49741518Y-48643122D01*
X49764704Y-48603992D01*
X49792694Y-48563569D01*
X49802244Y-48551318D01*
X49849695Y-48506997D01*
X49912863Y-48468196D01*
X49986283Y-48437168D01*
X50064486Y-48416170D01*
X50142007Y-48407455D01*
X50151308Y-48407342D01*
X50195556Y-48410425D01*
G37*
G36*
X56696474Y-48157007D02*
G01*
X56704779Y-48165694D01*
X56710498Y-48181966D01*
X56714252Y-48209659D01*
X56716666Y-48252609D01*
X56717745Y-48287915D01*
X56720775Y-48407342D01*
X56858873Y-48407342D01*
X56912389Y-48407828D01*
X56959036Y-48409156D01*
X56994137Y-48411129D01*
X57013013Y-48413552D01*
X57013923Y-48413847D01*
X57024248Y-48426109D01*
X57031082Y-48447237D01*
X57031885Y-48466663D01*
X57028196Y-48473244D01*
X57017122Y-48474254D01*
X56988554Y-48475929D01*
X56946412Y-48478062D01*
X56894619Y-48480449D01*
X56875474Y-48481282D01*
X56725432Y-48487721D01*
X56725432Y-48884261D01*
X56725496Y-48987795D01*
X56725762Y-49072245D01*
X56726341Y-49139960D01*
X56727342Y-49193290D01*
X56728877Y-49234585D01*
X56731057Y-49266196D01*
X56733991Y-49290471D01*
X56737790Y-49309762D01*
X56742566Y-49326417D01*
X56746806Y-49338461D01*
X56776564Y-49394767D01*
X56818344Y-49440877D01*
X56867688Y-49472750D01*
X56908611Y-49485138D01*
X56958327Y-49488127D01*
X57013507Y-49484591D01*
X57065204Y-49475567D01*
X57103714Y-49462478D01*
X57143247Y-49447231D01*
X57172281Y-49445267D01*
X57188016Y-49456631D01*
X57189458Y-49461125D01*
X57184155Y-49483447D01*
X57161188Y-49503875D01*
X57124298Y-49521649D01*
X57077224Y-49536008D01*
X57023707Y-49546193D01*
X56967488Y-49551442D01*
X56912307Y-49550996D01*
X56861904Y-49544094D01*
X56829622Y-49534277D01*
X56771430Y-49499828D01*
X56721186Y-49448900D01*
X56683163Y-49386132D01*
X56675078Y-49366498D01*
X56668951Y-49349037D01*
X56663924Y-49331418D01*
X56659848Y-49311296D01*
X56656577Y-49286326D01*
X56653964Y-49254163D01*
X56651860Y-49212463D01*
X56650121Y-49158881D01*
X56648597Y-49091072D01*
X56647142Y-49006693D01*
X56645609Y-48903397D01*
X56645489Y-48894979D01*
X56639694Y-48487721D01*
X56564673Y-48482363D01*
X56516270Y-48477684D01*
X56485649Y-48470972D01*
X56469161Y-48460675D01*
X56463160Y-48445242D01*
X56462858Y-48439065D01*
X56466444Y-48425584D01*
X56479431Y-48416288D01*
X56505166Y-48410201D01*
X56546996Y-48406350D01*
X56580749Y-48404724D01*
X56650411Y-48401983D01*
X56655770Y-48282289D01*
X56658649Y-48233457D01*
X56662356Y-48192619D01*
X56666381Y-48164483D01*
X56669680Y-48154060D01*
X56684463Y-48151978D01*
X56696474Y-48157007D01*
G37*
G36*
X52933882Y-48156628D02*
G01*
X52942483Y-48165009D01*
X52948372Y-48180107D01*
X52952211Y-48205853D01*
X52954660Y-48246179D01*
X52955973Y-48287915D01*
X52959003Y-48407342D01*
X53097101Y-48407342D01*
X53161993Y-48407752D01*
X53208433Y-48409344D01*
X53239392Y-48412655D01*
X53257842Y-48418223D01*
X53266755Y-48426586D01*
X53269103Y-48438284D01*
X53269103Y-48438497D01*
X53266701Y-48455223D01*
X53257505Y-48467145D01*
X53238530Y-48475041D01*
X53206791Y-48479690D01*
X53159304Y-48481869D01*
X53100841Y-48482363D01*
X52958301Y-48482363D01*
X52958301Y-48871463D01*
X52958362Y-48973853D01*
X52958626Y-49057238D01*
X52959210Y-49124048D01*
X52960236Y-49176713D01*
X52961822Y-49217662D01*
X52964089Y-49249326D01*
X52967154Y-49274133D01*
X52971139Y-49294514D01*
X52976162Y-49312899D01*
X52980698Y-49326885D01*
X53012088Y-49392451D01*
X53055840Y-49441716D01*
X53110605Y-49473476D01*
X53157782Y-49485045D01*
X53232515Y-49487775D01*
X53302376Y-49474890D01*
X53350411Y-49457239D01*
X53381428Y-49444953D01*
X53399829Y-49441604D01*
X53412212Y-49446632D01*
X53417624Y-49451522D01*
X53427604Y-49465311D01*
X53422959Y-49478923D01*
X53413985Y-49489570D01*
X53381484Y-49512750D01*
X53333461Y-49531212D01*
X53275454Y-49544230D01*
X53212999Y-49551078D01*
X53151635Y-49551030D01*
X53096898Y-49543361D01*
X53069393Y-49534739D01*
X53005611Y-49498766D01*
X52957285Y-49448701D01*
X52936649Y-49414768D01*
X52919609Y-49381938D01*
X52904936Y-49353987D01*
X52900200Y-49345105D01*
X52896773Y-49327795D01*
X52893707Y-49289560D01*
X52891021Y-49230906D01*
X52888730Y-49152341D01*
X52886854Y-49054369D01*
X52885407Y-48937499D01*
X52885095Y-48903017D01*
X52881552Y-48482363D01*
X52808271Y-48482363D01*
X52758618Y-48481255D01*
X52726726Y-48477091D01*
X52708997Y-48468613D01*
X52701832Y-48454560D01*
X52701086Y-48444852D01*
X52704268Y-48427447D01*
X52716216Y-48416278D01*
X52740530Y-48410081D01*
X52780810Y-48407591D01*
X52807886Y-48407342D01*
X52842798Y-48406852D01*
X52866654Y-48403096D01*
X52881576Y-48392642D01*
X52889684Y-48372057D01*
X52893100Y-48337910D01*
X52893947Y-48286770D01*
X52894015Y-48268017D01*
X52895678Y-48211573D01*
X52900642Y-48174588D01*
X52909557Y-48155249D01*
X52923071Y-48151744D01*
X52933882Y-48156628D01*
G37*
G36*
X51012736Y-48394254D02*
G01*
X51043379Y-48401042D01*
X51089536Y-48414607D01*
X51128333Y-48430599D01*
X51168512Y-48451902D01*
X51191894Y-48463977D01*
X51206023Y-48470633D01*
X51243583Y-48495188D01*
X51285351Y-48535008D01*
X51327470Y-48585497D01*
X51366083Y-48642061D01*
X51395759Y-48696709D01*
X51425032Y-48765724D01*
X51443840Y-48828729D01*
X51453646Y-48893435D01*
X51455912Y-48967553D01*
X51454789Y-49007824D01*
X51444224Y-49121260D01*
X51421847Y-49219005D01*
X51386566Y-49303926D01*
X51337291Y-49378890D01*
X51296348Y-49424533D01*
X51226752Y-49484329D01*
X51151281Y-49528516D01*
X51063348Y-49560825D01*
X51048495Y-49564926D01*
X50988900Y-49578670D01*
X50939786Y-49583807D01*
X50892012Y-49580356D01*
X50836440Y-49568340D01*
X50825559Y-49565447D01*
X50746070Y-49539659D01*
X50680642Y-49507709D01*
X50621997Y-49465466D01*
X50579061Y-49425525D01*
X50510312Y-49344131D01*
X50459847Y-49255959D01*
X50426744Y-49158618D01*
X50410080Y-49049717D01*
X50407766Y-48986076D01*
X50482620Y-48986076D01*
X50485825Y-49031443D01*
X50494279Y-49088102D01*
X50506264Y-49147075D01*
X50520062Y-49199381D01*
X50527725Y-49221856D01*
X50572755Y-49310438D01*
X50633666Y-49385833D01*
X50708548Y-49446171D01*
X50795493Y-49489582D01*
X50804124Y-49492692D01*
X50860402Y-49505304D01*
X50927659Y-49509705D01*
X50997058Y-49505859D01*
X51059690Y-49493751D01*
X51145972Y-49458514D01*
X51219083Y-49406391D01*
X51278969Y-49337445D01*
X51325578Y-49251741D01*
X51358859Y-49149342D01*
X51365526Y-49118973D01*
X51377595Y-49047376D01*
X51381867Y-48986206D01*
X51378349Y-48925927D01*
X51367050Y-48857002D01*
X51365759Y-48850577D01*
X51336258Y-48745950D01*
X51293140Y-48657576D01*
X51235614Y-48584529D01*
X51162887Y-48525885D01*
X51074165Y-48480720D01*
X51036851Y-48467150D01*
X50956708Y-48451505D01*
X50874465Y-48455090D01*
X50793338Y-48476369D01*
X50716546Y-48513809D01*
X50647305Y-48565872D01*
X50588832Y-48631025D01*
X50547589Y-48700613D01*
X50522925Y-48764711D01*
X50502443Y-48839319D01*
X50488297Y-48914967D01*
X50482642Y-48982185D01*
X50482620Y-48986076D01*
X50407766Y-48986076D01*
X50407584Y-48981081D01*
X50414850Y-48868172D01*
X50437348Y-48767592D01*
X50476130Y-48675594D01*
X50508502Y-48621688D01*
X50572829Y-48542928D01*
X50648901Y-48478917D01*
X50733823Y-48430851D01*
X50824699Y-48399922D01*
X50918635Y-48387325D01*
X51012736Y-48394254D01*
G37*
G36*
X49114703Y-48011257D02*
G01*
X49188826Y-48011997D01*
X49254677Y-48013143D01*
X49309297Y-48014701D01*
X49349729Y-48016676D01*
X49373013Y-48019075D01*
X49377098Y-48020288D01*
X49387463Y-48037248D01*
X49387676Y-48049596D01*
X49385698Y-48054963D01*
X49380631Y-48059340D01*
X49370370Y-48062871D01*
X49352809Y-48065698D01*
X49325843Y-48067966D01*
X49287365Y-48069818D01*
X49235270Y-48071399D01*
X49167452Y-48072852D01*
X49081805Y-48074320D01*
X49008837Y-48075454D01*
X48921455Y-48076847D01*
X48841132Y-48078249D01*
X48770317Y-48079607D01*
X48711461Y-48080870D01*
X48667014Y-48081985D01*
X48639424Y-48082900D01*
X48631043Y-48083492D01*
X48630443Y-48094367D01*
X48630057Y-48124126D01*
X48629886Y-48170221D01*
X48629930Y-48230102D01*
X48630188Y-48301219D01*
X48630661Y-48381024D01*
X48631043Y-48431455D01*
X48633871Y-48777088D01*
X48978626Y-48782447D01*
X49062456Y-48783917D01*
X49139274Y-48785586D01*
X49206494Y-48787371D01*
X49261532Y-48789191D01*
X49301800Y-48790965D01*
X49324716Y-48792613D01*
X49329034Y-48793475D01*
X49329136Y-48806034D01*
X49324955Y-48814909D01*
X49319176Y-48819432D01*
X49306561Y-48823167D01*
X49285013Y-48826240D01*
X49252433Y-48828778D01*
X49206721Y-48830907D01*
X49145778Y-48832754D01*
X49067507Y-48834446D01*
X48974547Y-48836034D01*
X48633871Y-48841392D01*
X48631040Y-49189165D01*
X48629998Y-49291326D01*
X48628655Y-49373683D01*
X48626939Y-49437864D01*
X48624774Y-49485498D01*
X48622089Y-49518216D01*
X48618809Y-49537644D01*
X48614964Y-49545352D01*
X48585924Y-49553523D01*
X48559113Y-49544319D01*
X48555635Y-49541232D01*
X48552993Y-49533365D01*
X48550704Y-49514658D01*
X48548748Y-49483981D01*
X48547106Y-49440201D01*
X48545760Y-49382188D01*
X48544690Y-49308809D01*
X48543876Y-49218934D01*
X48543300Y-49111431D01*
X48542943Y-48985169D01*
X48542785Y-48839015D01*
X48542774Y-48780681D01*
X48542789Y-48636013D01*
X48542861Y-48511278D01*
X48543032Y-48404971D01*
X48543342Y-48315590D01*
X48543833Y-48241633D01*
X48544545Y-48181596D01*
X48545520Y-48133976D01*
X48546799Y-48097271D01*
X48548423Y-48069978D01*
X48550432Y-48050593D01*
X48552868Y-48037615D01*
X48555773Y-48029540D01*
X48559186Y-48024865D01*
X48563149Y-48022088D01*
X48563504Y-48021896D01*
X48578944Y-48019246D01*
X48612739Y-48016950D01*
X48661929Y-48015013D01*
X48723556Y-48013440D01*
X48794661Y-48012239D01*
X48872288Y-48011414D01*
X48953475Y-48010971D01*
X49035267Y-48010917D01*
X49114703Y-48011257D01*
G37*
G36*
X57480738Y-47962809D02*
G01*
X57486718Y-47978082D01*
X57491213Y-48004335D01*
X57494487Y-48043457D01*
X57496806Y-48097337D01*
X57498435Y-48167864D01*
X57499640Y-48256926D01*
X57500201Y-48312805D01*
X57503325Y-48645917D01*
X57533297Y-48598971D01*
X57591284Y-48526679D01*
X57662180Y-48468421D01*
X57742691Y-48425128D01*
X57829523Y-48397736D01*
X57919382Y-48387177D01*
X58008973Y-48394385D01*
X58095001Y-48420294D01*
X58120819Y-48432469D01*
X58169642Y-48465210D01*
X58219050Y-48510860D01*
X58262100Y-48562260D01*
X58288797Y-48605710D01*
X58304996Y-48639568D01*
X58318240Y-48670265D01*
X58328829Y-48700394D01*
X58337065Y-48732548D01*
X58343247Y-48769320D01*
X58347675Y-48813302D01*
X58350651Y-48867087D01*
X58352475Y-48933269D01*
X58353446Y-49014441D01*
X58353865Y-49113194D01*
X58353959Y-49168270D01*
X58354462Y-49548734D01*
X58322310Y-49548734D01*
X58290158Y-49548734D01*
X58284012Y-49173628D01*
X58282046Y-49065934D01*
X58279946Y-48977574D01*
X58277600Y-48906452D01*
X58274899Y-48850466D01*
X58271733Y-48807520D01*
X58267991Y-48775512D01*
X58263564Y-48752346D01*
X58261532Y-48744936D01*
X58224870Y-48653236D01*
X58176085Y-48577931D01*
X58115883Y-48519841D01*
X58044972Y-48479785D01*
X58027361Y-48473257D01*
X57959879Y-48455409D01*
X57899973Y-48451853D01*
X57839283Y-48462541D01*
X57809394Y-48472018D01*
X57731398Y-48505498D01*
X57668064Y-48547529D01*
X57612984Y-48602717D01*
X57593533Y-48627235D01*
X57572928Y-48655199D01*
X57555985Y-48680792D01*
X57542305Y-48706447D01*
X57531486Y-48734599D01*
X57523126Y-48767682D01*
X57516825Y-48808133D01*
X57512182Y-48858384D01*
X57508796Y-48920870D01*
X57506265Y-48998027D01*
X57504188Y-49092288D01*
X57502630Y-49178987D01*
X57501072Y-49265730D01*
X57499521Y-49345392D01*
X57498035Y-49415507D01*
X57496672Y-49473609D01*
X57495489Y-49517233D01*
X57494543Y-49543911D01*
X57493984Y-49551413D01*
X57479621Y-49555167D01*
X57456987Y-49552631D01*
X57437581Y-49545806D01*
X57432344Y-49540696D01*
X57431544Y-49528026D01*
X57430857Y-49495647D01*
X57430289Y-49445285D01*
X57429844Y-49378665D01*
X57429529Y-49297512D01*
X57429347Y-49203551D01*
X57429305Y-49098509D01*
X57429407Y-48984110D01*
X57429659Y-48862081D01*
X57430001Y-48751462D01*
X57430557Y-48603435D01*
X57431118Y-48475377D01*
X57431723Y-48365825D01*
X57432413Y-48273313D01*
X57433226Y-48196378D01*
X57434202Y-48133553D01*
X57435380Y-48083376D01*
X57436801Y-48044380D01*
X57438503Y-48015102D01*
X57440526Y-47994077D01*
X57442910Y-47979840D01*
X57445693Y-47970927D01*
X57448916Y-47965872D01*
X57451234Y-47963982D01*
X57463261Y-47957648D01*
X57473008Y-47956627D01*
X57480738Y-47962809D01*
G37*
G36*
X59226993Y-48394626D02*
G01*
X59318954Y-48419395D01*
X59405432Y-48461275D01*
X59483532Y-48518902D01*
X59550356Y-48590917D01*
X59597245Y-48664557D01*
X59629713Y-48732438D01*
X59651626Y-48794057D01*
X59664688Y-48856803D01*
X59670605Y-48928065D01*
X59671412Y-48986076D01*
X59668069Y-49074244D01*
X59658075Y-49148176D01*
X59640069Y-49214409D01*
X59612690Y-49279477D01*
X59608644Y-49287649D01*
X59583971Y-49331365D01*
X59554557Y-49375536D01*
X59524903Y-49413945D01*
X59499511Y-49440376D01*
X59496062Y-49443140D01*
X59475938Y-49459307D01*
X59455264Y-49476896D01*
X59414802Y-49504516D01*
X59359950Y-49531533D01*
X59297672Y-49555455D01*
X59234929Y-49573792D01*
X59178685Y-49584052D01*
X59152197Y-49585332D01*
X59122148Y-49582101D01*
X59081277Y-49574628D01*
X59045727Y-49566348D01*
X58941890Y-49529988D01*
X58852462Y-49478268D01*
X58776941Y-49410680D01*
X58714822Y-49326714D01*
X58665603Y-49225863D01*
X58642685Y-49159151D01*
X58631875Y-49106117D01*
X58625790Y-49039977D01*
X58624744Y-48985365D01*
X58702786Y-48985365D01*
X58705745Y-49037411D01*
X58713771Y-49095398D01*
X58725615Y-49154160D01*
X58740032Y-49208532D01*
X58755774Y-49253346D01*
X58771595Y-49283437D01*
X58775996Y-49288648D01*
X58787067Y-49304263D01*
X58788512Y-49309657D01*
X58795833Y-49325103D01*
X58814960Y-49349953D01*
X58841639Y-49379415D01*
X58871615Y-49408698D01*
X58892261Y-49426507D01*
X58919190Y-49443985D01*
X58958604Y-49464719D01*
X59002757Y-49484890D01*
X59040369Y-49499487D01*
X59080269Y-49507042D01*
X59133614Y-49508834D01*
X59193352Y-49505366D01*
X59252429Y-49497140D01*
X59303792Y-49484658D01*
X59317741Y-49479732D01*
X59382909Y-49444761D01*
X59444918Y-49394368D01*
X59498450Y-49333990D01*
X59538189Y-49269066D01*
X59548943Y-49243291D01*
X59564834Y-49188389D01*
X59578530Y-49122274D01*
X59588266Y-49055114D01*
X59592276Y-48997080D01*
X59592297Y-48993487D01*
X59584144Y-48877461D01*
X59560127Y-48772882D01*
X59520980Y-48680893D01*
X59467440Y-48602636D01*
X59400241Y-48539253D01*
X59320121Y-48491887D01*
X59254012Y-48468113D01*
X59183357Y-48453482D01*
X59119873Y-48452189D01*
X59054007Y-48464166D01*
X59044993Y-48466632D01*
X58954902Y-48502544D01*
X58877118Y-48555255D01*
X58812523Y-48623426D01*
X58762000Y-48705718D01*
X58726433Y-48800793D01*
X58706705Y-48907313D01*
X58702786Y-48985365D01*
X58624744Y-48985365D01*
X58624412Y-48968041D01*
X58627725Y-48897615D01*
X58635712Y-48836009D01*
X58643489Y-48803882D01*
X58687781Y-48691887D01*
X58744968Y-48596998D01*
X58815036Y-48519230D01*
X58897970Y-48458595D01*
X58993756Y-48415110D01*
X59038212Y-48401861D01*
X59132447Y-48388327D01*
X59226993Y-48394626D01*
G37*
G36*
X54837641Y-48017510D02*
G01*
X54908850Y-48031064D01*
X55012723Y-48063902D01*
X55102743Y-48108346D01*
X55184729Y-48167484D01*
X55212965Y-48192563D01*
X55288951Y-48274759D01*
X55349903Y-48366886D01*
X55397847Y-48472399D01*
X55423622Y-48552025D01*
X55438072Y-48623114D01*
X55446564Y-48707623D01*
X55449066Y-48798375D01*
X55445546Y-48888191D01*
X55435972Y-48969893D01*
X55425701Y-49018228D01*
X55384851Y-49139453D01*
X55331017Y-49244671D01*
X55262699Y-49335974D01*
X55178395Y-49415454D01*
X55101761Y-49469839D01*
X55079135Y-49481300D01*
X55043016Y-49496600D01*
X55000270Y-49512874D01*
X54989230Y-49516802D01*
X54917961Y-49535649D01*
X54835830Y-49547542D01*
X54750066Y-49552164D01*
X54667895Y-49549200D01*
X54596545Y-49538337D01*
X54581972Y-49534558D01*
X54464529Y-49490621D01*
X54360351Y-49430247D01*
X54270131Y-49354359D01*
X54194561Y-49263880D01*
X54134335Y-49159736D01*
X54090145Y-49042848D01*
X54062685Y-48914141D01*
X54054523Y-48831567D01*
X54056187Y-48727146D01*
X54140077Y-48727146D01*
X54140314Y-48837380D01*
X54151471Y-48943539D01*
X54152315Y-48948565D01*
X54172853Y-49044306D01*
X54200236Y-49124601D01*
X54237233Y-49195048D01*
X54286612Y-49261245D01*
X54330116Y-49308140D01*
X54395065Y-49366791D01*
X54462040Y-49412189D01*
X54536833Y-49447443D01*
X54625233Y-49475662D01*
X54656993Y-49483631D01*
X54688184Y-49486997D01*
X54734001Y-49487080D01*
X54787967Y-49484367D01*
X54843609Y-49479346D01*
X54894451Y-49472503D01*
X54934019Y-49464327D01*
X54941002Y-49462258D01*
X55046439Y-49417746D01*
X55137865Y-49357348D01*
X55214815Y-49281788D01*
X55276827Y-49191789D01*
X55323436Y-49088076D01*
X55354179Y-48971372D01*
X55368592Y-48842402D01*
X55369694Y-48792964D01*
X55361991Y-48659914D01*
X55338543Y-48540560D01*
X55298838Y-48433522D01*
X55242366Y-48337417D01*
X55169640Y-48251885D01*
X55135224Y-48218753D01*
X55105271Y-48192266D01*
X55083563Y-48175635D01*
X55074997Y-48171561D01*
X55059447Y-48166495D01*
X55057106Y-48163523D01*
X55043861Y-48152380D01*
X55014746Y-48137251D01*
X54974438Y-48120265D01*
X54927612Y-48103547D01*
X54919567Y-48100957D01*
X54859407Y-48088214D01*
X54781159Y-48082604D01*
X54753449Y-48082283D01*
X54637525Y-48091891D01*
X54531103Y-48120709D01*
X54434197Y-48168731D01*
X54346826Y-48235950D01*
X54301552Y-48282560D01*
X54271433Y-48322851D01*
X54238934Y-48376036D01*
X54208117Y-48434565D01*
X54183044Y-48490888D01*
X54171004Y-48525232D01*
X54150421Y-48620531D01*
X54140077Y-48727146D01*
X54056187Y-48727146D01*
X54056494Y-48707894D01*
X54075611Y-48581745D01*
X54110558Y-48461537D01*
X54113586Y-48453502D01*
X54164869Y-48347859D01*
X54231888Y-48254422D01*
X54312380Y-48174394D01*
X54404078Y-48108980D01*
X54504718Y-48059381D01*
X54612035Y-48026801D01*
X54723765Y-48012443D01*
X54837641Y-48017510D01*
G37*
G36*
X52169150Y-48391289D02*
G01*
X52246895Y-48405887D01*
X52322090Y-48427391D01*
X52376888Y-48449579D01*
X52413510Y-48468763D01*
X52434121Y-48483906D01*
X52442758Y-48498553D01*
X52443871Y-48508441D01*
X52440833Y-48530736D01*
X52429659Y-48539730D01*
X52407256Y-48535791D01*
X52370531Y-48519287D01*
X52367130Y-48517562D01*
X52273620Y-48479290D01*
X52177086Y-48457137D01*
X52082178Y-48451719D01*
X51993549Y-48463651D01*
X51982293Y-48466632D01*
X51909709Y-48492099D01*
X51855103Y-48523436D01*
X51815316Y-48562972D01*
X51788824Y-48609179D01*
X51773778Y-48649919D01*
X51770460Y-48682408D01*
X51779345Y-48715559D01*
X51796354Y-48750011D01*
X51816415Y-48781438D01*
X51840304Y-48804487D01*
X51875177Y-48825487D01*
X51890130Y-48832957D01*
X51938148Y-48854591D01*
X51987627Y-48874084D01*
X52032843Y-48889427D01*
X52068070Y-48898613D01*
X52082370Y-48900337D01*
X52105009Y-48903971D01*
X52147569Y-48914886D01*
X52210131Y-48933105D01*
X52267035Y-48950580D01*
X52350514Y-48983617D01*
X52422019Y-49026090D01*
X52478376Y-49075747D01*
X52514097Y-49125803D01*
X52526461Y-49163656D01*
X52533233Y-49214575D01*
X52534406Y-49270933D01*
X52529970Y-49325102D01*
X52519918Y-49369454D01*
X52514384Y-49382616D01*
X52488011Y-49423043D01*
X52451821Y-49464629D01*
X52412068Y-49501083D01*
X52375006Y-49526114D01*
X52368850Y-49529031D01*
X52314907Y-49548381D01*
X52252590Y-49564473D01*
X52188021Y-49576318D01*
X52127325Y-49582931D01*
X52076625Y-49583325D01*
X52052689Y-49579964D01*
X52029186Y-49574337D01*
X51995788Y-49566344D01*
X51983027Y-49563291D01*
X51906563Y-49540657D01*
X51833762Y-49511099D01*
X51770118Y-49477249D01*
X51721124Y-49441738D01*
X51712705Y-49433813D01*
X51698735Y-49410551D01*
X51693923Y-49383319D01*
X51699193Y-49361223D01*
X51704781Y-49355573D01*
X51718431Y-49358168D01*
X51740996Y-49372384D01*
X51755688Y-49384534D01*
X51825504Y-49434753D01*
X51907229Y-49472646D01*
X51996550Y-49497740D01*
X52089156Y-49509566D01*
X52180735Y-49507650D01*
X52266974Y-49491523D01*
X52343563Y-49460712D01*
X52360678Y-49450671D01*
X52408788Y-49408329D01*
X52442743Y-49353664D01*
X52461071Y-49291632D01*
X52462300Y-49227191D01*
X52445252Y-49165944D01*
X52425845Y-49132205D01*
X52399146Y-49102893D01*
X52362741Y-49076755D01*
X52314214Y-49052542D01*
X52251148Y-49029003D01*
X52171128Y-49004886D01*
X52095559Y-48984914D01*
X51997661Y-48958217D01*
X51918577Y-48932112D01*
X51855761Y-48905397D01*
X51806668Y-48876871D01*
X51768752Y-48845332D01*
X51747246Y-48820485D01*
X51728124Y-48788657D01*
X51710482Y-48748804D01*
X51698016Y-48710240D01*
X51694259Y-48686933D01*
X51702580Y-48627339D01*
X51727899Y-48566679D01*
X51766771Y-48510325D01*
X51815748Y-48463651D01*
X51852199Y-48440626D01*
X51897648Y-48422470D01*
X51955971Y-48406161D01*
X52018608Y-48393597D01*
X52076996Y-48386677D01*
X52098939Y-48385909D01*
X52169150Y-48391289D01*
G37*
%TD*%
%LPC*%
D12*
%TO.C,SW21*%
X46500000Y-59000000D03*
X46500000Y-61500000D03*
X46500000Y-64000000D03*
%TD*%
D13*
%TO.C,SW15*%
X129500000Y-63800000D03*
D14*
X124500000Y-67500000D03*
D13*
X124500000Y-61600000D03*
%TD*%
%TO.C,SW20*%
X146500000Y-80810000D03*
D14*
X141500000Y-84510000D03*
D13*
X141500000Y-78610000D03*
%TD*%
%TO.C,SW18*%
X146500000Y-46800000D03*
D14*
X141500000Y-50500000D03*
D13*
X141500000Y-44600000D03*
%TD*%
%TO.C,SW5*%
X95500000Y-29800000D03*
D14*
X90500000Y-33500000D03*
D13*
X90500000Y-27600000D03*
%TD*%
%TO.C,SW16*%
X129500000Y-80800000D03*
D14*
X124500000Y-84500000D03*
D13*
X124500000Y-78600000D03*
%TD*%
%TO.C,SW2*%
X78500000Y-46800000D03*
D14*
X73500000Y-50500000D03*
D13*
X73500000Y-44600000D03*
%TD*%
%TO.C,SW12*%
X112500000Y-80800000D03*
D14*
X107500000Y-84500000D03*
D13*
X107500000Y-78600000D03*
%TD*%
%TO.C,SW6*%
X95500000Y-46800000D03*
D14*
X90500000Y-50500000D03*
D13*
X90500000Y-44600000D03*
%TD*%
%TO.C,SW4*%
X78500000Y-80800000D03*
D14*
X73500000Y-84500000D03*
D13*
X73500000Y-78600000D03*
%TD*%
%TO.C,SW3*%
X78500000Y-63800000D03*
D14*
X73500000Y-67500000D03*
D13*
X73500000Y-61600000D03*
%TD*%
%TO.C,SW13*%
X129500000Y-29800000D03*
D14*
X124500000Y-33500000D03*
D13*
X124500000Y-27600000D03*
%TD*%
%TO.C,SW10*%
X112500000Y-46800000D03*
D14*
X107500000Y-50500000D03*
D13*
X107500000Y-44600000D03*
%TD*%
%TO.C,SW14*%
X129500000Y-46800000D03*
D14*
X124500000Y-50500000D03*
D13*
X124500000Y-44600000D03*
%TD*%
%TO.C,SW8*%
X95500000Y-80800000D03*
D14*
X90500000Y-84500000D03*
D13*
X90500000Y-78600000D03*
%TD*%
%TO.C,SW9*%
X112500000Y-29800000D03*
D14*
X107500000Y-33500000D03*
D13*
X107500000Y-27600000D03*
%TD*%
%TO.C,SW11*%
X112480000Y-63800000D03*
D14*
X107480000Y-67500000D03*
D13*
X107480000Y-61600000D03*
%TD*%
%TO.C,SW7*%
X95500000Y-63800000D03*
D14*
X90500000Y-67500000D03*
D13*
X90500000Y-61600000D03*
%TD*%
D15*
%TO.C,U1*%
X46380000Y-27924000D03*
X46380000Y-30464000D03*
X46380000Y-33004000D03*
X46380000Y-35544000D03*
X46380000Y-38084000D03*
X46380000Y-40624000D03*
X46380000Y-43164000D03*
X62620000Y-43164000D03*
X62620000Y-40624000D03*
X62620000Y-38084000D03*
X62620000Y-35544000D03*
X62620000Y-33004000D03*
X62620000Y-30464000D03*
X62620000Y-27924000D03*
D16*
X58335400Y-44856000D03*
X60215000Y-44856000D03*
X50055000Y-35227000D03*
X50055000Y-33322000D03*
%TD*%
D13*
%TO.C,SW1*%
X78500000Y-29800000D03*
D14*
X73500000Y-33500000D03*
D13*
X73500000Y-27600000D03*
%TD*%
%TO.C,SW19*%
X146500000Y-63800000D03*
D14*
X141500000Y-67500000D03*
D13*
X141500000Y-61600000D03*
%TD*%
%TO.C,SW17*%
X146500000Y-29800000D03*
D14*
X141500000Y-33500000D03*
D13*
X141500000Y-27600000D03*
%TD*%
%LPD*%
M02*
