%TF.GenerationSoftware,KiCad,Pcbnew,9.0.2*%
%TF.CreationDate,2026-03-31T22:48:15+09:00*%
%TF.ProjectId,FrostOrtho_Bridge,46726f73-744f-4727-9468-6f5f42726964,rev?*%
%TF.SameCoordinates,Original*%
%TF.FileFunction,Soldermask,Top*%
%TF.FilePolarity,Negative*%
%FSLAX46Y46*%
G04 Gerber Fmt 4.6, Leading zero omitted, Abs format (unit mm)*
G04 Created by KiCad (PCBNEW 9.0.2) date 2026-03-31 22:48:15*
%MOMM*%
%LPD*%
G01*
G04 APERTURE LIST*
G04 Aperture macros list*
%AMRoundRect*
0 Rectangle with rounded corners*
0 $1 Rounding radius*
0 $2 $3 $4 $5 $6 $7 $8 $9 X,Y pos of 4 corners*
0 Add a 4 corners polygon primitive as box body*
4,1,4,$2,$3,$4,$5,$6,$7,$8,$9,$2,$3,0*
0 Add four circle primitives for the rounded corners*
1,1,$1+$1,$2,$3*
1,1,$1+$1,$4,$5*
1,1,$1+$1,$6,$7*
1,1,$1+$1,$8,$9*
0 Add four rect primitives between the rounded corners*
20,1,$1+$1,$2,$3,$4,$5,0*
20,1,$1+$1,$4,$5,$6,$7,0*
20,1,$1+$1,$6,$7,$8,$9,0*
20,1,$1+$1,$8,$9,$2,$3,0*%
G04 Aperture macros list end*
%ADD10O,1.800000X1.800000*%
%ADD11RoundRect,0.264706X0.635294X-0.635294X0.635294X0.635294X-0.635294X0.635294X-0.635294X-0.635294X0*%
%TA.AperFunction,SMDPad,CuDef*%
%ADD12O,1.800000X1.800000*%
%TD*%
%TA.AperFunction,SMDPad,CuDef*%
%ADD13RoundRect,0.264706X0.635294X-0.635294X0.635294X0.635294X-0.635294X0.635294X-0.635294X-0.635294X0*%
%TD*%
%TA.AperFunction,Conductor*%
%ADD14C,0.200000*%
%TD*%
%TA.AperFunction,Profile*%
%ADD15C,0.050000*%
%TD*%
G04 APERTURE END LIST*
D10*
%TO.C,J1*%
X154620000Y-118750000D03*
X152080000Y-118750000D03*
X149540000Y-118750000D03*
X147000000Y-118750000D03*
X144460000Y-118750000D03*
X141920000Y-118750000D03*
D11*
X139380000Y-118750000D03*
%TD*%
%TO.C,J1*%
X139380000Y-73250000D03*
D10*
X141920000Y-73250000D03*
X144460000Y-73250000D03*
X147000000Y-73250000D03*
X149540000Y-73250000D03*
X152080000Y-73250000D03*
X154620000Y-73250000D03*
%TD*%
D12*
%TO.P,J1,7*%
%TO.N,N/C*%
X154620000Y-118750000D03*
%TO.P,J1,6*%
X152080000Y-118750000D03*
%TO.P,J1,5*%
X149540000Y-118750000D03*
%TO.P,J1,4*%
X147000000Y-118750000D03*
%TO.P,J1,3*%
X144460000Y-118750000D03*
%TO.P,J1,2*%
X141920000Y-118750000D03*
D13*
%TO.P,J1,1*%
X139380000Y-118750000D03*
%TD*%
%TO.P,J1,1*%
%TO.N,N/C*%
X139380000Y-73250000D03*
D12*
%TO.P,J1,2*%
X141920000Y-73250000D03*
%TO.P,J1,3*%
X144460000Y-73250000D03*
%TO.P,J1,4*%
X147000000Y-73250000D03*
%TO.P,J1,5*%
X149540000Y-73250000D03*
%TO.P,J1,6*%
X152080000Y-73250000D03*
%TO.P,J1,7*%
X154620000Y-73250000D03*
%TD*%
D14*
%TO.N,*%
X144000000Y-110000000D02*
X144000000Y-81000000D01*
X145000000Y-80685778D02*
X145000000Y-111314222D01*
X145000000Y-111314222D02*
G75*
G02*
X141919993Y-118749993I-10515800J22D01*
G01*
X141920000Y-73250000D02*
G75*
G02*
X145000009Y-80685778I-7435800J-7435800D01*
G01*
X150000000Y-110000000D02*
X150000000Y-81000000D01*
X149000000Y-111314222D02*
G75*
G03*
X152080007Y-118749993I10515800J22D01*
G01*
X152080000Y-73250000D02*
G75*
G03*
X148999991Y-80685778I7435800J-7435800D01*
G01*
X149000000Y-80685778D02*
X149000000Y-111314222D01*
X148000000Y-76967889D02*
X148000000Y-115032111D01*
X146000000Y-115032111D02*
G75*
G02*
X144459997Y-118749997I-5257900J11D01*
G01*
X146000000Y-76967889D02*
X146000000Y-115032111D01*
X144460000Y-73250000D02*
G75*
G02*
X146000005Y-76967889I-3717900J-3717900D01*
G01*
X147000000Y-73250000D02*
X147000000Y-118750000D01*
X141079649Y-117050351D02*
X139380000Y-118750000D01*
X152213244Y-75656756D02*
X154620000Y-73250000D01*
X150000000Y-81000000D02*
G75*
G02*
X152213242Y-75656754I7556500J0D01*
G01*
X149996755Y-110099444D02*
G75*
G03*
X152844497Y-116974491I9722785J4D01*
G01*
X150000000Y-110000000D02*
X149996755Y-110099444D01*
X152844494Y-116974494D02*
X154620000Y-118750000D01*
X144000000Y-81000000D02*
G75*
G03*
X141786758Y-75656754I-7556500J0D01*
G01*
X141786756Y-75656756D02*
X139380000Y-73250000D01*
X144000000Y-110000000D02*
G75*
G02*
X141079649Y-117050351I-9970700J0D01*
G01*
X139665435Y-118464564D02*
X139380000Y-118750000D01*
X148000000Y-76967889D02*
G75*
G02*
X149540003Y-73250003I5257900J-11D01*
G01*
X149540000Y-118750000D02*
G75*
G02*
X147999995Y-115032111I3717900J3717900D01*
G01*
%TD*%
D15*
X137000000Y-73000000D02*
G75*
G02*
X139000000Y-71000000I2000000J0D01*
G01*
X155000000Y-71000000D02*
G75*
G02*
X157000000Y-73000000I0J-2000000D01*
G01*
X157000000Y-119000000D02*
G75*
G02*
X155000000Y-121000000I-2000000J0D01*
G01*
X139000000Y-121000000D02*
G75*
G02*
X137000000Y-119000000I0J2000000D01*
G01*
X137000000Y-119000000D02*
X137000000Y-73000000D01*
X157000000Y-73000000D02*
X157000000Y-119000000D01*
X139000000Y-121000000D02*
X155000000Y-121000000D01*
X139000000Y-71000000D02*
X155000000Y-71000000D01*
M02*
