M48
; DRILL file {KiCad 9.0.2} date 2026-04-22T00:05:02+0900
; FORMAT={-:-/ absolute / inch / decimal}
; #@! TF.CreationDate,2026-04-22T00:05:02+09:00
; #@! TF.GenerationSoftware,Kicad,Pcbnew,9.0.2
; #@! TF.FileFunction,Plated,1,2,PTH
FMAT,2
INCH
; #@! TA.AperFunction,Plated,PTH,ViaDrill
T1C0.0118
; #@! TA.AperFunction,Plated,PTH,ComponentDrill
T2C0.0197
; #@! TA.AperFunction,Plated,PTH,ComponentDrill
T3C0.0320
; #@! TA.AperFunction,Plated,PTH,ComponentDrill
T4C0.0394
; #@! TA.AperFunction,Plated,PTH,ComponentDrill
T5C0.0866
%
G90
G05
T1
X3.3976Y-3.2185
X3.6516Y-3.3169
X3.6516Y-4.6654
X3.6663Y-3.9813
X4.0673Y-3.2677
X4.3307Y-4.6555
X4.3406Y-3.3169
X4.3406Y-3.9862
X4.7362Y-3.878
X5.0Y-4.6555
X5.0098Y-3.3169
X5.0098Y-3.9862
X5.4055Y-3.9429
X5.6743Y-4.6555
X5.6791Y-3.3169
X5.6791Y-3.9862
X6.0748Y-3.9232
X6.3386Y-4.6555
X6.3436Y-3.9812
X6.3484Y-3.3169
X6.7146Y-4.3701
X6.8386Y-3.939
X6.8701Y-3.5531
X6.9803Y-4.6358
X7.0768Y-4.6043
X7.1654Y-4.252
T3
X6.8457Y-2.684
X6.8457Y-2.784
X6.8457Y-2.884
X6.8457Y-2.984
X6.8457Y-3.084
X6.8457Y-3.184
X6.8457Y-3.284
X7.4457Y-2.684
X7.4457Y-2.784
X7.4457Y-2.884
X7.4457Y-2.984
X7.4457Y-3.084
X7.4457Y-3.184
X7.4457Y-3.284
T4
X6.9685Y-4.4469
X6.9707Y-2.8965
X6.9707Y-2.9715
X7.0669Y-4.4469
X7.1654Y-4.4469
X7.2967Y-3.3506
X7.3707Y-3.3506
T5
X6.8465Y-4.1516
X7.2874Y-4.1516
T2
G00X7.4587Y-3.8937
M15
G01X7.4587Y-3.9055
M16
G05
G00X7.4587Y-3.9921
M15
G01X7.4587Y-4.0039
M16
G05
G00X7.4587Y-4.0906
M15
G01X7.4587Y-4.1024
M16
G05
M30
