M48
; DRILL file {KiCad 9.0.2} date 2026-04-22T00:05:02+0900
; FORMAT={-:-/ absolute / inch / decimal}
; #@! TF.CreationDate,2026-04-22T00:05:02+09:00
; #@! TF.GenerationSoftware,Kicad,Pcbnew,9.0.2
; #@! TF.FileFunction,NonPlated,1,2,NPTH
FMAT,2
INCH
; #@! TA.AperFunction,NonPlated,NPTH,ComponentDrill
T1C0.1181
; #@! TA.AperFunction,NonPlated,NPTH,ComponentDrill
T2C0.1969
%
G90
G05
T1
X3.5236Y-3.0492
X3.5236Y-3.7185
X3.5236Y-4.3868
X3.5236Y-5.0571
X3.7205Y-3.1358
X3.7205Y-3.8051
X3.7205Y-4.4734
X3.7205Y-5.1437
X4.1929Y-3.7185
X4.1929Y-4.3874
X4.1929Y-5.0571
X4.1933Y-3.0492
X4.3898Y-3.8051
X4.3898Y-4.474
X4.3898Y-5.1437
X4.3902Y-3.1358
X4.8614Y-3.0492
X4.8622Y-3.7185
X4.8622Y-4.3878
X4.8622Y-5.0571
X5.0583Y-3.1358
X5.0591Y-3.8051
X5.0591Y-4.4744
X5.0591Y-5.1437
X5.5311Y-5.0565
X5.5315Y-3.0492
X5.5315Y-3.7185
X5.5315Y-4.3878
X5.728Y-5.1431
X5.7283Y-3.1358
X5.7283Y-3.8051
X5.7283Y-4.4744
X6.2008Y-3.0492
X6.2008Y-3.7185
X6.2008Y-4.3878
X6.2008Y-5.0571
X6.3976Y-3.1358
X6.3976Y-3.8051
X6.3976Y-4.4744
X6.3976Y-5.1437
X6.8701Y-5.0571
X7.0669Y-5.1437
T2
X3.7205Y-2.9035
X3.7205Y-3.5728
X3.7205Y-4.2411
X3.7205Y-4.9114
X4.3898Y-3.5728
X4.3898Y-4.2417
X4.3898Y-4.9114
X4.3902Y-2.9035
X5.0583Y-2.9035
X5.0591Y-3.5728
X5.0591Y-4.2421
X5.0591Y-4.9114
X5.728Y-4.9108
X5.7283Y-2.9035
X5.7283Y-3.5728
X5.7283Y-4.2421
X6.3976Y-2.9035
X6.3976Y-3.5728
X6.3976Y-4.2421
X6.3976Y-4.9114
X7.0669Y-4.9114
M30
