%TF.GenerationSoftware,KiCad,Pcbnew,9.0.2*%
%TF.CreationDate,2026-04-11T22:39:22+09:00*%
%TF.ProjectId,pmw3610_breakout_for_frostortho,706d7733-3631-4305-9f62-7265616b6f75,rev?*%
%TF.SameCoordinates,Original*%
%TF.FileFunction,Legend,Top*%
%TF.FilePolarity,Positive*%
%FSLAX46Y46*%
G04 Gerber Fmt 4.6, Leading zero omitted, Abs format (unit mm)*
G04 Created by KiCad (PCBNEW 9.0.2) date 2026-04-11 22:39:22*
%MOMM*%
%LPD*%
G01*
G04 APERTURE LIST*
G04 Aperture macros list*
%AMRoundRect*
0 Rectangle with rounded corners*
0 $1 Rounding radius*
0 $2 $3 $4 $5 $6 $7 $8 $9 X,Y pos of 4 corners*
0 Add a 4 corners polygon primitive as box body*
4,1,4,$2,$3,$4,$5,$6,$7,$8,$9,$2,$3,0*
0 Add four circle primitives for the rounded corners*
1,1,$1+$1,$2,$3*
1,1,$1+$1,$4,$5*
1,1,$1+$1,$6,$7*
1,1,$1+$1,$8,$9*
0 Add four rect primitives between the rounded corners*
20,1,$1+$1,$2,$3,$4,$5,0*
20,1,$1+$1,$4,$5,$6,$7,0*
20,1,$1+$1,$6,$7,$8,$9,0*
20,1,$1+$1,$8,$9,$2,$3,0*%
G04 Aperture macros list end*
%ADD10C,0.100000*%
%ADD11RoundRect,0.187500X-0.437500X0.437500X-0.437500X-0.437500X0.437500X-0.437500X0.437500X0.437500X0*%
%ADD12O,1.250000X1.250000*%
%ADD13R,0.300000X0.800000*%
%ADD14R,1.000000X0.800000*%
G04 APERTURE END LIST*
D10*
X133416666Y-105207419D02*
X133416666Y-105921704D01*
X133416666Y-105921704D02*
X133369047Y-106064561D01*
X133369047Y-106064561D02*
X133273809Y-106159800D01*
X133273809Y-106159800D02*
X133130952Y-106207419D01*
X133130952Y-106207419D02*
X133035714Y-106207419D01*
X133845238Y-105302657D02*
X133892857Y-105255038D01*
X133892857Y-105255038D02*
X133988095Y-105207419D01*
X133988095Y-105207419D02*
X134226190Y-105207419D01*
X134226190Y-105207419D02*
X134321428Y-105255038D01*
X134321428Y-105255038D02*
X134369047Y-105302657D01*
X134369047Y-105302657D02*
X134416666Y-105397895D01*
X134416666Y-105397895D02*
X134416666Y-105493133D01*
X134416666Y-105493133D02*
X134369047Y-105635990D01*
X134369047Y-105635990D02*
X133797619Y-106207419D01*
X133797619Y-106207419D02*
X134416666Y-106207419D01*
%TO.C,J2*%
X133350000Y-97450000D02*
X133350000Y-99450000D01*
X133950000Y-100350000D02*
X137550000Y-100350000D01*
X134250000Y-97450000D02*
X133350000Y-97450000D01*
X134250000Y-100350000D02*
X134650000Y-100350000D01*
X134450000Y-99450000D02*
X134250000Y-100350000D01*
X134650000Y-100350000D02*
X134450000Y-99450000D01*
X137250000Y-97450000D02*
X138150000Y-97450000D01*
X138150000Y-97450000D02*
X138150000Y-99450000D01*
%TD*%
%LPC*%
D11*
%TO.C,U2*%
X130650000Y-81100000D03*
D12*
X130650000Y-82880000D03*
X130650000Y-84660000D03*
X130650000Y-86440000D03*
X130650000Y-88220000D03*
X130650000Y-90000000D03*
X130650000Y-91780000D03*
X130650000Y-93560000D03*
X141350000Y-94450000D03*
X141350000Y-92670000D03*
X141350000Y-90890000D03*
X141350000Y-89110000D03*
X141350000Y-87330000D03*
X141350000Y-85550000D03*
X141350000Y-83770000D03*
X141350000Y-81990000D03*
%TD*%
D13*
%TO.C,J2*%
X134500000Y-97500000D03*
X135000000Y-97500000D03*
X135500000Y-97500000D03*
X136000000Y-97500000D03*
X136500000Y-97500000D03*
X137000000Y-97500000D03*
D14*
X133350000Y-99950000D03*
X138150000Y-99950000D03*
%TD*%
%LPD*%
M02*
