%TF.GenerationSoftware,KiCad,Pcbnew,9.0.2*%
%TF.CreationDate,2026-04-05T16:23:53+09:00*%
%TF.ProjectId,FrostOrtho_ffc_connecta,46726f73-744f-4727-9468-6f5f6666635f,rev?*%
%TF.SameCoordinates,Original*%
%TF.FileFunction,Soldermask,Top*%
%TF.FilePolarity,Negative*%
%FSLAX46Y46*%
G04 Gerber Fmt 4.6, Leading zero omitted, Abs format (unit mm)*
G04 Created by KiCad (PCBNEW 9.0.2) date 2026-04-05 16:23:53*
%MOMM*%
%LPD*%
G01*
G04 APERTURE LIST*
%ADD10R,0.300000X1.300000*%
%ADD11R,1.800000X2.200000*%
%ADD12O,1.700000X1.700000*%
%ADD13R,1.700000X1.700000*%
%TA.AperFunction,ComponentPad*%
%ADD14O,1.700000X1.700000*%
%TD*%
%TA.AperFunction,ComponentPad*%
%ADD15R,1.700000X1.700000*%
%TD*%
%TA.AperFunction,ViaPad*%
%ADD16C,0.600000*%
%TD*%
%TA.AperFunction,Conductor*%
%ADD17C,0.200000*%
%TD*%
%TA.AperFunction,SMDPad,CuDef*%
%ADD18R,0.300000X1.300000*%
%TD*%
%TA.AperFunction,SMDPad,CuDef*%
%ADD19R,1.800000X2.200000*%
%TD*%
%ADD20C,0.150000*%
%ADD21C,0.100000*%
%ADD22C,0.120000*%
%TA.AperFunction,Profile*%
%ADD23C,0.050000*%
%TD*%
G04 APERTURE END LIST*
D10*
%TO.C,J2*%
X124750000Y-69850000D03*
X124250000Y-69850000D03*
X123750000Y-69850000D03*
X123250000Y-69850000D03*
X122750000Y-69850000D03*
X122250000Y-69850000D03*
D11*
X126650000Y-66600000D03*
X120350000Y-66600000D03*
%TD*%
D12*
%TO.C,J1*%
X131080000Y-73000000D03*
X128540000Y-73000000D03*
X126000000Y-73000000D03*
X123460000Y-73000000D03*
X120920000Y-73000000D03*
X118380000Y-73000000D03*
D13*
X115840000Y-73000000D03*
%TD*%
D14*
%TO.P,J1,7,MOTION*%
%TO.N,MOTION*%
X131080000Y-73000000D03*
%TO.P,J1,6,SDIO*%
%TO.N,SDIO*%
X128540000Y-73000000D03*
%TO.P,J1,5,nc*%
%TO.N,unconnected-(J1-nc-Pad5)*%
X126000000Y-73000000D03*
%TO.P,J1,4,Vin*%
%TO.N,3.3V*%
X123460000Y-73000000D03*
%TO.P,J1,3,GND*%
%TO.N,GND*%
X120920000Y-73000000D03*
%TO.P,J1,2,nCS*%
%TO.N,CS*%
X118380000Y-73000000D03*
D15*
%TO.P,J1,1,SCLK*%
%TO.N,SCLK*%
X115840000Y-73000000D03*
%TD*%
D16*
%TO.N,CS*%
X123850000Y-71000000D03*
%TO.N,3.3V*%
X124750000Y-71150000D03*
%TD*%
D17*
%TO.N,CS*%
X120380000Y-71000000D02*
G75*
G03*
X118380000Y-73000000I0J-2000000D01*
G01*
X123850000Y-71000000D02*
X120380000Y-71000000D01*
%TO.N,3.3V*%
X124750000Y-71710000D02*
G75*
G02*
X123460000Y-73000000I-1290000J0D01*
G01*
X124750000Y-71150000D02*
X124750000Y-71710000D01*
%TD*%
D12*
%TO.C,J1*%
X131080000Y-73000000D03*
X128540000Y-73000000D03*
X126000000Y-73000000D03*
X123460000Y-73000000D03*
X120920000Y-73000000D03*
X118380000Y-73000000D03*
D13*
X115840000Y-73000000D03*
%TD*%
D18*
%TO.P,J2,1,Pin_1*%
%TO.N,3.3V*%
X124750000Y-69850000D03*
%TO.P,J2,2,Pin_2*%
%TO.N,CS*%
X124250000Y-69850000D03*
%TO.P,J2,3,Pin_3*%
%TO.N,MOTION*%
X123750000Y-69850000D03*
%TO.P,J2,4,Pin_4*%
%TO.N,SDIO*%
X123250000Y-69850000D03*
%TO.P,J2,5,Pin_5*%
%TO.N,SCLK*%
X122750000Y-69850000D03*
%TO.P,J2,6,Pin_6*%
%TO.N,GND*%
X122250000Y-69850000D03*
D19*
%TO.P,J2,MP*%
%TO.N,N/C*%
X126650000Y-66600000D03*
X120350000Y-66600000D03*
%TD*%
D14*
%TO.P,J1,7,MOTION*%
%TO.N,MOTION*%
X131080000Y-73000000D03*
%TO.P,J1,6,SDIO*%
%TO.N,SDIO*%
X128540000Y-73000000D03*
%TO.P,J1,5,nc*%
%TO.N,unconnected-(J1-nc-Pad5)*%
X126000000Y-73000000D03*
%TO.P,J1,4,Vin*%
%TO.N,3.3V*%
X123460000Y-73000000D03*
%TO.P,J1,3,GND*%
%TO.N,GND*%
X120920000Y-73000000D03*
%TO.P,J1,2,nCS*%
%TO.N,CS*%
X118380000Y-73000000D03*
D15*
%TO.P,J1,1,SCLK*%
%TO.N,SCLK*%
X115840000Y-73000000D03*
%TD*%
D16*
%TO.N,CS*%
X123850000Y-71000000D03*
%TO.N,3.3V*%
X124750000Y-71150000D03*
%TD*%
D17*
%TO.N,CS*%
X124250000Y-70500000D02*
G75*
G02*
X123750000Y-71000000I-500000J0D01*
G01*
X124250000Y-69850000D02*
X124250000Y-70500000D01*
X123750000Y-71000000D02*
X123850000Y-71000000D01*
%TO.N,3.3V*%
X124750000Y-69850000D02*
X124750000Y-71150000D01*
%TO.N,GND*%
X120920000Y-72580000D02*
X120920000Y-73000000D01*
X121750000Y-71750000D02*
G75*
G03*
X120920000Y-72580000I0J-830000D01*
G01*
X122250000Y-71250000D02*
G75*
G02*
X121750000Y-71750000I-500000J0D01*
G01*
X122250000Y-69850000D02*
X122250000Y-71250000D01*
%TO.N,SDIO*%
X123750000Y-71750000D02*
X127290000Y-71750000D01*
X123250000Y-69850000D02*
X123250000Y-71250000D01*
X123250000Y-71250000D02*
G75*
G03*
X123750000Y-71750000I500000J0D01*
G01*
X127290000Y-71750000D02*
G75*
G02*
X128540000Y-73000000I0J-1250000D01*
G01*
%TO.N,SCLK*%
X116500000Y-68500000D02*
G75*
G03*
X115840000Y-69160000I0J-660000D01*
G01*
X122250000Y-68500000D02*
X116500000Y-68500000D01*
X122750000Y-69000000D02*
G75*
G03*
X122250000Y-68500000I-500000J0D01*
G01*
X122750000Y-69850000D02*
X122750000Y-69000000D01*
X115840000Y-69160000D02*
X115840000Y-73000000D01*
%TO.N,MOTION*%
X124250000Y-68500000D02*
G75*
G03*
X123750000Y-69000000I0J-500000D01*
G01*
X130750000Y-68500000D02*
X124250000Y-68500000D01*
X123750000Y-69000000D02*
X123750000Y-69850000D01*
X131080000Y-68830000D02*
G75*
G03*
X130750000Y-68500000I-330000J0D01*
G01*
X131080000Y-73000000D02*
X131080000Y-68830000D01*
%TD*%
D10*
%TO.C,J2*%
X124750000Y-69850000D03*
X124250000Y-69850000D03*
X123750000Y-69850000D03*
X123250000Y-69850000D03*
X122750000Y-69850000D03*
X122250000Y-69850000D03*
D11*
X126650000Y-66600000D03*
X120350000Y-66600000D03*
%TD*%
D20*
X128666666Y-66954819D02*
X128666666Y-67669104D01*
X128666666Y-67669104D02*
X128619047Y-67811961D01*
X128619047Y-67811961D02*
X128523809Y-67907200D01*
X128523809Y-67907200D02*
X128380952Y-67954819D01*
X128380952Y-67954819D02*
X128285714Y-67954819D01*
X129095238Y-67050057D02*
X129142857Y-67002438D01*
X129142857Y-67002438D02*
X129238095Y-66954819D01*
X129238095Y-66954819D02*
X129476190Y-66954819D01*
X129476190Y-66954819D02*
X129571428Y-67002438D01*
X129571428Y-67002438D02*
X129619047Y-67050057D01*
X129619047Y-67050057D02*
X129666666Y-67145295D01*
X129666666Y-67145295D02*
X129666666Y-67240533D01*
X129666666Y-67240533D02*
X129619047Y-67383390D01*
X129619047Y-67383390D02*
X129047619Y-67954819D01*
X129047619Y-67954819D02*
X129666666Y-67954819D01*
D21*
X123166666Y-74707419D02*
X123166666Y-75421704D01*
X123166666Y-75421704D02*
X123119047Y-75564561D01*
X123119047Y-75564561D02*
X123023809Y-75659800D01*
X123023809Y-75659800D02*
X122880952Y-75707419D01*
X122880952Y-75707419D02*
X122785714Y-75707419D01*
X124166666Y-75707419D02*
X123595238Y-75707419D01*
X123880952Y-75707419D02*
X123880952Y-74707419D01*
X123880952Y-74707419D02*
X123785714Y-74850276D01*
X123785714Y-74850276D02*
X123690476Y-74945514D01*
X123690476Y-74945514D02*
X123595238Y-74993133D01*
D22*
%TO.C,J2*%
X126650000Y-69300000D02*
X126650000Y-67960000D01*
X126650000Y-65240000D02*
X126650000Y-63500000D01*
X126650000Y-63500000D02*
X120350000Y-63500000D01*
X125160000Y-69300000D02*
X126650000Y-69300000D01*
X125160000Y-69300000D02*
X125160000Y-70500000D01*
X121840000Y-69300000D02*
X120350000Y-69300000D01*
X120350000Y-69300000D02*
X120350000Y-67960000D01*
X120350000Y-63500000D02*
X120350000Y-65240000D01*
%TD*%
D23*
X132000000Y-73000000D02*
X115000000Y-73000000D01*
X132250000Y-72750000D02*
G75*
G02*
X132000000Y-73000000I-250000J0D01*
G01*
X115000000Y-73000000D02*
G75*
G02*
X114750000Y-72750000I0J250000D01*
G01*
X114750000Y-64250000D02*
G75*
G02*
X116000000Y-63000000I1250000J0D01*
G01*
X131000000Y-63000000D02*
G75*
G02*
X132250000Y-64250000I0J-1250000D01*
G01*
X132250000Y-72750000D02*
X132250000Y-64250000D01*
X114750000Y-64250000D02*
X114750000Y-72750000D01*
X116000000Y-63000000D02*
X131000000Y-63000000D01*
M02*
