%TF.GenerationSoftware,KiCad,Pcbnew,9.0.2*%
%TF.CreationDate,2026-04-21T23:19:51+09:00*%
%TF.ProjectId,FrostOrtho_R,46726f73-744f-4727-9468-6f5f522e6b69,rev?*%
%TF.SameCoordinates,Original*%
%TF.FileFunction,Legend,Bot*%
%TF.FilePolarity,Positive*%
%FSLAX46Y46*%
G04 Gerber Fmt 4.6, Leading zero omitted, Abs format (unit mm)*
G04 Created by KiCad (PCBNEW 9.0.2) date 2026-04-21 23:19:51*
%MOMM*%
%LPD*%
G01*
G04 APERTURE LIST*
G04 Aperture macros list*
%AMRoundRect*
0 Rectangle with rounded corners*
0 $1 Rounding radius*
0 $2 $3 $4 $5 $6 $7 $8 $9 X,Y pos of 4 corners*
0 Add a 4 corners polygon primitive as box body*
4,1,4,$2,$3,$4,$5,$6,$7,$8,$9,$2,$3,0*
0 Add four circle primitives for the rounded corners*
1,1,$1+$1,$2,$3*
1,1,$1+$1,$4,$5*
1,1,$1+$1,$6,$7*
1,1,$1+$1,$8,$9*
0 Add four rect primitives between the rounded corners*
20,1,$1+$1,$2,$3,$4,$5,0*
20,1,$1+$1,$4,$5,$6,$7,0*
20,1,$1+$1,$6,$7,$8,$9,0*
20,1,$1+$1,$8,$9,$2,$3,0*%
G04 Aperture macros list end*
%ADD10C,0.100000*%
%ADD11C,0.150000*%
%ADD12C,0.200000*%
%ADD13C,0.120000*%
%ADD14C,3.100000*%
%ADD15C,5.000000*%
%ADD16R,2.600000X2.600000*%
%ADD17R,1.200000X0.950000*%
%ADD18O,2.750000X1.800000*%
%ADD19C,1.500000*%
%ADD20RoundRect,0.150000X-0.150000X-0.625000X0.150000X-0.625000X0.150000X0.625000X-0.150000X0.625000X0*%
%ADD21RoundRect,0.250000X-0.350000X-0.650000X0.350000X-0.650000X0.350000X0.650000X-0.350000X0.650000X0*%
%ADD22O,1.000000X1.300000*%
%ADD23R,0.300000X0.800000*%
%ADD24R,1.000000X0.800000*%
G04 APERTURE END LIST*
D10*
X64648496Y-59668371D02*
X64362782Y-59668371D01*
X64362782Y-59668371D02*
X64077068Y-59811228D01*
X64077068Y-59811228D02*
X63934211Y-60096942D01*
X63934211Y-60096942D02*
X63934211Y-60382657D01*
X63934211Y-60382657D02*
X64077068Y-60668371D01*
X64077068Y-60668371D02*
X64362782Y-60811228D01*
X64362782Y-60811228D02*
X64648496Y-60811228D01*
X64648496Y-60811228D02*
X64934211Y-60668371D01*
X64934211Y-60668371D02*
X65077068Y-60382657D01*
X65077068Y-60382657D02*
X65077068Y-60096942D01*
X65077068Y-60096942D02*
X64934211Y-59811228D01*
X64934211Y-59811228D02*
X64648496Y-59668371D01*
X64934211Y-60239800D02*
X64077068Y-60239800D01*
X64505639Y-59811228D02*
X64505639Y-60668371D01*
X57648496Y-59668371D02*
X57362782Y-59668371D01*
X57362782Y-59668371D02*
X57077068Y-59811228D01*
X57077068Y-59811228D02*
X56934211Y-60096942D01*
X56934211Y-60096942D02*
X56934211Y-60382657D01*
X56934211Y-60382657D02*
X57077068Y-60668371D01*
X57077068Y-60668371D02*
X57362782Y-60811228D01*
X57362782Y-60811228D02*
X57648496Y-60811228D01*
X57648496Y-60811228D02*
X57934211Y-60668371D01*
X57934211Y-60668371D02*
X58077068Y-60382657D01*
X58077068Y-60382657D02*
X58077068Y-60096942D01*
X58077068Y-60096942D02*
X57934211Y-59811228D01*
X57934211Y-59811228D02*
X57648496Y-59668371D01*
X57934211Y-60239800D02*
X57077068Y-60239800D01*
X131809523Y-67909800D02*
X131666666Y-67957419D01*
X131666666Y-67957419D02*
X131428571Y-67957419D01*
X131428571Y-67957419D02*
X131333333Y-67909800D01*
X131333333Y-67909800D02*
X131285714Y-67862180D01*
X131285714Y-67862180D02*
X131238095Y-67766942D01*
X131238095Y-67766942D02*
X131238095Y-67671704D01*
X131238095Y-67671704D02*
X131285714Y-67576466D01*
X131285714Y-67576466D02*
X131333333Y-67528847D01*
X131333333Y-67528847D02*
X131428571Y-67481228D01*
X131428571Y-67481228D02*
X131619047Y-67433609D01*
X131619047Y-67433609D02*
X131714285Y-67385990D01*
X131714285Y-67385990D02*
X131761904Y-67338371D01*
X131761904Y-67338371D02*
X131809523Y-67243133D01*
X131809523Y-67243133D02*
X131809523Y-67147895D01*
X131809523Y-67147895D02*
X131761904Y-67052657D01*
X131761904Y-67052657D02*
X131714285Y-67005038D01*
X131714285Y-67005038D02*
X131619047Y-66957419D01*
X131619047Y-66957419D02*
X131380952Y-66957419D01*
X131380952Y-66957419D02*
X131238095Y-67005038D01*
X130904761Y-66957419D02*
X130666666Y-67957419D01*
X130666666Y-67957419D02*
X130476190Y-67243133D01*
X130476190Y-67243133D02*
X130285714Y-67957419D01*
X130285714Y-67957419D02*
X130047619Y-66957419D01*
X129142857Y-67957419D02*
X129714285Y-67957419D01*
X129428571Y-67957419D02*
X129428571Y-66957419D01*
X129428571Y-66957419D02*
X129523809Y-67100276D01*
X129523809Y-67100276D02*
X129619047Y-67195514D01*
X129619047Y-67195514D02*
X129714285Y-67243133D01*
X128238095Y-66957419D02*
X128714285Y-66957419D01*
X128714285Y-66957419D02*
X128761904Y-67433609D01*
X128761904Y-67433609D02*
X128714285Y-67385990D01*
X128714285Y-67385990D02*
X128619047Y-67338371D01*
X128619047Y-67338371D02*
X128380952Y-67338371D01*
X128380952Y-67338371D02*
X128285714Y-67385990D01*
X128285714Y-67385990D02*
X128238095Y-67433609D01*
X128238095Y-67433609D02*
X128190476Y-67528847D01*
X128190476Y-67528847D02*
X128190476Y-67766942D01*
X128190476Y-67766942D02*
X128238095Y-67862180D01*
X128238095Y-67862180D02*
X128285714Y-67909800D01*
X128285714Y-67909800D02*
X128380952Y-67957419D01*
X128380952Y-67957419D02*
X128619047Y-67957419D01*
X128619047Y-67957419D02*
X128714285Y-67909800D01*
X128714285Y-67909800D02*
X128761904Y-67862180D01*
X148559523Y-84909800D02*
X148416666Y-84957419D01*
X148416666Y-84957419D02*
X148178571Y-84957419D01*
X148178571Y-84957419D02*
X148083333Y-84909800D01*
X148083333Y-84909800D02*
X148035714Y-84862180D01*
X148035714Y-84862180D02*
X147988095Y-84766942D01*
X147988095Y-84766942D02*
X147988095Y-84671704D01*
X147988095Y-84671704D02*
X148035714Y-84576466D01*
X148035714Y-84576466D02*
X148083333Y-84528847D01*
X148083333Y-84528847D02*
X148178571Y-84481228D01*
X148178571Y-84481228D02*
X148369047Y-84433609D01*
X148369047Y-84433609D02*
X148464285Y-84385990D01*
X148464285Y-84385990D02*
X148511904Y-84338371D01*
X148511904Y-84338371D02*
X148559523Y-84243133D01*
X148559523Y-84243133D02*
X148559523Y-84147895D01*
X148559523Y-84147895D02*
X148511904Y-84052657D01*
X148511904Y-84052657D02*
X148464285Y-84005038D01*
X148464285Y-84005038D02*
X148369047Y-83957419D01*
X148369047Y-83957419D02*
X148130952Y-83957419D01*
X148130952Y-83957419D02*
X147988095Y-84005038D01*
X147654761Y-83957419D02*
X147416666Y-84957419D01*
X147416666Y-84957419D02*
X147226190Y-84243133D01*
X147226190Y-84243133D02*
X147035714Y-84957419D01*
X147035714Y-84957419D02*
X146797619Y-83957419D01*
X146464285Y-84052657D02*
X146416666Y-84005038D01*
X146416666Y-84005038D02*
X146321428Y-83957419D01*
X146321428Y-83957419D02*
X146083333Y-83957419D01*
X146083333Y-83957419D02*
X145988095Y-84005038D01*
X145988095Y-84005038D02*
X145940476Y-84052657D01*
X145940476Y-84052657D02*
X145892857Y-84147895D01*
X145892857Y-84147895D02*
X145892857Y-84243133D01*
X145892857Y-84243133D02*
X145940476Y-84385990D01*
X145940476Y-84385990D02*
X146511904Y-84957419D01*
X146511904Y-84957419D02*
X145892857Y-84957419D01*
X145273809Y-83957419D02*
X145178571Y-83957419D01*
X145178571Y-83957419D02*
X145083333Y-84005038D01*
X145083333Y-84005038D02*
X145035714Y-84052657D01*
X145035714Y-84052657D02*
X144988095Y-84147895D01*
X144988095Y-84147895D02*
X144940476Y-84338371D01*
X144940476Y-84338371D02*
X144940476Y-84576466D01*
X144940476Y-84576466D02*
X144988095Y-84766942D01*
X144988095Y-84766942D02*
X145035714Y-84862180D01*
X145035714Y-84862180D02*
X145083333Y-84909800D01*
X145083333Y-84909800D02*
X145178571Y-84957419D01*
X145178571Y-84957419D02*
X145273809Y-84957419D01*
X145273809Y-84957419D02*
X145369047Y-84909800D01*
X145369047Y-84909800D02*
X145416666Y-84862180D01*
X145416666Y-84862180D02*
X145464285Y-84766942D01*
X145464285Y-84766942D02*
X145511904Y-84576466D01*
X145511904Y-84576466D02*
X145511904Y-84338371D01*
X145511904Y-84338371D02*
X145464285Y-84147895D01*
X145464285Y-84147895D02*
X145416666Y-84052657D01*
X145416666Y-84052657D02*
X145369047Y-84005038D01*
X145369047Y-84005038D02*
X145273809Y-83957419D01*
X148559523Y-50909800D02*
X148416666Y-50957419D01*
X148416666Y-50957419D02*
X148178571Y-50957419D01*
X148178571Y-50957419D02*
X148083333Y-50909800D01*
X148083333Y-50909800D02*
X148035714Y-50862180D01*
X148035714Y-50862180D02*
X147988095Y-50766942D01*
X147988095Y-50766942D02*
X147988095Y-50671704D01*
X147988095Y-50671704D02*
X148035714Y-50576466D01*
X148035714Y-50576466D02*
X148083333Y-50528847D01*
X148083333Y-50528847D02*
X148178571Y-50481228D01*
X148178571Y-50481228D02*
X148369047Y-50433609D01*
X148369047Y-50433609D02*
X148464285Y-50385990D01*
X148464285Y-50385990D02*
X148511904Y-50338371D01*
X148511904Y-50338371D02*
X148559523Y-50243133D01*
X148559523Y-50243133D02*
X148559523Y-50147895D01*
X148559523Y-50147895D02*
X148511904Y-50052657D01*
X148511904Y-50052657D02*
X148464285Y-50005038D01*
X148464285Y-50005038D02*
X148369047Y-49957419D01*
X148369047Y-49957419D02*
X148130952Y-49957419D01*
X148130952Y-49957419D02*
X147988095Y-50005038D01*
X147654761Y-49957419D02*
X147416666Y-50957419D01*
X147416666Y-50957419D02*
X147226190Y-50243133D01*
X147226190Y-50243133D02*
X147035714Y-50957419D01*
X147035714Y-50957419D02*
X146797619Y-49957419D01*
X145892857Y-50957419D02*
X146464285Y-50957419D01*
X146178571Y-50957419D02*
X146178571Y-49957419D01*
X146178571Y-49957419D02*
X146273809Y-50100276D01*
X146273809Y-50100276D02*
X146369047Y-50195514D01*
X146369047Y-50195514D02*
X146464285Y-50243133D01*
X145321428Y-50385990D02*
X145416666Y-50338371D01*
X145416666Y-50338371D02*
X145464285Y-50290752D01*
X145464285Y-50290752D02*
X145511904Y-50195514D01*
X145511904Y-50195514D02*
X145511904Y-50147895D01*
X145511904Y-50147895D02*
X145464285Y-50052657D01*
X145464285Y-50052657D02*
X145416666Y-50005038D01*
X145416666Y-50005038D02*
X145321428Y-49957419D01*
X145321428Y-49957419D02*
X145130952Y-49957419D01*
X145130952Y-49957419D02*
X145035714Y-50005038D01*
X145035714Y-50005038D02*
X144988095Y-50052657D01*
X144988095Y-50052657D02*
X144940476Y-50147895D01*
X144940476Y-50147895D02*
X144940476Y-50195514D01*
X144940476Y-50195514D02*
X144988095Y-50290752D01*
X144988095Y-50290752D02*
X145035714Y-50338371D01*
X145035714Y-50338371D02*
X145130952Y-50385990D01*
X145130952Y-50385990D02*
X145321428Y-50385990D01*
X145321428Y-50385990D02*
X145416666Y-50433609D01*
X145416666Y-50433609D02*
X145464285Y-50481228D01*
X145464285Y-50481228D02*
X145511904Y-50576466D01*
X145511904Y-50576466D02*
X145511904Y-50766942D01*
X145511904Y-50766942D02*
X145464285Y-50862180D01*
X145464285Y-50862180D02*
X145416666Y-50909800D01*
X145416666Y-50909800D02*
X145321428Y-50957419D01*
X145321428Y-50957419D02*
X145130952Y-50957419D01*
X145130952Y-50957419D02*
X145035714Y-50909800D01*
X145035714Y-50909800D02*
X144988095Y-50862180D01*
X144988095Y-50862180D02*
X144940476Y-50766942D01*
X144940476Y-50766942D02*
X144940476Y-50576466D01*
X144940476Y-50576466D02*
X144988095Y-50481228D01*
X144988095Y-50481228D02*
X145035714Y-50433609D01*
X145035714Y-50433609D02*
X145130952Y-50385990D01*
X97083332Y-34159800D02*
X96940475Y-34207419D01*
X96940475Y-34207419D02*
X96702380Y-34207419D01*
X96702380Y-34207419D02*
X96607142Y-34159800D01*
X96607142Y-34159800D02*
X96559523Y-34112180D01*
X96559523Y-34112180D02*
X96511904Y-34016942D01*
X96511904Y-34016942D02*
X96511904Y-33921704D01*
X96511904Y-33921704D02*
X96559523Y-33826466D01*
X96559523Y-33826466D02*
X96607142Y-33778847D01*
X96607142Y-33778847D02*
X96702380Y-33731228D01*
X96702380Y-33731228D02*
X96892856Y-33683609D01*
X96892856Y-33683609D02*
X96988094Y-33635990D01*
X96988094Y-33635990D02*
X97035713Y-33588371D01*
X97035713Y-33588371D02*
X97083332Y-33493133D01*
X97083332Y-33493133D02*
X97083332Y-33397895D01*
X97083332Y-33397895D02*
X97035713Y-33302657D01*
X97035713Y-33302657D02*
X96988094Y-33255038D01*
X96988094Y-33255038D02*
X96892856Y-33207419D01*
X96892856Y-33207419D02*
X96654761Y-33207419D01*
X96654761Y-33207419D02*
X96511904Y-33255038D01*
X96178570Y-33207419D02*
X95940475Y-34207419D01*
X95940475Y-34207419D02*
X95749999Y-33493133D01*
X95749999Y-33493133D02*
X95559523Y-34207419D01*
X95559523Y-34207419D02*
X95321428Y-33207419D01*
X94464285Y-33207419D02*
X94940475Y-33207419D01*
X94940475Y-33207419D02*
X94988094Y-33683609D01*
X94988094Y-33683609D02*
X94940475Y-33635990D01*
X94940475Y-33635990D02*
X94845237Y-33588371D01*
X94845237Y-33588371D02*
X94607142Y-33588371D01*
X94607142Y-33588371D02*
X94511904Y-33635990D01*
X94511904Y-33635990D02*
X94464285Y-33683609D01*
X94464285Y-33683609D02*
X94416666Y-33778847D01*
X94416666Y-33778847D02*
X94416666Y-34016942D01*
X94416666Y-34016942D02*
X94464285Y-34112180D01*
X94464285Y-34112180D02*
X94511904Y-34159800D01*
X94511904Y-34159800D02*
X94607142Y-34207419D01*
X94607142Y-34207419D02*
X94845237Y-34207419D01*
X94845237Y-34207419D02*
X94940475Y-34159800D01*
X94940475Y-34159800D02*
X94988094Y-34112180D01*
X131809523Y-84909800D02*
X131666666Y-84957419D01*
X131666666Y-84957419D02*
X131428571Y-84957419D01*
X131428571Y-84957419D02*
X131333333Y-84909800D01*
X131333333Y-84909800D02*
X131285714Y-84862180D01*
X131285714Y-84862180D02*
X131238095Y-84766942D01*
X131238095Y-84766942D02*
X131238095Y-84671704D01*
X131238095Y-84671704D02*
X131285714Y-84576466D01*
X131285714Y-84576466D02*
X131333333Y-84528847D01*
X131333333Y-84528847D02*
X131428571Y-84481228D01*
X131428571Y-84481228D02*
X131619047Y-84433609D01*
X131619047Y-84433609D02*
X131714285Y-84385990D01*
X131714285Y-84385990D02*
X131761904Y-84338371D01*
X131761904Y-84338371D02*
X131809523Y-84243133D01*
X131809523Y-84243133D02*
X131809523Y-84147895D01*
X131809523Y-84147895D02*
X131761904Y-84052657D01*
X131761904Y-84052657D02*
X131714285Y-84005038D01*
X131714285Y-84005038D02*
X131619047Y-83957419D01*
X131619047Y-83957419D02*
X131380952Y-83957419D01*
X131380952Y-83957419D02*
X131238095Y-84005038D01*
X130904761Y-83957419D02*
X130666666Y-84957419D01*
X130666666Y-84957419D02*
X130476190Y-84243133D01*
X130476190Y-84243133D02*
X130285714Y-84957419D01*
X130285714Y-84957419D02*
X130047619Y-83957419D01*
X129142857Y-84957419D02*
X129714285Y-84957419D01*
X129428571Y-84957419D02*
X129428571Y-83957419D01*
X129428571Y-83957419D02*
X129523809Y-84100276D01*
X129523809Y-84100276D02*
X129619047Y-84195514D01*
X129619047Y-84195514D02*
X129714285Y-84243133D01*
X128285714Y-83957419D02*
X128476190Y-83957419D01*
X128476190Y-83957419D02*
X128571428Y-84005038D01*
X128571428Y-84005038D02*
X128619047Y-84052657D01*
X128619047Y-84052657D02*
X128714285Y-84195514D01*
X128714285Y-84195514D02*
X128761904Y-84385990D01*
X128761904Y-84385990D02*
X128761904Y-84766942D01*
X128761904Y-84766942D02*
X128714285Y-84862180D01*
X128714285Y-84862180D02*
X128666666Y-84909800D01*
X128666666Y-84909800D02*
X128571428Y-84957419D01*
X128571428Y-84957419D02*
X128380952Y-84957419D01*
X128380952Y-84957419D02*
X128285714Y-84909800D01*
X128285714Y-84909800D02*
X128238095Y-84862180D01*
X128238095Y-84862180D02*
X128190476Y-84766942D01*
X128190476Y-84766942D02*
X128190476Y-84528847D01*
X128190476Y-84528847D02*
X128238095Y-84433609D01*
X128238095Y-84433609D02*
X128285714Y-84385990D01*
X128285714Y-84385990D02*
X128380952Y-84338371D01*
X128380952Y-84338371D02*
X128571428Y-84338371D01*
X128571428Y-84338371D02*
X128666666Y-84385990D01*
X128666666Y-84385990D02*
X128714285Y-84433609D01*
X128714285Y-84433609D02*
X128761904Y-84528847D01*
X79333332Y-50909800D02*
X79190475Y-50957419D01*
X79190475Y-50957419D02*
X78952380Y-50957419D01*
X78952380Y-50957419D02*
X78857142Y-50909800D01*
X78857142Y-50909800D02*
X78809523Y-50862180D01*
X78809523Y-50862180D02*
X78761904Y-50766942D01*
X78761904Y-50766942D02*
X78761904Y-50671704D01*
X78761904Y-50671704D02*
X78809523Y-50576466D01*
X78809523Y-50576466D02*
X78857142Y-50528847D01*
X78857142Y-50528847D02*
X78952380Y-50481228D01*
X78952380Y-50481228D02*
X79142856Y-50433609D01*
X79142856Y-50433609D02*
X79238094Y-50385990D01*
X79238094Y-50385990D02*
X79285713Y-50338371D01*
X79285713Y-50338371D02*
X79333332Y-50243133D01*
X79333332Y-50243133D02*
X79333332Y-50147895D01*
X79333332Y-50147895D02*
X79285713Y-50052657D01*
X79285713Y-50052657D02*
X79238094Y-50005038D01*
X79238094Y-50005038D02*
X79142856Y-49957419D01*
X79142856Y-49957419D02*
X78904761Y-49957419D01*
X78904761Y-49957419D02*
X78761904Y-50005038D01*
X78428570Y-49957419D02*
X78190475Y-50957419D01*
X78190475Y-50957419D02*
X77999999Y-50243133D01*
X77999999Y-50243133D02*
X77809523Y-50957419D01*
X77809523Y-50957419D02*
X77571428Y-49957419D01*
X77238094Y-50052657D02*
X77190475Y-50005038D01*
X77190475Y-50005038D02*
X77095237Y-49957419D01*
X77095237Y-49957419D02*
X76857142Y-49957419D01*
X76857142Y-49957419D02*
X76761904Y-50005038D01*
X76761904Y-50005038D02*
X76714285Y-50052657D01*
X76714285Y-50052657D02*
X76666666Y-50147895D01*
X76666666Y-50147895D02*
X76666666Y-50243133D01*
X76666666Y-50243133D02*
X76714285Y-50385990D01*
X76714285Y-50385990D02*
X77285713Y-50957419D01*
X77285713Y-50957419D02*
X76666666Y-50957419D01*
X114535713Y-84909800D02*
X114392856Y-84957419D01*
X114392856Y-84957419D02*
X114154761Y-84957419D01*
X114154761Y-84957419D02*
X114059523Y-84909800D01*
X114059523Y-84909800D02*
X114011904Y-84862180D01*
X114011904Y-84862180D02*
X113964285Y-84766942D01*
X113964285Y-84766942D02*
X113964285Y-84671704D01*
X113964285Y-84671704D02*
X114011904Y-84576466D01*
X114011904Y-84576466D02*
X114059523Y-84528847D01*
X114059523Y-84528847D02*
X114154761Y-84481228D01*
X114154761Y-84481228D02*
X114345237Y-84433609D01*
X114345237Y-84433609D02*
X114440475Y-84385990D01*
X114440475Y-84385990D02*
X114488094Y-84338371D01*
X114488094Y-84338371D02*
X114535713Y-84243133D01*
X114535713Y-84243133D02*
X114535713Y-84147895D01*
X114535713Y-84147895D02*
X114488094Y-84052657D01*
X114488094Y-84052657D02*
X114440475Y-84005038D01*
X114440475Y-84005038D02*
X114345237Y-83957419D01*
X114345237Y-83957419D02*
X114107142Y-83957419D01*
X114107142Y-83957419D02*
X113964285Y-84005038D01*
X113630951Y-83957419D02*
X113392856Y-84957419D01*
X113392856Y-84957419D02*
X113202380Y-84243133D01*
X113202380Y-84243133D02*
X113011904Y-84957419D01*
X113011904Y-84957419D02*
X112773809Y-83957419D01*
X111869047Y-84957419D02*
X112440475Y-84957419D01*
X112154761Y-84957419D02*
X112154761Y-83957419D01*
X112154761Y-83957419D02*
X112249999Y-84100276D01*
X112249999Y-84100276D02*
X112345237Y-84195514D01*
X112345237Y-84195514D02*
X112440475Y-84243133D01*
X111488094Y-84052657D02*
X111440475Y-84005038D01*
X111440475Y-84005038D02*
X111345237Y-83957419D01*
X111345237Y-83957419D02*
X111107142Y-83957419D01*
X111107142Y-83957419D02*
X111011904Y-84005038D01*
X111011904Y-84005038D02*
X110964285Y-84052657D01*
X110964285Y-84052657D02*
X110916666Y-84147895D01*
X110916666Y-84147895D02*
X110916666Y-84243133D01*
X110916666Y-84243133D02*
X110964285Y-84385990D01*
X110964285Y-84385990D02*
X111535713Y-84957419D01*
X111535713Y-84957419D02*
X110916666Y-84957419D01*
X96583332Y-50909800D02*
X96440475Y-50957419D01*
X96440475Y-50957419D02*
X96202380Y-50957419D01*
X96202380Y-50957419D02*
X96107142Y-50909800D01*
X96107142Y-50909800D02*
X96059523Y-50862180D01*
X96059523Y-50862180D02*
X96011904Y-50766942D01*
X96011904Y-50766942D02*
X96011904Y-50671704D01*
X96011904Y-50671704D02*
X96059523Y-50576466D01*
X96059523Y-50576466D02*
X96107142Y-50528847D01*
X96107142Y-50528847D02*
X96202380Y-50481228D01*
X96202380Y-50481228D02*
X96392856Y-50433609D01*
X96392856Y-50433609D02*
X96488094Y-50385990D01*
X96488094Y-50385990D02*
X96535713Y-50338371D01*
X96535713Y-50338371D02*
X96583332Y-50243133D01*
X96583332Y-50243133D02*
X96583332Y-50147895D01*
X96583332Y-50147895D02*
X96535713Y-50052657D01*
X96535713Y-50052657D02*
X96488094Y-50005038D01*
X96488094Y-50005038D02*
X96392856Y-49957419D01*
X96392856Y-49957419D02*
X96154761Y-49957419D01*
X96154761Y-49957419D02*
X96011904Y-50005038D01*
X95678570Y-49957419D02*
X95440475Y-50957419D01*
X95440475Y-50957419D02*
X95249999Y-50243133D01*
X95249999Y-50243133D02*
X95059523Y-50957419D01*
X95059523Y-50957419D02*
X94821428Y-49957419D01*
X94011904Y-49957419D02*
X94202380Y-49957419D01*
X94202380Y-49957419D02*
X94297618Y-50005038D01*
X94297618Y-50005038D02*
X94345237Y-50052657D01*
X94345237Y-50052657D02*
X94440475Y-50195514D01*
X94440475Y-50195514D02*
X94488094Y-50385990D01*
X94488094Y-50385990D02*
X94488094Y-50766942D01*
X94488094Y-50766942D02*
X94440475Y-50862180D01*
X94440475Y-50862180D02*
X94392856Y-50909800D01*
X94392856Y-50909800D02*
X94297618Y-50957419D01*
X94297618Y-50957419D02*
X94107142Y-50957419D01*
X94107142Y-50957419D02*
X94011904Y-50909800D01*
X94011904Y-50909800D02*
X93964285Y-50862180D01*
X93964285Y-50862180D02*
X93916666Y-50766942D01*
X93916666Y-50766942D02*
X93916666Y-50528847D01*
X93916666Y-50528847D02*
X93964285Y-50433609D01*
X93964285Y-50433609D02*
X94011904Y-50385990D01*
X94011904Y-50385990D02*
X94107142Y-50338371D01*
X94107142Y-50338371D02*
X94297618Y-50338371D01*
X94297618Y-50338371D02*
X94392856Y-50385990D01*
X94392856Y-50385990D02*
X94440475Y-50433609D01*
X94440475Y-50433609D02*
X94488094Y-50528847D01*
X79583332Y-84909800D02*
X79440475Y-84957419D01*
X79440475Y-84957419D02*
X79202380Y-84957419D01*
X79202380Y-84957419D02*
X79107142Y-84909800D01*
X79107142Y-84909800D02*
X79059523Y-84862180D01*
X79059523Y-84862180D02*
X79011904Y-84766942D01*
X79011904Y-84766942D02*
X79011904Y-84671704D01*
X79011904Y-84671704D02*
X79059523Y-84576466D01*
X79059523Y-84576466D02*
X79107142Y-84528847D01*
X79107142Y-84528847D02*
X79202380Y-84481228D01*
X79202380Y-84481228D02*
X79392856Y-84433609D01*
X79392856Y-84433609D02*
X79488094Y-84385990D01*
X79488094Y-84385990D02*
X79535713Y-84338371D01*
X79535713Y-84338371D02*
X79583332Y-84243133D01*
X79583332Y-84243133D02*
X79583332Y-84147895D01*
X79583332Y-84147895D02*
X79535713Y-84052657D01*
X79535713Y-84052657D02*
X79488094Y-84005038D01*
X79488094Y-84005038D02*
X79392856Y-83957419D01*
X79392856Y-83957419D02*
X79154761Y-83957419D01*
X79154761Y-83957419D02*
X79011904Y-84005038D01*
X78678570Y-83957419D02*
X78440475Y-84957419D01*
X78440475Y-84957419D02*
X78249999Y-84243133D01*
X78249999Y-84243133D02*
X78059523Y-84957419D01*
X78059523Y-84957419D02*
X77821428Y-83957419D01*
X77011904Y-84290752D02*
X77011904Y-84957419D01*
X77249999Y-83909800D02*
X77488094Y-84624085D01*
X77488094Y-84624085D02*
X76869047Y-84624085D01*
X79583332Y-67909800D02*
X79440475Y-67957419D01*
X79440475Y-67957419D02*
X79202380Y-67957419D01*
X79202380Y-67957419D02*
X79107142Y-67909800D01*
X79107142Y-67909800D02*
X79059523Y-67862180D01*
X79059523Y-67862180D02*
X79011904Y-67766942D01*
X79011904Y-67766942D02*
X79011904Y-67671704D01*
X79011904Y-67671704D02*
X79059523Y-67576466D01*
X79059523Y-67576466D02*
X79107142Y-67528847D01*
X79107142Y-67528847D02*
X79202380Y-67481228D01*
X79202380Y-67481228D02*
X79392856Y-67433609D01*
X79392856Y-67433609D02*
X79488094Y-67385990D01*
X79488094Y-67385990D02*
X79535713Y-67338371D01*
X79535713Y-67338371D02*
X79583332Y-67243133D01*
X79583332Y-67243133D02*
X79583332Y-67147895D01*
X79583332Y-67147895D02*
X79535713Y-67052657D01*
X79535713Y-67052657D02*
X79488094Y-67005038D01*
X79488094Y-67005038D02*
X79392856Y-66957419D01*
X79392856Y-66957419D02*
X79154761Y-66957419D01*
X79154761Y-66957419D02*
X79011904Y-67005038D01*
X78678570Y-66957419D02*
X78440475Y-67957419D01*
X78440475Y-67957419D02*
X78249999Y-67243133D01*
X78249999Y-67243133D02*
X78059523Y-67957419D01*
X78059523Y-67957419D02*
X77821428Y-66957419D01*
X77535713Y-66957419D02*
X76916666Y-66957419D01*
X76916666Y-66957419D02*
X77249999Y-67338371D01*
X77249999Y-67338371D02*
X77107142Y-67338371D01*
X77107142Y-67338371D02*
X77011904Y-67385990D01*
X77011904Y-67385990D02*
X76964285Y-67433609D01*
X76964285Y-67433609D02*
X76916666Y-67528847D01*
X76916666Y-67528847D02*
X76916666Y-67766942D01*
X76916666Y-67766942D02*
X76964285Y-67862180D01*
X76964285Y-67862180D02*
X77011904Y-67909800D01*
X77011904Y-67909800D02*
X77107142Y-67957419D01*
X77107142Y-67957419D02*
X77392856Y-67957419D01*
X77392856Y-67957419D02*
X77488094Y-67909800D01*
X77488094Y-67909800D02*
X77535713Y-67862180D01*
X131559523Y-33909800D02*
X131416666Y-33957419D01*
X131416666Y-33957419D02*
X131178571Y-33957419D01*
X131178571Y-33957419D02*
X131083333Y-33909800D01*
X131083333Y-33909800D02*
X131035714Y-33862180D01*
X131035714Y-33862180D02*
X130988095Y-33766942D01*
X130988095Y-33766942D02*
X130988095Y-33671704D01*
X130988095Y-33671704D02*
X131035714Y-33576466D01*
X131035714Y-33576466D02*
X131083333Y-33528847D01*
X131083333Y-33528847D02*
X131178571Y-33481228D01*
X131178571Y-33481228D02*
X131369047Y-33433609D01*
X131369047Y-33433609D02*
X131464285Y-33385990D01*
X131464285Y-33385990D02*
X131511904Y-33338371D01*
X131511904Y-33338371D02*
X131559523Y-33243133D01*
X131559523Y-33243133D02*
X131559523Y-33147895D01*
X131559523Y-33147895D02*
X131511904Y-33052657D01*
X131511904Y-33052657D02*
X131464285Y-33005038D01*
X131464285Y-33005038D02*
X131369047Y-32957419D01*
X131369047Y-32957419D02*
X131130952Y-32957419D01*
X131130952Y-32957419D02*
X130988095Y-33005038D01*
X130654761Y-32957419D02*
X130416666Y-33957419D01*
X130416666Y-33957419D02*
X130226190Y-33243133D01*
X130226190Y-33243133D02*
X130035714Y-33957419D01*
X130035714Y-33957419D02*
X129797619Y-32957419D01*
X128892857Y-33957419D02*
X129464285Y-33957419D01*
X129178571Y-33957419D02*
X129178571Y-32957419D01*
X129178571Y-32957419D02*
X129273809Y-33100276D01*
X129273809Y-33100276D02*
X129369047Y-33195514D01*
X129369047Y-33195514D02*
X129464285Y-33243133D01*
X128559523Y-32957419D02*
X127940476Y-32957419D01*
X127940476Y-32957419D02*
X128273809Y-33338371D01*
X128273809Y-33338371D02*
X128130952Y-33338371D01*
X128130952Y-33338371D02*
X128035714Y-33385990D01*
X128035714Y-33385990D02*
X127988095Y-33433609D01*
X127988095Y-33433609D02*
X127940476Y-33528847D01*
X127940476Y-33528847D02*
X127940476Y-33766942D01*
X127940476Y-33766942D02*
X127988095Y-33862180D01*
X127988095Y-33862180D02*
X128035714Y-33909800D01*
X128035714Y-33909800D02*
X128130952Y-33957419D01*
X128130952Y-33957419D02*
X128416666Y-33957419D01*
X128416666Y-33957419D02*
X128511904Y-33909800D01*
X128511904Y-33909800D02*
X128559523Y-33862180D01*
X114785713Y-50909800D02*
X114642856Y-50957419D01*
X114642856Y-50957419D02*
X114404761Y-50957419D01*
X114404761Y-50957419D02*
X114309523Y-50909800D01*
X114309523Y-50909800D02*
X114261904Y-50862180D01*
X114261904Y-50862180D02*
X114214285Y-50766942D01*
X114214285Y-50766942D02*
X114214285Y-50671704D01*
X114214285Y-50671704D02*
X114261904Y-50576466D01*
X114261904Y-50576466D02*
X114309523Y-50528847D01*
X114309523Y-50528847D02*
X114404761Y-50481228D01*
X114404761Y-50481228D02*
X114595237Y-50433609D01*
X114595237Y-50433609D02*
X114690475Y-50385990D01*
X114690475Y-50385990D02*
X114738094Y-50338371D01*
X114738094Y-50338371D02*
X114785713Y-50243133D01*
X114785713Y-50243133D02*
X114785713Y-50147895D01*
X114785713Y-50147895D02*
X114738094Y-50052657D01*
X114738094Y-50052657D02*
X114690475Y-50005038D01*
X114690475Y-50005038D02*
X114595237Y-49957419D01*
X114595237Y-49957419D02*
X114357142Y-49957419D01*
X114357142Y-49957419D02*
X114214285Y-50005038D01*
X113880951Y-49957419D02*
X113642856Y-50957419D01*
X113642856Y-50957419D02*
X113452380Y-50243133D01*
X113452380Y-50243133D02*
X113261904Y-50957419D01*
X113261904Y-50957419D02*
X113023809Y-49957419D01*
X112119047Y-50957419D02*
X112690475Y-50957419D01*
X112404761Y-50957419D02*
X112404761Y-49957419D01*
X112404761Y-49957419D02*
X112499999Y-50100276D01*
X112499999Y-50100276D02*
X112595237Y-50195514D01*
X112595237Y-50195514D02*
X112690475Y-50243133D01*
X111499999Y-49957419D02*
X111404761Y-49957419D01*
X111404761Y-49957419D02*
X111309523Y-50005038D01*
X111309523Y-50005038D02*
X111261904Y-50052657D01*
X111261904Y-50052657D02*
X111214285Y-50147895D01*
X111214285Y-50147895D02*
X111166666Y-50338371D01*
X111166666Y-50338371D02*
X111166666Y-50576466D01*
X111166666Y-50576466D02*
X111214285Y-50766942D01*
X111214285Y-50766942D02*
X111261904Y-50862180D01*
X111261904Y-50862180D02*
X111309523Y-50909800D01*
X111309523Y-50909800D02*
X111404761Y-50957419D01*
X111404761Y-50957419D02*
X111499999Y-50957419D01*
X111499999Y-50957419D02*
X111595237Y-50909800D01*
X111595237Y-50909800D02*
X111642856Y-50862180D01*
X111642856Y-50862180D02*
X111690475Y-50766942D01*
X111690475Y-50766942D02*
X111738094Y-50576466D01*
X111738094Y-50576466D02*
X111738094Y-50338371D01*
X111738094Y-50338371D02*
X111690475Y-50147895D01*
X111690475Y-50147895D02*
X111642856Y-50052657D01*
X111642856Y-50052657D02*
X111595237Y-50005038D01*
X111595237Y-50005038D02*
X111499999Y-49957419D01*
X131559523Y-50909800D02*
X131416666Y-50957419D01*
X131416666Y-50957419D02*
X131178571Y-50957419D01*
X131178571Y-50957419D02*
X131083333Y-50909800D01*
X131083333Y-50909800D02*
X131035714Y-50862180D01*
X131035714Y-50862180D02*
X130988095Y-50766942D01*
X130988095Y-50766942D02*
X130988095Y-50671704D01*
X130988095Y-50671704D02*
X131035714Y-50576466D01*
X131035714Y-50576466D02*
X131083333Y-50528847D01*
X131083333Y-50528847D02*
X131178571Y-50481228D01*
X131178571Y-50481228D02*
X131369047Y-50433609D01*
X131369047Y-50433609D02*
X131464285Y-50385990D01*
X131464285Y-50385990D02*
X131511904Y-50338371D01*
X131511904Y-50338371D02*
X131559523Y-50243133D01*
X131559523Y-50243133D02*
X131559523Y-50147895D01*
X131559523Y-50147895D02*
X131511904Y-50052657D01*
X131511904Y-50052657D02*
X131464285Y-50005038D01*
X131464285Y-50005038D02*
X131369047Y-49957419D01*
X131369047Y-49957419D02*
X131130952Y-49957419D01*
X131130952Y-49957419D02*
X130988095Y-50005038D01*
X130654761Y-49957419D02*
X130416666Y-50957419D01*
X130416666Y-50957419D02*
X130226190Y-50243133D01*
X130226190Y-50243133D02*
X130035714Y-50957419D01*
X130035714Y-50957419D02*
X129797619Y-49957419D01*
X128892857Y-50957419D02*
X129464285Y-50957419D01*
X129178571Y-50957419D02*
X129178571Y-49957419D01*
X129178571Y-49957419D02*
X129273809Y-50100276D01*
X129273809Y-50100276D02*
X129369047Y-50195514D01*
X129369047Y-50195514D02*
X129464285Y-50243133D01*
X128035714Y-50290752D02*
X128035714Y-50957419D01*
X128273809Y-49909800D02*
X128511904Y-50624085D01*
X128511904Y-50624085D02*
X127892857Y-50624085D01*
X96583332Y-84909800D02*
X96440475Y-84957419D01*
X96440475Y-84957419D02*
X96202380Y-84957419D01*
X96202380Y-84957419D02*
X96107142Y-84909800D01*
X96107142Y-84909800D02*
X96059523Y-84862180D01*
X96059523Y-84862180D02*
X96011904Y-84766942D01*
X96011904Y-84766942D02*
X96011904Y-84671704D01*
X96011904Y-84671704D02*
X96059523Y-84576466D01*
X96059523Y-84576466D02*
X96107142Y-84528847D01*
X96107142Y-84528847D02*
X96202380Y-84481228D01*
X96202380Y-84481228D02*
X96392856Y-84433609D01*
X96392856Y-84433609D02*
X96488094Y-84385990D01*
X96488094Y-84385990D02*
X96535713Y-84338371D01*
X96535713Y-84338371D02*
X96583332Y-84243133D01*
X96583332Y-84243133D02*
X96583332Y-84147895D01*
X96583332Y-84147895D02*
X96535713Y-84052657D01*
X96535713Y-84052657D02*
X96488094Y-84005038D01*
X96488094Y-84005038D02*
X96392856Y-83957419D01*
X96392856Y-83957419D02*
X96154761Y-83957419D01*
X96154761Y-83957419D02*
X96011904Y-84005038D01*
X95678570Y-83957419D02*
X95440475Y-84957419D01*
X95440475Y-84957419D02*
X95249999Y-84243133D01*
X95249999Y-84243133D02*
X95059523Y-84957419D01*
X95059523Y-84957419D02*
X94821428Y-83957419D01*
X94297618Y-84385990D02*
X94392856Y-84338371D01*
X94392856Y-84338371D02*
X94440475Y-84290752D01*
X94440475Y-84290752D02*
X94488094Y-84195514D01*
X94488094Y-84195514D02*
X94488094Y-84147895D01*
X94488094Y-84147895D02*
X94440475Y-84052657D01*
X94440475Y-84052657D02*
X94392856Y-84005038D01*
X94392856Y-84005038D02*
X94297618Y-83957419D01*
X94297618Y-83957419D02*
X94107142Y-83957419D01*
X94107142Y-83957419D02*
X94011904Y-84005038D01*
X94011904Y-84005038D02*
X93964285Y-84052657D01*
X93964285Y-84052657D02*
X93916666Y-84147895D01*
X93916666Y-84147895D02*
X93916666Y-84195514D01*
X93916666Y-84195514D02*
X93964285Y-84290752D01*
X93964285Y-84290752D02*
X94011904Y-84338371D01*
X94011904Y-84338371D02*
X94107142Y-84385990D01*
X94107142Y-84385990D02*
X94297618Y-84385990D01*
X94297618Y-84385990D02*
X94392856Y-84433609D01*
X94392856Y-84433609D02*
X94440475Y-84481228D01*
X94440475Y-84481228D02*
X94488094Y-84576466D01*
X94488094Y-84576466D02*
X94488094Y-84766942D01*
X94488094Y-84766942D02*
X94440475Y-84862180D01*
X94440475Y-84862180D02*
X94392856Y-84909800D01*
X94392856Y-84909800D02*
X94297618Y-84957419D01*
X94297618Y-84957419D02*
X94107142Y-84957419D01*
X94107142Y-84957419D02*
X94011904Y-84909800D01*
X94011904Y-84909800D02*
X93964285Y-84862180D01*
X93964285Y-84862180D02*
X93916666Y-84766942D01*
X93916666Y-84766942D02*
X93916666Y-84576466D01*
X93916666Y-84576466D02*
X93964285Y-84481228D01*
X93964285Y-84481228D02*
X94011904Y-84433609D01*
X94011904Y-84433609D02*
X94107142Y-84385990D01*
X114809522Y-33909800D02*
X114666665Y-33957419D01*
X114666665Y-33957419D02*
X114428570Y-33957419D01*
X114428570Y-33957419D02*
X114333332Y-33909800D01*
X114333332Y-33909800D02*
X114285713Y-33862180D01*
X114285713Y-33862180D02*
X114238094Y-33766942D01*
X114238094Y-33766942D02*
X114238094Y-33671704D01*
X114238094Y-33671704D02*
X114285713Y-33576466D01*
X114285713Y-33576466D02*
X114333332Y-33528847D01*
X114333332Y-33528847D02*
X114428570Y-33481228D01*
X114428570Y-33481228D02*
X114619046Y-33433609D01*
X114619046Y-33433609D02*
X114714284Y-33385990D01*
X114714284Y-33385990D02*
X114761903Y-33338371D01*
X114761903Y-33338371D02*
X114809522Y-33243133D01*
X114809522Y-33243133D02*
X114809522Y-33147895D01*
X114809522Y-33147895D02*
X114761903Y-33052657D01*
X114761903Y-33052657D02*
X114714284Y-33005038D01*
X114714284Y-33005038D02*
X114619046Y-32957419D01*
X114619046Y-32957419D02*
X114380951Y-32957419D01*
X114380951Y-32957419D02*
X114238094Y-33005038D01*
X113904760Y-32957419D02*
X113666665Y-33957419D01*
X113666665Y-33957419D02*
X113476189Y-33243133D01*
X113476189Y-33243133D02*
X113285713Y-33957419D01*
X113285713Y-33957419D02*
X113047618Y-32957419D01*
X112619046Y-33957419D02*
X112428570Y-33957419D01*
X112428570Y-33957419D02*
X112333332Y-33909800D01*
X112333332Y-33909800D02*
X112285713Y-33862180D01*
X112285713Y-33862180D02*
X112190475Y-33719323D01*
X112190475Y-33719323D02*
X112142856Y-33528847D01*
X112142856Y-33528847D02*
X112142856Y-33147895D01*
X112142856Y-33147895D02*
X112190475Y-33052657D01*
X112190475Y-33052657D02*
X112238094Y-33005038D01*
X112238094Y-33005038D02*
X112333332Y-32957419D01*
X112333332Y-32957419D02*
X112523808Y-32957419D01*
X112523808Y-32957419D02*
X112619046Y-33005038D01*
X112619046Y-33005038D02*
X112666665Y-33052657D01*
X112666665Y-33052657D02*
X112714284Y-33147895D01*
X112714284Y-33147895D02*
X112714284Y-33385990D01*
X112714284Y-33385990D02*
X112666665Y-33481228D01*
X112666665Y-33481228D02*
X112619046Y-33528847D01*
X112619046Y-33528847D02*
X112523808Y-33576466D01*
X112523808Y-33576466D02*
X112333332Y-33576466D01*
X112333332Y-33576466D02*
X112238094Y-33528847D01*
X112238094Y-33528847D02*
X112190475Y-33481228D01*
X112190475Y-33481228D02*
X112142856Y-33385990D01*
X114785713Y-67909800D02*
X114642856Y-67957419D01*
X114642856Y-67957419D02*
X114404761Y-67957419D01*
X114404761Y-67957419D02*
X114309523Y-67909800D01*
X114309523Y-67909800D02*
X114261904Y-67862180D01*
X114261904Y-67862180D02*
X114214285Y-67766942D01*
X114214285Y-67766942D02*
X114214285Y-67671704D01*
X114214285Y-67671704D02*
X114261904Y-67576466D01*
X114261904Y-67576466D02*
X114309523Y-67528847D01*
X114309523Y-67528847D02*
X114404761Y-67481228D01*
X114404761Y-67481228D02*
X114595237Y-67433609D01*
X114595237Y-67433609D02*
X114690475Y-67385990D01*
X114690475Y-67385990D02*
X114738094Y-67338371D01*
X114738094Y-67338371D02*
X114785713Y-67243133D01*
X114785713Y-67243133D02*
X114785713Y-67147895D01*
X114785713Y-67147895D02*
X114738094Y-67052657D01*
X114738094Y-67052657D02*
X114690475Y-67005038D01*
X114690475Y-67005038D02*
X114595237Y-66957419D01*
X114595237Y-66957419D02*
X114357142Y-66957419D01*
X114357142Y-66957419D02*
X114214285Y-67005038D01*
X113880951Y-66957419D02*
X113642856Y-67957419D01*
X113642856Y-67957419D02*
X113452380Y-67243133D01*
X113452380Y-67243133D02*
X113261904Y-67957419D01*
X113261904Y-67957419D02*
X113023809Y-66957419D01*
X112119047Y-67957419D02*
X112690475Y-67957419D01*
X112404761Y-67957419D02*
X112404761Y-66957419D01*
X112404761Y-66957419D02*
X112499999Y-67100276D01*
X112499999Y-67100276D02*
X112595237Y-67195514D01*
X112595237Y-67195514D02*
X112690475Y-67243133D01*
X111166666Y-67957419D02*
X111738094Y-67957419D01*
X111452380Y-67957419D02*
X111452380Y-66957419D01*
X111452380Y-66957419D02*
X111547618Y-67100276D01*
X111547618Y-67100276D02*
X111642856Y-67195514D01*
X111642856Y-67195514D02*
X111738094Y-67243133D01*
X96333332Y-67909800D02*
X96190475Y-67957419D01*
X96190475Y-67957419D02*
X95952380Y-67957419D01*
X95952380Y-67957419D02*
X95857142Y-67909800D01*
X95857142Y-67909800D02*
X95809523Y-67862180D01*
X95809523Y-67862180D02*
X95761904Y-67766942D01*
X95761904Y-67766942D02*
X95761904Y-67671704D01*
X95761904Y-67671704D02*
X95809523Y-67576466D01*
X95809523Y-67576466D02*
X95857142Y-67528847D01*
X95857142Y-67528847D02*
X95952380Y-67481228D01*
X95952380Y-67481228D02*
X96142856Y-67433609D01*
X96142856Y-67433609D02*
X96238094Y-67385990D01*
X96238094Y-67385990D02*
X96285713Y-67338371D01*
X96285713Y-67338371D02*
X96333332Y-67243133D01*
X96333332Y-67243133D02*
X96333332Y-67147895D01*
X96333332Y-67147895D02*
X96285713Y-67052657D01*
X96285713Y-67052657D02*
X96238094Y-67005038D01*
X96238094Y-67005038D02*
X96142856Y-66957419D01*
X96142856Y-66957419D02*
X95904761Y-66957419D01*
X95904761Y-66957419D02*
X95761904Y-67005038D01*
X95428570Y-66957419D02*
X95190475Y-67957419D01*
X95190475Y-67957419D02*
X94999999Y-67243133D01*
X94999999Y-67243133D02*
X94809523Y-67957419D01*
X94809523Y-67957419D02*
X94571428Y-66957419D01*
X94285713Y-66957419D02*
X93619047Y-66957419D01*
X93619047Y-66957419D02*
X94047618Y-67957419D01*
X80333332Y-34159800D02*
X80190475Y-34207419D01*
X80190475Y-34207419D02*
X79952380Y-34207419D01*
X79952380Y-34207419D02*
X79857142Y-34159800D01*
X79857142Y-34159800D02*
X79809523Y-34112180D01*
X79809523Y-34112180D02*
X79761904Y-34016942D01*
X79761904Y-34016942D02*
X79761904Y-33921704D01*
X79761904Y-33921704D02*
X79809523Y-33826466D01*
X79809523Y-33826466D02*
X79857142Y-33778847D01*
X79857142Y-33778847D02*
X79952380Y-33731228D01*
X79952380Y-33731228D02*
X80142856Y-33683609D01*
X80142856Y-33683609D02*
X80238094Y-33635990D01*
X80238094Y-33635990D02*
X80285713Y-33588371D01*
X80285713Y-33588371D02*
X80333332Y-33493133D01*
X80333332Y-33493133D02*
X80333332Y-33397895D01*
X80333332Y-33397895D02*
X80285713Y-33302657D01*
X80285713Y-33302657D02*
X80238094Y-33255038D01*
X80238094Y-33255038D02*
X80142856Y-33207419D01*
X80142856Y-33207419D02*
X79904761Y-33207419D01*
X79904761Y-33207419D02*
X79761904Y-33255038D01*
X79428570Y-33207419D02*
X79190475Y-34207419D01*
X79190475Y-34207419D02*
X78999999Y-33493133D01*
X78999999Y-33493133D02*
X78809523Y-34207419D01*
X78809523Y-34207419D02*
X78571428Y-33207419D01*
X77666666Y-34207419D02*
X78238094Y-34207419D01*
X77952380Y-34207419D02*
X77952380Y-33207419D01*
X77952380Y-33207419D02*
X78047618Y-33350276D01*
X78047618Y-33350276D02*
X78142856Y-33445514D01*
X78142856Y-33445514D02*
X78238094Y-33493133D01*
X148559523Y-67909800D02*
X148416666Y-67957419D01*
X148416666Y-67957419D02*
X148178571Y-67957419D01*
X148178571Y-67957419D02*
X148083333Y-67909800D01*
X148083333Y-67909800D02*
X148035714Y-67862180D01*
X148035714Y-67862180D02*
X147988095Y-67766942D01*
X147988095Y-67766942D02*
X147988095Y-67671704D01*
X147988095Y-67671704D02*
X148035714Y-67576466D01*
X148035714Y-67576466D02*
X148083333Y-67528847D01*
X148083333Y-67528847D02*
X148178571Y-67481228D01*
X148178571Y-67481228D02*
X148369047Y-67433609D01*
X148369047Y-67433609D02*
X148464285Y-67385990D01*
X148464285Y-67385990D02*
X148511904Y-67338371D01*
X148511904Y-67338371D02*
X148559523Y-67243133D01*
X148559523Y-67243133D02*
X148559523Y-67147895D01*
X148559523Y-67147895D02*
X148511904Y-67052657D01*
X148511904Y-67052657D02*
X148464285Y-67005038D01*
X148464285Y-67005038D02*
X148369047Y-66957419D01*
X148369047Y-66957419D02*
X148130952Y-66957419D01*
X148130952Y-66957419D02*
X147988095Y-67005038D01*
X147654761Y-66957419D02*
X147416666Y-67957419D01*
X147416666Y-67957419D02*
X147226190Y-67243133D01*
X147226190Y-67243133D02*
X147035714Y-67957419D01*
X147035714Y-67957419D02*
X146797619Y-66957419D01*
X145892857Y-67957419D02*
X146464285Y-67957419D01*
X146178571Y-67957419D02*
X146178571Y-66957419D01*
X146178571Y-66957419D02*
X146273809Y-67100276D01*
X146273809Y-67100276D02*
X146369047Y-67195514D01*
X146369047Y-67195514D02*
X146464285Y-67243133D01*
X145416666Y-67957419D02*
X145226190Y-67957419D01*
X145226190Y-67957419D02*
X145130952Y-67909800D01*
X145130952Y-67909800D02*
X145083333Y-67862180D01*
X145083333Y-67862180D02*
X144988095Y-67719323D01*
X144988095Y-67719323D02*
X144940476Y-67528847D01*
X144940476Y-67528847D02*
X144940476Y-67147895D01*
X144940476Y-67147895D02*
X144988095Y-67052657D01*
X144988095Y-67052657D02*
X145035714Y-67005038D01*
X145035714Y-67005038D02*
X145130952Y-66957419D01*
X145130952Y-66957419D02*
X145321428Y-66957419D01*
X145321428Y-66957419D02*
X145416666Y-67005038D01*
X145416666Y-67005038D02*
X145464285Y-67052657D01*
X145464285Y-67052657D02*
X145511904Y-67147895D01*
X145511904Y-67147895D02*
X145511904Y-67385990D01*
X145511904Y-67385990D02*
X145464285Y-67481228D01*
X145464285Y-67481228D02*
X145416666Y-67528847D01*
X145416666Y-67528847D02*
X145321428Y-67576466D01*
X145321428Y-67576466D02*
X145130952Y-67576466D01*
X145130952Y-67576466D02*
X145035714Y-67528847D01*
X145035714Y-67528847D02*
X144988095Y-67481228D01*
X144988095Y-67481228D02*
X144940476Y-67385990D01*
X148309523Y-33909800D02*
X148166666Y-33957419D01*
X148166666Y-33957419D02*
X147928571Y-33957419D01*
X147928571Y-33957419D02*
X147833333Y-33909800D01*
X147833333Y-33909800D02*
X147785714Y-33862180D01*
X147785714Y-33862180D02*
X147738095Y-33766942D01*
X147738095Y-33766942D02*
X147738095Y-33671704D01*
X147738095Y-33671704D02*
X147785714Y-33576466D01*
X147785714Y-33576466D02*
X147833333Y-33528847D01*
X147833333Y-33528847D02*
X147928571Y-33481228D01*
X147928571Y-33481228D02*
X148119047Y-33433609D01*
X148119047Y-33433609D02*
X148214285Y-33385990D01*
X148214285Y-33385990D02*
X148261904Y-33338371D01*
X148261904Y-33338371D02*
X148309523Y-33243133D01*
X148309523Y-33243133D02*
X148309523Y-33147895D01*
X148309523Y-33147895D02*
X148261904Y-33052657D01*
X148261904Y-33052657D02*
X148214285Y-33005038D01*
X148214285Y-33005038D02*
X148119047Y-32957419D01*
X148119047Y-32957419D02*
X147880952Y-32957419D01*
X147880952Y-32957419D02*
X147738095Y-33005038D01*
X147404761Y-32957419D02*
X147166666Y-33957419D01*
X147166666Y-33957419D02*
X146976190Y-33243133D01*
X146976190Y-33243133D02*
X146785714Y-33957419D01*
X146785714Y-33957419D02*
X146547619Y-32957419D01*
X145642857Y-33957419D02*
X146214285Y-33957419D01*
X145928571Y-33957419D02*
X145928571Y-32957419D01*
X145928571Y-32957419D02*
X146023809Y-33100276D01*
X146023809Y-33100276D02*
X146119047Y-33195514D01*
X146119047Y-33195514D02*
X146214285Y-33243133D01*
X145309523Y-32957419D02*
X144642857Y-32957419D01*
X144642857Y-32957419D02*
X145071428Y-33957419D01*
X54583333Y-64707419D02*
X54583333Y-65421704D01*
X54583333Y-65421704D02*
X54630952Y-65564561D01*
X54630952Y-65564561D02*
X54726190Y-65659800D01*
X54726190Y-65659800D02*
X54869047Y-65707419D01*
X54869047Y-65707419D02*
X54964285Y-65707419D01*
X54154761Y-64802657D02*
X54107142Y-64755038D01*
X54107142Y-64755038D02*
X54011904Y-64707419D01*
X54011904Y-64707419D02*
X53773809Y-64707419D01*
X53773809Y-64707419D02*
X53678571Y-64755038D01*
X53678571Y-64755038D02*
X53630952Y-64802657D01*
X53630952Y-64802657D02*
X53583333Y-64897895D01*
X53583333Y-64897895D02*
X53583333Y-64993133D01*
X53583333Y-64993133D02*
X53630952Y-65135990D01*
X53630952Y-65135990D02*
X54202380Y-65707419D01*
X54202380Y-65707419D02*
X53583333Y-65707419D01*
D11*
%TO.C,SW15*%
X122200000Y-62925000D02*
X122200000Y-60275000D01*
X122350000Y-59850000D02*
X122350000Y-63400000D01*
X122450000Y-59700000D02*
X122450000Y-63450000D01*
X122550000Y-59600000D02*
X122550000Y-63550000D01*
X122650000Y-59500000D02*
X122650000Y-63700000D01*
X122800000Y-59400000D02*
X122800000Y-63800000D01*
X122950000Y-59350000D02*
X122950000Y-63850000D01*
X123100000Y-59300000D02*
X123100000Y-63850000D01*
X123200000Y-59275000D02*
X125800000Y-59275000D01*
X123200000Y-63925000D02*
X125775000Y-63925000D01*
X123250000Y-59300000D02*
X123250000Y-63900000D01*
X123400000Y-59300000D02*
X123400000Y-63900000D01*
X123550000Y-59300000D02*
X123550000Y-63900000D01*
X123700000Y-59300000D02*
X123700000Y-63900000D01*
X123850000Y-59300000D02*
X123850000Y-63900000D01*
X124000000Y-59300000D02*
X124000000Y-63900000D01*
X124150000Y-59300000D02*
X124150000Y-63900000D01*
X124300000Y-59300000D02*
X124300000Y-63900000D01*
X124450000Y-59300000D02*
X124450000Y-63900000D01*
X124600000Y-59300000D02*
X124600000Y-63900000D01*
X124750000Y-59300000D02*
X124750000Y-63900000D01*
X124900000Y-59300000D02*
X124900000Y-63900000D01*
X125050000Y-59300000D02*
X125050000Y-63900000D01*
X125200000Y-59300000D02*
X125200000Y-63900000D01*
X125350000Y-59300000D02*
X125350000Y-63900000D01*
X125500000Y-59300000D02*
X125500000Y-63900000D01*
X125650000Y-59300000D02*
X125650000Y-63850000D01*
X125800000Y-59300000D02*
X125800000Y-63900000D01*
X125950000Y-59300000D02*
X125950000Y-63900000D01*
X126100000Y-59350000D02*
X126100000Y-63900000D01*
X126250000Y-59450000D02*
X126250000Y-64000000D01*
X126400000Y-59550000D02*
X126400000Y-64050000D01*
X126500000Y-59700000D02*
X126500000Y-64100000D01*
X126600000Y-59950000D02*
X126600000Y-64150000D01*
X126700000Y-60100000D02*
X126700000Y-64250000D01*
X126800000Y-60300000D02*
X126800000Y-64450000D01*
X126900000Y-60450000D02*
X126900000Y-64600000D01*
X127000000Y-60650000D02*
X127000000Y-65100000D01*
X127150000Y-60800000D02*
X127150000Y-65250000D01*
X127300000Y-60950000D02*
X127300000Y-65350000D01*
X127450000Y-61050000D02*
X127450000Y-65450000D01*
X127600000Y-61150000D02*
X127600000Y-65600000D01*
X127750000Y-61250000D02*
X127750000Y-65700000D01*
X127900000Y-61300000D02*
X127900000Y-65850000D01*
X128050000Y-61400000D02*
X128050000Y-65950000D01*
X128200000Y-61450000D02*
X128200000Y-66050000D01*
X128225000Y-66125000D02*
X126950000Y-65100000D01*
X128225000Y-66125000D02*
X130775000Y-66125000D01*
X128350000Y-61450000D02*
X128350000Y-66100000D01*
X128500000Y-61450000D02*
X128500000Y-66100000D01*
X128650000Y-61500000D02*
X128650000Y-66050000D01*
X128800000Y-61475000D02*
X130775000Y-61475000D01*
X128800000Y-61500000D02*
X128800000Y-66100000D01*
X128950000Y-61500000D02*
X128950000Y-66100000D01*
X129100000Y-61500000D02*
X129100000Y-66100000D01*
X129250000Y-61500000D02*
X129250000Y-66100000D01*
X129400000Y-61500000D02*
X129400000Y-66100000D01*
X129550000Y-61500000D02*
X129550000Y-66100000D01*
X129700000Y-61500000D02*
X129700000Y-66100000D01*
X129850000Y-61500000D02*
X129850000Y-66100000D01*
X130000000Y-61500000D02*
X130000000Y-66100000D01*
X130150000Y-61500000D02*
X130150000Y-66100000D01*
X130300000Y-61500000D02*
X130300000Y-66100000D01*
X130450000Y-61500000D02*
X130450000Y-66100000D01*
X130600000Y-61500000D02*
X130600000Y-66100000D01*
X130750000Y-61500000D02*
X130750000Y-66100000D01*
X130900000Y-61650000D02*
X130900000Y-66000000D01*
X131050000Y-61750000D02*
X131050000Y-65850000D01*
X131200000Y-61900000D02*
X131200000Y-65700000D01*
X131350000Y-62050000D02*
X131350000Y-65550000D01*
X131500000Y-62250000D02*
X131500000Y-65400000D01*
X131650000Y-62350000D02*
X131650000Y-65250000D01*
X131800000Y-62500000D02*
X130775000Y-61475000D01*
X131800000Y-65100000D02*
X130775000Y-66125000D01*
X131800000Y-65100000D02*
X131800000Y-62500000D01*
X122200000Y-60275000D02*
G75*
G02*
X123200000Y-59275000I1000000J0D01*
G01*
X123200000Y-63925000D02*
G75*
G02*
X122200000Y-62925000I0J1000000D01*
G01*
X125775000Y-63925000D02*
G75*
G02*
X126950000Y-65100000I-2J-1175002D01*
G01*
X125800995Y-59276209D02*
G75*
G02*
X126662199Y-59978096I-38796J-926887D01*
G01*
X128800000Y-61475000D02*
G75*
G02*
X126662199Y-59978096I1J2275002D01*
G01*
D12*
%TO.C,D18*%
X140854678Y-54404686D02*
X140854678Y-55595314D01*
X140854678Y-55000000D02*
X140656240Y-55000000D01*
X140854678Y-55595314D02*
X142442182Y-55595314D01*
X142045306Y-54404686D02*
X142045306Y-55595314D01*
X142442182Y-54404686D02*
X140854678Y-54404686D01*
X142442182Y-55595314D02*
X142442182Y-54404686D01*
X142640620Y-55000000D02*
X142442182Y-55000000D01*
D11*
%TO.C,SW20*%
X139200000Y-79935000D02*
X139200000Y-77285000D01*
X139350000Y-76860000D02*
X139350000Y-80410000D01*
X139450000Y-76710000D02*
X139450000Y-80460000D01*
X139550000Y-76610000D02*
X139550000Y-80560000D01*
X139650000Y-76510000D02*
X139650000Y-80710000D01*
X139800000Y-76410000D02*
X139800000Y-80810000D01*
X139950000Y-76360000D02*
X139950000Y-80860000D01*
X140100000Y-76310000D02*
X140100000Y-80860000D01*
X140200000Y-76285000D02*
X142800000Y-76285000D01*
X140200000Y-80935000D02*
X142775000Y-80935000D01*
X140250000Y-76310000D02*
X140250000Y-80910000D01*
X140400000Y-76310000D02*
X140400000Y-80910000D01*
X140550000Y-76310000D02*
X140550000Y-80910000D01*
X140700000Y-76310000D02*
X140700000Y-80910000D01*
X140850000Y-76310000D02*
X140850000Y-80910000D01*
X141000000Y-76310000D02*
X141000000Y-80910000D01*
X141150000Y-76310000D02*
X141150000Y-80910000D01*
X141300000Y-76310000D02*
X141300000Y-80910000D01*
X141450000Y-76310000D02*
X141450000Y-80910000D01*
X141600000Y-76310000D02*
X141600000Y-80910000D01*
X141750000Y-76310000D02*
X141750000Y-80910000D01*
X141900000Y-76310000D02*
X141900000Y-80910000D01*
X142050000Y-76310000D02*
X142050000Y-80910000D01*
X142200000Y-76310000D02*
X142200000Y-80910000D01*
X142350000Y-76310000D02*
X142350000Y-80910000D01*
X142500000Y-76310000D02*
X142500000Y-80910000D01*
X142650000Y-76310000D02*
X142650000Y-80860000D01*
X142800000Y-76310000D02*
X142800000Y-80910000D01*
X142950000Y-76310000D02*
X142950000Y-80910000D01*
X143100000Y-76360000D02*
X143100000Y-80910000D01*
X143250000Y-76460000D02*
X143250000Y-81010000D01*
X143400000Y-76560000D02*
X143400000Y-81060000D01*
X143500000Y-76710000D02*
X143500000Y-81110000D01*
X143600000Y-76960000D02*
X143600000Y-81160000D01*
X143700000Y-77110000D02*
X143700000Y-81260000D01*
X143800000Y-77310000D02*
X143800000Y-81460000D01*
X143900000Y-77460000D02*
X143900000Y-81610000D01*
X144000000Y-77660000D02*
X144000000Y-82110000D01*
X144150000Y-77810000D02*
X144150000Y-82260000D01*
X144300000Y-77960000D02*
X144300000Y-82360000D01*
X144450000Y-78060000D02*
X144450000Y-82460000D01*
X144600000Y-78160000D02*
X144600000Y-82610000D01*
X144750000Y-78260000D02*
X144750000Y-82710000D01*
X144900000Y-78310000D02*
X144900000Y-82860000D01*
X145050000Y-78410000D02*
X145050000Y-82960000D01*
X145200000Y-78460000D02*
X145200000Y-83060000D01*
X145225000Y-83135000D02*
X143950000Y-82110000D01*
X145225000Y-83135000D02*
X147775000Y-83135000D01*
X145350000Y-78460000D02*
X145350000Y-83110000D01*
X145500000Y-78460000D02*
X145500000Y-83110000D01*
X145650000Y-78510000D02*
X145650000Y-83060000D01*
X145800000Y-78485000D02*
X147775000Y-78485000D01*
X145800000Y-78510000D02*
X145800000Y-83110000D01*
X145950000Y-78510000D02*
X145950000Y-83110000D01*
X146100000Y-78510000D02*
X146100000Y-83110000D01*
X146250000Y-78510000D02*
X146250000Y-83110000D01*
X146400000Y-78510000D02*
X146400000Y-83110000D01*
X146550000Y-78510000D02*
X146550000Y-83110000D01*
X146700000Y-78510000D02*
X146700000Y-83110000D01*
X146850000Y-78510000D02*
X146850000Y-83110000D01*
X147000000Y-78510000D02*
X147000000Y-83110000D01*
X147150000Y-78510000D02*
X147150000Y-83110000D01*
X147300000Y-78510000D02*
X147300000Y-83110000D01*
X147450000Y-78510000D02*
X147450000Y-83110000D01*
X147600000Y-78510000D02*
X147600000Y-83110000D01*
X147750000Y-78510000D02*
X147750000Y-83110000D01*
X147900000Y-78660000D02*
X147900000Y-83010000D01*
X148050000Y-78760000D02*
X148050000Y-82860000D01*
X148200000Y-78910000D02*
X148200000Y-82710000D01*
X148350000Y-79060000D02*
X148350000Y-82560000D01*
X148500000Y-79260000D02*
X148500000Y-82410000D01*
X148650000Y-79360000D02*
X148650000Y-82260000D01*
X148800000Y-79510000D02*
X147775000Y-78485000D01*
X148800000Y-82110000D02*
X147775000Y-83135000D01*
X148800000Y-82110000D02*
X148800000Y-79510000D01*
X139200000Y-77285000D02*
G75*
G02*
X140200000Y-76285000I1000000J0D01*
G01*
X140200000Y-80935000D02*
G75*
G02*
X139200000Y-79935000I0J1000000D01*
G01*
X142775000Y-80935000D02*
G75*
G02*
X143950000Y-82110000I-2J-1175002D01*
G01*
X142800995Y-76286209D02*
G75*
G02*
X143662199Y-76988096I-38796J-926887D01*
G01*
X145800000Y-78485000D02*
G75*
G02*
X143662199Y-76988096I1J2275002D01*
G01*
D12*
%TO.C,D17*%
X140854678Y-37404686D02*
X140854678Y-38595314D01*
X140854678Y-38000000D02*
X140656240Y-38000000D01*
X140854678Y-38595314D02*
X142442182Y-38595314D01*
X142045306Y-37404686D02*
X142045306Y-38595314D01*
X142442182Y-37404686D02*
X140854678Y-37404686D01*
X142442182Y-38595314D02*
X142442182Y-37404686D01*
X142640620Y-38000000D02*
X142442182Y-38000000D01*
D11*
%TO.C,SW18*%
X139200000Y-45925000D02*
X139200000Y-43275000D01*
X139350000Y-42850000D02*
X139350000Y-46400000D01*
X139450000Y-42700000D02*
X139450000Y-46450000D01*
X139550000Y-42600000D02*
X139550000Y-46550000D01*
X139650000Y-42500000D02*
X139650000Y-46700000D01*
X139800000Y-42400000D02*
X139800000Y-46800000D01*
X139950000Y-42350000D02*
X139950000Y-46850000D01*
X140100000Y-42300000D02*
X140100000Y-46850000D01*
X140200000Y-42275000D02*
X142800000Y-42275000D01*
X140200000Y-46925000D02*
X142775000Y-46925000D01*
X140250000Y-42300000D02*
X140250000Y-46900000D01*
X140400000Y-42300000D02*
X140400000Y-46900000D01*
X140550000Y-42300000D02*
X140550000Y-46900000D01*
X140700000Y-42300000D02*
X140700000Y-46900000D01*
X140850000Y-42300000D02*
X140850000Y-46900000D01*
X141000000Y-42300000D02*
X141000000Y-46900000D01*
X141150000Y-42300000D02*
X141150000Y-46900000D01*
X141300000Y-42300000D02*
X141300000Y-46900000D01*
X141450000Y-42300000D02*
X141450000Y-46900000D01*
X141600000Y-42300000D02*
X141600000Y-46900000D01*
X141750000Y-42300000D02*
X141750000Y-46900000D01*
X141900000Y-42300000D02*
X141900000Y-46900000D01*
X142050000Y-42300000D02*
X142050000Y-46900000D01*
X142200000Y-42300000D02*
X142200000Y-46900000D01*
X142350000Y-42300000D02*
X142350000Y-46900000D01*
X142500000Y-42300000D02*
X142500000Y-46900000D01*
X142650000Y-42300000D02*
X142650000Y-46850000D01*
X142800000Y-42300000D02*
X142800000Y-46900000D01*
X142950000Y-42300000D02*
X142950000Y-46900000D01*
X143100000Y-42350000D02*
X143100000Y-46900000D01*
X143250000Y-42450000D02*
X143250000Y-47000000D01*
X143400000Y-42550000D02*
X143400000Y-47050000D01*
X143500000Y-42700000D02*
X143500000Y-47100000D01*
X143600000Y-42950000D02*
X143600000Y-47150000D01*
X143700000Y-43100000D02*
X143700000Y-47250000D01*
X143800000Y-43300000D02*
X143800000Y-47450000D01*
X143900000Y-43450000D02*
X143900000Y-47600000D01*
X144000000Y-43650000D02*
X144000000Y-48100000D01*
X144150000Y-43800000D02*
X144150000Y-48250000D01*
X144300000Y-43950000D02*
X144300000Y-48350000D01*
X144450000Y-44050000D02*
X144450000Y-48450000D01*
X144600000Y-44150000D02*
X144600000Y-48600000D01*
X144750000Y-44250000D02*
X144750000Y-48700000D01*
X144900000Y-44300000D02*
X144900000Y-48850000D01*
X145050000Y-44400000D02*
X145050000Y-48950000D01*
X145200000Y-44450000D02*
X145200000Y-49050000D01*
X145225000Y-49125000D02*
X143950000Y-48100000D01*
X145225000Y-49125000D02*
X147775000Y-49125000D01*
X145350000Y-44450000D02*
X145350000Y-49100000D01*
X145500000Y-44450000D02*
X145500000Y-49100000D01*
X145650000Y-44500000D02*
X145650000Y-49050000D01*
X145800000Y-44475000D02*
X147775000Y-44475000D01*
X145800000Y-44500000D02*
X145800000Y-49100000D01*
X145950000Y-44500000D02*
X145950000Y-49100000D01*
X146100000Y-44500000D02*
X146100000Y-49100000D01*
X146250000Y-44500000D02*
X146250000Y-49100000D01*
X146400000Y-44500000D02*
X146400000Y-49100000D01*
X146550000Y-44500000D02*
X146550000Y-49100000D01*
X146700000Y-44500000D02*
X146700000Y-49100000D01*
X146850000Y-44500000D02*
X146850000Y-49100000D01*
X147000000Y-44500000D02*
X147000000Y-49100000D01*
X147150000Y-44500000D02*
X147150000Y-49100000D01*
X147300000Y-44500000D02*
X147300000Y-49100000D01*
X147450000Y-44500000D02*
X147450000Y-49100000D01*
X147600000Y-44500000D02*
X147600000Y-49100000D01*
X147750000Y-44500000D02*
X147750000Y-49100000D01*
X147900000Y-44650000D02*
X147900000Y-49000000D01*
X148050000Y-44750000D02*
X148050000Y-48850000D01*
X148200000Y-44900000D02*
X148200000Y-48700000D01*
X148350000Y-45050000D02*
X148350000Y-48550000D01*
X148500000Y-45250000D02*
X148500000Y-48400000D01*
X148650000Y-45350000D02*
X148650000Y-48250000D01*
X148800000Y-45500000D02*
X147775000Y-44475000D01*
X148800000Y-48100000D02*
X147775000Y-49125000D01*
X148800000Y-48100000D02*
X148800000Y-45500000D01*
X139200000Y-43275000D02*
G75*
G02*
X140200000Y-42275000I1000000J0D01*
G01*
X140200000Y-46925000D02*
G75*
G02*
X139200000Y-45925000I0J1000000D01*
G01*
X142775000Y-46925000D02*
G75*
G02*
X143950000Y-48100000I-2J-1175002D01*
G01*
X142800995Y-42276209D02*
G75*
G02*
X143662199Y-42978096I-38796J-926887D01*
G01*
X145800000Y-44475000D02*
G75*
G02*
X143662199Y-42978096I1J2275002D01*
G01*
%TO.C,SW5*%
X88200000Y-28925000D02*
X88200000Y-26275000D01*
X88350000Y-25850000D02*
X88350000Y-29400000D01*
X88450000Y-25700000D02*
X88450000Y-29450000D01*
X88550000Y-25600000D02*
X88550000Y-29550000D01*
X88650000Y-25500000D02*
X88650000Y-29700000D01*
X88800000Y-25400000D02*
X88800000Y-29800000D01*
X88950000Y-25350000D02*
X88950000Y-29850000D01*
X89100000Y-25300000D02*
X89100000Y-29850000D01*
X89200000Y-25275000D02*
X91800000Y-25275000D01*
X89200000Y-29925000D02*
X91775000Y-29925000D01*
X89250000Y-25300000D02*
X89250000Y-29900000D01*
X89400000Y-25300000D02*
X89400000Y-29900000D01*
X89550000Y-25300000D02*
X89550000Y-29900000D01*
X89700000Y-25300000D02*
X89700000Y-29900000D01*
X89850000Y-25300000D02*
X89850000Y-29900000D01*
X90000000Y-25300000D02*
X90000000Y-29900000D01*
X90150000Y-25300000D02*
X90150000Y-29900000D01*
X90300000Y-25300000D02*
X90300000Y-29900000D01*
X90450000Y-25300000D02*
X90450000Y-29900000D01*
X90600000Y-25300000D02*
X90600000Y-29900000D01*
X90750000Y-25300000D02*
X90750000Y-29900000D01*
X90900000Y-25300000D02*
X90900000Y-29900000D01*
X91050000Y-25300000D02*
X91050000Y-29900000D01*
X91200000Y-25300000D02*
X91200000Y-29900000D01*
X91350000Y-25300000D02*
X91350000Y-29900000D01*
X91500000Y-25300000D02*
X91500000Y-29900000D01*
X91650000Y-25300000D02*
X91650000Y-29850000D01*
X91800000Y-25300000D02*
X91800000Y-29900000D01*
X91950000Y-25300000D02*
X91950000Y-29900000D01*
X92100000Y-25350000D02*
X92100000Y-29900000D01*
X92250000Y-25450000D02*
X92250000Y-30000000D01*
X92400000Y-25550000D02*
X92400000Y-30050000D01*
X92500000Y-25700000D02*
X92500000Y-30100000D01*
X92600000Y-25950000D02*
X92600000Y-30150000D01*
X92700000Y-26100000D02*
X92700000Y-30250000D01*
X92800000Y-26300000D02*
X92800000Y-30450000D01*
X92900000Y-26450000D02*
X92900000Y-30600000D01*
X93000000Y-26650000D02*
X93000000Y-31100000D01*
X93150000Y-26800000D02*
X93150000Y-31250000D01*
X93300000Y-26950000D02*
X93300000Y-31350000D01*
X93450000Y-27050000D02*
X93450000Y-31450000D01*
X93600000Y-27150000D02*
X93600000Y-31600000D01*
X93750000Y-27250000D02*
X93750000Y-31700000D01*
X93900000Y-27300000D02*
X93900000Y-31850000D01*
X94050000Y-27400000D02*
X94050000Y-31950000D01*
X94200000Y-27450000D02*
X94200000Y-32050000D01*
X94225000Y-32125000D02*
X92950000Y-31100000D01*
X94225000Y-32125000D02*
X96775000Y-32125000D01*
X94350000Y-27450000D02*
X94350000Y-32100000D01*
X94500000Y-27450000D02*
X94500000Y-32100000D01*
X94650000Y-27500000D02*
X94650000Y-32050000D01*
X94800000Y-27475000D02*
X96775000Y-27475000D01*
X94800000Y-27500000D02*
X94800000Y-32100000D01*
X94950000Y-27500000D02*
X94950000Y-32100000D01*
X95100000Y-27500000D02*
X95100000Y-32100000D01*
X95250000Y-27500000D02*
X95250000Y-32100000D01*
X95400000Y-27500000D02*
X95400000Y-32100000D01*
X95550000Y-27500000D02*
X95550000Y-32100000D01*
X95700000Y-27500000D02*
X95700000Y-32100000D01*
X95850000Y-27500000D02*
X95850000Y-32100000D01*
X96000000Y-27500000D02*
X96000000Y-32100000D01*
X96150000Y-27500000D02*
X96150000Y-32100000D01*
X96300000Y-27500000D02*
X96300000Y-32100000D01*
X96450000Y-27500000D02*
X96450000Y-32100000D01*
X96600000Y-27500000D02*
X96600000Y-32100000D01*
X96750000Y-27500000D02*
X96750000Y-32100000D01*
X96900000Y-27650000D02*
X96900000Y-32000000D01*
X97050000Y-27750000D02*
X97050000Y-31850000D01*
X97200000Y-27900000D02*
X97200000Y-31700000D01*
X97350000Y-28050000D02*
X97350000Y-31550000D01*
X97500000Y-28250000D02*
X97500000Y-31400000D01*
X97650000Y-28350000D02*
X97650000Y-31250000D01*
X97800000Y-28500000D02*
X96775000Y-27475000D01*
X97800000Y-31100000D02*
X96775000Y-32125000D01*
X97800000Y-31100000D02*
X97800000Y-28500000D01*
X88200000Y-26275000D02*
G75*
G02*
X89200000Y-25275000I1000000J0D01*
G01*
X89200000Y-29925000D02*
G75*
G02*
X88200000Y-28925000I0J1000000D01*
G01*
X91775000Y-29925000D02*
G75*
G02*
X92950000Y-31100000I-2J-1175002D01*
G01*
X91800995Y-25276209D02*
G75*
G02*
X92662199Y-25978096I-38796J-926887D01*
G01*
X94800000Y-27475000D02*
G75*
G02*
X92662199Y-25978096I1J2275002D01*
G01*
D12*
%TO.C,D6*%
X89854678Y-54404686D02*
X89854678Y-55595314D01*
X89854678Y-55000000D02*
X89656240Y-55000000D01*
X89854678Y-55595314D02*
X91442182Y-55595314D01*
X91045306Y-54404686D02*
X91045306Y-55595314D01*
X91442182Y-54404686D02*
X89854678Y-54404686D01*
X91442182Y-55595314D02*
X91442182Y-54404686D01*
X91640620Y-55000000D02*
X91442182Y-55000000D01*
%TO.C,D4*%
X72754715Y-88404686D02*
X72754715Y-89595314D01*
X72754715Y-89000000D02*
X72556277Y-89000000D01*
X72754715Y-89595314D02*
X74342219Y-89595314D01*
X73945343Y-88404686D02*
X73945343Y-89595314D01*
X74342219Y-88404686D02*
X72754715Y-88404686D01*
X74342219Y-89595314D02*
X74342219Y-88404686D01*
X74540657Y-89000000D02*
X74342219Y-89000000D01*
%TO.C,D11*%
X106854678Y-71404686D02*
X106854678Y-72595314D01*
X106854678Y-72000000D02*
X106656240Y-72000000D01*
X106854678Y-72595314D02*
X108442182Y-72595314D01*
X108045306Y-71404686D02*
X108045306Y-72595314D01*
X108442182Y-71404686D02*
X106854678Y-71404686D01*
X108442182Y-72595314D02*
X108442182Y-71404686D01*
X108640620Y-72000000D02*
X108442182Y-72000000D01*
%TO.C,D9*%
X106854678Y-37404686D02*
X106854678Y-38595314D01*
X106854678Y-38000000D02*
X106656240Y-38000000D01*
X106854678Y-38595314D02*
X108442182Y-38595314D01*
X108045306Y-37404686D02*
X108045306Y-38595314D01*
X108442182Y-37404686D02*
X106854678Y-37404686D01*
X108442182Y-38595314D02*
X108442182Y-37404686D01*
X108640620Y-38000000D02*
X108442182Y-38000000D01*
%TO.C,D7*%
X89854678Y-71404686D02*
X89854678Y-72595314D01*
X89854678Y-72000000D02*
X89656240Y-72000000D01*
X89854678Y-72595314D02*
X91442182Y-72595314D01*
X91045306Y-71404686D02*
X91045306Y-72595314D01*
X91442182Y-71404686D02*
X89854678Y-71404686D01*
X91442182Y-72595314D02*
X91442182Y-71404686D01*
X91640620Y-72000000D02*
X91442182Y-72000000D01*
D11*
%TO.C,SW16*%
X122200000Y-79925000D02*
X122200000Y-77275000D01*
X122350000Y-76850000D02*
X122350000Y-80400000D01*
X122450000Y-76700000D02*
X122450000Y-80450000D01*
X122550000Y-76600000D02*
X122550000Y-80550000D01*
X122650000Y-76500000D02*
X122650000Y-80700000D01*
X122800000Y-76400000D02*
X122800000Y-80800000D01*
X122950000Y-76350000D02*
X122950000Y-80850000D01*
X123100000Y-76300000D02*
X123100000Y-80850000D01*
X123200000Y-76275000D02*
X125800000Y-76275000D01*
X123200000Y-80925000D02*
X125775000Y-80925000D01*
X123250000Y-76300000D02*
X123250000Y-80900000D01*
X123400000Y-76300000D02*
X123400000Y-80900000D01*
X123550000Y-76300000D02*
X123550000Y-80900000D01*
X123700000Y-76300000D02*
X123700000Y-80900000D01*
X123850000Y-76300000D02*
X123850000Y-80900000D01*
X124000000Y-76300000D02*
X124000000Y-80900000D01*
X124150000Y-76300000D02*
X124150000Y-80900000D01*
X124300000Y-76300000D02*
X124300000Y-80900000D01*
X124450000Y-76300000D02*
X124450000Y-80900000D01*
X124600000Y-76300000D02*
X124600000Y-80900000D01*
X124750000Y-76300000D02*
X124750000Y-80900000D01*
X124900000Y-76300000D02*
X124900000Y-80900000D01*
X125050000Y-76300000D02*
X125050000Y-80900000D01*
X125200000Y-76300000D02*
X125200000Y-80900000D01*
X125350000Y-76300000D02*
X125350000Y-80900000D01*
X125500000Y-76300000D02*
X125500000Y-80900000D01*
X125650000Y-76300000D02*
X125650000Y-80850000D01*
X125800000Y-76300000D02*
X125800000Y-80900000D01*
X125950000Y-76300000D02*
X125950000Y-80900000D01*
X126100000Y-76350000D02*
X126100000Y-80900000D01*
X126250000Y-76450000D02*
X126250000Y-81000000D01*
X126400000Y-76550000D02*
X126400000Y-81050000D01*
X126500000Y-76700000D02*
X126500000Y-81100000D01*
X126600000Y-76950000D02*
X126600000Y-81150000D01*
X126700000Y-77100000D02*
X126700000Y-81250000D01*
X126800000Y-77300000D02*
X126800000Y-81450000D01*
X126900000Y-77450000D02*
X126900000Y-81600000D01*
X127000000Y-77650000D02*
X127000000Y-82100000D01*
X127150000Y-77800000D02*
X127150000Y-82250000D01*
X127300000Y-77950000D02*
X127300000Y-82350000D01*
X127450000Y-78050000D02*
X127450000Y-82450000D01*
X127600000Y-78150000D02*
X127600000Y-82600000D01*
X127750000Y-78250000D02*
X127750000Y-82700000D01*
X127900000Y-78300000D02*
X127900000Y-82850000D01*
X128050000Y-78400000D02*
X128050000Y-82950000D01*
X128200000Y-78450000D02*
X128200000Y-83050000D01*
X128225000Y-83125000D02*
X126950000Y-82100000D01*
X128225000Y-83125000D02*
X130775000Y-83125000D01*
X128350000Y-78450000D02*
X128350000Y-83100000D01*
X128500000Y-78450000D02*
X128500000Y-83100000D01*
X128650000Y-78500000D02*
X128650000Y-83050000D01*
X128800000Y-78475000D02*
X130775000Y-78475000D01*
X128800000Y-78500000D02*
X128800000Y-83100000D01*
X128950000Y-78500000D02*
X128950000Y-83100000D01*
X129100000Y-78500000D02*
X129100000Y-83100000D01*
X129250000Y-78500000D02*
X129250000Y-83100000D01*
X129400000Y-78500000D02*
X129400000Y-83100000D01*
X129550000Y-78500000D02*
X129550000Y-83100000D01*
X129700000Y-78500000D02*
X129700000Y-83100000D01*
X129850000Y-78500000D02*
X129850000Y-83100000D01*
X130000000Y-78500000D02*
X130000000Y-83100000D01*
X130150000Y-78500000D02*
X130150000Y-83100000D01*
X130300000Y-78500000D02*
X130300000Y-83100000D01*
X130450000Y-78500000D02*
X130450000Y-83100000D01*
X130600000Y-78500000D02*
X130600000Y-83100000D01*
X130750000Y-78500000D02*
X130750000Y-83100000D01*
X130900000Y-78650000D02*
X130900000Y-83000000D01*
X131050000Y-78750000D02*
X131050000Y-82850000D01*
X131200000Y-78900000D02*
X131200000Y-82700000D01*
X131350000Y-79050000D02*
X131350000Y-82550000D01*
X131500000Y-79250000D02*
X131500000Y-82400000D01*
X131650000Y-79350000D02*
X131650000Y-82250000D01*
X131800000Y-79500000D02*
X130775000Y-78475000D01*
X131800000Y-82100000D02*
X130775000Y-83125000D01*
X131800000Y-82100000D02*
X131800000Y-79500000D01*
X122200000Y-77275000D02*
G75*
G02*
X123200000Y-76275000I1000000J0D01*
G01*
X123200000Y-80925000D02*
G75*
G02*
X122200000Y-79925000I0J1000000D01*
G01*
X125775000Y-80925000D02*
G75*
G02*
X126950000Y-82100000I-2J-1175002D01*
G01*
X125800995Y-76276209D02*
G75*
G02*
X126662199Y-76978096I-38796J-926887D01*
G01*
X128800000Y-78475000D02*
G75*
G02*
X126662199Y-76978096I1J2275002D01*
G01*
D12*
%TO.C,D14*%
X123854678Y-54404686D02*
X123854678Y-55595314D01*
X123854678Y-55000000D02*
X123656240Y-55000000D01*
X123854678Y-55595314D02*
X125442182Y-55595314D01*
X125045306Y-54404686D02*
X125045306Y-55595314D01*
X125442182Y-54404686D02*
X123854678Y-54404686D01*
X125442182Y-55595314D02*
X125442182Y-54404686D01*
X125640620Y-55000000D02*
X125442182Y-55000000D01*
%TO.C,D10*%
X106678115Y-54404686D02*
X106678115Y-55595314D01*
X106678115Y-55000000D02*
X106479677Y-55000000D01*
X106678115Y-55595314D02*
X108265619Y-55595314D01*
X107868743Y-54404686D02*
X107868743Y-55595314D01*
X108265619Y-54404686D02*
X106678115Y-54404686D01*
X108265619Y-55595314D02*
X108265619Y-54404686D01*
X108464057Y-55000000D02*
X108265619Y-55000000D01*
D11*
%TO.C,SW2*%
X71200000Y-45925000D02*
X71200000Y-43275000D01*
X71350000Y-42850000D02*
X71350000Y-46400000D01*
X71450000Y-42700000D02*
X71450000Y-46450000D01*
X71550000Y-42600000D02*
X71550000Y-46550000D01*
X71650000Y-42500000D02*
X71650000Y-46700000D01*
X71800000Y-42400000D02*
X71800000Y-46800000D01*
X71950000Y-42350000D02*
X71950000Y-46850000D01*
X72100000Y-42300000D02*
X72100000Y-46850000D01*
X72200000Y-42275000D02*
X74800000Y-42275000D01*
X72200000Y-46925000D02*
X74775000Y-46925000D01*
X72250000Y-42300000D02*
X72250000Y-46900000D01*
X72400000Y-42300000D02*
X72400000Y-46900000D01*
X72550000Y-42300000D02*
X72550000Y-46900000D01*
X72700000Y-42300000D02*
X72700000Y-46900000D01*
X72850000Y-42300000D02*
X72850000Y-46900000D01*
X73000000Y-42300000D02*
X73000000Y-46900000D01*
X73150000Y-42300000D02*
X73150000Y-46900000D01*
X73300000Y-42300000D02*
X73300000Y-46900000D01*
X73450000Y-42300000D02*
X73450000Y-46900000D01*
X73600000Y-42300000D02*
X73600000Y-46900000D01*
X73750000Y-42300000D02*
X73750000Y-46900000D01*
X73900000Y-42300000D02*
X73900000Y-46900000D01*
X74050000Y-42300000D02*
X74050000Y-46900000D01*
X74200000Y-42300000D02*
X74200000Y-46900000D01*
X74350000Y-42300000D02*
X74350000Y-46900000D01*
X74500000Y-42300000D02*
X74500000Y-46900000D01*
X74650000Y-42300000D02*
X74650000Y-46850000D01*
X74800000Y-42300000D02*
X74800000Y-46900000D01*
X74950000Y-42300000D02*
X74950000Y-46900000D01*
X75100000Y-42350000D02*
X75100000Y-46900000D01*
X75250000Y-42450000D02*
X75250000Y-47000000D01*
X75400000Y-42550000D02*
X75400000Y-47050000D01*
X75500000Y-42700000D02*
X75500000Y-47100000D01*
X75600000Y-42950000D02*
X75600000Y-47150000D01*
X75700000Y-43100000D02*
X75700000Y-47250000D01*
X75800000Y-43300000D02*
X75800000Y-47450000D01*
X75900000Y-43450000D02*
X75900000Y-47600000D01*
X76000000Y-43650000D02*
X76000000Y-48100000D01*
X76150000Y-43800000D02*
X76150000Y-48250000D01*
X76300000Y-43950000D02*
X76300000Y-48350000D01*
X76450000Y-44050000D02*
X76450000Y-48450000D01*
X76600000Y-44150000D02*
X76600000Y-48600000D01*
X76750000Y-44250000D02*
X76750000Y-48700000D01*
X76900000Y-44300000D02*
X76900000Y-48850000D01*
X77050000Y-44400000D02*
X77050000Y-48950000D01*
X77200000Y-44450000D02*
X77200000Y-49050000D01*
X77225000Y-49125000D02*
X75950000Y-48100000D01*
X77225000Y-49125000D02*
X79775000Y-49125000D01*
X77350000Y-44450000D02*
X77350000Y-49100000D01*
X77500000Y-44450000D02*
X77500000Y-49100000D01*
X77650000Y-44500000D02*
X77650000Y-49050000D01*
X77800000Y-44475000D02*
X79775000Y-44475000D01*
X77800000Y-44500000D02*
X77800000Y-49100000D01*
X77950000Y-44500000D02*
X77950000Y-49100000D01*
X78100000Y-44500000D02*
X78100000Y-49100000D01*
X78250000Y-44500000D02*
X78250000Y-49100000D01*
X78400000Y-44500000D02*
X78400000Y-49100000D01*
X78550000Y-44500000D02*
X78550000Y-49100000D01*
X78700000Y-44500000D02*
X78700000Y-49100000D01*
X78850000Y-44500000D02*
X78850000Y-49100000D01*
X79000000Y-44500000D02*
X79000000Y-49100000D01*
X79150000Y-44500000D02*
X79150000Y-49100000D01*
X79300000Y-44500000D02*
X79300000Y-49100000D01*
X79450000Y-44500000D02*
X79450000Y-49100000D01*
X79600000Y-44500000D02*
X79600000Y-49100000D01*
X79750000Y-44500000D02*
X79750000Y-49100000D01*
X79900000Y-44650000D02*
X79900000Y-49000000D01*
X80050000Y-44750000D02*
X80050000Y-48850000D01*
X80200000Y-44900000D02*
X80200000Y-48700000D01*
X80350000Y-45050000D02*
X80350000Y-48550000D01*
X80500000Y-45250000D02*
X80500000Y-48400000D01*
X80650000Y-45350000D02*
X80650000Y-48250000D01*
X80800000Y-45500000D02*
X79775000Y-44475000D01*
X80800000Y-48100000D02*
X79775000Y-49125000D01*
X80800000Y-48100000D02*
X80800000Y-45500000D01*
X71200000Y-43275000D02*
G75*
G02*
X72200000Y-42275000I1000000J0D01*
G01*
X72200000Y-46925000D02*
G75*
G02*
X71200000Y-45925000I0J1000000D01*
G01*
X74775000Y-46925000D02*
G75*
G02*
X75950000Y-48100000I-2J-1175002D01*
G01*
X74800995Y-42276209D02*
G75*
G02*
X75662199Y-42978096I-38796J-926887D01*
G01*
X77800000Y-44475000D02*
G75*
G02*
X75662199Y-42978096I1J2275002D01*
G01*
D12*
%TO.C,D12*%
X106854678Y-88404686D02*
X106854678Y-89595314D01*
X106854678Y-89000000D02*
X106656240Y-89000000D01*
X106854678Y-89595314D02*
X108442182Y-89595314D01*
X108045306Y-88404686D02*
X108045306Y-89595314D01*
X108442182Y-88404686D02*
X106854678Y-88404686D01*
X108442182Y-89595314D02*
X108442182Y-88404686D01*
X108640620Y-89000000D02*
X108442182Y-89000000D01*
D11*
%TO.C,SW12*%
X105200000Y-79925000D02*
X105200000Y-77275000D01*
X105350000Y-76850000D02*
X105350000Y-80400000D01*
X105450000Y-76700000D02*
X105450000Y-80450000D01*
X105550000Y-76600000D02*
X105550000Y-80550000D01*
X105650000Y-76500000D02*
X105650000Y-80700000D01*
X105800000Y-76400000D02*
X105800000Y-80800000D01*
X105950000Y-76350000D02*
X105950000Y-80850000D01*
X106100000Y-76300000D02*
X106100000Y-80850000D01*
X106200000Y-76275000D02*
X108800000Y-76275000D01*
X106200000Y-80925000D02*
X108775000Y-80925000D01*
X106250000Y-76300000D02*
X106250000Y-80900000D01*
X106400000Y-76300000D02*
X106400000Y-80900000D01*
X106550000Y-76300000D02*
X106550000Y-80900000D01*
X106700000Y-76300000D02*
X106700000Y-80900000D01*
X106850000Y-76300000D02*
X106850000Y-80900000D01*
X107000000Y-76300000D02*
X107000000Y-80900000D01*
X107150000Y-76300000D02*
X107150000Y-80900000D01*
X107300000Y-76300000D02*
X107300000Y-80900000D01*
X107450000Y-76300000D02*
X107450000Y-80900000D01*
X107600000Y-76300000D02*
X107600000Y-80900000D01*
X107750000Y-76300000D02*
X107750000Y-80900000D01*
X107900000Y-76300000D02*
X107900000Y-80900000D01*
X108050000Y-76300000D02*
X108050000Y-80900000D01*
X108200000Y-76300000D02*
X108200000Y-80900000D01*
X108350000Y-76300000D02*
X108350000Y-80900000D01*
X108500000Y-76300000D02*
X108500000Y-80900000D01*
X108650000Y-76300000D02*
X108650000Y-80850000D01*
X108800000Y-76300000D02*
X108800000Y-80900000D01*
X108950000Y-76300000D02*
X108950000Y-80900000D01*
X109100000Y-76350000D02*
X109100000Y-80900000D01*
X109250000Y-76450000D02*
X109250000Y-81000000D01*
X109400000Y-76550000D02*
X109400000Y-81050000D01*
X109500000Y-76700000D02*
X109500000Y-81100000D01*
X109600000Y-76950000D02*
X109600000Y-81150000D01*
X109700000Y-77100000D02*
X109700000Y-81250000D01*
X109800000Y-77300000D02*
X109800000Y-81450000D01*
X109900000Y-77450000D02*
X109900000Y-81600000D01*
X110000000Y-77650000D02*
X110000000Y-82100000D01*
X110150000Y-77800000D02*
X110150000Y-82250000D01*
X110300000Y-77950000D02*
X110300000Y-82350000D01*
X110450000Y-78050000D02*
X110450000Y-82450000D01*
X110600000Y-78150000D02*
X110600000Y-82600000D01*
X110750000Y-78250000D02*
X110750000Y-82700000D01*
X110900000Y-78300000D02*
X110900000Y-82850000D01*
X111050000Y-78400000D02*
X111050000Y-82950000D01*
X111200000Y-78450000D02*
X111200000Y-83050000D01*
X111225000Y-83125000D02*
X109950000Y-82100000D01*
X111225000Y-83125000D02*
X113775000Y-83125000D01*
X111350000Y-78450000D02*
X111350000Y-83100000D01*
X111500000Y-78450000D02*
X111500000Y-83100000D01*
X111650000Y-78500000D02*
X111650000Y-83050000D01*
X111800000Y-78475000D02*
X113775000Y-78475000D01*
X111800000Y-78500000D02*
X111800000Y-83100000D01*
X111950000Y-78500000D02*
X111950000Y-83100000D01*
X112100000Y-78500000D02*
X112100000Y-83100000D01*
X112250000Y-78500000D02*
X112250000Y-83100000D01*
X112400000Y-78500000D02*
X112400000Y-83100000D01*
X112550000Y-78500000D02*
X112550000Y-83100000D01*
X112700000Y-78500000D02*
X112700000Y-83100000D01*
X112850000Y-78500000D02*
X112850000Y-83100000D01*
X113000000Y-78500000D02*
X113000000Y-83100000D01*
X113150000Y-78500000D02*
X113150000Y-83100000D01*
X113300000Y-78500000D02*
X113300000Y-83100000D01*
X113450000Y-78500000D02*
X113450000Y-83100000D01*
X113600000Y-78500000D02*
X113600000Y-83100000D01*
X113750000Y-78500000D02*
X113750000Y-83100000D01*
X113900000Y-78650000D02*
X113900000Y-83000000D01*
X114050000Y-78750000D02*
X114050000Y-82850000D01*
X114200000Y-78900000D02*
X114200000Y-82700000D01*
X114350000Y-79050000D02*
X114350000Y-82550000D01*
X114500000Y-79250000D02*
X114500000Y-82400000D01*
X114650000Y-79350000D02*
X114650000Y-82250000D01*
X114800000Y-79500000D02*
X113775000Y-78475000D01*
X114800000Y-82100000D02*
X113775000Y-83125000D01*
X114800000Y-82100000D02*
X114800000Y-79500000D01*
X105200000Y-77275000D02*
G75*
G02*
X106200000Y-76275000I1000000J0D01*
G01*
X106200000Y-80925000D02*
G75*
G02*
X105200000Y-79925000I0J1000000D01*
G01*
X108775000Y-80925000D02*
G75*
G02*
X109950000Y-82100000I-2J-1175002D01*
G01*
X108800995Y-76276209D02*
G75*
G02*
X109662199Y-76978096I-38796J-926887D01*
G01*
X111800000Y-78475000D02*
G75*
G02*
X109662199Y-76978096I1J2275002D01*
G01*
%TO.C,SW6*%
X88200000Y-45925000D02*
X88200000Y-43275000D01*
X88350000Y-42850000D02*
X88350000Y-46400000D01*
X88450000Y-42700000D02*
X88450000Y-46450000D01*
X88550000Y-42600000D02*
X88550000Y-46550000D01*
X88650000Y-42500000D02*
X88650000Y-46700000D01*
X88800000Y-42400000D02*
X88800000Y-46800000D01*
X88950000Y-42350000D02*
X88950000Y-46850000D01*
X89100000Y-42300000D02*
X89100000Y-46850000D01*
X89200000Y-42275000D02*
X91800000Y-42275000D01*
X89200000Y-46925000D02*
X91775000Y-46925000D01*
X89250000Y-42300000D02*
X89250000Y-46900000D01*
X89400000Y-42300000D02*
X89400000Y-46900000D01*
X89550000Y-42300000D02*
X89550000Y-46900000D01*
X89700000Y-42300000D02*
X89700000Y-46900000D01*
X89850000Y-42300000D02*
X89850000Y-46900000D01*
X90000000Y-42300000D02*
X90000000Y-46900000D01*
X90150000Y-42300000D02*
X90150000Y-46900000D01*
X90300000Y-42300000D02*
X90300000Y-46900000D01*
X90450000Y-42300000D02*
X90450000Y-46900000D01*
X90600000Y-42300000D02*
X90600000Y-46900000D01*
X90750000Y-42300000D02*
X90750000Y-46900000D01*
X90900000Y-42300000D02*
X90900000Y-46900000D01*
X91050000Y-42300000D02*
X91050000Y-46900000D01*
X91200000Y-42300000D02*
X91200000Y-46900000D01*
X91350000Y-42300000D02*
X91350000Y-46900000D01*
X91500000Y-42300000D02*
X91500000Y-46900000D01*
X91650000Y-42300000D02*
X91650000Y-46850000D01*
X91800000Y-42300000D02*
X91800000Y-46900000D01*
X91950000Y-42300000D02*
X91950000Y-46900000D01*
X92100000Y-42350000D02*
X92100000Y-46900000D01*
X92250000Y-42450000D02*
X92250000Y-47000000D01*
X92400000Y-42550000D02*
X92400000Y-47050000D01*
X92500000Y-42700000D02*
X92500000Y-47100000D01*
X92600000Y-42950000D02*
X92600000Y-47150000D01*
X92700000Y-43100000D02*
X92700000Y-47250000D01*
X92800000Y-43300000D02*
X92800000Y-47450000D01*
X92900000Y-43450000D02*
X92900000Y-47600000D01*
X93000000Y-43650000D02*
X93000000Y-48100000D01*
X93150000Y-43800000D02*
X93150000Y-48250000D01*
X93300000Y-43950000D02*
X93300000Y-48350000D01*
X93450000Y-44050000D02*
X93450000Y-48450000D01*
X93600000Y-44150000D02*
X93600000Y-48600000D01*
X93750000Y-44250000D02*
X93750000Y-48700000D01*
X93900000Y-44300000D02*
X93900000Y-48850000D01*
X94050000Y-44400000D02*
X94050000Y-48950000D01*
X94200000Y-44450000D02*
X94200000Y-49050000D01*
X94225000Y-49125000D02*
X92950000Y-48100000D01*
X94225000Y-49125000D02*
X96775000Y-49125000D01*
X94350000Y-44450000D02*
X94350000Y-49100000D01*
X94500000Y-44450000D02*
X94500000Y-49100000D01*
X94650000Y-44500000D02*
X94650000Y-49050000D01*
X94800000Y-44475000D02*
X96775000Y-44475000D01*
X94800000Y-44500000D02*
X94800000Y-49100000D01*
X94950000Y-44500000D02*
X94950000Y-49100000D01*
X95100000Y-44500000D02*
X95100000Y-49100000D01*
X95250000Y-44500000D02*
X95250000Y-49100000D01*
X95400000Y-44500000D02*
X95400000Y-49100000D01*
X95550000Y-44500000D02*
X95550000Y-49100000D01*
X95700000Y-44500000D02*
X95700000Y-49100000D01*
X95850000Y-44500000D02*
X95850000Y-49100000D01*
X96000000Y-44500000D02*
X96000000Y-49100000D01*
X96150000Y-44500000D02*
X96150000Y-49100000D01*
X96300000Y-44500000D02*
X96300000Y-49100000D01*
X96450000Y-44500000D02*
X96450000Y-49100000D01*
X96600000Y-44500000D02*
X96600000Y-49100000D01*
X96750000Y-44500000D02*
X96750000Y-49100000D01*
X96900000Y-44650000D02*
X96900000Y-49000000D01*
X97050000Y-44750000D02*
X97050000Y-48850000D01*
X97200000Y-44900000D02*
X97200000Y-48700000D01*
X97350000Y-45050000D02*
X97350000Y-48550000D01*
X97500000Y-45250000D02*
X97500000Y-48400000D01*
X97650000Y-45350000D02*
X97650000Y-48250000D01*
X97800000Y-45500000D02*
X96775000Y-44475000D01*
X97800000Y-48100000D02*
X96775000Y-49125000D01*
X97800000Y-48100000D02*
X97800000Y-45500000D01*
X88200000Y-43275000D02*
G75*
G02*
X89200000Y-42275000I1000000J0D01*
G01*
X89200000Y-46925000D02*
G75*
G02*
X88200000Y-45925000I0J1000000D01*
G01*
X91775000Y-46925000D02*
G75*
G02*
X92950000Y-48100000I-2J-1175002D01*
G01*
X91800995Y-42276209D02*
G75*
G02*
X92662199Y-42978096I-38796J-926887D01*
G01*
X94800000Y-44475000D02*
G75*
G02*
X92662199Y-42978096I1J2275002D01*
G01*
%TO.C,SW4*%
X71200000Y-79925000D02*
X71200000Y-77275000D01*
X71350000Y-76850000D02*
X71350000Y-80400000D01*
X71450000Y-76700000D02*
X71450000Y-80450000D01*
X71550000Y-76600000D02*
X71550000Y-80550000D01*
X71650000Y-76500000D02*
X71650000Y-80700000D01*
X71800000Y-76400000D02*
X71800000Y-80800000D01*
X71950000Y-76350000D02*
X71950000Y-80850000D01*
X72100000Y-76300000D02*
X72100000Y-80850000D01*
X72200000Y-76275000D02*
X74800000Y-76275000D01*
X72200000Y-80925000D02*
X74775000Y-80925000D01*
X72250000Y-76300000D02*
X72250000Y-80900000D01*
X72400000Y-76300000D02*
X72400000Y-80900000D01*
X72550000Y-76300000D02*
X72550000Y-80900000D01*
X72700000Y-76300000D02*
X72700000Y-80900000D01*
X72850000Y-76300000D02*
X72850000Y-80900000D01*
X73000000Y-76300000D02*
X73000000Y-80900000D01*
X73150000Y-76300000D02*
X73150000Y-80900000D01*
X73300000Y-76300000D02*
X73300000Y-80900000D01*
X73450000Y-76300000D02*
X73450000Y-80900000D01*
X73600000Y-76300000D02*
X73600000Y-80900000D01*
X73750000Y-76300000D02*
X73750000Y-80900000D01*
X73900000Y-76300000D02*
X73900000Y-80900000D01*
X74050000Y-76300000D02*
X74050000Y-80900000D01*
X74200000Y-76300000D02*
X74200000Y-80900000D01*
X74350000Y-76300000D02*
X74350000Y-80900000D01*
X74500000Y-76300000D02*
X74500000Y-80900000D01*
X74650000Y-76300000D02*
X74650000Y-80850000D01*
X74800000Y-76300000D02*
X74800000Y-80900000D01*
X74950000Y-76300000D02*
X74950000Y-80900000D01*
X75100000Y-76350000D02*
X75100000Y-80900000D01*
X75250000Y-76450000D02*
X75250000Y-81000000D01*
X75400000Y-76550000D02*
X75400000Y-81050000D01*
X75500000Y-76700000D02*
X75500000Y-81100000D01*
X75600000Y-76950000D02*
X75600000Y-81150000D01*
X75700000Y-77100000D02*
X75700000Y-81250000D01*
X75800000Y-77300000D02*
X75800000Y-81450000D01*
X75900000Y-77450000D02*
X75900000Y-81600000D01*
X76000000Y-77650000D02*
X76000000Y-82100000D01*
X76150000Y-77800000D02*
X76150000Y-82250000D01*
X76300000Y-77950000D02*
X76300000Y-82350000D01*
X76450000Y-78050000D02*
X76450000Y-82450000D01*
X76600000Y-78150000D02*
X76600000Y-82600000D01*
X76750000Y-78250000D02*
X76750000Y-82700000D01*
X76900000Y-78300000D02*
X76900000Y-82850000D01*
X77050000Y-78400000D02*
X77050000Y-82950000D01*
X77200000Y-78450000D02*
X77200000Y-83050000D01*
X77225000Y-83125000D02*
X75950000Y-82100000D01*
X77225000Y-83125000D02*
X79775000Y-83125000D01*
X77350000Y-78450000D02*
X77350000Y-83100000D01*
X77500000Y-78450000D02*
X77500000Y-83100000D01*
X77650000Y-78500000D02*
X77650000Y-83050000D01*
X77800000Y-78475000D02*
X79775000Y-78475000D01*
X77800000Y-78500000D02*
X77800000Y-83100000D01*
X77950000Y-78500000D02*
X77950000Y-83100000D01*
X78100000Y-78500000D02*
X78100000Y-83100000D01*
X78250000Y-78500000D02*
X78250000Y-83100000D01*
X78400000Y-78500000D02*
X78400000Y-83100000D01*
X78550000Y-78500000D02*
X78550000Y-83100000D01*
X78700000Y-78500000D02*
X78700000Y-83100000D01*
X78850000Y-78500000D02*
X78850000Y-83100000D01*
X79000000Y-78500000D02*
X79000000Y-83100000D01*
X79150000Y-78500000D02*
X79150000Y-83100000D01*
X79300000Y-78500000D02*
X79300000Y-83100000D01*
X79450000Y-78500000D02*
X79450000Y-83100000D01*
X79600000Y-78500000D02*
X79600000Y-83100000D01*
X79750000Y-78500000D02*
X79750000Y-83100000D01*
X79900000Y-78650000D02*
X79900000Y-83000000D01*
X80050000Y-78750000D02*
X80050000Y-82850000D01*
X80200000Y-78900000D02*
X80200000Y-82700000D01*
X80350000Y-79050000D02*
X80350000Y-82550000D01*
X80500000Y-79250000D02*
X80500000Y-82400000D01*
X80650000Y-79350000D02*
X80650000Y-82250000D01*
X80800000Y-79500000D02*
X79775000Y-78475000D01*
X80800000Y-82100000D02*
X79775000Y-83125000D01*
X80800000Y-82100000D02*
X80800000Y-79500000D01*
X71200000Y-77275000D02*
G75*
G02*
X72200000Y-76275000I1000000J0D01*
G01*
X72200000Y-80925000D02*
G75*
G02*
X71200000Y-79925000I0J1000000D01*
G01*
X74775000Y-80925000D02*
G75*
G02*
X75950000Y-82100000I-2J-1175002D01*
G01*
X74800995Y-76276209D02*
G75*
G02*
X75662199Y-76978096I-38796J-926887D01*
G01*
X77800000Y-78475000D02*
G75*
G02*
X75662199Y-76978096I1J2275002D01*
G01*
D12*
%TO.C,D2*%
X72554715Y-54404686D02*
X72554715Y-55595314D01*
X72554715Y-55000000D02*
X72356277Y-55000000D01*
X72554715Y-55595314D02*
X74142219Y-55595314D01*
X73745343Y-54404686D02*
X73745343Y-55595314D01*
X74142219Y-54404686D02*
X72554715Y-54404686D01*
X74142219Y-55595314D02*
X74142219Y-54404686D01*
X74340657Y-55000000D02*
X74142219Y-55000000D01*
D11*
%TO.C,SW3*%
X71200000Y-62925000D02*
X71200000Y-60275000D01*
X71350000Y-59850000D02*
X71350000Y-63400000D01*
X71450000Y-59700000D02*
X71450000Y-63450000D01*
X71550000Y-59600000D02*
X71550000Y-63550000D01*
X71650000Y-59500000D02*
X71650000Y-63700000D01*
X71800000Y-59400000D02*
X71800000Y-63800000D01*
X71950000Y-59350000D02*
X71950000Y-63850000D01*
X72100000Y-59300000D02*
X72100000Y-63850000D01*
X72200000Y-59275000D02*
X74800000Y-59275000D01*
X72200000Y-63925000D02*
X74775000Y-63925000D01*
X72250000Y-59300000D02*
X72250000Y-63900000D01*
X72400000Y-59300000D02*
X72400000Y-63900000D01*
X72550000Y-59300000D02*
X72550000Y-63900000D01*
X72700000Y-59300000D02*
X72700000Y-63900000D01*
X72850000Y-59300000D02*
X72850000Y-63900000D01*
X73000000Y-59300000D02*
X73000000Y-63900000D01*
X73150000Y-59300000D02*
X73150000Y-63900000D01*
X73300000Y-59300000D02*
X73300000Y-63900000D01*
X73450000Y-59300000D02*
X73450000Y-63900000D01*
X73600000Y-59300000D02*
X73600000Y-63900000D01*
X73750000Y-59300000D02*
X73750000Y-63900000D01*
X73900000Y-59300000D02*
X73900000Y-63900000D01*
X74050000Y-59300000D02*
X74050000Y-63900000D01*
X74200000Y-59300000D02*
X74200000Y-63900000D01*
X74350000Y-59300000D02*
X74350000Y-63900000D01*
X74500000Y-59300000D02*
X74500000Y-63900000D01*
X74650000Y-59300000D02*
X74650000Y-63850000D01*
X74800000Y-59300000D02*
X74800000Y-63900000D01*
X74950000Y-59300000D02*
X74950000Y-63900000D01*
X75100000Y-59350000D02*
X75100000Y-63900000D01*
X75250000Y-59450000D02*
X75250000Y-64000000D01*
X75400000Y-59550000D02*
X75400000Y-64050000D01*
X75500000Y-59700000D02*
X75500000Y-64100000D01*
X75600000Y-59950000D02*
X75600000Y-64150000D01*
X75700000Y-60100000D02*
X75700000Y-64250000D01*
X75800000Y-60300000D02*
X75800000Y-64450000D01*
X75900000Y-60450000D02*
X75900000Y-64600000D01*
X76000000Y-60650000D02*
X76000000Y-65100000D01*
X76150000Y-60800000D02*
X76150000Y-65250000D01*
X76300000Y-60950000D02*
X76300000Y-65350000D01*
X76450000Y-61050000D02*
X76450000Y-65450000D01*
X76600000Y-61150000D02*
X76600000Y-65600000D01*
X76750000Y-61250000D02*
X76750000Y-65700000D01*
X76900000Y-61300000D02*
X76900000Y-65850000D01*
X77050000Y-61400000D02*
X77050000Y-65950000D01*
X77200000Y-61450000D02*
X77200000Y-66050000D01*
X77225000Y-66125000D02*
X75950000Y-65100000D01*
X77225000Y-66125000D02*
X79775000Y-66125000D01*
X77350000Y-61450000D02*
X77350000Y-66100000D01*
X77500000Y-61450000D02*
X77500000Y-66100000D01*
X77650000Y-61500000D02*
X77650000Y-66050000D01*
X77800000Y-61475000D02*
X79775000Y-61475000D01*
X77800000Y-61500000D02*
X77800000Y-66100000D01*
X77950000Y-61500000D02*
X77950000Y-66100000D01*
X78100000Y-61500000D02*
X78100000Y-66100000D01*
X78250000Y-61500000D02*
X78250000Y-66100000D01*
X78400000Y-61500000D02*
X78400000Y-66100000D01*
X78550000Y-61500000D02*
X78550000Y-66100000D01*
X78700000Y-61500000D02*
X78700000Y-66100000D01*
X78850000Y-61500000D02*
X78850000Y-66100000D01*
X79000000Y-61500000D02*
X79000000Y-66100000D01*
X79150000Y-61500000D02*
X79150000Y-66100000D01*
X79300000Y-61500000D02*
X79300000Y-66100000D01*
X79450000Y-61500000D02*
X79450000Y-66100000D01*
X79600000Y-61500000D02*
X79600000Y-66100000D01*
X79750000Y-61500000D02*
X79750000Y-66100000D01*
X79900000Y-61650000D02*
X79900000Y-66000000D01*
X80050000Y-61750000D02*
X80050000Y-65850000D01*
X80200000Y-61900000D02*
X80200000Y-65700000D01*
X80350000Y-62050000D02*
X80350000Y-65550000D01*
X80500000Y-62250000D02*
X80500000Y-65400000D01*
X80650000Y-62350000D02*
X80650000Y-65250000D01*
X80800000Y-62500000D02*
X79775000Y-61475000D01*
X80800000Y-65100000D02*
X79775000Y-66125000D01*
X80800000Y-65100000D02*
X80800000Y-62500000D01*
X71200000Y-60275000D02*
G75*
G02*
X72200000Y-59275000I1000000J0D01*
G01*
X72200000Y-63925000D02*
G75*
G02*
X71200000Y-62925000I0J1000000D01*
G01*
X74775000Y-63925000D02*
G75*
G02*
X75950000Y-65100000I-2J-1175002D01*
G01*
X74800995Y-59276209D02*
G75*
G02*
X75662199Y-59978096I-38796J-926887D01*
G01*
X77800000Y-61475000D02*
G75*
G02*
X75662199Y-59978096I1J2275002D01*
G01*
D12*
%TO.C,D16*%
X123854678Y-88404686D02*
X123854678Y-89595314D01*
X123854678Y-89000000D02*
X123656240Y-89000000D01*
X123854678Y-89595314D02*
X125442182Y-89595314D01*
X125045306Y-88404686D02*
X125045306Y-89595314D01*
X125442182Y-88404686D02*
X123854678Y-88404686D01*
X125442182Y-89595314D02*
X125442182Y-88404686D01*
X125640620Y-89000000D02*
X125442182Y-89000000D01*
D11*
%TO.C,SW13*%
X122200000Y-28925000D02*
X122200000Y-26275000D01*
X122350000Y-25850000D02*
X122350000Y-29400000D01*
X122450000Y-25700000D02*
X122450000Y-29450000D01*
X122550000Y-25600000D02*
X122550000Y-29550000D01*
X122650000Y-25500000D02*
X122650000Y-29700000D01*
X122800000Y-25400000D02*
X122800000Y-29800000D01*
X122950000Y-25350000D02*
X122950000Y-29850000D01*
X123100000Y-25300000D02*
X123100000Y-29850000D01*
X123200000Y-25275000D02*
X125800000Y-25275000D01*
X123200000Y-29925000D02*
X125775000Y-29925000D01*
X123250000Y-25300000D02*
X123250000Y-29900000D01*
X123400000Y-25300000D02*
X123400000Y-29900000D01*
X123550000Y-25300000D02*
X123550000Y-29900000D01*
X123700000Y-25300000D02*
X123700000Y-29900000D01*
X123850000Y-25300000D02*
X123850000Y-29900000D01*
X124000000Y-25300000D02*
X124000000Y-29900000D01*
X124150000Y-25300000D02*
X124150000Y-29900000D01*
X124300000Y-25300000D02*
X124300000Y-29900000D01*
X124450000Y-25300000D02*
X124450000Y-29900000D01*
X124600000Y-25300000D02*
X124600000Y-29900000D01*
X124750000Y-25300000D02*
X124750000Y-29900000D01*
X124900000Y-25300000D02*
X124900000Y-29900000D01*
X125050000Y-25300000D02*
X125050000Y-29900000D01*
X125200000Y-25300000D02*
X125200000Y-29900000D01*
X125350000Y-25300000D02*
X125350000Y-29900000D01*
X125500000Y-25300000D02*
X125500000Y-29900000D01*
X125650000Y-25300000D02*
X125650000Y-29850000D01*
X125800000Y-25300000D02*
X125800000Y-29900000D01*
X125950000Y-25300000D02*
X125950000Y-29900000D01*
X126100000Y-25350000D02*
X126100000Y-29900000D01*
X126250000Y-25450000D02*
X126250000Y-30000000D01*
X126400000Y-25550000D02*
X126400000Y-30050000D01*
X126500000Y-25700000D02*
X126500000Y-30100000D01*
X126600000Y-25950000D02*
X126600000Y-30150000D01*
X126700000Y-26100000D02*
X126700000Y-30250000D01*
X126800000Y-26300000D02*
X126800000Y-30450000D01*
X126900000Y-26450000D02*
X126900000Y-30600000D01*
X127000000Y-26650000D02*
X127000000Y-31100000D01*
X127150000Y-26800000D02*
X127150000Y-31250000D01*
X127300000Y-26950000D02*
X127300000Y-31350000D01*
X127450000Y-27050000D02*
X127450000Y-31450000D01*
X127600000Y-27150000D02*
X127600000Y-31600000D01*
X127750000Y-27250000D02*
X127750000Y-31700000D01*
X127900000Y-27300000D02*
X127900000Y-31850000D01*
X128050000Y-27400000D02*
X128050000Y-31950000D01*
X128200000Y-27450000D02*
X128200000Y-32050000D01*
X128225000Y-32125000D02*
X126950000Y-31100000D01*
X128225000Y-32125000D02*
X130775000Y-32125000D01*
X128350000Y-27450000D02*
X128350000Y-32100000D01*
X128500000Y-27450000D02*
X128500000Y-32100000D01*
X128650000Y-27500000D02*
X128650000Y-32050000D01*
X128800000Y-27475000D02*
X130775000Y-27475000D01*
X128800000Y-27500000D02*
X128800000Y-32100000D01*
X128950000Y-27500000D02*
X128950000Y-32100000D01*
X129100000Y-27500000D02*
X129100000Y-32100000D01*
X129250000Y-27500000D02*
X129250000Y-32100000D01*
X129400000Y-27500000D02*
X129400000Y-32100000D01*
X129550000Y-27500000D02*
X129550000Y-32100000D01*
X129700000Y-27500000D02*
X129700000Y-32100000D01*
X129850000Y-27500000D02*
X129850000Y-32100000D01*
X130000000Y-27500000D02*
X130000000Y-32100000D01*
X130150000Y-27500000D02*
X130150000Y-32100000D01*
X130300000Y-27500000D02*
X130300000Y-32100000D01*
X130450000Y-27500000D02*
X130450000Y-32100000D01*
X130600000Y-27500000D02*
X130600000Y-32100000D01*
X130750000Y-27500000D02*
X130750000Y-32100000D01*
X130900000Y-27650000D02*
X130900000Y-32000000D01*
X131050000Y-27750000D02*
X131050000Y-31850000D01*
X131200000Y-27900000D02*
X131200000Y-31700000D01*
X131350000Y-28050000D02*
X131350000Y-31550000D01*
X131500000Y-28250000D02*
X131500000Y-31400000D01*
X131650000Y-28350000D02*
X131650000Y-31250000D01*
X131800000Y-28500000D02*
X130775000Y-27475000D01*
X131800000Y-31100000D02*
X130775000Y-32125000D01*
X131800000Y-31100000D02*
X131800000Y-28500000D01*
X122200000Y-26275000D02*
G75*
G02*
X123200000Y-25275000I1000000J0D01*
G01*
X123200000Y-29925000D02*
G75*
G02*
X122200000Y-28925000I0J1000000D01*
G01*
X125775000Y-29925000D02*
G75*
G02*
X126950000Y-31100000I-2J-1175002D01*
G01*
X125800995Y-25276209D02*
G75*
G02*
X126662199Y-25978096I-38796J-926887D01*
G01*
X128800000Y-27475000D02*
G75*
G02*
X126662199Y-25978096I1J2275002D01*
G01*
D12*
%TO.C,D3*%
X72754715Y-71404686D02*
X72754715Y-72595314D01*
X72754715Y-72000000D02*
X72556277Y-72000000D01*
X72754715Y-72595314D02*
X74342219Y-72595314D01*
X73945343Y-71404686D02*
X73945343Y-72595314D01*
X74342219Y-71404686D02*
X72754715Y-71404686D01*
X74342219Y-72595314D02*
X74342219Y-71404686D01*
X74540657Y-72000000D02*
X74342219Y-72000000D01*
D11*
%TO.C,SW10*%
X105200000Y-45925000D02*
X105200000Y-43275000D01*
X105350000Y-42850000D02*
X105350000Y-46400000D01*
X105450000Y-42700000D02*
X105450000Y-46450000D01*
X105550000Y-42600000D02*
X105550000Y-46550000D01*
X105650000Y-42500000D02*
X105650000Y-46700000D01*
X105800000Y-42400000D02*
X105800000Y-46800000D01*
X105950000Y-42350000D02*
X105950000Y-46850000D01*
X106100000Y-42300000D02*
X106100000Y-46850000D01*
X106200000Y-42275000D02*
X108800000Y-42275000D01*
X106200000Y-46925000D02*
X108775000Y-46925000D01*
X106250000Y-42300000D02*
X106250000Y-46900000D01*
X106400000Y-42300000D02*
X106400000Y-46900000D01*
X106550000Y-42300000D02*
X106550000Y-46900000D01*
X106700000Y-42300000D02*
X106700000Y-46900000D01*
X106850000Y-42300000D02*
X106850000Y-46900000D01*
X107000000Y-42300000D02*
X107000000Y-46900000D01*
X107150000Y-42300000D02*
X107150000Y-46900000D01*
X107300000Y-42300000D02*
X107300000Y-46900000D01*
X107450000Y-42300000D02*
X107450000Y-46900000D01*
X107600000Y-42300000D02*
X107600000Y-46900000D01*
X107750000Y-42300000D02*
X107750000Y-46900000D01*
X107900000Y-42300000D02*
X107900000Y-46900000D01*
X108050000Y-42300000D02*
X108050000Y-46900000D01*
X108200000Y-42300000D02*
X108200000Y-46900000D01*
X108350000Y-42300000D02*
X108350000Y-46900000D01*
X108500000Y-42300000D02*
X108500000Y-46900000D01*
X108650000Y-42300000D02*
X108650000Y-46850000D01*
X108800000Y-42300000D02*
X108800000Y-46900000D01*
X108950000Y-42300000D02*
X108950000Y-46900000D01*
X109100000Y-42350000D02*
X109100000Y-46900000D01*
X109250000Y-42450000D02*
X109250000Y-47000000D01*
X109400000Y-42550000D02*
X109400000Y-47050000D01*
X109500000Y-42700000D02*
X109500000Y-47100000D01*
X109600000Y-42950000D02*
X109600000Y-47150000D01*
X109700000Y-43100000D02*
X109700000Y-47250000D01*
X109800000Y-43300000D02*
X109800000Y-47450000D01*
X109900000Y-43450000D02*
X109900000Y-47600000D01*
X110000000Y-43650000D02*
X110000000Y-48100000D01*
X110150000Y-43800000D02*
X110150000Y-48250000D01*
X110300000Y-43950000D02*
X110300000Y-48350000D01*
X110450000Y-44050000D02*
X110450000Y-48450000D01*
X110600000Y-44150000D02*
X110600000Y-48600000D01*
X110750000Y-44250000D02*
X110750000Y-48700000D01*
X110900000Y-44300000D02*
X110900000Y-48850000D01*
X111050000Y-44400000D02*
X111050000Y-48950000D01*
X111200000Y-44450000D02*
X111200000Y-49050000D01*
X111225000Y-49125000D02*
X109950000Y-48100000D01*
X111225000Y-49125000D02*
X113775000Y-49125000D01*
X111350000Y-44450000D02*
X111350000Y-49100000D01*
X111500000Y-44450000D02*
X111500000Y-49100000D01*
X111650000Y-44500000D02*
X111650000Y-49050000D01*
X111800000Y-44475000D02*
X113775000Y-44475000D01*
X111800000Y-44500000D02*
X111800000Y-49100000D01*
X111950000Y-44500000D02*
X111950000Y-49100000D01*
X112100000Y-44500000D02*
X112100000Y-49100000D01*
X112250000Y-44500000D02*
X112250000Y-49100000D01*
X112400000Y-44500000D02*
X112400000Y-49100000D01*
X112550000Y-44500000D02*
X112550000Y-49100000D01*
X112700000Y-44500000D02*
X112700000Y-49100000D01*
X112850000Y-44500000D02*
X112850000Y-49100000D01*
X113000000Y-44500000D02*
X113000000Y-49100000D01*
X113150000Y-44500000D02*
X113150000Y-49100000D01*
X113300000Y-44500000D02*
X113300000Y-49100000D01*
X113450000Y-44500000D02*
X113450000Y-49100000D01*
X113600000Y-44500000D02*
X113600000Y-49100000D01*
X113750000Y-44500000D02*
X113750000Y-49100000D01*
X113900000Y-44650000D02*
X113900000Y-49000000D01*
X114050000Y-44750000D02*
X114050000Y-48850000D01*
X114200000Y-44900000D02*
X114200000Y-48700000D01*
X114350000Y-45050000D02*
X114350000Y-48550000D01*
X114500000Y-45250000D02*
X114500000Y-48400000D01*
X114650000Y-45350000D02*
X114650000Y-48250000D01*
X114800000Y-45500000D02*
X113775000Y-44475000D01*
X114800000Y-48100000D02*
X113775000Y-49125000D01*
X114800000Y-48100000D02*
X114800000Y-45500000D01*
X105200000Y-43275000D02*
G75*
G02*
X106200000Y-42275000I1000000J0D01*
G01*
X106200000Y-46925000D02*
G75*
G02*
X105200000Y-45925000I0J1000000D01*
G01*
X108775000Y-46925000D02*
G75*
G02*
X109950000Y-48100000I-2J-1175002D01*
G01*
X108800995Y-42276209D02*
G75*
G02*
X109662199Y-42978096I-38796J-926887D01*
G01*
X111800000Y-44475000D02*
G75*
G02*
X109662199Y-42978096I1J2275002D01*
G01*
%TO.C,SW14*%
X122200000Y-45925000D02*
X122200000Y-43275000D01*
X122350000Y-42850000D02*
X122350000Y-46400000D01*
X122450000Y-42700000D02*
X122450000Y-46450000D01*
X122550000Y-42600000D02*
X122550000Y-46550000D01*
X122650000Y-42500000D02*
X122650000Y-46700000D01*
X122800000Y-42400000D02*
X122800000Y-46800000D01*
X122950000Y-42350000D02*
X122950000Y-46850000D01*
X123100000Y-42300000D02*
X123100000Y-46850000D01*
X123200000Y-42275000D02*
X125800000Y-42275000D01*
X123200000Y-46925000D02*
X125775000Y-46925000D01*
X123250000Y-42300000D02*
X123250000Y-46900000D01*
X123400000Y-42300000D02*
X123400000Y-46900000D01*
X123550000Y-42300000D02*
X123550000Y-46900000D01*
X123700000Y-42300000D02*
X123700000Y-46900000D01*
X123850000Y-42300000D02*
X123850000Y-46900000D01*
X124000000Y-42300000D02*
X124000000Y-46900000D01*
X124150000Y-42300000D02*
X124150000Y-46900000D01*
X124300000Y-42300000D02*
X124300000Y-46900000D01*
X124450000Y-42300000D02*
X124450000Y-46900000D01*
X124600000Y-42300000D02*
X124600000Y-46900000D01*
X124750000Y-42300000D02*
X124750000Y-46900000D01*
X124900000Y-42300000D02*
X124900000Y-46900000D01*
X125050000Y-42300000D02*
X125050000Y-46900000D01*
X125200000Y-42300000D02*
X125200000Y-46900000D01*
X125350000Y-42300000D02*
X125350000Y-46900000D01*
X125500000Y-42300000D02*
X125500000Y-46900000D01*
X125650000Y-42300000D02*
X125650000Y-46850000D01*
X125800000Y-42300000D02*
X125800000Y-46900000D01*
X125950000Y-42300000D02*
X125950000Y-46900000D01*
X126100000Y-42350000D02*
X126100000Y-46900000D01*
X126250000Y-42450000D02*
X126250000Y-47000000D01*
X126400000Y-42550000D02*
X126400000Y-47050000D01*
X126500000Y-42700000D02*
X126500000Y-47100000D01*
X126600000Y-42950000D02*
X126600000Y-47150000D01*
X126700000Y-43100000D02*
X126700000Y-47250000D01*
X126800000Y-43300000D02*
X126800000Y-47450000D01*
X126900000Y-43450000D02*
X126900000Y-47600000D01*
X127000000Y-43650000D02*
X127000000Y-48100000D01*
X127150000Y-43800000D02*
X127150000Y-48250000D01*
X127300000Y-43950000D02*
X127300000Y-48350000D01*
X127450000Y-44050000D02*
X127450000Y-48450000D01*
X127600000Y-44150000D02*
X127600000Y-48600000D01*
X127750000Y-44250000D02*
X127750000Y-48700000D01*
X127900000Y-44300000D02*
X127900000Y-48850000D01*
X128050000Y-44400000D02*
X128050000Y-48950000D01*
X128200000Y-44450000D02*
X128200000Y-49050000D01*
X128225000Y-49125000D02*
X126950000Y-48100000D01*
X128225000Y-49125000D02*
X130775000Y-49125000D01*
X128350000Y-44450000D02*
X128350000Y-49100000D01*
X128500000Y-44450000D02*
X128500000Y-49100000D01*
X128650000Y-44500000D02*
X128650000Y-49050000D01*
X128800000Y-44475000D02*
X130775000Y-44475000D01*
X128800000Y-44500000D02*
X128800000Y-49100000D01*
X128950000Y-44500000D02*
X128950000Y-49100000D01*
X129100000Y-44500000D02*
X129100000Y-49100000D01*
X129250000Y-44500000D02*
X129250000Y-49100000D01*
X129400000Y-44500000D02*
X129400000Y-49100000D01*
X129550000Y-44500000D02*
X129550000Y-49100000D01*
X129700000Y-44500000D02*
X129700000Y-49100000D01*
X129850000Y-44500000D02*
X129850000Y-49100000D01*
X130000000Y-44500000D02*
X130000000Y-49100000D01*
X130150000Y-44500000D02*
X130150000Y-49100000D01*
X130300000Y-44500000D02*
X130300000Y-49100000D01*
X130450000Y-44500000D02*
X130450000Y-49100000D01*
X130600000Y-44500000D02*
X130600000Y-49100000D01*
X130750000Y-44500000D02*
X130750000Y-49100000D01*
X130900000Y-44650000D02*
X130900000Y-49000000D01*
X131050000Y-44750000D02*
X131050000Y-48850000D01*
X131200000Y-44900000D02*
X131200000Y-48700000D01*
X131350000Y-45050000D02*
X131350000Y-48550000D01*
X131500000Y-45250000D02*
X131500000Y-48400000D01*
X131650000Y-45350000D02*
X131650000Y-48250000D01*
X131800000Y-45500000D02*
X130775000Y-44475000D01*
X131800000Y-48100000D02*
X130775000Y-49125000D01*
X131800000Y-48100000D02*
X131800000Y-45500000D01*
X122200000Y-43275000D02*
G75*
G02*
X123200000Y-42275000I1000000J0D01*
G01*
X123200000Y-46925000D02*
G75*
G02*
X122200000Y-45925000I0J1000000D01*
G01*
X125775000Y-46925000D02*
G75*
G02*
X126950000Y-48100000I-2J-1175002D01*
G01*
X125800995Y-42276209D02*
G75*
G02*
X126662199Y-42978096I-38796J-926887D01*
G01*
X128800000Y-44475000D02*
G75*
G02*
X126662199Y-42978096I1J2275002D01*
G01*
%TO.C,SW8*%
X88200000Y-79925000D02*
X88200000Y-77275000D01*
X88350000Y-76850000D02*
X88350000Y-80400000D01*
X88450000Y-76700000D02*
X88450000Y-80450000D01*
X88550000Y-76600000D02*
X88550000Y-80550000D01*
X88650000Y-76500000D02*
X88650000Y-80700000D01*
X88800000Y-76400000D02*
X88800000Y-80800000D01*
X88950000Y-76350000D02*
X88950000Y-80850000D01*
X89100000Y-76300000D02*
X89100000Y-80850000D01*
X89200000Y-76275000D02*
X91800000Y-76275000D01*
X89200000Y-80925000D02*
X91775000Y-80925000D01*
X89250000Y-76300000D02*
X89250000Y-80900000D01*
X89400000Y-76300000D02*
X89400000Y-80900000D01*
X89550000Y-76300000D02*
X89550000Y-80900000D01*
X89700000Y-76300000D02*
X89700000Y-80900000D01*
X89850000Y-76300000D02*
X89850000Y-80900000D01*
X90000000Y-76300000D02*
X90000000Y-80900000D01*
X90150000Y-76300000D02*
X90150000Y-80900000D01*
X90300000Y-76300000D02*
X90300000Y-80900000D01*
X90450000Y-76300000D02*
X90450000Y-80900000D01*
X90600000Y-76300000D02*
X90600000Y-80900000D01*
X90750000Y-76300000D02*
X90750000Y-80900000D01*
X90900000Y-76300000D02*
X90900000Y-80900000D01*
X91050000Y-76300000D02*
X91050000Y-80900000D01*
X91200000Y-76300000D02*
X91200000Y-80900000D01*
X91350000Y-76300000D02*
X91350000Y-80900000D01*
X91500000Y-76300000D02*
X91500000Y-80900000D01*
X91650000Y-76300000D02*
X91650000Y-80850000D01*
X91800000Y-76300000D02*
X91800000Y-80900000D01*
X91950000Y-76300000D02*
X91950000Y-80900000D01*
X92100000Y-76350000D02*
X92100000Y-80900000D01*
X92250000Y-76450000D02*
X92250000Y-81000000D01*
X92400000Y-76550000D02*
X92400000Y-81050000D01*
X92500000Y-76700000D02*
X92500000Y-81100000D01*
X92600000Y-76950000D02*
X92600000Y-81150000D01*
X92700000Y-77100000D02*
X92700000Y-81250000D01*
X92800000Y-77300000D02*
X92800000Y-81450000D01*
X92900000Y-77450000D02*
X92900000Y-81600000D01*
X93000000Y-77650000D02*
X93000000Y-82100000D01*
X93150000Y-77800000D02*
X93150000Y-82250000D01*
X93300000Y-77950000D02*
X93300000Y-82350000D01*
X93450000Y-78050000D02*
X93450000Y-82450000D01*
X93600000Y-78150000D02*
X93600000Y-82600000D01*
X93750000Y-78250000D02*
X93750000Y-82700000D01*
X93900000Y-78300000D02*
X93900000Y-82850000D01*
X94050000Y-78400000D02*
X94050000Y-82950000D01*
X94200000Y-78450000D02*
X94200000Y-83050000D01*
X94225000Y-83125000D02*
X92950000Y-82100000D01*
X94225000Y-83125000D02*
X96775000Y-83125000D01*
X94350000Y-78450000D02*
X94350000Y-83100000D01*
X94500000Y-78450000D02*
X94500000Y-83100000D01*
X94650000Y-78500000D02*
X94650000Y-83050000D01*
X94800000Y-78475000D02*
X96775000Y-78475000D01*
X94800000Y-78500000D02*
X94800000Y-83100000D01*
X94950000Y-78500000D02*
X94950000Y-83100000D01*
X95100000Y-78500000D02*
X95100000Y-83100000D01*
X95250000Y-78500000D02*
X95250000Y-83100000D01*
X95400000Y-78500000D02*
X95400000Y-83100000D01*
X95550000Y-78500000D02*
X95550000Y-83100000D01*
X95700000Y-78500000D02*
X95700000Y-83100000D01*
X95850000Y-78500000D02*
X95850000Y-83100000D01*
X96000000Y-78500000D02*
X96000000Y-83100000D01*
X96150000Y-78500000D02*
X96150000Y-83100000D01*
X96300000Y-78500000D02*
X96300000Y-83100000D01*
X96450000Y-78500000D02*
X96450000Y-83100000D01*
X96600000Y-78500000D02*
X96600000Y-83100000D01*
X96750000Y-78500000D02*
X96750000Y-83100000D01*
X96900000Y-78650000D02*
X96900000Y-83000000D01*
X97050000Y-78750000D02*
X97050000Y-82850000D01*
X97200000Y-78900000D02*
X97200000Y-82700000D01*
X97350000Y-79050000D02*
X97350000Y-82550000D01*
X97500000Y-79250000D02*
X97500000Y-82400000D01*
X97650000Y-79350000D02*
X97650000Y-82250000D01*
X97800000Y-79500000D02*
X96775000Y-78475000D01*
X97800000Y-82100000D02*
X96775000Y-83125000D01*
X97800000Y-82100000D02*
X97800000Y-79500000D01*
X88200000Y-77275000D02*
G75*
G02*
X89200000Y-76275000I1000000J0D01*
G01*
X89200000Y-80925000D02*
G75*
G02*
X88200000Y-79925000I0J1000000D01*
G01*
X91775000Y-80925000D02*
G75*
G02*
X92950000Y-82100000I-2J-1175002D01*
G01*
X91800995Y-76276209D02*
G75*
G02*
X92662199Y-76978096I-38796J-926887D01*
G01*
X94800000Y-78475000D02*
G75*
G02*
X92662199Y-76978096I1J2275002D01*
G01*
D12*
%TO.C,D15*%
X123854678Y-71404686D02*
X123854678Y-72595314D01*
X123854678Y-72000000D02*
X123656240Y-72000000D01*
X123854678Y-72595314D02*
X125442182Y-72595314D01*
X125045306Y-71404686D02*
X125045306Y-72595314D01*
X125442182Y-71404686D02*
X123854678Y-71404686D01*
X125442182Y-72595314D02*
X125442182Y-71404686D01*
X125640620Y-72000000D02*
X125442182Y-72000000D01*
%TO.C,D8*%
X89854678Y-88404686D02*
X89854678Y-89595314D01*
X89854678Y-89000000D02*
X89656240Y-89000000D01*
X89854678Y-89595314D02*
X91442182Y-89595314D01*
X91045306Y-88404686D02*
X91045306Y-89595314D01*
X91442182Y-88404686D02*
X89854678Y-88404686D01*
X91442182Y-89595314D02*
X91442182Y-88404686D01*
X91640620Y-89000000D02*
X91442182Y-89000000D01*
%TO.C,D13*%
X123854678Y-37404686D02*
X123854678Y-38595314D01*
X123854678Y-38000000D02*
X123656240Y-38000000D01*
X123854678Y-38595314D02*
X125442182Y-38595314D01*
X125045306Y-37404686D02*
X125045306Y-38595314D01*
X125442182Y-37404686D02*
X123854678Y-37404686D01*
X125442182Y-38595314D02*
X125442182Y-37404686D01*
X125640620Y-38000000D02*
X125442182Y-38000000D01*
D11*
%TO.C,SW9*%
X105200000Y-28925000D02*
X105200000Y-26275000D01*
X105350000Y-25850000D02*
X105350000Y-29400000D01*
X105450000Y-25700000D02*
X105450000Y-29450000D01*
X105550000Y-25600000D02*
X105550000Y-29550000D01*
X105650000Y-25500000D02*
X105650000Y-29700000D01*
X105800000Y-25400000D02*
X105800000Y-29800000D01*
X105950000Y-25350000D02*
X105950000Y-29850000D01*
X106100000Y-25300000D02*
X106100000Y-29850000D01*
X106200000Y-25275000D02*
X108800000Y-25275000D01*
X106200000Y-29925000D02*
X108775000Y-29925000D01*
X106250000Y-25300000D02*
X106250000Y-29900000D01*
X106400000Y-25300000D02*
X106400000Y-29900000D01*
X106550000Y-25300000D02*
X106550000Y-29900000D01*
X106700000Y-25300000D02*
X106700000Y-29900000D01*
X106850000Y-25300000D02*
X106850000Y-29900000D01*
X107000000Y-25300000D02*
X107000000Y-29900000D01*
X107150000Y-25300000D02*
X107150000Y-29900000D01*
X107300000Y-25300000D02*
X107300000Y-29900000D01*
X107450000Y-25300000D02*
X107450000Y-29900000D01*
X107600000Y-25300000D02*
X107600000Y-29900000D01*
X107750000Y-25300000D02*
X107750000Y-29900000D01*
X107900000Y-25300000D02*
X107900000Y-29900000D01*
X108050000Y-25300000D02*
X108050000Y-29900000D01*
X108200000Y-25300000D02*
X108200000Y-29900000D01*
X108350000Y-25300000D02*
X108350000Y-29900000D01*
X108500000Y-25300000D02*
X108500000Y-29900000D01*
X108650000Y-25300000D02*
X108650000Y-29850000D01*
X108800000Y-25300000D02*
X108800000Y-29900000D01*
X108950000Y-25300000D02*
X108950000Y-29900000D01*
X109100000Y-25350000D02*
X109100000Y-29900000D01*
X109250000Y-25450000D02*
X109250000Y-30000000D01*
X109400000Y-25550000D02*
X109400000Y-30050000D01*
X109500000Y-25700000D02*
X109500000Y-30100000D01*
X109600000Y-25950000D02*
X109600000Y-30150000D01*
X109700000Y-26100000D02*
X109700000Y-30250000D01*
X109800000Y-26300000D02*
X109800000Y-30450000D01*
X109900000Y-26450000D02*
X109900000Y-30600000D01*
X110000000Y-26650000D02*
X110000000Y-31100000D01*
X110150000Y-26800000D02*
X110150000Y-31250000D01*
X110300000Y-26950000D02*
X110300000Y-31350000D01*
X110450000Y-27050000D02*
X110450000Y-31450000D01*
X110600000Y-27150000D02*
X110600000Y-31600000D01*
X110750000Y-27250000D02*
X110750000Y-31700000D01*
X110900000Y-27300000D02*
X110900000Y-31850000D01*
X111050000Y-27400000D02*
X111050000Y-31950000D01*
X111200000Y-27450000D02*
X111200000Y-32050000D01*
X111225000Y-32125000D02*
X109950000Y-31100000D01*
X111225000Y-32125000D02*
X113775000Y-32125000D01*
X111350000Y-27450000D02*
X111350000Y-32100000D01*
X111500000Y-27450000D02*
X111500000Y-32100000D01*
X111650000Y-27500000D02*
X111650000Y-32050000D01*
X111800000Y-27475000D02*
X113775000Y-27475000D01*
X111800000Y-27500000D02*
X111800000Y-32100000D01*
X111950000Y-27500000D02*
X111950000Y-32100000D01*
X112100000Y-27500000D02*
X112100000Y-32100000D01*
X112250000Y-27500000D02*
X112250000Y-32100000D01*
X112400000Y-27500000D02*
X112400000Y-32100000D01*
X112550000Y-27500000D02*
X112550000Y-32100000D01*
X112700000Y-27500000D02*
X112700000Y-32100000D01*
X112850000Y-27500000D02*
X112850000Y-32100000D01*
X113000000Y-27500000D02*
X113000000Y-32100000D01*
X113150000Y-27500000D02*
X113150000Y-32100000D01*
X113300000Y-27500000D02*
X113300000Y-32100000D01*
X113450000Y-27500000D02*
X113450000Y-32100000D01*
X113600000Y-27500000D02*
X113600000Y-32100000D01*
X113750000Y-27500000D02*
X113750000Y-32100000D01*
X113900000Y-27650000D02*
X113900000Y-32000000D01*
X114050000Y-27750000D02*
X114050000Y-31850000D01*
X114200000Y-27900000D02*
X114200000Y-31700000D01*
X114350000Y-28050000D02*
X114350000Y-31550000D01*
X114500000Y-28250000D02*
X114500000Y-31400000D01*
X114650000Y-28350000D02*
X114650000Y-31250000D01*
X114800000Y-28500000D02*
X113775000Y-27475000D01*
X114800000Y-31100000D02*
X113775000Y-32125000D01*
X114800000Y-31100000D02*
X114800000Y-28500000D01*
X105200000Y-26275000D02*
G75*
G02*
X106200000Y-25275000I1000000J0D01*
G01*
X106200000Y-29925000D02*
G75*
G02*
X105200000Y-28925000I0J1000000D01*
G01*
X108775000Y-29925000D02*
G75*
G02*
X109950000Y-31100000I-2J-1175002D01*
G01*
X108800995Y-25276209D02*
G75*
G02*
X109662199Y-25978096I-38796J-926887D01*
G01*
X111800000Y-27475000D02*
G75*
G02*
X109662199Y-25978096I1J2275002D01*
G01*
%TO.C,SW11*%
X105180000Y-62925000D02*
X105180000Y-60275000D01*
X105330000Y-59850000D02*
X105330000Y-63400000D01*
X105430000Y-59700000D02*
X105430000Y-63450000D01*
X105530000Y-59600000D02*
X105530000Y-63550000D01*
X105630000Y-59500000D02*
X105630000Y-63700000D01*
X105780000Y-59400000D02*
X105780000Y-63800000D01*
X105930000Y-59350000D02*
X105930000Y-63850000D01*
X106080000Y-59300000D02*
X106080000Y-63850000D01*
X106180000Y-59275000D02*
X108780000Y-59275000D01*
X106180000Y-63925000D02*
X108755000Y-63925000D01*
X106230000Y-59300000D02*
X106230000Y-63900000D01*
X106380000Y-59300000D02*
X106380000Y-63900000D01*
X106530000Y-59300000D02*
X106530000Y-63900000D01*
X106680000Y-59300000D02*
X106680000Y-63900000D01*
X106830000Y-59300000D02*
X106830000Y-63900000D01*
X106980000Y-59300000D02*
X106980000Y-63900000D01*
X107130000Y-59300000D02*
X107130000Y-63900000D01*
X107280000Y-59300000D02*
X107280000Y-63900000D01*
X107430000Y-59300000D02*
X107430000Y-63900000D01*
X107580000Y-59300000D02*
X107580000Y-63900000D01*
X107730000Y-59300000D02*
X107730000Y-63900000D01*
X107880000Y-59300000D02*
X107880000Y-63900000D01*
X108030000Y-59300000D02*
X108030000Y-63900000D01*
X108180000Y-59300000D02*
X108180000Y-63900000D01*
X108330000Y-59300000D02*
X108330000Y-63900000D01*
X108480000Y-59300000D02*
X108480000Y-63900000D01*
X108630000Y-59300000D02*
X108630000Y-63850000D01*
X108780000Y-59300000D02*
X108780000Y-63900000D01*
X108930000Y-59300000D02*
X108930000Y-63900000D01*
X109080000Y-59350000D02*
X109080000Y-63900000D01*
X109230000Y-59450000D02*
X109230000Y-64000000D01*
X109380000Y-59550000D02*
X109380000Y-64050000D01*
X109480000Y-59700000D02*
X109480000Y-64100000D01*
X109580000Y-59950000D02*
X109580000Y-64150000D01*
X109680000Y-60100000D02*
X109680000Y-64250000D01*
X109780000Y-60300000D02*
X109780000Y-64450000D01*
X109880000Y-60450000D02*
X109880000Y-64600000D01*
X109980000Y-60650000D02*
X109980000Y-65100000D01*
X110130000Y-60800000D02*
X110130000Y-65250000D01*
X110280000Y-60950000D02*
X110280000Y-65350000D01*
X110430000Y-61050000D02*
X110430000Y-65450000D01*
X110580000Y-61150000D02*
X110580000Y-65600000D01*
X110730000Y-61250000D02*
X110730000Y-65700000D01*
X110880000Y-61300000D02*
X110880000Y-65850000D01*
X111030000Y-61400000D02*
X111030000Y-65950000D01*
X111180000Y-61450000D02*
X111180000Y-66050000D01*
X111205000Y-66125000D02*
X109930000Y-65100000D01*
X111205000Y-66125000D02*
X113755000Y-66125000D01*
X111330000Y-61450000D02*
X111330000Y-66100000D01*
X111480000Y-61450000D02*
X111480000Y-66100000D01*
X111630000Y-61500000D02*
X111630000Y-66050000D01*
X111780000Y-61475000D02*
X113755000Y-61475000D01*
X111780000Y-61500000D02*
X111780000Y-66100000D01*
X111930000Y-61500000D02*
X111930000Y-66100000D01*
X112080000Y-61500000D02*
X112080000Y-66100000D01*
X112230000Y-61500000D02*
X112230000Y-66100000D01*
X112380000Y-61500000D02*
X112380000Y-66100000D01*
X112530000Y-61500000D02*
X112530000Y-66100000D01*
X112680000Y-61500000D02*
X112680000Y-66100000D01*
X112830000Y-61500000D02*
X112830000Y-66100000D01*
X112980000Y-61500000D02*
X112980000Y-66100000D01*
X113130000Y-61500000D02*
X113130000Y-66100000D01*
X113280000Y-61500000D02*
X113280000Y-66100000D01*
X113430000Y-61500000D02*
X113430000Y-66100000D01*
X113580000Y-61500000D02*
X113580000Y-66100000D01*
X113730000Y-61500000D02*
X113730000Y-66100000D01*
X113880000Y-61650000D02*
X113880000Y-66000000D01*
X114030000Y-61750000D02*
X114030000Y-65850000D01*
X114180000Y-61900000D02*
X114180000Y-65700000D01*
X114330000Y-62050000D02*
X114330000Y-65550000D01*
X114480000Y-62250000D02*
X114480000Y-65400000D01*
X114630000Y-62350000D02*
X114630000Y-65250000D01*
X114780000Y-62500000D02*
X113755000Y-61475000D01*
X114780000Y-65100000D02*
X113755000Y-66125000D01*
X114780000Y-65100000D02*
X114780000Y-62500000D01*
X105180000Y-60275000D02*
G75*
G02*
X106180000Y-59275000I1000000J0D01*
G01*
X106180000Y-63925000D02*
G75*
G02*
X105180000Y-62925000I0J1000000D01*
G01*
X108755000Y-63925000D02*
G75*
G02*
X109930000Y-65100000I-2J-1175002D01*
G01*
X108780995Y-59276209D02*
G75*
G02*
X109642199Y-59978096I-38796J-926887D01*
G01*
X111780000Y-61475000D02*
G75*
G02*
X109642199Y-59978096I1J2275002D01*
G01*
%TO.C,SW7*%
X88200000Y-62925000D02*
X88200000Y-60275000D01*
X88350000Y-59850000D02*
X88350000Y-63400000D01*
X88450000Y-59700000D02*
X88450000Y-63450000D01*
X88550000Y-59600000D02*
X88550000Y-63550000D01*
X88650000Y-59500000D02*
X88650000Y-63700000D01*
X88800000Y-59400000D02*
X88800000Y-63800000D01*
X88950000Y-59350000D02*
X88950000Y-63850000D01*
X89100000Y-59300000D02*
X89100000Y-63850000D01*
X89200000Y-59275000D02*
X91800000Y-59275000D01*
X89200000Y-63925000D02*
X91775000Y-63925000D01*
X89250000Y-59300000D02*
X89250000Y-63900000D01*
X89400000Y-59300000D02*
X89400000Y-63900000D01*
X89550000Y-59300000D02*
X89550000Y-63900000D01*
X89700000Y-59300000D02*
X89700000Y-63900000D01*
X89850000Y-59300000D02*
X89850000Y-63900000D01*
X90000000Y-59300000D02*
X90000000Y-63900000D01*
X90150000Y-59300000D02*
X90150000Y-63900000D01*
X90300000Y-59300000D02*
X90300000Y-63900000D01*
X90450000Y-59300000D02*
X90450000Y-63900000D01*
X90600000Y-59300000D02*
X90600000Y-63900000D01*
X90750000Y-59300000D02*
X90750000Y-63900000D01*
X90900000Y-59300000D02*
X90900000Y-63900000D01*
X91050000Y-59300000D02*
X91050000Y-63900000D01*
X91200000Y-59300000D02*
X91200000Y-63900000D01*
X91350000Y-59300000D02*
X91350000Y-63900000D01*
X91500000Y-59300000D02*
X91500000Y-63900000D01*
X91650000Y-59300000D02*
X91650000Y-63850000D01*
X91800000Y-59300000D02*
X91800000Y-63900000D01*
X91950000Y-59300000D02*
X91950000Y-63900000D01*
X92100000Y-59350000D02*
X92100000Y-63900000D01*
X92250000Y-59450000D02*
X92250000Y-64000000D01*
X92400000Y-59550000D02*
X92400000Y-64050000D01*
X92500000Y-59700000D02*
X92500000Y-64100000D01*
X92600000Y-59950000D02*
X92600000Y-64150000D01*
X92700000Y-60100000D02*
X92700000Y-64250000D01*
X92800000Y-60300000D02*
X92800000Y-64450000D01*
X92900000Y-60450000D02*
X92900000Y-64600000D01*
X93000000Y-60650000D02*
X93000000Y-65100000D01*
X93150000Y-60800000D02*
X93150000Y-65250000D01*
X93300000Y-60950000D02*
X93300000Y-65350000D01*
X93450000Y-61050000D02*
X93450000Y-65450000D01*
X93600000Y-61150000D02*
X93600000Y-65600000D01*
X93750000Y-61250000D02*
X93750000Y-65700000D01*
X93900000Y-61300000D02*
X93900000Y-65850000D01*
X94050000Y-61400000D02*
X94050000Y-65950000D01*
X94200000Y-61450000D02*
X94200000Y-66050000D01*
X94225000Y-66125000D02*
X92950000Y-65100000D01*
X94225000Y-66125000D02*
X96775000Y-66125000D01*
X94350000Y-61450000D02*
X94350000Y-66100000D01*
X94500000Y-61450000D02*
X94500000Y-66100000D01*
X94650000Y-61500000D02*
X94650000Y-66050000D01*
X94800000Y-61475000D02*
X96775000Y-61475000D01*
X94800000Y-61500000D02*
X94800000Y-66100000D01*
X94950000Y-61500000D02*
X94950000Y-66100000D01*
X95100000Y-61500000D02*
X95100000Y-66100000D01*
X95250000Y-61500000D02*
X95250000Y-66100000D01*
X95400000Y-61500000D02*
X95400000Y-66100000D01*
X95550000Y-61500000D02*
X95550000Y-66100000D01*
X95700000Y-61500000D02*
X95700000Y-66100000D01*
X95850000Y-61500000D02*
X95850000Y-66100000D01*
X96000000Y-61500000D02*
X96000000Y-66100000D01*
X96150000Y-61500000D02*
X96150000Y-66100000D01*
X96300000Y-61500000D02*
X96300000Y-66100000D01*
X96450000Y-61500000D02*
X96450000Y-66100000D01*
X96600000Y-61500000D02*
X96600000Y-66100000D01*
X96750000Y-61500000D02*
X96750000Y-66100000D01*
X96900000Y-61650000D02*
X96900000Y-66000000D01*
X97050000Y-61750000D02*
X97050000Y-65850000D01*
X97200000Y-61900000D02*
X97200000Y-65700000D01*
X97350000Y-62050000D02*
X97350000Y-65550000D01*
X97500000Y-62250000D02*
X97500000Y-65400000D01*
X97650000Y-62350000D02*
X97650000Y-65250000D01*
X97800000Y-62500000D02*
X96775000Y-61475000D01*
X97800000Y-65100000D02*
X96775000Y-66125000D01*
X97800000Y-65100000D02*
X97800000Y-62500000D01*
X88200000Y-60275000D02*
G75*
G02*
X89200000Y-59275000I1000000J0D01*
G01*
X89200000Y-63925000D02*
G75*
G02*
X88200000Y-62925000I0J1000000D01*
G01*
X91775000Y-63925000D02*
G75*
G02*
X92950000Y-65100000I-2J-1175002D01*
G01*
X91800995Y-59276209D02*
G75*
G02*
X92662199Y-59978096I-38796J-926887D01*
G01*
X94800000Y-61475000D02*
G75*
G02*
X92662199Y-59978096I1J2275002D01*
G01*
D12*
%TO.C,D5*%
X89854678Y-37404686D02*
X89854678Y-38595314D01*
X89854678Y-38000000D02*
X89656240Y-38000000D01*
X89854678Y-38595314D02*
X91442182Y-38595314D01*
X91045306Y-37404686D02*
X91045306Y-38595314D01*
X91442182Y-37404686D02*
X89854678Y-37404686D01*
X91442182Y-38595314D02*
X91442182Y-37404686D01*
X91640620Y-38000000D02*
X91442182Y-38000000D01*
%TO.C,D1*%
X72381215Y-37404686D02*
X72381215Y-38595314D01*
X72381215Y-38000000D02*
X72182777Y-38000000D01*
X72381215Y-38595314D02*
X73968719Y-38595314D01*
X73571843Y-37404686D02*
X73571843Y-38595314D01*
X73968719Y-37404686D02*
X72381215Y-37404686D01*
X73968719Y-38595314D02*
X73968719Y-37404686D01*
X74167157Y-38000000D02*
X73968719Y-38000000D01*
D11*
%TO.C,SW1*%
X71200000Y-28925000D02*
X71200000Y-26275000D01*
X71350000Y-25850000D02*
X71350000Y-29400000D01*
X71450000Y-25700000D02*
X71450000Y-29450000D01*
X71550000Y-25600000D02*
X71550000Y-29550000D01*
X71650000Y-25500000D02*
X71650000Y-29700000D01*
X71800000Y-25400000D02*
X71800000Y-29800000D01*
X71950000Y-25350000D02*
X71950000Y-29850000D01*
X72100000Y-25300000D02*
X72100000Y-29850000D01*
X72200000Y-25275000D02*
X74800000Y-25275000D01*
X72200000Y-29925000D02*
X74775000Y-29925000D01*
X72250000Y-25300000D02*
X72250000Y-29900000D01*
X72400000Y-25300000D02*
X72400000Y-29900000D01*
X72550000Y-25300000D02*
X72550000Y-29900000D01*
X72700000Y-25300000D02*
X72700000Y-29900000D01*
X72850000Y-25300000D02*
X72850000Y-29900000D01*
X73000000Y-25300000D02*
X73000000Y-29900000D01*
X73150000Y-25300000D02*
X73150000Y-29900000D01*
X73300000Y-25300000D02*
X73300000Y-29900000D01*
X73450000Y-25300000D02*
X73450000Y-29900000D01*
X73600000Y-25300000D02*
X73600000Y-29900000D01*
X73750000Y-25300000D02*
X73750000Y-29900000D01*
X73900000Y-25300000D02*
X73900000Y-29900000D01*
X74050000Y-25300000D02*
X74050000Y-29900000D01*
X74200000Y-25300000D02*
X74200000Y-29900000D01*
X74350000Y-25300000D02*
X74350000Y-29900000D01*
X74500000Y-25300000D02*
X74500000Y-29900000D01*
X74650000Y-25300000D02*
X74650000Y-29850000D01*
X74800000Y-25300000D02*
X74800000Y-29900000D01*
X74950000Y-25300000D02*
X74950000Y-29900000D01*
X75100000Y-25350000D02*
X75100000Y-29900000D01*
X75250000Y-25450000D02*
X75250000Y-30000000D01*
X75400000Y-25550000D02*
X75400000Y-30050000D01*
X75500000Y-25700000D02*
X75500000Y-30100000D01*
X75600000Y-25950000D02*
X75600000Y-30150000D01*
X75700000Y-26100000D02*
X75700000Y-30250000D01*
X75800000Y-26300000D02*
X75800000Y-30450000D01*
X75900000Y-26450000D02*
X75900000Y-30600000D01*
X76000000Y-26650000D02*
X76000000Y-31100000D01*
X76150000Y-26800000D02*
X76150000Y-31250000D01*
X76300000Y-26950000D02*
X76300000Y-31350000D01*
X76450000Y-27050000D02*
X76450000Y-31450000D01*
X76600000Y-27150000D02*
X76600000Y-31600000D01*
X76750000Y-27250000D02*
X76750000Y-31700000D01*
X76900000Y-27300000D02*
X76900000Y-31850000D01*
X77050000Y-27400000D02*
X77050000Y-31950000D01*
X77200000Y-27450000D02*
X77200000Y-32050000D01*
X77225000Y-32125000D02*
X75950000Y-31100000D01*
X77225000Y-32125000D02*
X79775000Y-32125000D01*
X77350000Y-27450000D02*
X77350000Y-32100000D01*
X77500000Y-27450000D02*
X77500000Y-32100000D01*
X77650000Y-27500000D02*
X77650000Y-32050000D01*
X77800000Y-27475000D02*
X79775000Y-27475000D01*
X77800000Y-27500000D02*
X77800000Y-32100000D01*
X77950000Y-27500000D02*
X77950000Y-32100000D01*
X78100000Y-27500000D02*
X78100000Y-32100000D01*
X78250000Y-27500000D02*
X78250000Y-32100000D01*
X78400000Y-27500000D02*
X78400000Y-32100000D01*
X78550000Y-27500000D02*
X78550000Y-32100000D01*
X78700000Y-27500000D02*
X78700000Y-32100000D01*
X78850000Y-27500000D02*
X78850000Y-32100000D01*
X79000000Y-27500000D02*
X79000000Y-32100000D01*
X79150000Y-27500000D02*
X79150000Y-32100000D01*
X79300000Y-27500000D02*
X79300000Y-32100000D01*
X79450000Y-27500000D02*
X79450000Y-32100000D01*
X79600000Y-27500000D02*
X79600000Y-32100000D01*
X79750000Y-27500000D02*
X79750000Y-32100000D01*
X79900000Y-27650000D02*
X79900000Y-32000000D01*
X80050000Y-27750000D02*
X80050000Y-31850000D01*
X80200000Y-27900000D02*
X80200000Y-31700000D01*
X80350000Y-28050000D02*
X80350000Y-31550000D01*
X80500000Y-28250000D02*
X80500000Y-31400000D01*
X80650000Y-28350000D02*
X80650000Y-31250000D01*
X80800000Y-28500000D02*
X79775000Y-27475000D01*
X80800000Y-31100000D02*
X79775000Y-32125000D01*
X80800000Y-31100000D02*
X80800000Y-28500000D01*
X71200000Y-26275000D02*
G75*
G02*
X72200000Y-25275000I1000000J0D01*
G01*
X72200000Y-29925000D02*
G75*
G02*
X71200000Y-28925000I0J1000000D01*
G01*
X74775000Y-29925000D02*
G75*
G02*
X75950000Y-31100000I-2J-1175002D01*
G01*
X74800995Y-25276209D02*
G75*
G02*
X75662199Y-25978096I-38796J-926887D01*
G01*
X77800000Y-27475000D02*
G75*
G02*
X75662199Y-25978096I1J2275002D01*
G01*
%TO.C,SW19*%
X139200000Y-62925000D02*
X139200000Y-60275000D01*
X139350000Y-59850000D02*
X139350000Y-63400000D01*
X139450000Y-59700000D02*
X139450000Y-63450000D01*
X139550000Y-59600000D02*
X139550000Y-63550000D01*
X139650000Y-59500000D02*
X139650000Y-63700000D01*
X139800000Y-59400000D02*
X139800000Y-63800000D01*
X139950000Y-59350000D02*
X139950000Y-63850000D01*
X140100000Y-59300000D02*
X140100000Y-63850000D01*
X140200000Y-59275000D02*
X142800000Y-59275000D01*
X140200000Y-63925000D02*
X142775000Y-63925000D01*
X140250000Y-59300000D02*
X140250000Y-63900000D01*
X140400000Y-59300000D02*
X140400000Y-63900000D01*
X140550000Y-59300000D02*
X140550000Y-63900000D01*
X140700000Y-59300000D02*
X140700000Y-63900000D01*
X140850000Y-59300000D02*
X140850000Y-63900000D01*
X141000000Y-59300000D02*
X141000000Y-63900000D01*
X141150000Y-59300000D02*
X141150000Y-63900000D01*
X141300000Y-59300000D02*
X141300000Y-63900000D01*
X141450000Y-59300000D02*
X141450000Y-63900000D01*
X141600000Y-59300000D02*
X141600000Y-63900000D01*
X141750000Y-59300000D02*
X141750000Y-63900000D01*
X141900000Y-59300000D02*
X141900000Y-63900000D01*
X142050000Y-59300000D02*
X142050000Y-63900000D01*
X142200000Y-59300000D02*
X142200000Y-63900000D01*
X142350000Y-59300000D02*
X142350000Y-63900000D01*
X142500000Y-59300000D02*
X142500000Y-63900000D01*
X142650000Y-59300000D02*
X142650000Y-63850000D01*
X142800000Y-59300000D02*
X142800000Y-63900000D01*
X142950000Y-59300000D02*
X142950000Y-63900000D01*
X143100000Y-59350000D02*
X143100000Y-63900000D01*
X143250000Y-59450000D02*
X143250000Y-64000000D01*
X143400000Y-59550000D02*
X143400000Y-64050000D01*
X143500000Y-59700000D02*
X143500000Y-64100000D01*
X143600000Y-59950000D02*
X143600000Y-64150000D01*
X143700000Y-60100000D02*
X143700000Y-64250000D01*
X143800000Y-60300000D02*
X143800000Y-64450000D01*
X143900000Y-60450000D02*
X143900000Y-64600000D01*
X144000000Y-60650000D02*
X144000000Y-65100000D01*
X144150000Y-60800000D02*
X144150000Y-65250000D01*
X144300000Y-60950000D02*
X144300000Y-65350000D01*
X144450000Y-61050000D02*
X144450000Y-65450000D01*
X144600000Y-61150000D02*
X144600000Y-65600000D01*
X144750000Y-61250000D02*
X144750000Y-65700000D01*
X144900000Y-61300000D02*
X144900000Y-65850000D01*
X145050000Y-61400000D02*
X145050000Y-65950000D01*
X145200000Y-61450000D02*
X145200000Y-66050000D01*
X145225000Y-66125000D02*
X143950000Y-65100000D01*
X145225000Y-66125000D02*
X147775000Y-66125000D01*
X145350000Y-61450000D02*
X145350000Y-66100000D01*
X145500000Y-61450000D02*
X145500000Y-66100000D01*
X145650000Y-61500000D02*
X145650000Y-66050000D01*
X145800000Y-61475000D02*
X147775000Y-61475000D01*
X145800000Y-61500000D02*
X145800000Y-66100000D01*
X145950000Y-61500000D02*
X145950000Y-66100000D01*
X146100000Y-61500000D02*
X146100000Y-66100000D01*
X146250000Y-61500000D02*
X146250000Y-66100000D01*
X146400000Y-61500000D02*
X146400000Y-66100000D01*
X146550000Y-61500000D02*
X146550000Y-66100000D01*
X146700000Y-61500000D02*
X146700000Y-66100000D01*
X146850000Y-61500000D02*
X146850000Y-66100000D01*
X147000000Y-61500000D02*
X147000000Y-66100000D01*
X147150000Y-61500000D02*
X147150000Y-66100000D01*
X147300000Y-61500000D02*
X147300000Y-66100000D01*
X147450000Y-61500000D02*
X147450000Y-66100000D01*
X147600000Y-61500000D02*
X147600000Y-66100000D01*
X147750000Y-61500000D02*
X147750000Y-66100000D01*
X147900000Y-61650000D02*
X147900000Y-66000000D01*
X148050000Y-61750000D02*
X148050000Y-65850000D01*
X148200000Y-61900000D02*
X148200000Y-65700000D01*
X148350000Y-62050000D02*
X148350000Y-65550000D01*
X148500000Y-62250000D02*
X148500000Y-65400000D01*
X148650000Y-62350000D02*
X148650000Y-65250000D01*
X148800000Y-62500000D02*
X147775000Y-61475000D01*
X148800000Y-65100000D02*
X147775000Y-66125000D01*
X148800000Y-65100000D02*
X148800000Y-62500000D01*
X139200000Y-60275000D02*
G75*
G02*
X140200000Y-59275000I1000000J0D01*
G01*
X140200000Y-63925000D02*
G75*
G02*
X139200000Y-62925000I0J1000000D01*
G01*
X142775000Y-63925000D02*
G75*
G02*
X143950000Y-65100000I-2J-1175002D01*
G01*
X142800995Y-59276209D02*
G75*
G02*
X143662199Y-59978096I-38796J-926887D01*
G01*
X145800000Y-61475000D02*
G75*
G02*
X143662199Y-59978096I1J2275002D01*
G01*
D12*
%TO.C,D19*%
X140854678Y-71404686D02*
X140854678Y-72595314D01*
X140854678Y-72000000D02*
X140656240Y-72000000D01*
X140854678Y-72595314D02*
X142442182Y-72595314D01*
X142045306Y-71404686D02*
X142045306Y-72595314D01*
X142442182Y-71404686D02*
X140854678Y-71404686D01*
X142442182Y-72595314D02*
X142442182Y-71404686D01*
X142640620Y-72000000D02*
X142442182Y-72000000D01*
D11*
%TO.C,SW17*%
X139200000Y-28925000D02*
X139200000Y-26275000D01*
X139350000Y-25850000D02*
X139350000Y-29400000D01*
X139450000Y-25700000D02*
X139450000Y-29450000D01*
X139550000Y-25600000D02*
X139550000Y-29550000D01*
X139650000Y-25500000D02*
X139650000Y-29700000D01*
X139800000Y-25400000D02*
X139800000Y-29800000D01*
X139950000Y-25350000D02*
X139950000Y-29850000D01*
X140100000Y-25300000D02*
X140100000Y-29850000D01*
X140200000Y-25275000D02*
X142800000Y-25275000D01*
X140200000Y-29925000D02*
X142775000Y-29925000D01*
X140250000Y-25300000D02*
X140250000Y-29900000D01*
X140400000Y-25300000D02*
X140400000Y-29900000D01*
X140550000Y-25300000D02*
X140550000Y-29900000D01*
X140700000Y-25300000D02*
X140700000Y-29900000D01*
X140850000Y-25300000D02*
X140850000Y-29900000D01*
X141000000Y-25300000D02*
X141000000Y-29900000D01*
X141150000Y-25300000D02*
X141150000Y-29900000D01*
X141300000Y-25300000D02*
X141300000Y-29900000D01*
X141450000Y-25300000D02*
X141450000Y-29900000D01*
X141600000Y-25300000D02*
X141600000Y-29900000D01*
X141750000Y-25300000D02*
X141750000Y-29900000D01*
X141900000Y-25300000D02*
X141900000Y-29900000D01*
X142050000Y-25300000D02*
X142050000Y-29900000D01*
X142200000Y-25300000D02*
X142200000Y-29900000D01*
X142350000Y-25300000D02*
X142350000Y-29900000D01*
X142500000Y-25300000D02*
X142500000Y-29900000D01*
X142650000Y-25300000D02*
X142650000Y-29850000D01*
X142800000Y-25300000D02*
X142800000Y-29900000D01*
X142950000Y-25300000D02*
X142950000Y-29900000D01*
X143100000Y-25350000D02*
X143100000Y-29900000D01*
X143250000Y-25450000D02*
X143250000Y-30000000D01*
X143400000Y-25550000D02*
X143400000Y-30050000D01*
X143500000Y-25700000D02*
X143500000Y-30100000D01*
X143600000Y-25950000D02*
X143600000Y-30150000D01*
X143700000Y-26100000D02*
X143700000Y-30250000D01*
X143800000Y-26300000D02*
X143800000Y-30450000D01*
X143900000Y-26450000D02*
X143900000Y-30600000D01*
X144000000Y-26650000D02*
X144000000Y-31100000D01*
X144150000Y-26800000D02*
X144150000Y-31250000D01*
X144300000Y-26950000D02*
X144300000Y-31350000D01*
X144450000Y-27050000D02*
X144450000Y-31450000D01*
X144600000Y-27150000D02*
X144600000Y-31600000D01*
X144750000Y-27250000D02*
X144750000Y-31700000D01*
X144900000Y-27300000D02*
X144900000Y-31850000D01*
X145050000Y-27400000D02*
X145050000Y-31950000D01*
X145200000Y-27450000D02*
X145200000Y-32050000D01*
X145225000Y-32125000D02*
X143950000Y-31100000D01*
X145225000Y-32125000D02*
X147775000Y-32125000D01*
X145350000Y-27450000D02*
X145350000Y-32100000D01*
X145500000Y-27450000D02*
X145500000Y-32100000D01*
X145650000Y-27500000D02*
X145650000Y-32050000D01*
X145800000Y-27475000D02*
X147775000Y-27475000D01*
X145800000Y-27500000D02*
X145800000Y-32100000D01*
X145950000Y-27500000D02*
X145950000Y-32100000D01*
X146100000Y-27500000D02*
X146100000Y-32100000D01*
X146250000Y-27500000D02*
X146250000Y-32100000D01*
X146400000Y-27500000D02*
X146400000Y-32100000D01*
X146550000Y-27500000D02*
X146550000Y-32100000D01*
X146700000Y-27500000D02*
X146700000Y-32100000D01*
X146850000Y-27500000D02*
X146850000Y-32100000D01*
X147000000Y-27500000D02*
X147000000Y-32100000D01*
X147150000Y-27500000D02*
X147150000Y-32100000D01*
X147300000Y-27500000D02*
X147300000Y-32100000D01*
X147450000Y-27500000D02*
X147450000Y-32100000D01*
X147600000Y-27500000D02*
X147600000Y-32100000D01*
X147750000Y-27500000D02*
X147750000Y-32100000D01*
X147900000Y-27650000D02*
X147900000Y-32000000D01*
X148050000Y-27750000D02*
X148050000Y-31850000D01*
X148200000Y-27900000D02*
X148200000Y-31700000D01*
X148350000Y-28050000D02*
X148350000Y-31550000D01*
X148500000Y-28250000D02*
X148500000Y-31400000D01*
X148650000Y-28350000D02*
X148650000Y-31250000D01*
X148800000Y-28500000D02*
X147775000Y-27475000D01*
X148800000Y-31100000D02*
X147775000Y-32125000D01*
X148800000Y-31100000D02*
X148800000Y-28500000D01*
X139200000Y-26275000D02*
G75*
G02*
X140200000Y-25275000I1000000J0D01*
G01*
X140200000Y-29925000D02*
G75*
G02*
X139200000Y-28925000I0J1000000D01*
G01*
X142775000Y-29925000D02*
G75*
G02*
X143950000Y-31100000I-2J-1175002D01*
G01*
X142800995Y-25276209D02*
G75*
G02*
X143662199Y-25978096I-38796J-926887D01*
G01*
X145800000Y-27475000D02*
G75*
G02*
X143662199Y-25978096I1J2275002D01*
G01*
D12*
%TO.C,D20*%
X140854678Y-88404686D02*
X140854678Y-89595314D01*
X140854678Y-89000000D02*
X140656240Y-89000000D01*
X140854678Y-89595314D02*
X142442182Y-89595314D01*
X142045306Y-88404686D02*
X142045306Y-89595314D01*
X142442182Y-88404686D02*
X140854678Y-88404686D01*
X142442182Y-89595314D02*
X142442182Y-88404686D01*
X142640620Y-89000000D02*
X142442182Y-89000000D01*
D13*
%TO.C,BT1*%
X58890000Y-61785000D02*
X58890000Y-64285000D01*
X58890000Y-64285000D02*
X59940000Y-64285000D01*
X59940000Y-64285000D02*
X59940000Y-65275000D01*
X60060000Y-59815000D02*
X61940000Y-59815000D01*
X63110000Y-61785000D02*
X63110000Y-64285000D01*
X63110000Y-64285000D02*
X62060000Y-64285000D01*
D10*
%TO.C,J2*%
X51600000Y-61450000D02*
X51600000Y-63450000D01*
X52500000Y-61450000D02*
X51600000Y-61450000D01*
X55100000Y-64350000D02*
X55300000Y-63450000D01*
X55300000Y-63450000D02*
X55500000Y-64350000D01*
X55500000Y-61450000D02*
X56400000Y-61450000D01*
X55500000Y-64350000D02*
X55100000Y-64350000D01*
X55800000Y-64350000D02*
X52200000Y-64350000D01*
X56400000Y-61450000D02*
X56400000Y-63450000D01*
%TD*%
%LPC*%
D14*
%TO.C,SW15*%
X129500000Y-63800000D03*
D15*
X124500000Y-67500000D03*
D14*
X124500000Y-61600000D03*
D16*
X132700000Y-63800000D03*
X121100000Y-61600000D03*
%TD*%
D17*
%TO.C,D18*%
X143373438Y-55000000D03*
X139923438Y-55000000D03*
%TD*%
D14*
%TO.C,SW20*%
X146500000Y-80810000D03*
D15*
X141500000Y-84510000D03*
D14*
X141500000Y-78610000D03*
D16*
X149700000Y-80810000D03*
X138100000Y-78610000D03*
%TD*%
D17*
%TO.C,D17*%
X143373438Y-38000000D03*
X139923438Y-38000000D03*
%TD*%
D14*
%TO.C,SW18*%
X146500000Y-46800000D03*
D15*
X141500000Y-50500000D03*
D14*
X141500000Y-44600000D03*
D16*
X149700000Y-46800000D03*
X138100000Y-44600000D03*
%TD*%
D14*
%TO.C,SW5*%
X95500000Y-29800000D03*
D15*
X90500000Y-33500000D03*
D14*
X90500000Y-27600000D03*
D16*
X98700000Y-29800000D03*
X87100000Y-27600000D03*
%TD*%
D17*
%TO.C,D6*%
X92373438Y-55000000D03*
X88923438Y-55000000D03*
%TD*%
%TO.C,D4*%
X75273475Y-89000000D03*
X71823475Y-89000000D03*
%TD*%
%TO.C,D11*%
X109373438Y-72000000D03*
X105923438Y-72000000D03*
%TD*%
%TO.C,D9*%
X109373438Y-38000000D03*
X105923438Y-38000000D03*
%TD*%
%TO.C,D7*%
X92373438Y-72000000D03*
X88923438Y-72000000D03*
%TD*%
D14*
%TO.C,SW16*%
X129500000Y-80800000D03*
D15*
X124500000Y-84500000D03*
D14*
X124500000Y-78600000D03*
D16*
X132700000Y-80800000D03*
X121100000Y-78600000D03*
%TD*%
D17*
%TO.C,D14*%
X126373438Y-55000000D03*
X122923438Y-55000000D03*
%TD*%
%TO.C,D10*%
X109196875Y-55000000D03*
X105746875Y-55000000D03*
%TD*%
D14*
%TO.C,SW2*%
X78500000Y-46800000D03*
D15*
X73500000Y-50500000D03*
D14*
X73500000Y-44600000D03*
D16*
X81700000Y-46800000D03*
X70100000Y-44600000D03*
%TD*%
D17*
%TO.C,D12*%
X109373438Y-89000000D03*
X105923438Y-89000000D03*
%TD*%
D14*
%TO.C,SW12*%
X112500000Y-80800000D03*
D15*
X107500000Y-84500000D03*
D14*
X107500000Y-78600000D03*
D16*
X115700000Y-80800000D03*
X104100000Y-78600000D03*
%TD*%
D14*
%TO.C,SW6*%
X95500000Y-46800000D03*
D15*
X90500000Y-50500000D03*
D14*
X90500000Y-44600000D03*
D16*
X98700000Y-46800000D03*
X87100000Y-44600000D03*
%TD*%
D14*
%TO.C,SW4*%
X78500000Y-80800000D03*
D15*
X73500000Y-84500000D03*
D14*
X73500000Y-78600000D03*
D16*
X81700000Y-80800000D03*
X70100000Y-78600000D03*
%TD*%
D17*
%TO.C,D2*%
X75073475Y-55000000D03*
X71623475Y-55000000D03*
%TD*%
D14*
%TO.C,SW3*%
X78500000Y-63800000D03*
D15*
X73500000Y-67500000D03*
D14*
X73500000Y-61600000D03*
D16*
X81700000Y-63800000D03*
X70100000Y-61600000D03*
%TD*%
D17*
%TO.C,D16*%
X126373438Y-89000000D03*
X122923438Y-89000000D03*
%TD*%
D14*
%TO.C,SW13*%
X129500000Y-29800000D03*
D15*
X124500000Y-33500000D03*
D14*
X124500000Y-27600000D03*
D16*
X132700000Y-29800000D03*
X121100000Y-27600000D03*
%TD*%
D17*
%TO.C,D3*%
X75273475Y-72000000D03*
X71823475Y-72000000D03*
%TD*%
D14*
%TO.C,SW10*%
X112500000Y-46800000D03*
D15*
X107500000Y-50500000D03*
D14*
X107500000Y-44600000D03*
D16*
X115700000Y-46800000D03*
X104100000Y-44600000D03*
%TD*%
D14*
%TO.C,SW14*%
X129500000Y-46800000D03*
D15*
X124500000Y-50500000D03*
D14*
X124500000Y-44600000D03*
D16*
X132700000Y-46800000D03*
X121100000Y-44600000D03*
%TD*%
D14*
%TO.C,SW8*%
X95500000Y-80800000D03*
D15*
X90500000Y-84500000D03*
D14*
X90500000Y-78600000D03*
D16*
X98700000Y-80800000D03*
X87100000Y-78600000D03*
%TD*%
D17*
%TO.C,D15*%
X126373438Y-72000000D03*
X122923438Y-72000000D03*
%TD*%
%TO.C,D8*%
X92373438Y-89000000D03*
X88923438Y-89000000D03*
%TD*%
%TO.C,D13*%
X126373438Y-38000000D03*
X122923438Y-38000000D03*
%TD*%
D14*
%TO.C,SW9*%
X112500000Y-29800000D03*
D15*
X107500000Y-33500000D03*
D14*
X107500000Y-27600000D03*
D16*
X115700000Y-29800000D03*
X104100000Y-27600000D03*
%TD*%
D14*
%TO.C,SW11*%
X112480000Y-63800000D03*
D15*
X107480000Y-67500000D03*
D14*
X107480000Y-61600000D03*
D16*
X115680000Y-63800000D03*
X104080000Y-61600000D03*
%TD*%
D14*
%TO.C,SW7*%
X95500000Y-63800000D03*
D15*
X90500000Y-67500000D03*
D14*
X90500000Y-61600000D03*
D16*
X98700000Y-63800000D03*
X87100000Y-61600000D03*
%TD*%
D17*
%TO.C,D5*%
X92373438Y-38000000D03*
X88923438Y-38000000D03*
%TD*%
%TO.C,D1*%
X74899975Y-38000000D03*
X71449975Y-38000000D03*
%TD*%
D18*
%TO.C,U1*%
X46380000Y-27924000D03*
X46380000Y-30464000D03*
X46380000Y-33004000D03*
X46380000Y-35544000D03*
X46380000Y-38084000D03*
X46380000Y-40624000D03*
X46380000Y-43164000D03*
X62620000Y-43164000D03*
X62620000Y-40624000D03*
X62620000Y-38084000D03*
X62620000Y-35544000D03*
X62620000Y-33004000D03*
X62620000Y-30464000D03*
X62620000Y-27924000D03*
D19*
X58335400Y-44856000D03*
X60215000Y-44856000D03*
X50055000Y-35227000D03*
X50055000Y-33322000D03*
%TD*%
D14*
%TO.C,SW1*%
X78500000Y-29800000D03*
D15*
X73500000Y-33500000D03*
D14*
X73500000Y-27600000D03*
D16*
X81700000Y-29800000D03*
X70100000Y-27600000D03*
%TD*%
D14*
%TO.C,SW19*%
X146500000Y-63800000D03*
D15*
X141500000Y-67500000D03*
D14*
X141500000Y-61600000D03*
D16*
X149700000Y-63800000D03*
X138100000Y-61600000D03*
%TD*%
D17*
%TO.C,D19*%
X143373438Y-72000000D03*
X139923438Y-72000000D03*
%TD*%
D14*
%TO.C,SW17*%
X146500000Y-29800000D03*
D15*
X141500000Y-33500000D03*
D14*
X141500000Y-27600000D03*
D16*
X149700000Y-29800000D03*
X138100000Y-27600000D03*
%TD*%
D17*
%TO.C,D20*%
X143373438Y-89000000D03*
X139923438Y-89000000D03*
%TD*%
D20*
%TO.C,BT1*%
X61500000Y-64500000D03*
X60500000Y-64500000D03*
D21*
X62800000Y-60625000D03*
X59200000Y-60625000D03*
%TD*%
D22*
%TO.C,SW21*%
X46500000Y-59000000D03*
X46500000Y-61500000D03*
X46500000Y-64000000D03*
%TD*%
D23*
%TO.C,J2*%
X55250000Y-61500000D03*
X54750000Y-61500000D03*
X54250000Y-61500000D03*
X53750000Y-61500000D03*
X53250000Y-61500000D03*
X52750000Y-61500000D03*
D24*
X56400000Y-63950000D03*
X51600000Y-63950000D03*
%TD*%
%LPD*%
M02*
