M48
; DRILL file {KiCad 9.0.2} date 2026-04-21T23:19:51+0900
; FORMAT={-:-/ absolute / inch / decimal}
; #@! TF.CreationDate,2026-04-21T23:19:51+09:00
; #@! TF.GenerationSoftware,Kicad,Pcbnew,9.0.2
; #@! TF.FileFunction,Plated,1,2,PTH
FMAT,2
INCH
; #@! TA.AperFunction,Plated,PTH,ViaDrill
T1C0.0118
; #@! TA.AperFunction,Plated,PTH,ComponentDrill
T2C0.0197
; #@! TA.AperFunction,Plated,PTH,ComponentDrill
T3C0.0320
; #@! TA.AperFunction,Plated,PTH,ComponentDrill
T4C0.0394
%
G90
G05
T1
X1.9685Y-2.5197
X2.1063Y-2.2146
X2.2047Y-2.2736
X2.3524Y-1.0138
X2.3917Y-2.2146
X2.5Y-2.2736
X2.5098Y-2.5197
X2.628Y-1.6634
X2.6378Y-1.5748
X2.9429Y-1.5354
X2.9556Y-2.2018
X2.9635Y-2.8829
X3.6367Y-1.5404
X3.6367Y-2.2047
X3.6367Y-2.874
X3.8858Y-1.0413
X4.3012Y-2.2047
X4.306Y-1.5354
X4.306Y-2.879
X4.5551Y-1.5945
X4.9753Y-1.5354
X4.9753Y-2.2047
X4.9753Y-2.874
X5.2244Y-1.6043
X5.6446Y-1.5354
X5.6446Y-2.2047
X5.6446Y-2.879
X5.8937Y-1.624
T3
X1.8457Y-1.0994
X1.8457Y-1.1994
X1.8457Y-1.2994
X1.8457Y-1.3994
X1.8457Y-1.4994
X1.8457Y-1.5994
X1.8457Y-1.6994
X2.4457Y-1.0994
X2.4457Y-1.1994
X2.4457Y-1.2994
X2.4457Y-1.3994
X2.4457Y-1.4994
X2.4457Y-1.5994
X2.4457Y-1.6994
T4
X1.9707Y-1.3119
X1.9707Y-1.3869
X2.2967Y-1.766
X2.3707Y-1.766
T2
G00X1.8307Y-2.3169
M15
G01X1.8307Y-2.3287
M16
G05
G00X1.8307Y-2.4154
M15
G01X1.8307Y-2.4272
M16
G05
G00X1.8307Y-2.5138
M15
G01X1.8307Y-2.5256
M16
G05
M30
