%TF.GenerationSoftware,KiCad,Pcbnew,9.0.2*%
%TF.CreationDate,2026-04-21T23:19:51+09:00*%
%TF.ProjectId,FrostOrtho_R,46726f73-744f-4727-9468-6f5f522e6b69,rev?*%
%TF.SameCoordinates,Original*%
%TF.FileFunction,Legend,Top*%
%TF.FilePolarity,Positive*%
%FSLAX46Y46*%
G04 Gerber Fmt 4.6, Leading zero omitted, Abs format (unit mm)*
G04 Created by KiCad (PCBNEW 9.0.2) date 2026-04-21 23:19:51*
%MOMM*%
%LPD*%
G01*
G04 APERTURE LIST*
%ADD10C,0.100000*%
%ADD11C,0.000000*%
%ADD12C,3.100000*%
%ADD13C,5.000000*%
%ADD14O,2.750000X1.800000*%
%ADD15C,1.500000*%
%ADD16O,1.000000X1.300000*%
G04 APERTURE END LIST*
D10*
X45744360Y-55372419D02*
X45934836Y-55372419D01*
X45934836Y-55372419D02*
X46030074Y-55420038D01*
X46030074Y-55420038D02*
X46125312Y-55515276D01*
X46125312Y-55515276D02*
X46172931Y-55705752D01*
X46172931Y-55705752D02*
X46172931Y-56039085D01*
X46172931Y-56039085D02*
X46125312Y-56229561D01*
X46125312Y-56229561D02*
X46030074Y-56324800D01*
X46030074Y-56324800D02*
X45934836Y-56372419D01*
X45934836Y-56372419D02*
X45744360Y-56372419D01*
X45744360Y-56372419D02*
X45649122Y-56324800D01*
X45649122Y-56324800D02*
X45553884Y-56229561D01*
X45553884Y-56229561D02*
X45506265Y-56039085D01*
X45506265Y-56039085D02*
X45506265Y-55705752D01*
X45506265Y-55705752D02*
X45553884Y-55515276D01*
X45553884Y-55515276D02*
X45649122Y-55420038D01*
X45649122Y-55420038D02*
X45744360Y-55372419D01*
X46934836Y-55848609D02*
X46601503Y-55848609D01*
X46601503Y-56372419D02*
X46601503Y-55372419D01*
X46601503Y-55372419D02*
X47077693Y-55372419D01*
X47791979Y-55848609D02*
X47458646Y-55848609D01*
X47458646Y-56372419D02*
X47458646Y-55372419D01*
X47458646Y-55372419D02*
X47934836Y-55372419D01*
X45994360Y-66372419D02*
X46184836Y-66372419D01*
X46184836Y-66372419D02*
X46280074Y-66420038D01*
X46280074Y-66420038D02*
X46375312Y-66515276D01*
X46375312Y-66515276D02*
X46422931Y-66705752D01*
X46422931Y-66705752D02*
X46422931Y-67039085D01*
X46422931Y-67039085D02*
X46375312Y-67229561D01*
X46375312Y-67229561D02*
X46280074Y-67324800D01*
X46280074Y-67324800D02*
X46184836Y-67372419D01*
X46184836Y-67372419D02*
X45994360Y-67372419D01*
X45994360Y-67372419D02*
X45899122Y-67324800D01*
X45899122Y-67324800D02*
X45803884Y-67229561D01*
X45803884Y-67229561D02*
X45756265Y-67039085D01*
X45756265Y-67039085D02*
X45756265Y-66705752D01*
X45756265Y-66705752D02*
X45803884Y-66515276D01*
X45803884Y-66515276D02*
X45899122Y-66420038D01*
X45899122Y-66420038D02*
X45994360Y-66372419D01*
X46851503Y-67372419D02*
X46851503Y-66372419D01*
X46851503Y-66372419D02*
X47422931Y-67372419D01*
X47422931Y-67372419D02*
X47422931Y-66372419D01*
D11*
%TO.C,G\u002A\u002A\u002A*%
G36*
X61364166Y-59944641D02*
G01*
X61369525Y-60105401D01*
X61527110Y-60110759D01*
X61597512Y-60113860D01*
X61648606Y-60118088D01*
X61682510Y-60124069D01*
X61701343Y-60132429D01*
X61707227Y-60143795D01*
X61702279Y-60158793D01*
X61700380Y-60161961D01*
X61692953Y-60169340D01*
X61679145Y-60174818D01*
X61655647Y-60178854D01*
X61619152Y-60181908D01*
X61566350Y-60184442D01*
X61529144Y-60185780D01*
X61369525Y-60191139D01*
X61364166Y-60351899D01*
X61358808Y-60512658D01*
X61329274Y-60516055D01*
X61304899Y-60513984D01*
X61294559Y-60505338D01*
X61292486Y-60489929D01*
X61290384Y-60457418D01*
X61288464Y-60412133D01*
X61286935Y-60358406D01*
X61286582Y-60341181D01*
X61283786Y-60191139D01*
X61124167Y-60185780D01*
X61060983Y-60183337D01*
X61015925Y-60180626D01*
X60985685Y-60177187D01*
X60966955Y-60172560D01*
X60956426Y-60166284D01*
X60952931Y-60161961D01*
X60946241Y-60146235D01*
X60949996Y-60134255D01*
X60966315Y-60125394D01*
X60997319Y-60119027D01*
X61045126Y-60114527D01*
X61111857Y-60111268D01*
X61126201Y-60110759D01*
X61283786Y-60105401D01*
X61289145Y-59944641D01*
X61294504Y-59783882D01*
X61326656Y-59783882D01*
X61358808Y-59783882D01*
X61364166Y-59944641D01*
G37*
G36*
X60665140Y-60365017D02*
G01*
X60668097Y-60528179D01*
X60830106Y-60531136D01*
X60893844Y-60532612D01*
X60939413Y-60534605D01*
X60970076Y-60537507D01*
X60989099Y-60541710D01*
X60999744Y-60547606D01*
X61003363Y-60551950D01*
X61008258Y-60573036D01*
X61000524Y-60586781D01*
X60991584Y-60593548D01*
X60975646Y-60598301D01*
X60949402Y-60601363D01*
X60909547Y-60603059D01*
X60852775Y-60603713D01*
X60827268Y-60603755D01*
X60668100Y-60603755D01*
X60665142Y-60767194D01*
X60662183Y-60930633D01*
X60634989Y-60933804D01*
X60611578Y-60933518D01*
X60600158Y-60929338D01*
X60597470Y-60916450D01*
X60595197Y-60886100D01*
X60593520Y-60842259D01*
X60592622Y-60788900D01*
X60592521Y-60763007D01*
X60592521Y-60604313D01*
X60429082Y-60601355D01*
X60366771Y-60600142D01*
X60322654Y-60598757D01*
X60293490Y-60596648D01*
X60276042Y-60593261D01*
X60267071Y-60588043D01*
X60263339Y-60580440D01*
X60262026Y-60572815D01*
X60264555Y-60549549D01*
X60272743Y-60538148D01*
X60288198Y-60534864D01*
X60320791Y-60532084D01*
X60366225Y-60530047D01*
X60420204Y-60528991D01*
X60439520Y-60528898D01*
X60591962Y-60528734D01*
X60594921Y-60365295D01*
X60597879Y-60201856D01*
X60630031Y-60201856D01*
X60662183Y-60201856D01*
X60665140Y-60365017D01*
G37*
G36*
X56562382Y-60660498D02*
G01*
X56567078Y-60661467D01*
X56589500Y-60675348D01*
X56594531Y-60697355D01*
X56582107Y-60719502D01*
X56564342Y-60726510D01*
X56530613Y-60731047D01*
X56493689Y-60732371D01*
X56404723Y-60742559D01*
X56322444Y-60772064D01*
X56248661Y-60819333D01*
X56185181Y-60882811D01*
X56133814Y-60960943D01*
X56096369Y-61052175D01*
X56088419Y-61080675D01*
X56085538Y-61101893D01*
X56082521Y-61141537D01*
X56079504Y-61196599D01*
X56076625Y-61264072D01*
X56074022Y-61340950D01*
X56071830Y-61424224D01*
X56071051Y-61461139D01*
X56064462Y-61798734D01*
X56037267Y-61801905D01*
X56013857Y-61801619D01*
X56002436Y-61797440D01*
X56000971Y-61785557D01*
X55999598Y-61754261D01*
X55998344Y-61705571D01*
X55997238Y-61641511D01*
X55996305Y-61564099D01*
X55995573Y-61475358D01*
X55995069Y-61377307D01*
X55994821Y-61271969D01*
X55994799Y-61229653D01*
X55994814Y-61105867D01*
X55994904Y-61001783D01*
X55995136Y-60915667D01*
X55995576Y-60845787D01*
X55996293Y-60790408D01*
X55997352Y-60747799D01*
X55998822Y-60716225D01*
X56000769Y-60693953D01*
X56003261Y-60679252D01*
X56006363Y-60670386D01*
X56010144Y-60665624D01*
X56014671Y-60663232D01*
X56016748Y-60662537D01*
X56036679Y-60659004D01*
X56051080Y-60664683D01*
X56060839Y-60682099D01*
X56066847Y-60713779D01*
X56069992Y-60762246D01*
X56071063Y-60816734D01*
X56071879Y-60865698D01*
X56073230Y-60903835D01*
X56074941Y-60927823D01*
X56076837Y-60934338D01*
X56077208Y-60933312D01*
X56085675Y-60917425D01*
X56091289Y-60914557D01*
X56100873Y-60905777D01*
X56115428Y-60883294D01*
X56125233Y-60864970D01*
X56163269Y-60807641D01*
X56217287Y-60757486D01*
X56289143Y-60713055D01*
X56362294Y-60680031D01*
X56393666Y-60671561D01*
X56437235Y-60664659D01*
X56485126Y-60660039D01*
X56529466Y-60658414D01*
X56562382Y-60660498D01*
G37*
G36*
X50445556Y-60660425D02*
G01*
X50470840Y-60670454D01*
X50478841Y-60688597D01*
X50474501Y-60708249D01*
X50467944Y-60720620D01*
X50456579Y-60727854D01*
X50435370Y-60731304D01*
X50399279Y-60732327D01*
X50384855Y-60732363D01*
X50290935Y-60741997D01*
X50206645Y-60770622D01*
X50132516Y-60817820D01*
X50069079Y-60883174D01*
X50016866Y-60966267D01*
X49982444Y-61048378D01*
X49976329Y-61067631D01*
X49971490Y-61087641D01*
X49967780Y-61111099D01*
X49965051Y-61140699D01*
X49963156Y-61179133D01*
X49961948Y-61229093D01*
X49961278Y-61293272D01*
X49961000Y-61374362D01*
X49960959Y-61440506D01*
X49960754Y-61523091D01*
X49960173Y-61599207D01*
X49959268Y-61666084D01*
X49958091Y-61720956D01*
X49956694Y-61761055D01*
X49955128Y-61783615D01*
X49954454Y-61787140D01*
X49940013Y-61799671D01*
X49916587Y-61804286D01*
X49895749Y-61799137D01*
X49893083Y-61796948D01*
X49891712Y-61785161D01*
X49890427Y-61753959D01*
X49889254Y-61705362D01*
X49888219Y-61641388D01*
X49887346Y-61564057D01*
X49886661Y-61475388D01*
X49886190Y-61377401D01*
X49885958Y-61272115D01*
X49885938Y-61230077D01*
X49885991Y-61105255D01*
X49886184Y-61000176D01*
X49886567Y-60913151D01*
X49887190Y-60842488D01*
X49888104Y-60786498D01*
X49889358Y-60743489D01*
X49891004Y-60711772D01*
X49893092Y-60689655D01*
X49895671Y-60675448D01*
X49898793Y-60667460D01*
X49902507Y-60664002D01*
X49902791Y-60663885D01*
X49925532Y-60663293D01*
X49939973Y-60668299D01*
X49948650Y-60675125D01*
X49954657Y-60687189D01*
X49958618Y-60708276D01*
X49961153Y-60742169D01*
X49962885Y-60792653D01*
X49963311Y-60810264D01*
X49966318Y-60941350D01*
X49991518Y-60893122D01*
X50014704Y-60853992D01*
X50042694Y-60813569D01*
X50052244Y-60801318D01*
X50099695Y-60756997D01*
X50162863Y-60718196D01*
X50236283Y-60687168D01*
X50314486Y-60666170D01*
X50392007Y-60657455D01*
X50401308Y-60657342D01*
X50445556Y-60660425D01*
G37*
G36*
X56946474Y-60407007D02*
G01*
X56954779Y-60415694D01*
X56960498Y-60431966D01*
X56964252Y-60459659D01*
X56966666Y-60502609D01*
X56967745Y-60537915D01*
X56970775Y-60657342D01*
X57108873Y-60657342D01*
X57162389Y-60657828D01*
X57209036Y-60659156D01*
X57244137Y-60661129D01*
X57263013Y-60663552D01*
X57263923Y-60663847D01*
X57274248Y-60676109D01*
X57281082Y-60697237D01*
X57281885Y-60716663D01*
X57278196Y-60723244D01*
X57267122Y-60724254D01*
X57238554Y-60725929D01*
X57196412Y-60728062D01*
X57144619Y-60730449D01*
X57125474Y-60731282D01*
X56975432Y-60737721D01*
X56975432Y-61134261D01*
X56975496Y-61237795D01*
X56975762Y-61322245D01*
X56976341Y-61389960D01*
X56977342Y-61443290D01*
X56978877Y-61484585D01*
X56981057Y-61516196D01*
X56983991Y-61540471D01*
X56987790Y-61559762D01*
X56992566Y-61576417D01*
X56996806Y-61588461D01*
X57026564Y-61644767D01*
X57068344Y-61690877D01*
X57117688Y-61722750D01*
X57158611Y-61735138D01*
X57208327Y-61738127D01*
X57263507Y-61734591D01*
X57315204Y-61725567D01*
X57353714Y-61712478D01*
X57393247Y-61697231D01*
X57422281Y-61695267D01*
X57438016Y-61706631D01*
X57439458Y-61711125D01*
X57434155Y-61733447D01*
X57411188Y-61753875D01*
X57374298Y-61771649D01*
X57327224Y-61786008D01*
X57273707Y-61796193D01*
X57217488Y-61801442D01*
X57162307Y-61800996D01*
X57111904Y-61794094D01*
X57079622Y-61784277D01*
X57021430Y-61749828D01*
X56971186Y-61698900D01*
X56933163Y-61636132D01*
X56925078Y-61616498D01*
X56918951Y-61599037D01*
X56913924Y-61581418D01*
X56909848Y-61561296D01*
X56906577Y-61536326D01*
X56903964Y-61504163D01*
X56901860Y-61462463D01*
X56900121Y-61408881D01*
X56898597Y-61341072D01*
X56897142Y-61256693D01*
X56895609Y-61153397D01*
X56895489Y-61144979D01*
X56889694Y-60737721D01*
X56814673Y-60732363D01*
X56766270Y-60727684D01*
X56735649Y-60720972D01*
X56719161Y-60710675D01*
X56713160Y-60695242D01*
X56712858Y-60689065D01*
X56716444Y-60675584D01*
X56729431Y-60666288D01*
X56755166Y-60660201D01*
X56796996Y-60656350D01*
X56830749Y-60654724D01*
X56900411Y-60651983D01*
X56905770Y-60532289D01*
X56908649Y-60483457D01*
X56912356Y-60442619D01*
X56916381Y-60414483D01*
X56919680Y-60404060D01*
X56934463Y-60401978D01*
X56946474Y-60407007D01*
G37*
G36*
X53183882Y-60406628D02*
G01*
X53192483Y-60415009D01*
X53198372Y-60430107D01*
X53202211Y-60455853D01*
X53204660Y-60496179D01*
X53205973Y-60537915D01*
X53209003Y-60657342D01*
X53347101Y-60657342D01*
X53411993Y-60657752D01*
X53458433Y-60659344D01*
X53489392Y-60662655D01*
X53507842Y-60668223D01*
X53516755Y-60676586D01*
X53519103Y-60688284D01*
X53519103Y-60688497D01*
X53516701Y-60705223D01*
X53507505Y-60717145D01*
X53488530Y-60725041D01*
X53456791Y-60729690D01*
X53409304Y-60731869D01*
X53350841Y-60732363D01*
X53208301Y-60732363D01*
X53208301Y-61121463D01*
X53208362Y-61223853D01*
X53208626Y-61307238D01*
X53209210Y-61374048D01*
X53210236Y-61426713D01*
X53211822Y-61467662D01*
X53214089Y-61499326D01*
X53217154Y-61524133D01*
X53221139Y-61544514D01*
X53226162Y-61562899D01*
X53230698Y-61576885D01*
X53262088Y-61642451D01*
X53305840Y-61691716D01*
X53360605Y-61723476D01*
X53407782Y-61735045D01*
X53482515Y-61737775D01*
X53552376Y-61724890D01*
X53600411Y-61707239D01*
X53631428Y-61694953D01*
X53649829Y-61691604D01*
X53662212Y-61696632D01*
X53667624Y-61701522D01*
X53677604Y-61715311D01*
X53672959Y-61728923D01*
X53663985Y-61739570D01*
X53631484Y-61762750D01*
X53583461Y-61781212D01*
X53525454Y-61794230D01*
X53462999Y-61801078D01*
X53401635Y-61801030D01*
X53346898Y-61793361D01*
X53319393Y-61784739D01*
X53255611Y-61748766D01*
X53207285Y-61698701D01*
X53186649Y-61664768D01*
X53169609Y-61631938D01*
X53154936Y-61603987D01*
X53150200Y-61595105D01*
X53146773Y-61577795D01*
X53143707Y-61539560D01*
X53141021Y-61480906D01*
X53138730Y-61402341D01*
X53136854Y-61304369D01*
X53135407Y-61187499D01*
X53135095Y-61153017D01*
X53131552Y-60732363D01*
X53058271Y-60732363D01*
X53008618Y-60731255D01*
X52976726Y-60727091D01*
X52958997Y-60718613D01*
X52951832Y-60704560D01*
X52951086Y-60694852D01*
X52954268Y-60677447D01*
X52966216Y-60666278D01*
X52990530Y-60660081D01*
X53030810Y-60657591D01*
X53057886Y-60657342D01*
X53092798Y-60656852D01*
X53116654Y-60653096D01*
X53131576Y-60642642D01*
X53139684Y-60622057D01*
X53143100Y-60587910D01*
X53143947Y-60536770D01*
X53144015Y-60518017D01*
X53145678Y-60461573D01*
X53150642Y-60424588D01*
X53159557Y-60405249D01*
X53173071Y-60401744D01*
X53183882Y-60406628D01*
G37*
G36*
X51262736Y-60644254D02*
G01*
X51293379Y-60651042D01*
X51339536Y-60664607D01*
X51378333Y-60680599D01*
X51418512Y-60701902D01*
X51441894Y-60713977D01*
X51456023Y-60720633D01*
X51493583Y-60745188D01*
X51535351Y-60785008D01*
X51577470Y-60835497D01*
X51616083Y-60892061D01*
X51645759Y-60946709D01*
X51675032Y-61015724D01*
X51693840Y-61078729D01*
X51703646Y-61143435D01*
X51705912Y-61217553D01*
X51704789Y-61257824D01*
X51694224Y-61371260D01*
X51671847Y-61469005D01*
X51636566Y-61553926D01*
X51587291Y-61628890D01*
X51546348Y-61674533D01*
X51476752Y-61734329D01*
X51401281Y-61778516D01*
X51313348Y-61810825D01*
X51298495Y-61814926D01*
X51238900Y-61828670D01*
X51189786Y-61833807D01*
X51142012Y-61830356D01*
X51086440Y-61818340D01*
X51075559Y-61815447D01*
X50996070Y-61789659D01*
X50930642Y-61757709D01*
X50871997Y-61715466D01*
X50829061Y-61675525D01*
X50760312Y-61594131D01*
X50709847Y-61505959D01*
X50676744Y-61408618D01*
X50660080Y-61299717D01*
X50657766Y-61236076D01*
X50732620Y-61236076D01*
X50735825Y-61281443D01*
X50744279Y-61338102D01*
X50756264Y-61397075D01*
X50770062Y-61449381D01*
X50777725Y-61471856D01*
X50822755Y-61560438D01*
X50883666Y-61635833D01*
X50958548Y-61696171D01*
X51045493Y-61739582D01*
X51054124Y-61742692D01*
X51110402Y-61755304D01*
X51177659Y-61759705D01*
X51247058Y-61755859D01*
X51309690Y-61743751D01*
X51395972Y-61708514D01*
X51469083Y-61656391D01*
X51528969Y-61587445D01*
X51575578Y-61501741D01*
X51608859Y-61399342D01*
X51615526Y-61368973D01*
X51627595Y-61297376D01*
X51631867Y-61236206D01*
X51628349Y-61175927D01*
X51617050Y-61107002D01*
X51615759Y-61100577D01*
X51586258Y-60995950D01*
X51543140Y-60907576D01*
X51485614Y-60834529D01*
X51412887Y-60775885D01*
X51324165Y-60730720D01*
X51286851Y-60717150D01*
X51206708Y-60701505D01*
X51124465Y-60705090D01*
X51043338Y-60726369D01*
X50966546Y-60763809D01*
X50897305Y-60815872D01*
X50838832Y-60881025D01*
X50797589Y-60950613D01*
X50772925Y-61014711D01*
X50752443Y-61089319D01*
X50738297Y-61164967D01*
X50732642Y-61232185D01*
X50732620Y-61236076D01*
X50657766Y-61236076D01*
X50657584Y-61231081D01*
X50664850Y-61118172D01*
X50687348Y-61017592D01*
X50726130Y-60925594D01*
X50758502Y-60871688D01*
X50822829Y-60792928D01*
X50898901Y-60728917D01*
X50983823Y-60680851D01*
X51074699Y-60649922D01*
X51168635Y-60637325D01*
X51262736Y-60644254D01*
G37*
G36*
X49364703Y-60261257D02*
G01*
X49438826Y-60261997D01*
X49504677Y-60263143D01*
X49559297Y-60264701D01*
X49599729Y-60266676D01*
X49623013Y-60269075D01*
X49627098Y-60270288D01*
X49637463Y-60287248D01*
X49637676Y-60299596D01*
X49635698Y-60304963D01*
X49630631Y-60309340D01*
X49620370Y-60312871D01*
X49602809Y-60315698D01*
X49575843Y-60317966D01*
X49537365Y-60319818D01*
X49485270Y-60321399D01*
X49417452Y-60322852D01*
X49331805Y-60324320D01*
X49258837Y-60325454D01*
X49171455Y-60326847D01*
X49091132Y-60328249D01*
X49020317Y-60329607D01*
X48961461Y-60330870D01*
X48917014Y-60331985D01*
X48889424Y-60332900D01*
X48881043Y-60333492D01*
X48880443Y-60344367D01*
X48880057Y-60374126D01*
X48879886Y-60420221D01*
X48879930Y-60480102D01*
X48880188Y-60551219D01*
X48880661Y-60631024D01*
X48881043Y-60681455D01*
X48883871Y-61027088D01*
X49228626Y-61032447D01*
X49312456Y-61033917D01*
X49389274Y-61035586D01*
X49456494Y-61037371D01*
X49511532Y-61039191D01*
X49551800Y-61040965D01*
X49574716Y-61042613D01*
X49579034Y-61043475D01*
X49579136Y-61056034D01*
X49574955Y-61064909D01*
X49569176Y-61069432D01*
X49556561Y-61073167D01*
X49535013Y-61076240D01*
X49502433Y-61078778D01*
X49456721Y-61080907D01*
X49395778Y-61082754D01*
X49317507Y-61084446D01*
X49224547Y-61086034D01*
X48883871Y-61091392D01*
X48881040Y-61439165D01*
X48879998Y-61541326D01*
X48878655Y-61623683D01*
X48876939Y-61687864D01*
X48874774Y-61735498D01*
X48872089Y-61768216D01*
X48868809Y-61787644D01*
X48864964Y-61795352D01*
X48835924Y-61803523D01*
X48809113Y-61794319D01*
X48805635Y-61791232D01*
X48802993Y-61783365D01*
X48800704Y-61764658D01*
X48798748Y-61733981D01*
X48797106Y-61690201D01*
X48795760Y-61632188D01*
X48794690Y-61558809D01*
X48793876Y-61468934D01*
X48793300Y-61361431D01*
X48792943Y-61235169D01*
X48792785Y-61089015D01*
X48792774Y-61030681D01*
X48792789Y-60886013D01*
X48792861Y-60761278D01*
X48793032Y-60654971D01*
X48793342Y-60565590D01*
X48793833Y-60491633D01*
X48794545Y-60431596D01*
X48795520Y-60383976D01*
X48796799Y-60347271D01*
X48798423Y-60319978D01*
X48800432Y-60300593D01*
X48802868Y-60287615D01*
X48805773Y-60279540D01*
X48809186Y-60274865D01*
X48813149Y-60272088D01*
X48813504Y-60271896D01*
X48828944Y-60269246D01*
X48862739Y-60266950D01*
X48911929Y-60265013D01*
X48973556Y-60263440D01*
X49044661Y-60262239D01*
X49122288Y-60261414D01*
X49203475Y-60260971D01*
X49285267Y-60260917D01*
X49364703Y-60261257D01*
G37*
G36*
X57730738Y-60212809D02*
G01*
X57736718Y-60228082D01*
X57741213Y-60254335D01*
X57744487Y-60293457D01*
X57746806Y-60347337D01*
X57748435Y-60417864D01*
X57749640Y-60506926D01*
X57750201Y-60562805D01*
X57753325Y-60895917D01*
X57783297Y-60848971D01*
X57841284Y-60776679D01*
X57912180Y-60718421D01*
X57992691Y-60675128D01*
X58079523Y-60647736D01*
X58169382Y-60637177D01*
X58258973Y-60644385D01*
X58345001Y-60670294D01*
X58370819Y-60682469D01*
X58419642Y-60715210D01*
X58469050Y-60760860D01*
X58512100Y-60812260D01*
X58538797Y-60855710D01*
X58554996Y-60889568D01*
X58568240Y-60920265D01*
X58578829Y-60950394D01*
X58587065Y-60982548D01*
X58593247Y-61019320D01*
X58597675Y-61063302D01*
X58600651Y-61117087D01*
X58602475Y-61183269D01*
X58603446Y-61264441D01*
X58603865Y-61363194D01*
X58603959Y-61418270D01*
X58604462Y-61798734D01*
X58572310Y-61798734D01*
X58540158Y-61798734D01*
X58534012Y-61423628D01*
X58532046Y-61315934D01*
X58529946Y-61227574D01*
X58527600Y-61156452D01*
X58524899Y-61100466D01*
X58521733Y-61057520D01*
X58517991Y-61025512D01*
X58513564Y-61002346D01*
X58511532Y-60994936D01*
X58474870Y-60903236D01*
X58426085Y-60827931D01*
X58365883Y-60769841D01*
X58294972Y-60729785D01*
X58277361Y-60723257D01*
X58209879Y-60705409D01*
X58149973Y-60701853D01*
X58089283Y-60712541D01*
X58059394Y-60722018D01*
X57981398Y-60755498D01*
X57918064Y-60797529D01*
X57862984Y-60852717D01*
X57843533Y-60877235D01*
X57822928Y-60905199D01*
X57805985Y-60930792D01*
X57792305Y-60956447D01*
X57781486Y-60984599D01*
X57773126Y-61017682D01*
X57766825Y-61058133D01*
X57762182Y-61108384D01*
X57758796Y-61170870D01*
X57756265Y-61248027D01*
X57754188Y-61342288D01*
X57752630Y-61428987D01*
X57751072Y-61515730D01*
X57749521Y-61595392D01*
X57748035Y-61665507D01*
X57746672Y-61723609D01*
X57745489Y-61767233D01*
X57744543Y-61793911D01*
X57743984Y-61801413D01*
X57729621Y-61805167D01*
X57706987Y-61802631D01*
X57687581Y-61795806D01*
X57682344Y-61790696D01*
X57681544Y-61778026D01*
X57680857Y-61745647D01*
X57680289Y-61695285D01*
X57679844Y-61628665D01*
X57679529Y-61547512D01*
X57679347Y-61453551D01*
X57679305Y-61348509D01*
X57679407Y-61234110D01*
X57679659Y-61112081D01*
X57680001Y-61001462D01*
X57680557Y-60853435D01*
X57681118Y-60725377D01*
X57681723Y-60615825D01*
X57682413Y-60523313D01*
X57683226Y-60446378D01*
X57684202Y-60383553D01*
X57685380Y-60333376D01*
X57686801Y-60294380D01*
X57688503Y-60265102D01*
X57690526Y-60244077D01*
X57692910Y-60229840D01*
X57695693Y-60220927D01*
X57698916Y-60215872D01*
X57701234Y-60213982D01*
X57713261Y-60207648D01*
X57723008Y-60206627D01*
X57730738Y-60212809D01*
G37*
G36*
X59476993Y-60644626D02*
G01*
X59568954Y-60669395D01*
X59655432Y-60711275D01*
X59733532Y-60768902D01*
X59800356Y-60840917D01*
X59847245Y-60914557D01*
X59879713Y-60982438D01*
X59901626Y-61044057D01*
X59914688Y-61106803D01*
X59920605Y-61178065D01*
X59921412Y-61236076D01*
X59918069Y-61324244D01*
X59908075Y-61398176D01*
X59890069Y-61464409D01*
X59862690Y-61529477D01*
X59858644Y-61537649D01*
X59833971Y-61581365D01*
X59804557Y-61625536D01*
X59774903Y-61663945D01*
X59749511Y-61690376D01*
X59746062Y-61693140D01*
X59725938Y-61709307D01*
X59705264Y-61726896D01*
X59664802Y-61754516D01*
X59609950Y-61781533D01*
X59547672Y-61805455D01*
X59484929Y-61823792D01*
X59428685Y-61834052D01*
X59402197Y-61835332D01*
X59372148Y-61832101D01*
X59331277Y-61824628D01*
X59295727Y-61816348D01*
X59191890Y-61779988D01*
X59102462Y-61728268D01*
X59026941Y-61660680D01*
X58964822Y-61576714D01*
X58915603Y-61475863D01*
X58892685Y-61409151D01*
X58881875Y-61356117D01*
X58875790Y-61289977D01*
X58874744Y-61235365D01*
X58952786Y-61235365D01*
X58955745Y-61287411D01*
X58963771Y-61345398D01*
X58975615Y-61404160D01*
X58990032Y-61458532D01*
X59005774Y-61503346D01*
X59021595Y-61533437D01*
X59025996Y-61538648D01*
X59037067Y-61554263D01*
X59038512Y-61559657D01*
X59045833Y-61575103D01*
X59064960Y-61599953D01*
X59091639Y-61629415D01*
X59121615Y-61658698D01*
X59142261Y-61676507D01*
X59169190Y-61693985D01*
X59208604Y-61714719D01*
X59252757Y-61734890D01*
X59290369Y-61749487D01*
X59330269Y-61757042D01*
X59383614Y-61758834D01*
X59443352Y-61755366D01*
X59502429Y-61747140D01*
X59553792Y-61734658D01*
X59567741Y-61729732D01*
X59632909Y-61694761D01*
X59694918Y-61644368D01*
X59748450Y-61583990D01*
X59788189Y-61519066D01*
X59798943Y-61493291D01*
X59814834Y-61438389D01*
X59828530Y-61372274D01*
X59838266Y-61305114D01*
X59842276Y-61247080D01*
X59842297Y-61243487D01*
X59834144Y-61127461D01*
X59810127Y-61022882D01*
X59770980Y-60930893D01*
X59717440Y-60852636D01*
X59650241Y-60789253D01*
X59570121Y-60741887D01*
X59504012Y-60718113D01*
X59433357Y-60703482D01*
X59369873Y-60702189D01*
X59304007Y-60714166D01*
X59294993Y-60716632D01*
X59204902Y-60752544D01*
X59127118Y-60805255D01*
X59062523Y-60873426D01*
X59012000Y-60955718D01*
X58976433Y-61050793D01*
X58956705Y-61157313D01*
X58952786Y-61235365D01*
X58874744Y-61235365D01*
X58874412Y-61218041D01*
X58877725Y-61147615D01*
X58885712Y-61086009D01*
X58893489Y-61053882D01*
X58937781Y-60941887D01*
X58994968Y-60846998D01*
X59065036Y-60769230D01*
X59147970Y-60708595D01*
X59243756Y-60665110D01*
X59288212Y-60651861D01*
X59382447Y-60638327D01*
X59476993Y-60644626D01*
G37*
G36*
X55087641Y-60267510D02*
G01*
X55158850Y-60281064D01*
X55262723Y-60313902D01*
X55352743Y-60358346D01*
X55434729Y-60417484D01*
X55462965Y-60442563D01*
X55538951Y-60524759D01*
X55599903Y-60616886D01*
X55647847Y-60722399D01*
X55673622Y-60802025D01*
X55688072Y-60873114D01*
X55696564Y-60957623D01*
X55699066Y-61048375D01*
X55695546Y-61138191D01*
X55685972Y-61219893D01*
X55675701Y-61268228D01*
X55634851Y-61389453D01*
X55581017Y-61494671D01*
X55512699Y-61585974D01*
X55428395Y-61665454D01*
X55351761Y-61719839D01*
X55329135Y-61731300D01*
X55293016Y-61746600D01*
X55250270Y-61762874D01*
X55239230Y-61766802D01*
X55167961Y-61785649D01*
X55085830Y-61797542D01*
X55000066Y-61802164D01*
X54917895Y-61799200D01*
X54846545Y-61788337D01*
X54831972Y-61784558D01*
X54714529Y-61740621D01*
X54610351Y-61680247D01*
X54520131Y-61604359D01*
X54444561Y-61513880D01*
X54384335Y-61409736D01*
X54340145Y-61292848D01*
X54312685Y-61164141D01*
X54304523Y-61081567D01*
X54306187Y-60977146D01*
X54390077Y-60977146D01*
X54390314Y-61087380D01*
X54401471Y-61193539D01*
X54402315Y-61198565D01*
X54422853Y-61294306D01*
X54450236Y-61374601D01*
X54487233Y-61445048D01*
X54536612Y-61511245D01*
X54580116Y-61558140D01*
X54645065Y-61616791D01*
X54712040Y-61662189D01*
X54786833Y-61697443D01*
X54875233Y-61725662D01*
X54906993Y-61733631D01*
X54938184Y-61736997D01*
X54984001Y-61737080D01*
X55037967Y-61734367D01*
X55093609Y-61729346D01*
X55144451Y-61722503D01*
X55184019Y-61714327D01*
X55191002Y-61712258D01*
X55296439Y-61667746D01*
X55387865Y-61607348D01*
X55464815Y-61531788D01*
X55526827Y-61441789D01*
X55573436Y-61338076D01*
X55604179Y-61221372D01*
X55618592Y-61092402D01*
X55619694Y-61042964D01*
X55611991Y-60909914D01*
X55588543Y-60790560D01*
X55548838Y-60683522D01*
X55492366Y-60587417D01*
X55419640Y-60501885D01*
X55385224Y-60468753D01*
X55355271Y-60442266D01*
X55333563Y-60425635D01*
X55324997Y-60421561D01*
X55309447Y-60416495D01*
X55307106Y-60413523D01*
X55293861Y-60402380D01*
X55264746Y-60387251D01*
X55224438Y-60370265D01*
X55177612Y-60353547D01*
X55169567Y-60350957D01*
X55109407Y-60338214D01*
X55031159Y-60332604D01*
X55003449Y-60332283D01*
X54887525Y-60341891D01*
X54781103Y-60370709D01*
X54684197Y-60418731D01*
X54596826Y-60485950D01*
X54551552Y-60532560D01*
X54521433Y-60572851D01*
X54488934Y-60626036D01*
X54458117Y-60684565D01*
X54433044Y-60740888D01*
X54421004Y-60775232D01*
X54400421Y-60870531D01*
X54390077Y-60977146D01*
X54306187Y-60977146D01*
X54306494Y-60957894D01*
X54325611Y-60831745D01*
X54360558Y-60711537D01*
X54363586Y-60703502D01*
X54414869Y-60597859D01*
X54481888Y-60504422D01*
X54562380Y-60424394D01*
X54654078Y-60358980D01*
X54754718Y-60309381D01*
X54862035Y-60276801D01*
X54973765Y-60262443D01*
X55087641Y-60267510D01*
G37*
G36*
X52419150Y-60641289D02*
G01*
X52496895Y-60655887D01*
X52572090Y-60677391D01*
X52626888Y-60699579D01*
X52663510Y-60718763D01*
X52684121Y-60733906D01*
X52692758Y-60748553D01*
X52693871Y-60758441D01*
X52690833Y-60780736D01*
X52679659Y-60789730D01*
X52657256Y-60785791D01*
X52620531Y-60769287D01*
X52617130Y-60767562D01*
X52523620Y-60729290D01*
X52427086Y-60707137D01*
X52332178Y-60701719D01*
X52243549Y-60713651D01*
X52232293Y-60716632D01*
X52159709Y-60742099D01*
X52105103Y-60773436D01*
X52065316Y-60812972D01*
X52038824Y-60859179D01*
X52023778Y-60899919D01*
X52020460Y-60932408D01*
X52029345Y-60965559D01*
X52046354Y-61000011D01*
X52066415Y-61031438D01*
X52090304Y-61054487D01*
X52125177Y-61075487D01*
X52140130Y-61082957D01*
X52188148Y-61104591D01*
X52237627Y-61124084D01*
X52282843Y-61139427D01*
X52318070Y-61148613D01*
X52332370Y-61150337D01*
X52355009Y-61153971D01*
X52397569Y-61164886D01*
X52460131Y-61183105D01*
X52517035Y-61200580D01*
X52600514Y-61233617D01*
X52672019Y-61276090D01*
X52728376Y-61325747D01*
X52764097Y-61375803D01*
X52776461Y-61413656D01*
X52783233Y-61464575D01*
X52784406Y-61520933D01*
X52779970Y-61575102D01*
X52769918Y-61619454D01*
X52764384Y-61632616D01*
X52738011Y-61673043D01*
X52701821Y-61714629D01*
X52662068Y-61751083D01*
X52625006Y-61776114D01*
X52618850Y-61779031D01*
X52564907Y-61798381D01*
X52502590Y-61814473D01*
X52438021Y-61826318D01*
X52377325Y-61832931D01*
X52326625Y-61833325D01*
X52302689Y-61829964D01*
X52279186Y-61824337D01*
X52245788Y-61816344D01*
X52233027Y-61813291D01*
X52156563Y-61790657D01*
X52083762Y-61761099D01*
X52020118Y-61727249D01*
X51971124Y-61691738D01*
X51962705Y-61683813D01*
X51948735Y-61660551D01*
X51943923Y-61633319D01*
X51949193Y-61611223D01*
X51954781Y-61605573D01*
X51968431Y-61608168D01*
X51990996Y-61622384D01*
X52005688Y-61634534D01*
X52075504Y-61684753D01*
X52157229Y-61722646D01*
X52246550Y-61747740D01*
X52339156Y-61759566D01*
X52430735Y-61757650D01*
X52516974Y-61741523D01*
X52593563Y-61710712D01*
X52610678Y-61700671D01*
X52658788Y-61658329D01*
X52692743Y-61603664D01*
X52711071Y-61541632D01*
X52712300Y-61477191D01*
X52695252Y-61415944D01*
X52675845Y-61382205D01*
X52649146Y-61352893D01*
X52612741Y-61326755D01*
X52564214Y-61302542D01*
X52501148Y-61279003D01*
X52421128Y-61254886D01*
X52345559Y-61234914D01*
X52247661Y-61208217D01*
X52168577Y-61182112D01*
X52105761Y-61155397D01*
X52056668Y-61126871D01*
X52018752Y-61095332D01*
X51997246Y-61070485D01*
X51978124Y-61038657D01*
X51960482Y-60998804D01*
X51948016Y-60960240D01*
X51944259Y-60936933D01*
X51952580Y-60877339D01*
X51977899Y-60816679D01*
X52016771Y-60760325D01*
X52065748Y-60713651D01*
X52102199Y-60690626D01*
X52147648Y-60672470D01*
X52205971Y-60656161D01*
X52268608Y-60643597D01*
X52326996Y-60636677D01*
X52348939Y-60635909D01*
X52419150Y-60641289D01*
G37*
%TD*%
%LPC*%
D12*
%TO.C,SW15*%
X129500000Y-63800000D03*
D13*
X124500000Y-67500000D03*
D12*
X124500000Y-61600000D03*
%TD*%
%TO.C,SW20*%
X146500000Y-80810000D03*
D13*
X141500000Y-84510000D03*
D12*
X141500000Y-78610000D03*
%TD*%
%TO.C,SW18*%
X146500000Y-46800000D03*
D13*
X141500000Y-50500000D03*
D12*
X141500000Y-44600000D03*
%TD*%
%TO.C,SW5*%
X95500000Y-29800000D03*
D13*
X90500000Y-33500000D03*
D12*
X90500000Y-27600000D03*
%TD*%
%TO.C,SW16*%
X129500000Y-80800000D03*
D13*
X124500000Y-84500000D03*
D12*
X124500000Y-78600000D03*
%TD*%
%TO.C,SW2*%
X78500000Y-46800000D03*
D13*
X73500000Y-50500000D03*
D12*
X73500000Y-44600000D03*
%TD*%
%TO.C,SW12*%
X112500000Y-80800000D03*
D13*
X107500000Y-84500000D03*
D12*
X107500000Y-78600000D03*
%TD*%
%TO.C,SW6*%
X95500000Y-46800000D03*
D13*
X90500000Y-50500000D03*
D12*
X90500000Y-44600000D03*
%TD*%
%TO.C,SW4*%
X78500000Y-80800000D03*
D13*
X73500000Y-84500000D03*
D12*
X73500000Y-78600000D03*
%TD*%
%TO.C,SW3*%
X78500000Y-63800000D03*
D13*
X73500000Y-67500000D03*
D12*
X73500000Y-61600000D03*
%TD*%
%TO.C,SW13*%
X129500000Y-29800000D03*
D13*
X124500000Y-33500000D03*
D12*
X124500000Y-27600000D03*
%TD*%
%TO.C,SW10*%
X112500000Y-46800000D03*
D13*
X107500000Y-50500000D03*
D12*
X107500000Y-44600000D03*
%TD*%
%TO.C,SW14*%
X129500000Y-46800000D03*
D13*
X124500000Y-50500000D03*
D12*
X124500000Y-44600000D03*
%TD*%
%TO.C,SW8*%
X95500000Y-80800000D03*
D13*
X90500000Y-84500000D03*
D12*
X90500000Y-78600000D03*
%TD*%
%TO.C,SW9*%
X112500000Y-29800000D03*
D13*
X107500000Y-33500000D03*
D12*
X107500000Y-27600000D03*
%TD*%
%TO.C,SW11*%
X112480000Y-63800000D03*
D13*
X107480000Y-67500000D03*
D12*
X107480000Y-61600000D03*
%TD*%
%TO.C,SW7*%
X95500000Y-63800000D03*
D13*
X90500000Y-67500000D03*
D12*
X90500000Y-61600000D03*
%TD*%
D14*
%TO.C,U1*%
X46380000Y-27924000D03*
X46380000Y-30464000D03*
X46380000Y-33004000D03*
X46380000Y-35544000D03*
X46380000Y-38084000D03*
X46380000Y-40624000D03*
X46380000Y-43164000D03*
X62620000Y-43164000D03*
X62620000Y-40624000D03*
X62620000Y-38084000D03*
X62620000Y-35544000D03*
X62620000Y-33004000D03*
X62620000Y-30464000D03*
X62620000Y-27924000D03*
D15*
X58335400Y-44856000D03*
X60215000Y-44856000D03*
X50055000Y-35227000D03*
X50055000Y-33322000D03*
%TD*%
D12*
%TO.C,SW1*%
X78500000Y-29800000D03*
D13*
X73500000Y-33500000D03*
D12*
X73500000Y-27600000D03*
%TD*%
%TO.C,SW19*%
X146500000Y-63800000D03*
D13*
X141500000Y-67500000D03*
D12*
X141500000Y-61600000D03*
%TD*%
%TO.C,SW17*%
X146500000Y-29800000D03*
D13*
X141500000Y-33500000D03*
D12*
X141500000Y-27600000D03*
%TD*%
D16*
%TO.C,SW21*%
X46500000Y-59000000D03*
X46500000Y-61500000D03*
X46500000Y-64000000D03*
%TD*%
%LPD*%
M02*
