%TF.GenerationSoftware,KiCad,Pcbnew,9.0.2*%
%TF.CreationDate,2026-05-28T22:21:40+09:00*%
%TF.ProjectId,FrostOrtho_L,46726f73-744f-4727-9468-6f5f4c2e6b69,rev?*%
%TF.SameCoordinates,Original*%
%TF.FileFunction,Legend,Top*%
%TF.FilePolarity,Positive*%
%FSLAX46Y46*%
G04 Gerber Fmt 4.6, Leading zero omitted, Abs format (unit mm)*
G04 Created by KiCad (PCBNEW 9.0.2) date 2026-05-28 22:21:40*
%MOMM*%
%LPD*%
G01*
G04 APERTURE LIST*
%ADD10C,0.100000*%
%ADD11C,0.200000*%
%ADD12C,0.000000*%
%ADD13C,3.100000*%
%ADD14C,5.000000*%
%ADD15O,2.750000X1.800000*%
%ADD16C,1.500000*%
%ADD17C,4.350000*%
%ADD18O,1.200000X1.500000*%
G04 APERTURE END LIST*
D10*
X188494360Y-95372419D02*
X188684836Y-95372419D01*
X188684836Y-95372419D02*
X188780074Y-95420038D01*
X188780074Y-95420038D02*
X188875312Y-95515276D01*
X188875312Y-95515276D02*
X188922931Y-95705752D01*
X188922931Y-95705752D02*
X188922931Y-96039085D01*
X188922931Y-96039085D02*
X188875312Y-96229561D01*
X188875312Y-96229561D02*
X188780074Y-96324800D01*
X188780074Y-96324800D02*
X188684836Y-96372419D01*
X188684836Y-96372419D02*
X188494360Y-96372419D01*
X188494360Y-96372419D02*
X188399122Y-96324800D01*
X188399122Y-96324800D02*
X188303884Y-96229561D01*
X188303884Y-96229561D02*
X188256265Y-96039085D01*
X188256265Y-96039085D02*
X188256265Y-95705752D01*
X188256265Y-95705752D02*
X188303884Y-95515276D01*
X188303884Y-95515276D02*
X188399122Y-95420038D01*
X188399122Y-95420038D02*
X188494360Y-95372419D01*
X189684836Y-95848609D02*
X189351503Y-95848609D01*
X189351503Y-96372419D02*
X189351503Y-95372419D01*
X189351503Y-95372419D02*
X189827693Y-95372419D01*
X190541979Y-95848609D02*
X190208646Y-95848609D01*
X190208646Y-96372419D02*
X190208646Y-95372419D01*
X190208646Y-95372419D02*
X190684836Y-95372419D01*
X188744360Y-106372419D02*
X188934836Y-106372419D01*
X188934836Y-106372419D02*
X189030074Y-106420038D01*
X189030074Y-106420038D02*
X189125312Y-106515276D01*
X189125312Y-106515276D02*
X189172931Y-106705752D01*
X189172931Y-106705752D02*
X189172931Y-107039085D01*
X189172931Y-107039085D02*
X189125312Y-107229561D01*
X189125312Y-107229561D02*
X189030074Y-107324800D01*
X189030074Y-107324800D02*
X188934836Y-107372419D01*
X188934836Y-107372419D02*
X188744360Y-107372419D01*
X188744360Y-107372419D02*
X188649122Y-107324800D01*
X188649122Y-107324800D02*
X188553884Y-107229561D01*
X188553884Y-107229561D02*
X188506265Y-107039085D01*
X188506265Y-107039085D02*
X188506265Y-106705752D01*
X188506265Y-106705752D02*
X188553884Y-106515276D01*
X188553884Y-106515276D02*
X188649122Y-106420038D01*
X188649122Y-106420038D02*
X188744360Y-106372419D01*
X189601503Y-107372419D02*
X189601503Y-106372419D01*
X189601503Y-106372419D02*
X190172931Y-107372419D01*
X190172931Y-107372419D02*
X190172931Y-106372419D01*
%TO.C,SW21*%
X173300000Y-98850000D02*
X173300000Y-98850000D01*
X173300000Y-98850000D02*
X173300000Y-98850000D01*
X173300000Y-98850000D02*
X173300000Y-102700000D01*
X173300000Y-98850000D02*
X185700000Y-98850000D01*
X173300000Y-102700000D02*
X173300000Y-98850000D01*
X173300000Y-102700000D02*
X173300000Y-102700000D01*
X173300000Y-108200000D02*
X173300000Y-108200000D01*
X173300000Y-108200000D02*
X173300000Y-112050000D01*
X173300000Y-112050000D02*
X173300000Y-108200000D01*
X173300000Y-112050000D02*
X173300000Y-112050000D01*
X173300000Y-112050000D02*
X173300000Y-112050000D01*
X173300000Y-112050000D02*
X175750000Y-112050000D01*
X175750000Y-112050000D02*
X173300000Y-112050000D01*
X175750000Y-112050000D02*
X175750000Y-112050000D01*
D11*
X177000000Y-114650000D02*
X177000000Y-114650000D01*
X177000000Y-114650000D02*
X177000000Y-114650000D01*
X177000000Y-114750000D02*
X177000000Y-114750000D01*
D10*
X183250000Y-112050000D02*
X183250000Y-112050000D01*
X183250000Y-112050000D02*
X185700000Y-112050000D01*
X185700000Y-98850000D02*
X173300000Y-98850000D01*
X185700000Y-98850000D02*
X185700000Y-98850000D01*
X185700000Y-98850000D02*
X185700000Y-98850000D01*
X185700000Y-98850000D02*
X185700000Y-102700000D01*
X185700000Y-102700000D02*
X185700000Y-98850000D01*
X185700000Y-102700000D02*
X185700000Y-102700000D01*
X185700000Y-108200000D02*
X185700000Y-108200000D01*
X185700000Y-108200000D02*
X185700000Y-112050000D01*
X185700000Y-112050000D02*
X183250000Y-112050000D01*
X185700000Y-112050000D02*
X185700000Y-108200000D01*
X185700000Y-112050000D02*
X185700000Y-112050000D01*
X185700000Y-112050000D02*
X185700000Y-112050000D01*
D11*
X177000000Y-114650000D02*
G75*
G02*
X177000000Y-114750000I0J-50000D01*
G01*
X177000000Y-114750000D02*
G75*
G02*
X177000000Y-114650000I0J50000D01*
G01*
X177000000Y-114750000D02*
G75*
G02*
X177000000Y-114650000I0J50000D01*
G01*
D12*
%TO.C,G\u002A\u002A\u002A*%
G36*
X187614166Y-87694641D02*
G01*
X187619525Y-87855401D01*
X187777110Y-87860759D01*
X187847512Y-87863860D01*
X187898606Y-87868088D01*
X187932510Y-87874069D01*
X187951343Y-87882429D01*
X187957227Y-87893795D01*
X187952279Y-87908793D01*
X187950380Y-87911961D01*
X187942953Y-87919340D01*
X187929145Y-87924818D01*
X187905647Y-87928854D01*
X187869152Y-87931908D01*
X187816350Y-87934442D01*
X187779144Y-87935780D01*
X187619525Y-87941139D01*
X187614166Y-88101899D01*
X187608808Y-88262658D01*
X187579274Y-88266055D01*
X187554899Y-88263984D01*
X187544559Y-88255338D01*
X187542486Y-88239929D01*
X187540384Y-88207418D01*
X187538464Y-88162133D01*
X187536935Y-88108406D01*
X187536582Y-88091181D01*
X187533786Y-87941139D01*
X187374167Y-87935780D01*
X187310983Y-87933337D01*
X187265925Y-87930626D01*
X187235685Y-87927187D01*
X187216955Y-87922560D01*
X187206426Y-87916284D01*
X187202931Y-87911961D01*
X187196241Y-87896235D01*
X187199996Y-87884255D01*
X187216315Y-87875394D01*
X187247319Y-87869027D01*
X187295126Y-87864527D01*
X187361857Y-87861268D01*
X187376201Y-87860759D01*
X187533786Y-87855401D01*
X187539145Y-87694641D01*
X187544504Y-87533882D01*
X187576656Y-87533882D01*
X187608808Y-87533882D01*
X187614166Y-87694641D01*
G37*
G36*
X186915140Y-88115017D02*
G01*
X186918097Y-88278179D01*
X187080106Y-88281136D01*
X187143844Y-88282612D01*
X187189413Y-88284605D01*
X187220076Y-88287507D01*
X187239099Y-88291710D01*
X187249744Y-88297606D01*
X187253363Y-88301950D01*
X187258258Y-88323036D01*
X187250524Y-88336781D01*
X187241584Y-88343548D01*
X187225646Y-88348301D01*
X187199402Y-88351363D01*
X187159547Y-88353059D01*
X187102775Y-88353713D01*
X187077268Y-88353755D01*
X186918100Y-88353755D01*
X186915142Y-88517194D01*
X186912183Y-88680633D01*
X186884989Y-88683804D01*
X186861578Y-88683518D01*
X186850158Y-88679338D01*
X186847470Y-88666450D01*
X186845197Y-88636100D01*
X186843520Y-88592259D01*
X186842622Y-88538900D01*
X186842521Y-88513007D01*
X186842521Y-88354313D01*
X186679082Y-88351355D01*
X186616771Y-88350142D01*
X186572654Y-88348757D01*
X186543490Y-88346648D01*
X186526042Y-88343261D01*
X186517071Y-88338043D01*
X186513339Y-88330440D01*
X186512026Y-88322815D01*
X186514555Y-88299549D01*
X186522743Y-88288148D01*
X186538198Y-88284864D01*
X186570791Y-88282084D01*
X186616225Y-88280047D01*
X186670204Y-88278991D01*
X186689520Y-88278898D01*
X186841962Y-88278734D01*
X186844921Y-88115295D01*
X186847879Y-87951856D01*
X186880031Y-87951856D01*
X186912183Y-87951856D01*
X186915140Y-88115017D01*
G37*
G36*
X182812382Y-88410498D02*
G01*
X182817078Y-88411467D01*
X182839500Y-88425348D01*
X182844531Y-88447355D01*
X182832107Y-88469502D01*
X182814342Y-88476510D01*
X182780613Y-88481047D01*
X182743689Y-88482371D01*
X182654723Y-88492559D01*
X182572444Y-88522064D01*
X182498661Y-88569333D01*
X182435181Y-88632811D01*
X182383814Y-88710943D01*
X182346369Y-88802175D01*
X182338419Y-88830675D01*
X182335538Y-88851893D01*
X182332521Y-88891537D01*
X182329504Y-88946599D01*
X182326625Y-89014072D01*
X182324022Y-89090950D01*
X182321830Y-89174224D01*
X182321051Y-89211139D01*
X182314462Y-89548734D01*
X182287267Y-89551905D01*
X182263857Y-89551619D01*
X182252436Y-89547440D01*
X182250971Y-89535557D01*
X182249598Y-89504261D01*
X182248344Y-89455571D01*
X182247238Y-89391511D01*
X182246305Y-89314099D01*
X182245573Y-89225358D01*
X182245069Y-89127307D01*
X182244821Y-89021969D01*
X182244799Y-88979653D01*
X182244814Y-88855867D01*
X182244904Y-88751783D01*
X182245136Y-88665667D01*
X182245576Y-88595787D01*
X182246293Y-88540408D01*
X182247352Y-88497799D01*
X182248822Y-88466225D01*
X182250769Y-88443953D01*
X182253261Y-88429252D01*
X182256363Y-88420386D01*
X182260144Y-88415624D01*
X182264671Y-88413232D01*
X182266748Y-88412537D01*
X182286679Y-88409004D01*
X182301080Y-88414683D01*
X182310839Y-88432099D01*
X182316847Y-88463779D01*
X182319992Y-88512246D01*
X182321063Y-88566734D01*
X182321879Y-88615698D01*
X182323230Y-88653835D01*
X182324941Y-88677823D01*
X182326837Y-88684338D01*
X182327208Y-88683312D01*
X182335675Y-88667425D01*
X182341289Y-88664557D01*
X182350873Y-88655777D01*
X182365428Y-88633294D01*
X182375233Y-88614970D01*
X182413269Y-88557641D01*
X182467287Y-88507486D01*
X182539143Y-88463055D01*
X182612294Y-88430031D01*
X182643666Y-88421561D01*
X182687235Y-88414659D01*
X182735126Y-88410039D01*
X182779466Y-88408414D01*
X182812382Y-88410498D01*
G37*
G36*
X176695556Y-88410425D02*
G01*
X176720840Y-88420454D01*
X176728841Y-88438597D01*
X176724501Y-88458249D01*
X176717944Y-88470620D01*
X176706579Y-88477854D01*
X176685370Y-88481304D01*
X176649279Y-88482327D01*
X176634855Y-88482363D01*
X176540935Y-88491997D01*
X176456645Y-88520622D01*
X176382516Y-88567820D01*
X176319079Y-88633174D01*
X176266866Y-88716267D01*
X176232444Y-88798378D01*
X176226329Y-88817631D01*
X176221490Y-88837641D01*
X176217780Y-88861099D01*
X176215051Y-88890699D01*
X176213156Y-88929133D01*
X176211948Y-88979093D01*
X176211278Y-89043272D01*
X176211000Y-89124362D01*
X176210959Y-89190506D01*
X176210754Y-89273091D01*
X176210173Y-89349207D01*
X176209268Y-89416084D01*
X176208091Y-89470956D01*
X176206694Y-89511055D01*
X176205128Y-89533615D01*
X176204454Y-89537140D01*
X176190013Y-89549671D01*
X176166587Y-89554286D01*
X176145749Y-89549137D01*
X176143083Y-89546948D01*
X176141712Y-89535161D01*
X176140427Y-89503959D01*
X176139254Y-89455362D01*
X176138219Y-89391388D01*
X176137346Y-89314057D01*
X176136661Y-89225388D01*
X176136190Y-89127401D01*
X176135958Y-89022115D01*
X176135938Y-88980077D01*
X176135991Y-88855255D01*
X176136184Y-88750176D01*
X176136567Y-88663151D01*
X176137190Y-88592488D01*
X176138104Y-88536498D01*
X176139358Y-88493489D01*
X176141004Y-88461772D01*
X176143092Y-88439655D01*
X176145671Y-88425448D01*
X176148793Y-88417460D01*
X176152507Y-88414002D01*
X176152791Y-88413885D01*
X176175532Y-88413293D01*
X176189973Y-88418299D01*
X176198650Y-88425125D01*
X176204657Y-88437189D01*
X176208618Y-88458276D01*
X176211153Y-88492169D01*
X176212885Y-88542653D01*
X176213311Y-88560264D01*
X176216318Y-88691350D01*
X176241518Y-88643122D01*
X176264704Y-88603992D01*
X176292694Y-88563569D01*
X176302244Y-88551318D01*
X176349695Y-88506997D01*
X176412863Y-88468196D01*
X176486283Y-88437168D01*
X176564486Y-88416170D01*
X176642007Y-88407455D01*
X176651308Y-88407342D01*
X176695556Y-88410425D01*
G37*
G36*
X183196474Y-88157007D02*
G01*
X183204779Y-88165694D01*
X183210498Y-88181966D01*
X183214252Y-88209659D01*
X183216666Y-88252609D01*
X183217745Y-88287915D01*
X183220775Y-88407342D01*
X183358873Y-88407342D01*
X183412389Y-88407828D01*
X183459036Y-88409156D01*
X183494137Y-88411129D01*
X183513013Y-88413552D01*
X183513923Y-88413847D01*
X183524248Y-88426109D01*
X183531082Y-88447237D01*
X183531885Y-88466663D01*
X183528196Y-88473244D01*
X183517122Y-88474254D01*
X183488554Y-88475929D01*
X183446412Y-88478062D01*
X183394619Y-88480449D01*
X183375474Y-88481282D01*
X183225432Y-88487721D01*
X183225432Y-88884261D01*
X183225496Y-88987795D01*
X183225762Y-89072245D01*
X183226341Y-89139960D01*
X183227342Y-89193290D01*
X183228877Y-89234585D01*
X183231057Y-89266196D01*
X183233991Y-89290471D01*
X183237790Y-89309762D01*
X183242566Y-89326417D01*
X183246806Y-89338461D01*
X183276564Y-89394767D01*
X183318344Y-89440877D01*
X183367688Y-89472750D01*
X183408611Y-89485138D01*
X183458327Y-89488127D01*
X183513507Y-89484591D01*
X183565204Y-89475567D01*
X183603714Y-89462478D01*
X183643247Y-89447231D01*
X183672281Y-89445267D01*
X183688016Y-89456631D01*
X183689458Y-89461125D01*
X183684155Y-89483447D01*
X183661188Y-89503875D01*
X183624298Y-89521649D01*
X183577224Y-89536008D01*
X183523707Y-89546193D01*
X183467488Y-89551442D01*
X183412307Y-89550996D01*
X183361904Y-89544094D01*
X183329622Y-89534277D01*
X183271430Y-89499828D01*
X183221186Y-89448900D01*
X183183163Y-89386132D01*
X183175078Y-89366498D01*
X183168951Y-89349037D01*
X183163924Y-89331418D01*
X183159848Y-89311296D01*
X183156577Y-89286326D01*
X183153964Y-89254163D01*
X183151860Y-89212463D01*
X183150121Y-89158881D01*
X183148597Y-89091072D01*
X183147142Y-89006693D01*
X183145609Y-88903397D01*
X183145489Y-88894979D01*
X183139694Y-88487721D01*
X183064673Y-88482363D01*
X183016270Y-88477684D01*
X182985649Y-88470972D01*
X182969161Y-88460675D01*
X182963160Y-88445242D01*
X182962858Y-88439065D01*
X182966444Y-88425584D01*
X182979431Y-88416288D01*
X183005166Y-88410201D01*
X183046996Y-88406350D01*
X183080749Y-88404724D01*
X183150411Y-88401983D01*
X183155770Y-88282289D01*
X183158649Y-88233457D01*
X183162356Y-88192619D01*
X183166381Y-88164483D01*
X183169680Y-88154060D01*
X183184463Y-88151978D01*
X183196474Y-88157007D01*
G37*
G36*
X179433882Y-88156628D02*
G01*
X179442483Y-88165009D01*
X179448372Y-88180107D01*
X179452211Y-88205853D01*
X179454660Y-88246179D01*
X179455973Y-88287915D01*
X179459003Y-88407342D01*
X179597101Y-88407342D01*
X179661993Y-88407752D01*
X179708433Y-88409344D01*
X179739392Y-88412655D01*
X179757842Y-88418223D01*
X179766755Y-88426586D01*
X179769103Y-88438284D01*
X179769103Y-88438497D01*
X179766701Y-88455223D01*
X179757505Y-88467145D01*
X179738530Y-88475041D01*
X179706791Y-88479690D01*
X179659304Y-88481869D01*
X179600841Y-88482363D01*
X179458301Y-88482363D01*
X179458301Y-88871463D01*
X179458362Y-88973853D01*
X179458626Y-89057238D01*
X179459210Y-89124048D01*
X179460236Y-89176713D01*
X179461822Y-89217662D01*
X179464089Y-89249326D01*
X179467154Y-89274133D01*
X179471139Y-89294514D01*
X179476162Y-89312899D01*
X179480698Y-89326885D01*
X179512088Y-89392451D01*
X179555840Y-89441716D01*
X179610605Y-89473476D01*
X179657782Y-89485045D01*
X179732515Y-89487775D01*
X179802376Y-89474890D01*
X179850411Y-89457239D01*
X179881428Y-89444953D01*
X179899829Y-89441604D01*
X179912212Y-89446632D01*
X179917624Y-89451522D01*
X179927604Y-89465311D01*
X179922959Y-89478923D01*
X179913985Y-89489570D01*
X179881484Y-89512750D01*
X179833461Y-89531212D01*
X179775454Y-89544230D01*
X179712999Y-89551078D01*
X179651635Y-89551030D01*
X179596898Y-89543361D01*
X179569393Y-89534739D01*
X179505611Y-89498766D01*
X179457285Y-89448701D01*
X179436649Y-89414768D01*
X179419609Y-89381938D01*
X179404936Y-89353987D01*
X179400200Y-89345105D01*
X179396773Y-89327795D01*
X179393707Y-89289560D01*
X179391021Y-89230906D01*
X179388730Y-89152341D01*
X179386854Y-89054369D01*
X179385407Y-88937499D01*
X179385095Y-88903017D01*
X179381552Y-88482363D01*
X179308271Y-88482363D01*
X179258618Y-88481255D01*
X179226726Y-88477091D01*
X179208997Y-88468613D01*
X179201832Y-88454560D01*
X179201086Y-88444852D01*
X179204268Y-88427447D01*
X179216216Y-88416278D01*
X179240530Y-88410081D01*
X179280810Y-88407591D01*
X179307886Y-88407342D01*
X179342798Y-88406852D01*
X179366654Y-88403096D01*
X179381576Y-88392642D01*
X179389684Y-88372057D01*
X179393100Y-88337910D01*
X179393947Y-88286770D01*
X179394015Y-88268017D01*
X179395678Y-88211573D01*
X179400642Y-88174588D01*
X179409557Y-88155249D01*
X179423071Y-88151744D01*
X179433882Y-88156628D01*
G37*
G36*
X177512736Y-88394254D02*
G01*
X177543379Y-88401042D01*
X177589536Y-88414607D01*
X177628333Y-88430599D01*
X177668512Y-88451902D01*
X177691894Y-88463977D01*
X177706023Y-88470633D01*
X177743583Y-88495188D01*
X177785351Y-88535008D01*
X177827470Y-88585497D01*
X177866083Y-88642061D01*
X177895759Y-88696709D01*
X177925032Y-88765724D01*
X177943840Y-88828729D01*
X177953646Y-88893435D01*
X177955912Y-88967553D01*
X177954789Y-89007824D01*
X177944224Y-89121260D01*
X177921847Y-89219005D01*
X177886566Y-89303926D01*
X177837291Y-89378890D01*
X177796348Y-89424533D01*
X177726752Y-89484329D01*
X177651281Y-89528516D01*
X177563348Y-89560825D01*
X177548495Y-89564926D01*
X177488900Y-89578670D01*
X177439786Y-89583807D01*
X177392012Y-89580356D01*
X177336440Y-89568340D01*
X177325559Y-89565447D01*
X177246070Y-89539659D01*
X177180642Y-89507709D01*
X177121997Y-89465466D01*
X177079061Y-89425525D01*
X177010312Y-89344131D01*
X176959847Y-89255959D01*
X176926744Y-89158618D01*
X176910080Y-89049717D01*
X176907766Y-88986076D01*
X176982620Y-88986076D01*
X176985825Y-89031443D01*
X176994279Y-89088102D01*
X177006264Y-89147075D01*
X177020062Y-89199381D01*
X177027725Y-89221856D01*
X177072755Y-89310438D01*
X177133666Y-89385833D01*
X177208548Y-89446171D01*
X177295493Y-89489582D01*
X177304124Y-89492692D01*
X177360402Y-89505304D01*
X177427659Y-89509705D01*
X177497058Y-89505859D01*
X177559690Y-89493751D01*
X177645972Y-89458514D01*
X177719083Y-89406391D01*
X177778969Y-89337445D01*
X177825578Y-89251741D01*
X177858859Y-89149342D01*
X177865526Y-89118973D01*
X177877595Y-89047376D01*
X177881867Y-88986206D01*
X177878349Y-88925927D01*
X177867050Y-88857002D01*
X177865759Y-88850577D01*
X177836258Y-88745950D01*
X177793140Y-88657576D01*
X177735614Y-88584529D01*
X177662887Y-88525885D01*
X177574165Y-88480720D01*
X177536851Y-88467150D01*
X177456708Y-88451505D01*
X177374465Y-88455090D01*
X177293338Y-88476369D01*
X177216546Y-88513809D01*
X177147305Y-88565872D01*
X177088832Y-88631025D01*
X177047589Y-88700613D01*
X177022925Y-88764711D01*
X177002443Y-88839319D01*
X176988297Y-88914967D01*
X176982642Y-88982185D01*
X176982620Y-88986076D01*
X176907766Y-88986076D01*
X176907584Y-88981081D01*
X176914850Y-88868172D01*
X176937348Y-88767592D01*
X176976130Y-88675594D01*
X177008502Y-88621688D01*
X177072829Y-88542928D01*
X177148901Y-88478917D01*
X177233823Y-88430851D01*
X177324699Y-88399922D01*
X177418635Y-88387325D01*
X177512736Y-88394254D01*
G37*
G36*
X175614703Y-88011257D02*
G01*
X175688826Y-88011997D01*
X175754677Y-88013143D01*
X175809297Y-88014701D01*
X175849729Y-88016676D01*
X175873013Y-88019075D01*
X175877098Y-88020288D01*
X175887463Y-88037248D01*
X175887676Y-88049596D01*
X175885698Y-88054963D01*
X175880631Y-88059340D01*
X175870370Y-88062871D01*
X175852809Y-88065698D01*
X175825843Y-88067966D01*
X175787365Y-88069818D01*
X175735270Y-88071399D01*
X175667452Y-88072852D01*
X175581805Y-88074320D01*
X175508837Y-88075454D01*
X175421455Y-88076847D01*
X175341132Y-88078249D01*
X175270317Y-88079607D01*
X175211461Y-88080870D01*
X175167014Y-88081985D01*
X175139424Y-88082900D01*
X175131043Y-88083492D01*
X175130443Y-88094367D01*
X175130057Y-88124126D01*
X175129886Y-88170221D01*
X175129930Y-88230102D01*
X175130188Y-88301219D01*
X175130661Y-88381024D01*
X175131043Y-88431455D01*
X175133871Y-88777088D01*
X175478626Y-88782447D01*
X175562456Y-88783917D01*
X175639274Y-88785586D01*
X175706494Y-88787371D01*
X175761532Y-88789191D01*
X175801800Y-88790965D01*
X175824716Y-88792613D01*
X175829034Y-88793475D01*
X175829136Y-88806034D01*
X175824955Y-88814909D01*
X175819176Y-88819432D01*
X175806561Y-88823167D01*
X175785013Y-88826240D01*
X175752433Y-88828778D01*
X175706721Y-88830907D01*
X175645778Y-88832754D01*
X175567507Y-88834446D01*
X175474547Y-88836034D01*
X175133871Y-88841392D01*
X175131040Y-89189165D01*
X175129998Y-89291326D01*
X175128655Y-89373683D01*
X175126939Y-89437864D01*
X175124774Y-89485498D01*
X175122089Y-89518216D01*
X175118809Y-89537644D01*
X175114964Y-89545352D01*
X175085924Y-89553523D01*
X175059113Y-89544319D01*
X175055635Y-89541232D01*
X175052993Y-89533365D01*
X175050704Y-89514658D01*
X175048748Y-89483981D01*
X175047106Y-89440201D01*
X175045760Y-89382188D01*
X175044690Y-89308809D01*
X175043876Y-89218934D01*
X175043300Y-89111431D01*
X175042943Y-88985169D01*
X175042785Y-88839015D01*
X175042774Y-88780681D01*
X175042789Y-88636013D01*
X175042861Y-88511278D01*
X175043032Y-88404971D01*
X175043342Y-88315590D01*
X175043833Y-88241633D01*
X175044545Y-88181596D01*
X175045520Y-88133976D01*
X175046799Y-88097271D01*
X175048423Y-88069978D01*
X175050432Y-88050593D01*
X175052868Y-88037615D01*
X175055773Y-88029540D01*
X175059186Y-88024865D01*
X175063149Y-88022088D01*
X175063504Y-88021896D01*
X175078944Y-88019246D01*
X175112739Y-88016950D01*
X175161929Y-88015013D01*
X175223556Y-88013440D01*
X175294661Y-88012239D01*
X175372288Y-88011414D01*
X175453475Y-88010971D01*
X175535267Y-88010917D01*
X175614703Y-88011257D01*
G37*
G36*
X183980738Y-87962809D02*
G01*
X183986718Y-87978082D01*
X183991213Y-88004335D01*
X183994487Y-88043457D01*
X183996806Y-88097337D01*
X183998435Y-88167864D01*
X183999640Y-88256926D01*
X184000201Y-88312805D01*
X184003325Y-88645917D01*
X184033297Y-88598971D01*
X184091284Y-88526679D01*
X184162180Y-88468421D01*
X184242691Y-88425128D01*
X184329523Y-88397736D01*
X184419382Y-88387177D01*
X184508973Y-88394385D01*
X184595001Y-88420294D01*
X184620819Y-88432469D01*
X184669642Y-88465210D01*
X184719050Y-88510860D01*
X184762100Y-88562260D01*
X184788797Y-88605710D01*
X184804996Y-88639568D01*
X184818240Y-88670265D01*
X184828829Y-88700394D01*
X184837065Y-88732548D01*
X184843247Y-88769320D01*
X184847675Y-88813302D01*
X184850651Y-88867087D01*
X184852475Y-88933269D01*
X184853446Y-89014441D01*
X184853865Y-89113194D01*
X184853959Y-89168270D01*
X184854462Y-89548734D01*
X184822310Y-89548734D01*
X184790158Y-89548734D01*
X184784012Y-89173628D01*
X184782046Y-89065934D01*
X184779946Y-88977574D01*
X184777600Y-88906452D01*
X184774899Y-88850466D01*
X184771733Y-88807520D01*
X184767991Y-88775512D01*
X184763564Y-88752346D01*
X184761532Y-88744936D01*
X184724870Y-88653236D01*
X184676085Y-88577931D01*
X184615883Y-88519841D01*
X184544972Y-88479785D01*
X184527361Y-88473257D01*
X184459879Y-88455409D01*
X184399973Y-88451853D01*
X184339283Y-88462541D01*
X184309394Y-88472018D01*
X184231398Y-88505498D01*
X184168064Y-88547529D01*
X184112984Y-88602717D01*
X184093533Y-88627235D01*
X184072928Y-88655199D01*
X184055985Y-88680792D01*
X184042305Y-88706447D01*
X184031486Y-88734599D01*
X184023126Y-88767682D01*
X184016825Y-88808133D01*
X184012182Y-88858384D01*
X184008796Y-88920870D01*
X184006265Y-88998027D01*
X184004188Y-89092288D01*
X184002630Y-89178987D01*
X184001072Y-89265730D01*
X183999521Y-89345392D01*
X183998035Y-89415507D01*
X183996672Y-89473609D01*
X183995489Y-89517233D01*
X183994543Y-89543911D01*
X183993984Y-89551413D01*
X183979621Y-89555167D01*
X183956987Y-89552631D01*
X183937581Y-89545806D01*
X183932344Y-89540696D01*
X183931544Y-89528026D01*
X183930857Y-89495647D01*
X183930289Y-89445285D01*
X183929844Y-89378665D01*
X183929529Y-89297512D01*
X183929347Y-89203551D01*
X183929305Y-89098509D01*
X183929407Y-88984110D01*
X183929659Y-88862081D01*
X183930001Y-88751462D01*
X183930557Y-88603435D01*
X183931118Y-88475377D01*
X183931723Y-88365825D01*
X183932413Y-88273313D01*
X183933226Y-88196378D01*
X183934202Y-88133553D01*
X183935380Y-88083376D01*
X183936801Y-88044380D01*
X183938503Y-88015102D01*
X183940526Y-87994077D01*
X183942910Y-87979840D01*
X183945693Y-87970927D01*
X183948916Y-87965872D01*
X183951234Y-87963982D01*
X183963261Y-87957648D01*
X183973008Y-87956627D01*
X183980738Y-87962809D01*
G37*
G36*
X185726993Y-88394626D02*
G01*
X185818954Y-88419395D01*
X185905432Y-88461275D01*
X185983532Y-88518902D01*
X186050356Y-88590917D01*
X186097245Y-88664557D01*
X186129713Y-88732438D01*
X186151626Y-88794057D01*
X186164688Y-88856803D01*
X186170605Y-88928065D01*
X186171412Y-88986076D01*
X186168069Y-89074244D01*
X186158075Y-89148176D01*
X186140069Y-89214409D01*
X186112690Y-89279477D01*
X186108644Y-89287649D01*
X186083971Y-89331365D01*
X186054557Y-89375536D01*
X186024903Y-89413945D01*
X185999511Y-89440376D01*
X185996062Y-89443140D01*
X185975938Y-89459307D01*
X185955264Y-89476896D01*
X185914802Y-89504516D01*
X185859950Y-89531533D01*
X185797672Y-89555455D01*
X185734929Y-89573792D01*
X185678685Y-89584052D01*
X185652197Y-89585332D01*
X185622148Y-89582101D01*
X185581277Y-89574628D01*
X185545727Y-89566348D01*
X185441890Y-89529988D01*
X185352462Y-89478268D01*
X185276941Y-89410680D01*
X185214822Y-89326714D01*
X185165603Y-89225863D01*
X185142685Y-89159151D01*
X185131875Y-89106117D01*
X185125790Y-89039977D01*
X185124744Y-88985365D01*
X185202786Y-88985365D01*
X185205745Y-89037411D01*
X185213771Y-89095398D01*
X185225615Y-89154160D01*
X185240032Y-89208532D01*
X185255774Y-89253346D01*
X185271595Y-89283437D01*
X185275996Y-89288648D01*
X185287067Y-89304263D01*
X185288512Y-89309657D01*
X185295833Y-89325103D01*
X185314960Y-89349953D01*
X185341639Y-89379415D01*
X185371615Y-89408698D01*
X185392261Y-89426507D01*
X185419190Y-89443985D01*
X185458604Y-89464719D01*
X185502757Y-89484890D01*
X185540369Y-89499487D01*
X185580269Y-89507042D01*
X185633614Y-89508834D01*
X185693352Y-89505366D01*
X185752429Y-89497140D01*
X185803792Y-89484658D01*
X185817741Y-89479732D01*
X185882909Y-89444761D01*
X185944918Y-89394368D01*
X185998450Y-89333990D01*
X186038189Y-89269066D01*
X186048943Y-89243291D01*
X186064834Y-89188389D01*
X186078530Y-89122274D01*
X186088266Y-89055114D01*
X186092276Y-88997080D01*
X186092297Y-88993487D01*
X186084144Y-88877461D01*
X186060127Y-88772882D01*
X186020980Y-88680893D01*
X185967440Y-88602636D01*
X185900241Y-88539253D01*
X185820121Y-88491887D01*
X185754012Y-88468113D01*
X185683357Y-88453482D01*
X185619873Y-88452189D01*
X185554007Y-88464166D01*
X185544993Y-88466632D01*
X185454902Y-88502544D01*
X185377118Y-88555255D01*
X185312523Y-88623426D01*
X185262000Y-88705718D01*
X185226433Y-88800793D01*
X185206705Y-88907313D01*
X185202786Y-88985365D01*
X185124744Y-88985365D01*
X185124412Y-88968041D01*
X185127725Y-88897615D01*
X185135712Y-88836009D01*
X185143489Y-88803882D01*
X185187781Y-88691887D01*
X185244968Y-88596998D01*
X185315036Y-88519230D01*
X185397970Y-88458595D01*
X185493756Y-88415110D01*
X185538212Y-88401861D01*
X185632447Y-88388327D01*
X185726993Y-88394626D01*
G37*
G36*
X181337641Y-88017510D02*
G01*
X181408850Y-88031064D01*
X181512723Y-88063902D01*
X181602743Y-88108346D01*
X181684729Y-88167484D01*
X181712965Y-88192563D01*
X181788951Y-88274759D01*
X181849903Y-88366886D01*
X181897847Y-88472399D01*
X181923622Y-88552025D01*
X181938072Y-88623114D01*
X181946564Y-88707623D01*
X181949066Y-88798375D01*
X181945546Y-88888191D01*
X181935972Y-88969893D01*
X181925701Y-89018228D01*
X181884851Y-89139453D01*
X181831017Y-89244671D01*
X181762699Y-89335974D01*
X181678395Y-89415454D01*
X181601761Y-89469839D01*
X181579135Y-89481300D01*
X181543016Y-89496600D01*
X181500270Y-89512874D01*
X181489230Y-89516802D01*
X181417961Y-89535649D01*
X181335830Y-89547542D01*
X181250066Y-89552164D01*
X181167895Y-89549200D01*
X181096545Y-89538337D01*
X181081972Y-89534558D01*
X180964529Y-89490621D01*
X180860351Y-89430247D01*
X180770131Y-89354359D01*
X180694561Y-89263880D01*
X180634335Y-89159736D01*
X180590145Y-89042848D01*
X180562685Y-88914141D01*
X180554523Y-88831567D01*
X180556187Y-88727146D01*
X180640077Y-88727146D01*
X180640314Y-88837380D01*
X180651471Y-88943539D01*
X180652315Y-88948565D01*
X180672853Y-89044306D01*
X180700236Y-89124601D01*
X180737233Y-89195048D01*
X180786612Y-89261245D01*
X180830116Y-89308140D01*
X180895065Y-89366791D01*
X180962040Y-89412189D01*
X181036833Y-89447443D01*
X181125233Y-89475662D01*
X181156993Y-89483631D01*
X181188184Y-89486997D01*
X181234001Y-89487080D01*
X181287967Y-89484367D01*
X181343609Y-89479346D01*
X181394451Y-89472503D01*
X181434019Y-89464327D01*
X181441002Y-89462258D01*
X181546439Y-89417746D01*
X181637865Y-89357348D01*
X181714815Y-89281788D01*
X181776827Y-89191789D01*
X181823436Y-89088076D01*
X181854179Y-88971372D01*
X181868592Y-88842402D01*
X181869694Y-88792964D01*
X181861991Y-88659914D01*
X181838543Y-88540560D01*
X181798838Y-88433522D01*
X181742366Y-88337417D01*
X181669640Y-88251885D01*
X181635224Y-88218753D01*
X181605271Y-88192266D01*
X181583563Y-88175635D01*
X181574997Y-88171561D01*
X181559447Y-88166495D01*
X181557106Y-88163523D01*
X181543861Y-88152380D01*
X181514746Y-88137251D01*
X181474438Y-88120265D01*
X181427612Y-88103547D01*
X181419567Y-88100957D01*
X181359407Y-88088214D01*
X181281159Y-88082604D01*
X181253449Y-88082283D01*
X181137525Y-88091891D01*
X181031103Y-88120709D01*
X180934197Y-88168731D01*
X180846826Y-88235950D01*
X180801552Y-88282560D01*
X180771433Y-88322851D01*
X180738934Y-88376036D01*
X180708117Y-88434565D01*
X180683044Y-88490888D01*
X180671004Y-88525232D01*
X180650421Y-88620531D01*
X180640077Y-88727146D01*
X180556187Y-88727146D01*
X180556494Y-88707894D01*
X180575611Y-88581745D01*
X180610558Y-88461537D01*
X180613586Y-88453502D01*
X180664869Y-88347859D01*
X180731888Y-88254422D01*
X180812380Y-88174394D01*
X180904078Y-88108980D01*
X181004718Y-88059381D01*
X181112035Y-88026801D01*
X181223765Y-88012443D01*
X181337641Y-88017510D01*
G37*
G36*
X178669150Y-88391289D02*
G01*
X178746895Y-88405887D01*
X178822090Y-88427391D01*
X178876888Y-88449579D01*
X178913510Y-88468763D01*
X178934121Y-88483906D01*
X178942758Y-88498553D01*
X178943871Y-88508441D01*
X178940833Y-88530736D01*
X178929659Y-88539730D01*
X178907256Y-88535791D01*
X178870531Y-88519287D01*
X178867130Y-88517562D01*
X178773620Y-88479290D01*
X178677086Y-88457137D01*
X178582178Y-88451719D01*
X178493549Y-88463651D01*
X178482293Y-88466632D01*
X178409709Y-88492099D01*
X178355103Y-88523436D01*
X178315316Y-88562972D01*
X178288824Y-88609179D01*
X178273778Y-88649919D01*
X178270460Y-88682408D01*
X178279345Y-88715559D01*
X178296354Y-88750011D01*
X178316415Y-88781438D01*
X178340304Y-88804487D01*
X178375177Y-88825487D01*
X178390130Y-88832957D01*
X178438148Y-88854591D01*
X178487627Y-88874084D01*
X178532843Y-88889427D01*
X178568070Y-88898613D01*
X178582370Y-88900337D01*
X178605009Y-88903971D01*
X178647569Y-88914886D01*
X178710131Y-88933105D01*
X178767035Y-88950580D01*
X178850514Y-88983617D01*
X178922019Y-89026090D01*
X178978376Y-89075747D01*
X179014097Y-89125803D01*
X179026461Y-89163656D01*
X179033233Y-89214575D01*
X179034406Y-89270933D01*
X179029970Y-89325102D01*
X179019918Y-89369454D01*
X179014384Y-89382616D01*
X178988011Y-89423043D01*
X178951821Y-89464629D01*
X178912068Y-89501083D01*
X178875006Y-89526114D01*
X178868850Y-89529031D01*
X178814907Y-89548381D01*
X178752590Y-89564473D01*
X178688021Y-89576318D01*
X178627325Y-89582931D01*
X178576625Y-89583325D01*
X178552689Y-89579964D01*
X178529186Y-89574337D01*
X178495788Y-89566344D01*
X178483027Y-89563291D01*
X178406563Y-89540657D01*
X178333762Y-89511099D01*
X178270118Y-89477249D01*
X178221124Y-89441738D01*
X178212705Y-89433813D01*
X178198735Y-89410551D01*
X178193923Y-89383319D01*
X178199193Y-89361223D01*
X178204781Y-89355573D01*
X178218431Y-89358168D01*
X178240996Y-89372384D01*
X178255688Y-89384534D01*
X178325504Y-89434753D01*
X178407229Y-89472646D01*
X178496550Y-89497740D01*
X178589156Y-89509566D01*
X178680735Y-89507650D01*
X178766974Y-89491523D01*
X178843563Y-89460712D01*
X178860678Y-89450671D01*
X178908788Y-89408329D01*
X178942743Y-89353664D01*
X178961071Y-89291632D01*
X178962300Y-89227191D01*
X178945252Y-89165944D01*
X178925845Y-89132205D01*
X178899146Y-89102893D01*
X178862741Y-89076755D01*
X178814214Y-89052542D01*
X178751148Y-89029003D01*
X178671128Y-89004886D01*
X178595559Y-88984914D01*
X178497661Y-88958217D01*
X178418577Y-88932112D01*
X178355761Y-88905397D01*
X178306668Y-88876871D01*
X178268752Y-88845332D01*
X178247246Y-88820485D01*
X178228124Y-88788657D01*
X178210482Y-88748804D01*
X178198016Y-88710240D01*
X178194259Y-88686933D01*
X178202580Y-88627339D01*
X178227899Y-88566679D01*
X178266771Y-88510325D01*
X178315748Y-88463651D01*
X178352199Y-88440626D01*
X178397648Y-88422470D01*
X178455971Y-88406161D01*
X178518608Y-88393597D01*
X178576996Y-88386677D01*
X178598939Y-88385909D01*
X178669150Y-88391289D01*
G37*
%TD*%
%LPC*%
D13*
%TO.C,SW17*%
X157500000Y-77450000D03*
D14*
X162500000Y-73750000D03*
D13*
X162500000Y-79650000D03*
%TD*%
%TO.C,SW1*%
X89500000Y-77450000D03*
D14*
X94500000Y-73750000D03*
D13*
X94500000Y-79650000D03*
%TD*%
%TO.C,SW15*%
X140500000Y-111450000D03*
D14*
X145500000Y-107750000D03*
D13*
X145500000Y-113650000D03*
%TD*%
%TO.C,SW14*%
X140500000Y-94450000D03*
D14*
X145500000Y-90750000D03*
D13*
X145500000Y-96650000D03*
%TD*%
%TO.C,SW8*%
X106500000Y-128450000D03*
D14*
X111500000Y-124750000D03*
D13*
X111500000Y-130650000D03*
%TD*%
D15*
%TO.C,U1*%
X173380000Y-68174000D03*
X173380000Y-70714000D03*
X173380000Y-73254000D03*
X173380000Y-75794000D03*
X173380000Y-78334000D03*
X173380000Y-80874000D03*
X173380000Y-83414000D03*
X189620000Y-83414000D03*
X189620000Y-80874000D03*
X189620000Y-78334000D03*
X189620000Y-75794000D03*
X189620000Y-73254000D03*
X189620000Y-70714000D03*
X189620000Y-68174000D03*
D16*
X185335400Y-85106000D03*
X187215000Y-85106000D03*
X177055000Y-75477000D03*
X177055000Y-73572000D03*
%TD*%
%TO.C,SW21*%
X177000000Y-112950000D03*
X182000000Y-112950000D03*
X179500000Y-112950000D03*
D17*
X173900000Y-105450000D03*
X185100000Y-105450000D03*
%TD*%
D13*
%TO.C,SW18*%
X157500000Y-94450000D03*
D14*
X162500000Y-90750000D03*
D13*
X162500000Y-96650000D03*
%TD*%
%TO.C,SW2*%
X89500000Y-94450000D03*
D14*
X94500000Y-90750000D03*
D13*
X94500000Y-96650000D03*
%TD*%
%TO.C,SW13*%
X140500000Y-77450000D03*
D14*
X145500000Y-73750000D03*
D13*
X145500000Y-79650000D03*
%TD*%
%TO.C,SW20*%
X157500000Y-128450000D03*
D14*
X162500000Y-124750000D03*
D13*
X162500000Y-130650000D03*
%TD*%
%TO.C,SW3*%
X89500000Y-111425000D03*
D14*
X94500000Y-107725000D03*
D13*
X94500000Y-113625000D03*
%TD*%
%TO.C,SW19*%
X157500000Y-111450000D03*
D14*
X162500000Y-107750000D03*
D13*
X162500000Y-113650000D03*
%TD*%
%TO.C,SW7*%
X106500000Y-111440000D03*
D14*
X111500000Y-107740000D03*
D13*
X111500000Y-113640000D03*
%TD*%
%TO.C,SW6*%
X106500000Y-94450000D03*
D14*
X111500000Y-90750000D03*
D13*
X111500000Y-96650000D03*
%TD*%
%TO.C,SW9*%
X123480000Y-77450000D03*
D14*
X128480000Y-73750000D03*
D13*
X128480000Y-79650000D03*
%TD*%
%TO.C,SW4*%
X89500000Y-128450000D03*
D14*
X94500000Y-124750000D03*
D13*
X94500000Y-130650000D03*
%TD*%
%TO.C,SW12*%
X123500000Y-128450000D03*
D14*
X128500000Y-124750000D03*
D13*
X128500000Y-130650000D03*
%TD*%
%TO.C,SW11*%
X123500000Y-111450000D03*
D14*
X128500000Y-107750000D03*
D13*
X128500000Y-113650000D03*
%TD*%
D18*
%TO.C,SW24*%
X189450000Y-99050000D03*
X189450000Y-101550000D03*
X189450000Y-104050000D03*
%TD*%
D13*
%TO.C,SW16*%
X140490000Y-128435000D03*
D14*
X145490000Y-124735000D03*
D13*
X145490000Y-130635000D03*
%TD*%
%TO.C,SW22*%
X174500000Y-128450000D03*
D14*
X179500000Y-124750000D03*
D13*
X179500000Y-130650000D03*
%TD*%
%TO.C,SW5*%
X106510000Y-77450000D03*
D14*
X111510000Y-73750000D03*
D13*
X111510000Y-79650000D03*
%TD*%
%TO.C,SW10*%
X123500000Y-94450000D03*
D14*
X128500000Y-90750000D03*
D13*
X128500000Y-96650000D03*
%TD*%
%LPD*%
M02*
