M48
; DRILL file {KiCad 9.0.2} date 2026-04-12T18:20:17+0900
; FORMAT={-:-/ absolute / inch / decimal}
; #@! TF.CreationDate,2026-04-12T18:20:17+09:00
; #@! TF.GenerationSoftware,Kicad,Pcbnew,9.0.2
; #@! TF.FileFunction,Plated,1,2,PTH
FMAT,2
INCH
; #@! TA.AperFunction,Plated,PTH,ViaDrill
T1C0.0118
; #@! TA.AperFunction,Plated,PTH,ComponentDrill
T2C0.0295
%
G90
G05
T1
X4.9803Y-3.8878
X4.986Y-3.6179
X5.0459Y-3.7732
X5.0788Y-3.7628
X5.0885Y-3.29
X5.1022Y-3.9143
X5.1663Y-3.875
X5.2224Y-3.8445
X5.374Y-3.8858
X5.5576Y-3.7996
X5.561Y-3.937
X5.6493Y-3.6394
X5.7002Y-3.7058
X5.7002Y-3.7894
X5.7087Y-3.3681
X5.7087Y-3.563
X5.7185Y-3.4646
X5.7579Y-3.7294
T2
X5.1437Y-3.1929
X5.1437Y-3.263
X5.1437Y-3.3331
X5.1437Y-3.4031
X5.1437Y-3.4732
X5.1437Y-3.5433
X5.1437Y-3.6134
X5.1437Y-3.6835
X5.565Y-3.228
X5.565Y-3.298
X5.565Y-3.3681
X5.565Y-3.4382
X5.565Y-3.5083
X5.565Y-3.5783
X5.565Y-3.6484
X5.565Y-3.7185
M30
