%TF.GenerationSoftware,KiCad,Pcbnew,9.0.2*%
%TF.CreationDate,2026-04-12T18:20:16+09:00*%
%TF.ProjectId,pmw3610_breakout_for_frostortho,706d7733-3631-4305-9f62-7265616b6f75,rev?*%
%TF.SameCoordinates,Original*%
%TF.FileFunction,Copper,L2,Bot*%
%TF.FilePolarity,Positive*%
%FSLAX46Y46*%
G04 Gerber Fmt 4.6, Leading zero omitted, Abs format (unit mm)*
G04 Created by KiCad (PCBNEW 9.0.2) date 2026-04-12 18:20:16*
%MOMM*%
%LPD*%
G01*
G04 APERTURE LIST*
G04 Aperture macros list*
%AMRoundRect*
0 Rectangle with rounded corners*
0 $1 Rounding radius*
0 $2 $3 $4 $5 $6 $7 $8 $9 X,Y pos of 4 corners*
0 Add a 4 corners polygon primitive as box body*
4,1,4,$2,$3,$4,$5,$6,$7,$8,$9,$2,$3,0*
0 Add four circle primitives for the rounded corners*
1,1,$1+$1,$2,$3*
1,1,$1+$1,$4,$5*
1,1,$1+$1,$6,$7*
1,1,$1+$1,$8,$9*
0 Add four rect primitives between the rounded corners*
20,1,$1+$1,$2,$3,$4,$5,0*
20,1,$1+$1,$4,$5,$6,$7,0*
20,1,$1+$1,$6,$7,$8,$9,0*
20,1,$1+$1,$8,$9,$2,$3,0*%
G04 Aperture macros list end*
%TA.AperFunction,ComponentPad*%
%ADD10RoundRect,0.187500X-0.437500X0.437500X-0.437500X-0.437500X0.437500X-0.437500X0.437500X0.437500X0*%
%TD*%
%TA.AperFunction,ComponentPad*%
%ADD11O,1.250000X1.250000*%
%TD*%
%TA.AperFunction,SMDPad,CuDef*%
%ADD12R,0.300000X0.800000*%
%TD*%
%TA.AperFunction,SMDPad,CuDef*%
%ADD13R,1.000000X0.800000*%
%TD*%
%TA.AperFunction,SMDPad,CuDef*%
%ADD14RoundRect,0.225000X0.225000X0.250000X-0.225000X0.250000X-0.225000X-0.250000X0.225000X-0.250000X0*%
%TD*%
%TA.AperFunction,SMDPad,CuDef*%
%ADD15RoundRect,0.225000X-0.225000X-0.250000X0.225000X-0.250000X0.225000X0.250000X-0.225000X0.250000X0*%
%TD*%
%TA.AperFunction,SMDPad,CuDef*%
%ADD16RoundRect,0.150000X0.587500X0.150000X-0.587500X0.150000X-0.587500X-0.150000X0.587500X-0.150000X0*%
%TD*%
%TA.AperFunction,SMDPad,CuDef*%
%ADD17RoundRect,0.200000X0.200000X0.275000X-0.200000X0.275000X-0.200000X-0.275000X0.200000X-0.275000X0*%
%TD*%
%TA.AperFunction,ViaPad*%
%ADD18C,0.600000*%
%TD*%
%TA.AperFunction,Conductor*%
%ADD19C,0.200000*%
%TD*%
G04 APERTURE END LIST*
D10*
%TO.P,U2,1,+VCSEL*%
%TO.N,Net-(U2-+VCSEL)*%
X130650000Y-81100000D03*
D11*
%TO.P,U2,2,SDIO*%
%TO.N,SDIO*%
X130650000Y-82880000D03*
%TO.P,U2,3,SCLK*%
%TO.N,SCLK*%
X130650000Y-84660000D03*
%TO.P,U2,4,NC*%
%TO.N,unconnected-(U2-NC-Pad4)*%
X130650000Y-86440000D03*
%TO.P,U2,5,NCS*%
%TO.N,NCS*%
X130650000Y-88220000D03*
%TO.P,U2,6,VDDIO*%
%TO.N,VCC*%
X130650000Y-90000000D03*
%TO.P,U2,7,NRESET*%
%TO.N,Net-(U2-NRESET)*%
X130650000Y-91780000D03*
%TO.P,U2,8,MOTION*%
%TO.N,MOTION*%
X130650000Y-93560000D03*
%TO.P,U2,9,VCP*%
%TO.N,Net-(U2-VCP)*%
X141350000Y-94450000D03*
%TO.P,U2,10,PASS_T*%
%TO.N,Net-(U2-+VCSEL)*%
X141350000Y-92670000D03*
%TO.P,U2,11,GND*%
%TO.N,GND*%
X141350000Y-90890000D03*
%TO.P,U2,12,CP*%
%TO.N,Net-(U2-CP)*%
X141350000Y-89110000D03*
%TO.P,U2,13,CN*%
%TO.N,Net-(U2-CN)*%
X141350000Y-87330000D03*
%TO.P,U2,14,VDD*%
%TO.N,+1V9*%
X141350000Y-85550000D03*
%TO.P,U2,15,XYLASER*%
%TO.N,Net-(U2--VCSEL)*%
X141350000Y-83770000D03*
%TO.P,U2,16,-VCSEL*%
X141350000Y-81990000D03*
%TD*%
D12*
%TO.P,J2,1,Pin_1*%
%TO.N,VCC*%
X137000000Y-97500000D03*
%TO.P,J2,2,Pin_2*%
%TO.N,NCS*%
X136500000Y-97500000D03*
%TO.P,J2,3,Pin_3*%
%TO.N,MOTION*%
X136000000Y-97500000D03*
%TO.P,J2,4,Pin_4*%
%TO.N,SDIO*%
X135500000Y-97500000D03*
%TO.P,J2,5,Pin_5*%
%TO.N,SCLK*%
X135000000Y-97500000D03*
%TO.P,J2,6,Pin_6*%
%TO.N,GND*%
X134500000Y-97500000D03*
D13*
%TO.P,J2,MP*%
%TO.N,N/C*%
X138150000Y-99950000D03*
X133350000Y-99950000D03*
%TD*%
D14*
%TO.P,C2,1*%
%TO.N,+1V9*%
X145025000Y-86500000D03*
%TO.P,C2,2*%
%TO.N,GND*%
X143475000Y-86500000D03*
%TD*%
%TO.P,C7,1*%
%TO.N,Net-(U2-VCP)*%
X128600000Y-85000000D03*
%TO.P,C7,2*%
%TO.N,GND*%
X127050000Y-85000000D03*
%TD*%
%TO.P,C5,1*%
%TO.N,Net-(U2-CN)*%
X145025000Y-78250000D03*
%TO.P,C5,2*%
%TO.N,Net-(U2-CP)*%
X143475000Y-78250000D03*
%TD*%
D15*
%TO.P,C1,1*%
%TO.N,GND*%
X143450000Y-89250000D03*
%TO.P,C1,2*%
%TO.N,VCC*%
X145000000Y-89250000D03*
%TD*%
D14*
%TO.P,C9,1*%
%TO.N,+1V9*%
X128600000Y-91000000D03*
%TO.P,C9,2*%
%TO.N,GND*%
X127050000Y-91000000D03*
%TD*%
D16*
%TO.P,U1,1,GND*%
%TO.N,GND*%
X144937500Y-93050000D03*
%TO.P,U1,2,VO*%
%TO.N,+1V9*%
X144937500Y-94950000D03*
%TO.P,U1,3,VI*%
%TO.N,VCC*%
X143062500Y-94000000D03*
%TD*%
D14*
%TO.P,C8,1*%
%TO.N,+1V9*%
X128600000Y-88000000D03*
%TO.P,C8,2*%
%TO.N,GND*%
X127050000Y-88000000D03*
%TD*%
%TO.P,C6,1*%
%TO.N,Net-(U2-VCP)*%
X128600000Y-82000000D03*
%TO.P,C6,2*%
%TO.N,GND*%
X127050000Y-82000000D03*
%TD*%
%TO.P,C4,1*%
%TO.N,Net-(U2-+VCSEL)*%
X145025000Y-81000000D03*
%TO.P,C4,2*%
%TO.N,GND*%
X143475000Y-81000000D03*
%TD*%
%TO.P,C3,1*%
%TO.N,VCC*%
X145025000Y-83750000D03*
%TO.P,C3,2*%
%TO.N,GND*%
X143475000Y-83750000D03*
%TD*%
D17*
%TO.P,R1,1*%
%TO.N,Net-(U2-NRESET)*%
X128650000Y-94000000D03*
%TO.P,R1,2*%
%TO.N,VCC*%
X127000000Y-94000000D03*
%TD*%
D18*
%TO.N,NCS*%
X136500000Y-98700000D03*
%TO.N,SCLK*%
X131225000Y-98425000D03*
%TO.N,GND*%
X132650000Y-97649735D03*
%TO.N,VCC*%
X141163686Y-96509843D03*
X144786300Y-96250000D03*
X144786300Y-94126600D03*
X128165200Y-95839900D03*
%TO.N,GND*%
X126644669Y-91894669D03*
%TO.N,+1V9*%
X146250000Y-94727500D03*
X145000000Y-85550000D03*
X141250000Y-100000000D03*
%TO.N,Net-(U2-+VCSEL)*%
X143492800Y-92441900D03*
X126500000Y-98750000D03*
X145250000Y-88000000D03*
%TO.N,Net-(U2-CP)*%
X145000000Y-90500000D03*
%TO.N,Net-(U2-VCP)*%
X129001100Y-95573900D03*
%TO.N,SCLK*%
X129248700Y-83567000D03*
%TO.N,SDIO*%
X129595064Y-99423737D03*
%TD*%
D19*
%TO.N,NCS*%
X136500000Y-98700000D02*
X136500000Y-97500000D01*
%TO.N,+1V9*%
X126113900Y-93486100D02*
X128600000Y-91000000D01*
X126113900Y-97113900D02*
X126113900Y-93486100D01*
X140600000Y-100650000D02*
X129650000Y-100650000D01*
X141250000Y-100000000D02*
X140600000Y-100650000D01*
X129650000Y-100650000D02*
X126113900Y-97113900D01*
%TO.N,GND*%
X134425000Y-97575000D02*
X134500000Y-97500000D01*
X132724735Y-97575000D02*
X134425000Y-97575000D01*
X132650000Y-97649735D02*
X132724735Y-97575000D01*
%TO.N,SCLK*%
X135000000Y-98152000D02*
X135000000Y-97500000D01*
X134727000Y-98425000D02*
X135000000Y-98152000D01*
X131225000Y-98425000D02*
X134727000Y-98425000D01*
%TO.N,SDIO*%
X129993801Y-99025000D02*
X129595064Y-99423737D01*
X135125000Y-99025000D02*
X129993801Y-99025000D01*
X135500000Y-98650000D02*
X135125000Y-99025000D01*
X135500000Y-97500000D02*
X135500000Y-98650000D01*
%TO.N,VCC*%
X140173529Y-97500000D02*
X137000000Y-97500000D01*
X141163686Y-96509843D02*
X140173529Y-97500000D01*
%TO.N,MOTION*%
X136000000Y-96550000D02*
X136000000Y-97500000D01*
X135625000Y-96175000D02*
X136000000Y-96550000D01*
X131250000Y-96175000D02*
X135625000Y-96175000D01*
X130650000Y-93560000D02*
X130650000Y-95575000D01*
X130650000Y-95575000D02*
X131250000Y-96175000D01*
%TO.N,Net-(U2-VCP)*%
X129384900Y-91963300D02*
X129384900Y-85784900D01*
X127922500Y-94495300D02*
X127922500Y-93425700D01*
X127924000Y-94496800D02*
X127922500Y-94495300D01*
X128226582Y-94801000D02*
X127924000Y-94498418D01*
X129001100Y-95573900D02*
X128228200Y-94801000D01*
X127924000Y-94498418D02*
X127924000Y-94496800D01*
X128228200Y-94801000D02*
X128226582Y-94801000D01*
X127922500Y-93425700D02*
X129384900Y-91963300D01*
X129384900Y-85784900D02*
X128600000Y-85000000D01*
%TO.N,VCC*%
X141153843Y-96500000D02*
X144536300Y-96500000D01*
X144536300Y-96500000D02*
X144786300Y-96250000D01*
X127000000Y-94000000D02*
X127000000Y-94674700D01*
X146000000Y-84250000D02*
X146000000Y-88750000D01*
X145500000Y-89250000D02*
X145000000Y-89250000D01*
X143062500Y-94000000D02*
X143189100Y-94126600D01*
X144249000Y-90001000D02*
X145000000Y-89250000D01*
X145025000Y-83750000D02*
X145500000Y-83750000D01*
X143189100Y-94126600D02*
X144786300Y-94126600D01*
X145750000Y-92000000D02*
X145250000Y-92000000D01*
X145500000Y-83750000D02*
X146000000Y-84250000D01*
X145623400Y-94126600D02*
X146250000Y-93500000D01*
X127000000Y-94674700D02*
X128165200Y-95839900D01*
X146000000Y-88750000D02*
X145500000Y-89250000D01*
X146250000Y-92500000D02*
X145750000Y-92000000D01*
X144786300Y-94126600D02*
X145623400Y-94126600D01*
X146250000Y-93500000D02*
X146250000Y-92500000D01*
X145250000Y-92000000D02*
X144249000Y-90999000D01*
X144249000Y-90999000D02*
X144249000Y-90001000D01*
%TO.N,GND*%
X143450000Y-89250000D02*
X143450000Y-90444000D01*
X143475000Y-86500000D02*
X143475000Y-89225000D01*
X126594769Y-91894669D02*
X127050000Y-91439438D01*
X143450000Y-90444000D02*
X143004000Y-90890000D01*
X143004000Y-90890000D02*
X141350000Y-90890000D01*
X144937500Y-93050000D02*
X144937500Y-92823500D01*
X126644669Y-91894669D02*
X126594769Y-91894669D01*
X127050000Y-88000000D02*
X127050000Y-89500000D01*
X144937500Y-92823500D02*
X143004000Y-90890000D01*
X127050000Y-85000000D02*
X127050000Y-88000000D01*
X143475000Y-89225000D02*
X143450000Y-89250000D01*
X127050000Y-89500000D02*
X127050000Y-91000000D01*
X127050000Y-82000000D02*
X127050000Y-85000000D01*
X143475000Y-81525000D02*
X143475000Y-86500000D01*
X127050000Y-91439438D02*
X127050000Y-89500000D01*
%TO.N,+1V9*%
X145026000Y-94950000D02*
X144937500Y-94950000D01*
X145977500Y-95000000D02*
X145076000Y-95000000D01*
X145000000Y-86475000D02*
X145025000Y-86500000D01*
X128600000Y-91000000D02*
X128600000Y-88000000D01*
X145076000Y-95000000D02*
X145026000Y-94950000D01*
X145000000Y-85550000D02*
X145000000Y-86475000D01*
X146250000Y-94727500D02*
X145977500Y-95000000D01*
%TO.N,Net-(U2-+VCSEL)*%
X142301700Y-92670000D02*
X141350000Y-92670000D01*
X126500000Y-98750000D02*
X125521800Y-97771800D01*
X144250000Y-87000000D02*
X144250000Y-81775000D01*
X145250000Y-88000000D02*
X144250000Y-87000000D01*
X143492800Y-92441900D02*
X142529800Y-92441900D01*
X142529800Y-92441900D02*
X142301700Y-92670000D01*
X125521800Y-82242800D02*
X126664600Y-81100000D01*
X125521800Y-97771800D02*
X125521800Y-82242800D01*
X126664600Y-81100000D02*
X130650000Y-81100000D01*
X144250000Y-81775000D02*
X145025000Y-81000000D01*
%TO.N,Net-(U2-CP)*%
X144475000Y-77250000D02*
X143475000Y-78250000D01*
X146500000Y-77750000D02*
X146000000Y-77250000D01*
X145000000Y-90500000D02*
X145029232Y-90500000D01*
X141350000Y-89110000D02*
X141640000Y-89110000D01*
X146000000Y-77250000D02*
X144475000Y-77250000D01*
X146500000Y-89029232D02*
X146500000Y-77750000D01*
X145029232Y-90500000D02*
X146500000Y-89029232D01*
%TO.N,Net-(U2-CN)*%
X142276000Y-79724000D02*
X142750000Y-79250000D01*
X145750000Y-78250000D02*
X145025000Y-78250000D01*
X142276000Y-86724000D02*
X142276000Y-79724000D01*
X142750000Y-79250000D02*
X145750000Y-79250000D01*
X141670000Y-87330000D02*
X142276000Y-86724000D01*
X141350000Y-87330000D02*
X141670000Y-87330000D01*
X145750000Y-79250000D02*
X146000000Y-79000000D01*
X146000000Y-78500000D02*
X145750000Y-78250000D01*
X146000000Y-79000000D02*
X146000000Y-78500000D01*
%TO.N,Net-(U2-VCP)*%
X128600000Y-82000000D02*
X128600000Y-85000000D01*
%TO.N,Net-(U2-NRESET)*%
X128650000Y-93780000D02*
X130650000Y-91780000D01*
X128650000Y-94000000D02*
X128650000Y-93780000D01*
%TO.N,SCLK*%
X129698300Y-84016600D02*
X129698300Y-84660000D01*
X130650000Y-84660000D02*
X129698300Y-84660000D01*
X129248700Y-83567000D02*
X129698300Y-84016600D01*
%TD*%
M02*
