%TF.GenerationSoftware,KiCad,Pcbnew,9.0.2*%
%TF.CreationDate,2026-04-12T18:20:16+09:00*%
%TF.ProjectId,pmw3610_breakout_for_frostortho,706d7733-3631-4305-9f62-7265616b6f75,rev?*%
%TF.SameCoordinates,Original*%
%TF.FileFunction,Soldermask,Bot*%
%TF.FilePolarity,Negative*%
%FSLAX46Y46*%
G04 Gerber Fmt 4.6, Leading zero omitted, Abs format (unit mm)*
G04 Created by KiCad (PCBNEW 9.0.2) date 2026-04-12 18:20:16*
%MOMM*%
%LPD*%
G01*
G04 APERTURE LIST*
G04 Aperture macros list*
%AMRoundRect*
0 Rectangle with rounded corners*
0 $1 Rounding radius*
0 $2 $3 $4 $5 $6 $7 $8 $9 X,Y pos of 4 corners*
0 Add a 4 corners polygon primitive as box body*
4,1,4,$2,$3,$4,$5,$6,$7,$8,$9,$2,$3,0*
0 Add four circle primitives for the rounded corners*
1,1,$1+$1,$2,$3*
1,1,$1+$1,$4,$5*
1,1,$1+$1,$6,$7*
1,1,$1+$1,$8,$9*
0 Add four rect primitives between the rounded corners*
20,1,$1+$1,$2,$3,$4,$5,0*
20,1,$1+$1,$4,$5,$6,$7,0*
20,1,$1+$1,$6,$7,$8,$9,0*
20,1,$1+$1,$8,$9,$2,$3,0*%
G04 Aperture macros list end*
%ADD10RoundRect,0.187500X-0.437500X0.437500X-0.437500X-0.437500X0.437500X-0.437500X0.437500X0.437500X0*%
%ADD11O,1.250000X1.250000*%
%ADD12R,0.300000X0.800000*%
%ADD13R,1.000000X0.800000*%
%ADD14RoundRect,0.225000X0.225000X0.250000X-0.225000X0.250000X-0.225000X-0.250000X0.225000X-0.250000X0*%
%ADD15RoundRect,0.225000X-0.225000X-0.250000X0.225000X-0.250000X0.225000X0.250000X-0.225000X0.250000X0*%
%ADD16RoundRect,0.150000X0.587500X0.150000X-0.587500X0.150000X-0.587500X-0.150000X0.587500X-0.150000X0*%
%ADD17RoundRect,0.200000X0.200000X0.275000X-0.200000X0.275000X-0.200000X-0.275000X0.200000X-0.275000X0*%
G04 APERTURE END LIST*
D10*
%TO.C,U2*%
X130650000Y-81100000D03*
D11*
X130650000Y-82880000D03*
X130650000Y-84660000D03*
X130650000Y-86440000D03*
X130650000Y-88220000D03*
X130650000Y-90000000D03*
X130650000Y-91780000D03*
X130650000Y-93560000D03*
X141350000Y-94450000D03*
X141350000Y-92670000D03*
X141350000Y-90890000D03*
X141350000Y-89110000D03*
X141350000Y-87330000D03*
X141350000Y-85550000D03*
X141350000Y-83770000D03*
X141350000Y-81990000D03*
%TD*%
D12*
%TO.C,J2*%
X137000000Y-97500000D03*
X136500000Y-97500000D03*
X136000000Y-97500000D03*
X135500000Y-97500000D03*
X135000000Y-97500000D03*
X134500000Y-97500000D03*
D13*
X138150000Y-99950000D03*
X133350000Y-99950000D03*
%TD*%
D14*
%TO.C,C2*%
X145025000Y-86500000D03*
X143475000Y-86500000D03*
%TD*%
%TO.C,C7*%
X128600000Y-85000000D03*
X127050000Y-85000000D03*
%TD*%
%TO.C,C5*%
X145025000Y-78250000D03*
X143475000Y-78250000D03*
%TD*%
D15*
%TO.C,C1*%
X143450000Y-89250000D03*
X145000000Y-89250000D03*
%TD*%
D14*
%TO.C,C9*%
X128600000Y-91000000D03*
X127050000Y-91000000D03*
%TD*%
D16*
%TO.C,U1*%
X144937500Y-93050000D03*
X144937500Y-94950000D03*
X143062500Y-94000000D03*
%TD*%
D14*
%TO.C,C8*%
X128600000Y-88000000D03*
X127050000Y-88000000D03*
%TD*%
%TO.C,C6*%
X128600000Y-82000000D03*
X127050000Y-82000000D03*
%TD*%
%TO.C,C4*%
X145025000Y-81000000D03*
X143475000Y-81000000D03*
%TD*%
%TO.C,C3*%
X145025000Y-83750000D03*
X143475000Y-83750000D03*
%TD*%
D17*
%TO.C,R1*%
X128650000Y-94000000D03*
X127000000Y-94000000D03*
%TD*%
M02*
