%TF.GenerationSoftware,KiCad,Pcbnew,9.0.2*%
%TF.CreationDate,2026-04-12T18:20:16+09:00*%
%TF.ProjectId,pmw3610_breakout_for_frostortho,706d7733-3631-4305-9f62-7265616b6f75,rev?*%
%TF.SameCoordinates,Original*%
%TF.FileFunction,Copper,L1,Top*%
%TF.FilePolarity,Positive*%
%FSLAX46Y46*%
G04 Gerber Fmt 4.6, Leading zero omitted, Abs format (unit mm)*
G04 Created by KiCad (PCBNEW 9.0.2) date 2026-04-12 18:20:16*
%MOMM*%
%LPD*%
G01*
G04 APERTURE LIST*
G04 Aperture macros list*
%AMRoundRect*
0 Rectangle with rounded corners*
0 $1 Rounding radius*
0 $2 $3 $4 $5 $6 $7 $8 $9 X,Y pos of 4 corners*
0 Add a 4 corners polygon primitive as box body*
4,1,4,$2,$3,$4,$5,$6,$7,$8,$9,$2,$3,0*
0 Add four circle primitives for the rounded corners*
1,1,$1+$1,$2,$3*
1,1,$1+$1,$4,$5*
1,1,$1+$1,$6,$7*
1,1,$1+$1,$8,$9*
0 Add four rect primitives between the rounded corners*
20,1,$1+$1,$2,$3,$4,$5,0*
20,1,$1+$1,$4,$5,$6,$7,0*
20,1,$1+$1,$6,$7,$8,$9,0*
20,1,$1+$1,$8,$9,$2,$3,0*%
G04 Aperture macros list end*
%TA.AperFunction,ComponentPad*%
%ADD10RoundRect,0.187500X-0.437500X0.437500X-0.437500X-0.437500X0.437500X-0.437500X0.437500X0.437500X0*%
%TD*%
%TA.AperFunction,ComponentPad*%
%ADD11O,1.250000X1.250000*%
%TD*%
%TA.AperFunction,ViaPad*%
%ADD12C,0.600000*%
%TD*%
%TA.AperFunction,Conductor*%
%ADD13C,0.200000*%
%TD*%
G04 APERTURE END LIST*
D10*
%TO.P,U2,1,+VCSEL*%
%TO.N,Net-(U2-+VCSEL)*%
X130650000Y-81100000D03*
D11*
%TO.P,U2,2,SDIO*%
%TO.N,SDIO*%
X130650000Y-82880000D03*
%TO.P,U2,3,SCLK*%
%TO.N,SCLK*%
X130650000Y-84660000D03*
%TO.P,U2,4,NC*%
%TO.N,unconnected-(U2-NC-Pad4)*%
X130650000Y-86440000D03*
%TO.P,U2,5,NCS*%
%TO.N,NCS*%
X130650000Y-88220000D03*
%TO.P,U2,6,VDDIO*%
%TO.N,VCC*%
X130650000Y-90000000D03*
%TO.P,U2,7,NRESET*%
%TO.N,Net-(U2-NRESET)*%
X130650000Y-91780000D03*
%TO.P,U2,8,MOTION*%
%TO.N,MOTION*%
X130650000Y-93560000D03*
%TO.P,U2,9,VCP*%
%TO.N,Net-(U2-VCP)*%
X141350000Y-94450000D03*
%TO.P,U2,10,PASS_T*%
%TO.N,Net-(U2-+VCSEL)*%
X141350000Y-92670000D03*
%TO.P,U2,11,GND*%
%TO.N,GND*%
X141350000Y-90890000D03*
%TO.P,U2,12,CP*%
%TO.N,Net-(U2-CP)*%
X141350000Y-89110000D03*
%TO.P,U2,13,CN*%
%TO.N,Net-(U2-CN)*%
X141350000Y-87330000D03*
%TO.P,U2,14,VDD*%
%TO.N,+1V9*%
X141350000Y-85550000D03*
%TO.P,U2,15,XYLASER*%
%TO.N,Net-(U2--VCSEL)*%
X141350000Y-83770000D03*
%TO.P,U2,16,-VCSEL*%
X141350000Y-81990000D03*
%TD*%
D12*
%TO.N,NCS*%
X136500000Y-98700000D03*
%TO.N,SCLK*%
X131225000Y-98425000D03*
%TO.N,GND*%
X132650000Y-97649735D03*
%TO.N,VCC*%
X141163686Y-96509843D03*
X144786300Y-96250000D03*
X144786300Y-94126600D03*
X128165200Y-95839900D03*
%TO.N,GND*%
X126644669Y-91894669D03*
%TO.N,+1V9*%
X146250000Y-94727500D03*
X145000000Y-85550000D03*
X141250000Y-100000000D03*
%TO.N,Net-(U2-+VCSEL)*%
X143492800Y-92441900D03*
X126500000Y-98750000D03*
X145250000Y-88000000D03*
%TO.N,Net-(U2-CP)*%
X145000000Y-90500000D03*
%TO.N,Net-(U2-VCP)*%
X129001100Y-95573900D03*
%TO.N,SCLK*%
X129248700Y-83567000D03*
%TO.N,SDIO*%
X129595064Y-99423737D03*
%TD*%
D13*
%TO.N,NCS*%
X127584300Y-91285700D02*
X130650000Y-88220000D01*
X127250000Y-93025800D02*
X127584300Y-92691500D01*
X127250000Y-96250000D02*
X127250000Y-93025800D01*
X127750000Y-96750000D02*
X127250000Y-96250000D01*
X132400057Y-97049735D02*
X130116835Y-97049735D01*
X127584300Y-92691500D02*
X127584300Y-91285700D01*
X132401057Y-97048735D02*
X132400057Y-97049735D01*
X133048735Y-97048735D02*
X132401057Y-97048735D01*
X134750000Y-98750000D02*
X133048735Y-97048735D01*
X129817100Y-96750000D02*
X127750000Y-96750000D01*
X136450000Y-98750000D02*
X134750000Y-98750000D01*
X130116835Y-97049735D02*
X129817100Y-96750000D01*
X136500000Y-98700000D02*
X136450000Y-98750000D01*
%TO.N,GND*%
X142500000Y-92040000D02*
X141350000Y-90890000D01*
X142500000Y-96750000D02*
X142500000Y-92040000D01*
X141750000Y-97500000D02*
X142500000Y-96750000D01*
X141750000Y-97750000D02*
X141750000Y-97500000D01*
X139126000Y-99300000D02*
X139975000Y-98451000D01*
X134300265Y-99300000D02*
X139126000Y-99300000D01*
X139975000Y-98451000D02*
X141049000Y-98451000D01*
X132650000Y-97649735D02*
X134300265Y-99300000D01*
X141049000Y-98451000D02*
X141750000Y-97750000D01*
X126674000Y-91865338D02*
X126644669Y-91894669D01*
X127511412Y-97326000D02*
X126674000Y-96488587D01*
X130150000Y-97650000D02*
X129826000Y-97326000D01*
X132649735Y-97650000D02*
X130150000Y-97650000D01*
X129826000Y-97326000D02*
X127511412Y-97326000D01*
X126674000Y-96488587D02*
X126674000Y-91865338D01*
X132650000Y-97649735D02*
X132649735Y-97650000D01*
%TO.N,SCLK*%
X126000000Y-86815700D02*
X129248700Y-83567000D01*
X126000000Y-96500000D02*
X126000000Y-86815700D01*
X127250000Y-97750000D02*
X126000000Y-96500000D01*
X129336957Y-97750000D02*
X127250000Y-97750000D01*
X130011957Y-98425000D02*
X129336957Y-97750000D01*
X131225000Y-98425000D02*
X130011957Y-98425000D01*
%TO.N,Net-(U2-+VCSEL)*%
X143492800Y-97757200D02*
X143492800Y-92441900D01*
X142500000Y-98750000D02*
X143492800Y-97757200D01*
X141750000Y-98750000D02*
X142500000Y-98750000D01*
X141250000Y-99250000D02*
X141750000Y-98750000D01*
X140125000Y-99900000D02*
X140775000Y-99250000D01*
X140775000Y-99250000D02*
X141250000Y-99250000D01*
X131749943Y-99900000D02*
X140125000Y-99900000D01*
X130998943Y-99149000D02*
X131749943Y-99900000D01*
X130168857Y-99149000D02*
X130998943Y-99149000D01*
X129769857Y-98750000D02*
X130168857Y-99149000D01*
X126500000Y-98750000D02*
X129769857Y-98750000D01*
%TO.N,SDIO*%
X126620000Y-82880000D02*
X130650000Y-82880000D01*
X125500000Y-99000000D02*
X125500000Y-84000000D01*
X126250000Y-99750000D02*
X125500000Y-99000000D01*
X129268801Y-99750000D02*
X126250000Y-99750000D01*
X129595064Y-99423737D02*
X129268801Y-99750000D01*
X125500000Y-84000000D02*
X126620000Y-82880000D01*
%TO.N,VCC*%
X141072529Y-96601000D02*
X141163686Y-96509843D01*
X130676000Y-96601000D02*
X141072529Y-96601000D01*
X128575300Y-96250000D02*
X130325000Y-96250000D01*
X130325000Y-96250000D02*
X130676000Y-96601000D01*
X128165200Y-95839900D02*
X128575300Y-96250000D01*
%TO.N,Net-(U2-VCP)*%
X141350000Y-95453900D02*
X141350000Y-94450000D01*
X141230000Y-95573900D02*
X141350000Y-95453900D01*
X131300000Y-96200000D02*
X140625000Y-96200000D01*
X141230000Y-95595000D02*
X141230000Y-95573900D01*
X130800200Y-95700200D02*
X131300000Y-96200000D01*
X129001100Y-95573900D02*
X129127400Y-95700200D01*
X129127400Y-95700200D02*
X130800200Y-95700200D01*
X140625000Y-96200000D02*
X141230000Y-95595000D01*
%TO.N,VCC*%
X128165300Y-92484700D02*
X128165300Y-95839900D01*
X128165300Y-95839900D02*
X128165200Y-95839900D01*
X144786300Y-96250000D02*
X144786300Y-94126600D01*
X130650000Y-90000000D02*
X128165300Y-92484700D01*
%TO.N,+1V9*%
X141250000Y-100000000D02*
X142000000Y-99250000D01*
X143000000Y-99250000D02*
X146250000Y-96000000D01*
X145800000Y-85550000D02*
X145000000Y-85550000D01*
X142000000Y-99250000D02*
X143000000Y-99250000D01*
X146250000Y-86000000D02*
X145800000Y-85550000D01*
X146250000Y-96000000D02*
X146250000Y-94727500D01*
X141350000Y-85550000D02*
X145000000Y-85550000D01*
X146250000Y-94727500D02*
X146250000Y-86000000D01*
%TO.N,Net-(U2-+VCSEL)*%
X144434700Y-91500000D02*
X145000000Y-91500000D01*
X143492800Y-92441900D02*
X144434700Y-91500000D01*
X145626000Y-88376000D02*
X145250000Y-88000000D01*
X145000000Y-91500000D02*
X145626000Y-90874000D01*
X145626000Y-90874000D02*
X145626000Y-88376000D01*
%TO.N,Net-(U2-CP)*%
X142740000Y-90500000D02*
X144500000Y-90500000D01*
X141350000Y-89110000D02*
X142740000Y-90500000D01*
X144500000Y-90500000D02*
X145000000Y-90500000D01*
%TO.N,Net-(U2--VCSEL)*%
X141350000Y-81990000D02*
X141350000Y-83770000D01*
%TO.N,SDIO*%
X130650000Y-83065300D02*
X130650000Y-82880000D01*
%TD*%
M02*
