%TF.GenerationSoftware,KiCad,Pcbnew,9.0.2*%
%TF.CreationDate,2026-04-12T18:20:16+09:00*%
%TF.ProjectId,pmw3610_breakout_for_frostortho,706d7733-3631-4305-9f62-7265616b6f75,rev?*%
%TF.SameCoordinates,Original*%
%TF.FileFunction,Legend,Bot*%
%TF.FilePolarity,Positive*%
%FSLAX46Y46*%
G04 Gerber Fmt 4.6, Leading zero omitted, Abs format (unit mm)*
G04 Created by KiCad (PCBNEW 9.0.2) date 2026-04-12 18:20:16*
%MOMM*%
%LPD*%
G01*
G04 APERTURE LIST*
G04 Aperture macros list*
%AMRoundRect*
0 Rectangle with rounded corners*
0 $1 Rounding radius*
0 $2 $3 $4 $5 $6 $7 $8 $9 X,Y pos of 4 corners*
0 Add a 4 corners polygon primitive as box body*
4,1,4,$2,$3,$4,$5,$6,$7,$8,$9,$2,$3,0*
0 Add four circle primitives for the rounded corners*
1,1,$1+$1,$2,$3*
1,1,$1+$1,$4,$5*
1,1,$1+$1,$6,$7*
1,1,$1+$1,$8,$9*
0 Add four rect primitives between the rounded corners*
20,1,$1+$1,$2,$3,$4,$5,0*
20,1,$1+$1,$4,$5,$6,$7,0*
20,1,$1+$1,$6,$7,$8,$9,0*
20,1,$1+$1,$8,$9,$2,$3,0*%
G04 Aperture macros list end*
%ADD10C,0.100000*%
%ADD11C,0.062500*%
%ADD12C,0.120000*%
%ADD13RoundRect,0.187500X-0.437500X0.437500X-0.437500X-0.437500X0.437500X-0.437500X0.437500X0.437500X0*%
%ADD14O,1.250000X1.250000*%
%ADD15R,0.300000X0.800000*%
%ADD16R,1.000000X0.800000*%
%ADD17RoundRect,0.225000X0.225000X0.250000X-0.225000X0.250000X-0.225000X-0.250000X0.225000X-0.250000X0*%
%ADD18RoundRect,0.225000X-0.225000X-0.250000X0.225000X-0.250000X0.225000X0.250000X-0.225000X0.250000X0*%
%ADD19RoundRect,0.150000X0.587500X0.150000X-0.587500X0.150000X-0.587500X-0.150000X0.587500X-0.150000X0*%
%ADD20RoundRect,0.200000X0.200000X0.275000X-0.200000X0.275000X-0.200000X-0.275000X0.200000X-0.275000X0*%
G04 APERTURE END LIST*
D10*
X139202380Y-96350276D02*
X139202380Y-96850276D01*
X139202380Y-96374085D02*
X139154761Y-96350276D01*
X139154761Y-96350276D02*
X139059523Y-96350276D01*
X139059523Y-96350276D02*
X139011904Y-96374085D01*
X139011904Y-96374085D02*
X138988094Y-96397895D01*
X138988094Y-96397895D02*
X138964285Y-96445514D01*
X138964285Y-96445514D02*
X138964285Y-96588371D01*
X138964285Y-96588371D02*
X138988094Y-96635990D01*
X138988094Y-96635990D02*
X139011904Y-96659800D01*
X139011904Y-96659800D02*
X139059523Y-96683609D01*
X139059523Y-96683609D02*
X139154761Y-96683609D01*
X139154761Y-96683609D02*
X139202380Y-96659800D01*
X138749999Y-96683609D02*
X138749999Y-96350276D01*
X138749999Y-96397895D02*
X138726189Y-96374085D01*
X138726189Y-96374085D02*
X138678570Y-96350276D01*
X138678570Y-96350276D02*
X138607142Y-96350276D01*
X138607142Y-96350276D02*
X138559523Y-96374085D01*
X138559523Y-96374085D02*
X138535713Y-96421704D01*
X138535713Y-96421704D02*
X138535713Y-96683609D01*
X138535713Y-96421704D02*
X138511904Y-96374085D01*
X138511904Y-96374085D02*
X138464285Y-96350276D01*
X138464285Y-96350276D02*
X138392856Y-96350276D01*
X138392856Y-96350276D02*
X138345237Y-96374085D01*
X138345237Y-96374085D02*
X138321427Y-96421704D01*
X138321427Y-96421704D02*
X138321427Y-96683609D01*
X138130951Y-96350276D02*
X138035713Y-96683609D01*
X138035713Y-96683609D02*
X137940475Y-96445514D01*
X137940475Y-96445514D02*
X137845237Y-96683609D01*
X137845237Y-96683609D02*
X137749999Y-96350276D01*
X137607141Y-96183609D02*
X137297617Y-96183609D01*
X137297617Y-96183609D02*
X137464284Y-96374085D01*
X137464284Y-96374085D02*
X137392855Y-96374085D01*
X137392855Y-96374085D02*
X137345236Y-96397895D01*
X137345236Y-96397895D02*
X137321427Y-96421704D01*
X137321427Y-96421704D02*
X137297617Y-96469323D01*
X137297617Y-96469323D02*
X137297617Y-96588371D01*
X137297617Y-96588371D02*
X137321427Y-96635990D01*
X137321427Y-96635990D02*
X137345236Y-96659800D01*
X137345236Y-96659800D02*
X137392855Y-96683609D01*
X137392855Y-96683609D02*
X137535712Y-96683609D01*
X137535712Y-96683609D02*
X137583331Y-96659800D01*
X137583331Y-96659800D02*
X137607141Y-96635990D01*
X136869046Y-96183609D02*
X136964284Y-96183609D01*
X136964284Y-96183609D02*
X137011903Y-96207419D01*
X137011903Y-96207419D02*
X137035713Y-96231228D01*
X137035713Y-96231228D02*
X137083332Y-96302657D01*
X137083332Y-96302657D02*
X137107141Y-96397895D01*
X137107141Y-96397895D02*
X137107141Y-96588371D01*
X137107141Y-96588371D02*
X137083332Y-96635990D01*
X137083332Y-96635990D02*
X137059522Y-96659800D01*
X137059522Y-96659800D02*
X137011903Y-96683609D01*
X137011903Y-96683609D02*
X136916665Y-96683609D01*
X136916665Y-96683609D02*
X136869046Y-96659800D01*
X136869046Y-96659800D02*
X136845237Y-96635990D01*
X136845237Y-96635990D02*
X136821427Y-96588371D01*
X136821427Y-96588371D02*
X136821427Y-96469323D01*
X136821427Y-96469323D02*
X136845237Y-96421704D01*
X136845237Y-96421704D02*
X136869046Y-96397895D01*
X136869046Y-96397895D02*
X136916665Y-96374085D01*
X136916665Y-96374085D02*
X137011903Y-96374085D01*
X137011903Y-96374085D02*
X137059522Y-96397895D01*
X137059522Y-96397895D02*
X137083332Y-96421704D01*
X137083332Y-96421704D02*
X137107141Y-96469323D01*
X136345237Y-96683609D02*
X136630951Y-96683609D01*
X136488094Y-96683609D02*
X136488094Y-96183609D01*
X136488094Y-96183609D02*
X136535713Y-96255038D01*
X136535713Y-96255038D02*
X136583332Y-96302657D01*
X136583332Y-96302657D02*
X136630951Y-96326466D01*
X136035714Y-96183609D02*
X135988095Y-96183609D01*
X135988095Y-96183609D02*
X135940476Y-96207419D01*
X135940476Y-96207419D02*
X135916666Y-96231228D01*
X135916666Y-96231228D02*
X135892857Y-96278847D01*
X135892857Y-96278847D02*
X135869047Y-96374085D01*
X135869047Y-96374085D02*
X135869047Y-96493133D01*
X135869047Y-96493133D02*
X135892857Y-96588371D01*
X135892857Y-96588371D02*
X135916666Y-96635990D01*
X135916666Y-96635990D02*
X135940476Y-96659800D01*
X135940476Y-96659800D02*
X135988095Y-96683609D01*
X135988095Y-96683609D02*
X136035714Y-96683609D01*
X136035714Y-96683609D02*
X136083333Y-96659800D01*
X136083333Y-96659800D02*
X136107142Y-96635990D01*
X136107142Y-96635990D02*
X136130952Y-96588371D01*
X136130952Y-96588371D02*
X136154761Y-96493133D01*
X136154761Y-96493133D02*
X136154761Y-96374085D01*
X136154761Y-96374085D02*
X136130952Y-96278847D01*
X136130952Y-96278847D02*
X136107142Y-96231228D01*
X136107142Y-96231228D02*
X136083333Y-96207419D01*
X136083333Y-96207419D02*
X136035714Y-96183609D01*
X135273810Y-96683609D02*
X135273810Y-96350276D01*
X135273810Y-96397895D02*
X135250000Y-96374085D01*
X135250000Y-96374085D02*
X135202381Y-96350276D01*
X135202381Y-96350276D02*
X135130953Y-96350276D01*
X135130953Y-96350276D02*
X135083334Y-96374085D01*
X135083334Y-96374085D02*
X135059524Y-96421704D01*
X135059524Y-96421704D02*
X135059524Y-96683609D01*
X135059524Y-96421704D02*
X135035715Y-96374085D01*
X135035715Y-96374085D02*
X134988096Y-96350276D01*
X134988096Y-96350276D02*
X134916667Y-96350276D01*
X134916667Y-96350276D02*
X134869048Y-96374085D01*
X134869048Y-96374085D02*
X134845238Y-96421704D01*
X134845238Y-96421704D02*
X134845238Y-96683609D01*
X134535714Y-96683609D02*
X134583333Y-96659800D01*
X134583333Y-96659800D02*
X134607143Y-96635990D01*
X134607143Y-96635990D02*
X134630952Y-96588371D01*
X134630952Y-96588371D02*
X134630952Y-96445514D01*
X134630952Y-96445514D02*
X134607143Y-96397895D01*
X134607143Y-96397895D02*
X134583333Y-96374085D01*
X134583333Y-96374085D02*
X134535714Y-96350276D01*
X134535714Y-96350276D02*
X134464286Y-96350276D01*
X134464286Y-96350276D02*
X134416667Y-96374085D01*
X134416667Y-96374085D02*
X134392857Y-96397895D01*
X134392857Y-96397895D02*
X134369048Y-96445514D01*
X134369048Y-96445514D02*
X134369048Y-96588371D01*
X134369048Y-96588371D02*
X134392857Y-96635990D01*
X134392857Y-96635990D02*
X134416667Y-96659800D01*
X134416667Y-96659800D02*
X134464286Y-96683609D01*
X134464286Y-96683609D02*
X134535714Y-96683609D01*
X133940476Y-96683609D02*
X133940476Y-96183609D01*
X133940476Y-96659800D02*
X133988095Y-96683609D01*
X133988095Y-96683609D02*
X134083333Y-96683609D01*
X134083333Y-96683609D02*
X134130952Y-96659800D01*
X134130952Y-96659800D02*
X134154762Y-96635990D01*
X134154762Y-96635990D02*
X134178571Y-96588371D01*
X134178571Y-96588371D02*
X134178571Y-96445514D01*
X134178571Y-96445514D02*
X134154762Y-96397895D01*
X134154762Y-96397895D02*
X134130952Y-96374085D01*
X134130952Y-96374085D02*
X134083333Y-96350276D01*
X134083333Y-96350276D02*
X133988095Y-96350276D01*
X133988095Y-96350276D02*
X133940476Y-96374085D01*
X133488095Y-96350276D02*
X133488095Y-96683609D01*
X133702381Y-96350276D02*
X133702381Y-96612180D01*
X133702381Y-96612180D02*
X133678571Y-96659800D01*
X133678571Y-96659800D02*
X133630952Y-96683609D01*
X133630952Y-96683609D02*
X133559524Y-96683609D01*
X133559524Y-96683609D02*
X133511905Y-96659800D01*
X133511905Y-96659800D02*
X133488095Y-96635990D01*
X133178571Y-96683609D02*
X133226190Y-96659800D01*
X133226190Y-96659800D02*
X133250000Y-96612180D01*
X133250000Y-96612180D02*
X133250000Y-96183609D01*
X132797619Y-96659800D02*
X132845238Y-96683609D01*
X132845238Y-96683609D02*
X132940476Y-96683609D01*
X132940476Y-96683609D02*
X132988095Y-96659800D01*
X132988095Y-96659800D02*
X133011904Y-96612180D01*
X133011904Y-96612180D02*
X133011904Y-96421704D01*
X133011904Y-96421704D02*
X132988095Y-96374085D01*
X132988095Y-96374085D02*
X132940476Y-96350276D01*
X132940476Y-96350276D02*
X132845238Y-96350276D01*
X132845238Y-96350276D02*
X132797619Y-96374085D01*
X132797619Y-96374085D02*
X132773809Y-96421704D01*
X132773809Y-96421704D02*
X132773809Y-96469323D01*
X132773809Y-96469323D02*
X133011904Y-96516942D01*
X138083333Y-105207419D02*
X138083333Y-105921704D01*
X138083333Y-105921704D02*
X138130952Y-106064561D01*
X138130952Y-106064561D02*
X138226190Y-106159800D01*
X138226190Y-106159800D02*
X138369047Y-106207419D01*
X138369047Y-106207419D02*
X138464285Y-106207419D01*
X137654761Y-105302657D02*
X137607142Y-105255038D01*
X137607142Y-105255038D02*
X137511904Y-105207419D01*
X137511904Y-105207419D02*
X137273809Y-105207419D01*
X137273809Y-105207419D02*
X137178571Y-105255038D01*
X137178571Y-105255038D02*
X137130952Y-105302657D01*
X137130952Y-105302657D02*
X137083333Y-105397895D01*
X137083333Y-105397895D02*
X137083333Y-105493133D01*
X137083333Y-105493133D02*
X137130952Y-105635990D01*
X137130952Y-105635990D02*
X137702380Y-106207419D01*
X137702380Y-106207419D02*
X137083333Y-106207419D01*
D11*
X144333333Y-85250440D02*
X144357142Y-85274250D01*
X144357142Y-85274250D02*
X144428571Y-85298059D01*
X144428571Y-85298059D02*
X144476190Y-85298059D01*
X144476190Y-85298059D02*
X144547618Y-85274250D01*
X144547618Y-85274250D02*
X144595237Y-85226630D01*
X144595237Y-85226630D02*
X144619047Y-85179011D01*
X144619047Y-85179011D02*
X144642856Y-85083773D01*
X144642856Y-85083773D02*
X144642856Y-85012345D01*
X144642856Y-85012345D02*
X144619047Y-84917107D01*
X144619047Y-84917107D02*
X144595237Y-84869488D01*
X144595237Y-84869488D02*
X144547618Y-84821869D01*
X144547618Y-84821869D02*
X144476190Y-84798059D01*
X144476190Y-84798059D02*
X144428571Y-84798059D01*
X144428571Y-84798059D02*
X144357142Y-84821869D01*
X144357142Y-84821869D02*
X144333333Y-84845678D01*
X144142856Y-84845678D02*
X144119047Y-84821869D01*
X144119047Y-84821869D02*
X144071428Y-84798059D01*
X144071428Y-84798059D02*
X143952380Y-84798059D01*
X143952380Y-84798059D02*
X143904761Y-84821869D01*
X143904761Y-84821869D02*
X143880952Y-84845678D01*
X143880952Y-84845678D02*
X143857142Y-84893297D01*
X143857142Y-84893297D02*
X143857142Y-84940916D01*
X143857142Y-84940916D02*
X143880952Y-85012345D01*
X143880952Y-85012345D02*
X144166666Y-85298059D01*
X144166666Y-85298059D02*
X143857142Y-85298059D01*
X127908333Y-83750440D02*
X127932142Y-83774250D01*
X127932142Y-83774250D02*
X128003571Y-83798059D01*
X128003571Y-83798059D02*
X128051190Y-83798059D01*
X128051190Y-83798059D02*
X128122618Y-83774250D01*
X128122618Y-83774250D02*
X128170237Y-83726630D01*
X128170237Y-83726630D02*
X128194047Y-83679011D01*
X128194047Y-83679011D02*
X128217856Y-83583773D01*
X128217856Y-83583773D02*
X128217856Y-83512345D01*
X128217856Y-83512345D02*
X128194047Y-83417107D01*
X128194047Y-83417107D02*
X128170237Y-83369488D01*
X128170237Y-83369488D02*
X128122618Y-83321869D01*
X128122618Y-83321869D02*
X128051190Y-83298059D01*
X128051190Y-83298059D02*
X128003571Y-83298059D01*
X128003571Y-83298059D02*
X127932142Y-83321869D01*
X127932142Y-83321869D02*
X127908333Y-83345678D01*
X127741666Y-83298059D02*
X127408333Y-83298059D01*
X127408333Y-83298059D02*
X127622618Y-83798059D01*
X144333333Y-77180440D02*
X144357142Y-77204250D01*
X144357142Y-77204250D02*
X144428571Y-77228059D01*
X144428571Y-77228059D02*
X144476190Y-77228059D01*
X144476190Y-77228059D02*
X144547618Y-77204250D01*
X144547618Y-77204250D02*
X144595237Y-77156630D01*
X144595237Y-77156630D02*
X144619047Y-77109011D01*
X144619047Y-77109011D02*
X144642856Y-77013773D01*
X144642856Y-77013773D02*
X144642856Y-76942345D01*
X144642856Y-76942345D02*
X144619047Y-76847107D01*
X144619047Y-76847107D02*
X144595237Y-76799488D01*
X144595237Y-76799488D02*
X144547618Y-76751869D01*
X144547618Y-76751869D02*
X144476190Y-76728059D01*
X144476190Y-76728059D02*
X144428571Y-76728059D01*
X144428571Y-76728059D02*
X144357142Y-76751869D01*
X144357142Y-76751869D02*
X144333333Y-76775678D01*
X143880952Y-76728059D02*
X144119047Y-76728059D01*
X144119047Y-76728059D02*
X144142856Y-76966154D01*
X144142856Y-76966154D02*
X144119047Y-76942345D01*
X144119047Y-76942345D02*
X144071428Y-76918535D01*
X144071428Y-76918535D02*
X143952380Y-76918535D01*
X143952380Y-76918535D02*
X143904761Y-76942345D01*
X143904761Y-76942345D02*
X143880952Y-76966154D01*
X143880952Y-76966154D02*
X143857142Y-77013773D01*
X143857142Y-77013773D02*
X143857142Y-77132821D01*
X143857142Y-77132821D02*
X143880952Y-77180440D01*
X143880952Y-77180440D02*
X143904761Y-77204250D01*
X143904761Y-77204250D02*
X143952380Y-77228059D01*
X143952380Y-77228059D02*
X144071428Y-77228059D01*
X144071428Y-77228059D02*
X144119047Y-77204250D01*
X144119047Y-77204250D02*
X144142856Y-77180440D01*
X144308333Y-90860440D02*
X144332142Y-90884250D01*
X144332142Y-90884250D02*
X144403571Y-90908059D01*
X144403571Y-90908059D02*
X144451190Y-90908059D01*
X144451190Y-90908059D02*
X144522618Y-90884250D01*
X144522618Y-90884250D02*
X144570237Y-90836630D01*
X144570237Y-90836630D02*
X144594047Y-90789011D01*
X144594047Y-90789011D02*
X144617856Y-90693773D01*
X144617856Y-90693773D02*
X144617856Y-90622345D01*
X144617856Y-90622345D02*
X144594047Y-90527107D01*
X144594047Y-90527107D02*
X144570237Y-90479488D01*
X144570237Y-90479488D02*
X144522618Y-90431869D01*
X144522618Y-90431869D02*
X144451190Y-90408059D01*
X144451190Y-90408059D02*
X144403571Y-90408059D01*
X144403571Y-90408059D02*
X144332142Y-90431869D01*
X144332142Y-90431869D02*
X144308333Y-90455678D01*
X143832142Y-90908059D02*
X144117856Y-90908059D01*
X143974999Y-90908059D02*
X143974999Y-90408059D01*
X143974999Y-90408059D02*
X144022618Y-90479488D01*
X144022618Y-90479488D02*
X144070237Y-90527107D01*
X144070237Y-90527107D02*
X144117856Y-90550916D01*
X127908333Y-89750440D02*
X127932142Y-89774250D01*
X127932142Y-89774250D02*
X128003571Y-89798059D01*
X128003571Y-89798059D02*
X128051190Y-89798059D01*
X128051190Y-89798059D02*
X128122618Y-89774250D01*
X128122618Y-89774250D02*
X128170237Y-89726630D01*
X128170237Y-89726630D02*
X128194047Y-89679011D01*
X128194047Y-89679011D02*
X128217856Y-89583773D01*
X128217856Y-89583773D02*
X128217856Y-89512345D01*
X128217856Y-89512345D02*
X128194047Y-89417107D01*
X128194047Y-89417107D02*
X128170237Y-89369488D01*
X128170237Y-89369488D02*
X128122618Y-89321869D01*
X128122618Y-89321869D02*
X128051190Y-89298059D01*
X128051190Y-89298059D02*
X128003571Y-89298059D01*
X128003571Y-89298059D02*
X127932142Y-89321869D01*
X127932142Y-89321869D02*
X127908333Y-89345678D01*
X127670237Y-89798059D02*
X127574999Y-89798059D01*
X127574999Y-89798059D02*
X127527380Y-89774250D01*
X127527380Y-89774250D02*
X127503571Y-89750440D01*
X127503571Y-89750440D02*
X127455952Y-89679011D01*
X127455952Y-89679011D02*
X127432142Y-89583773D01*
X127432142Y-89583773D02*
X127432142Y-89393297D01*
X127432142Y-89393297D02*
X127455952Y-89345678D01*
X127455952Y-89345678D02*
X127479761Y-89321869D01*
X127479761Y-89321869D02*
X127527380Y-89298059D01*
X127527380Y-89298059D02*
X127622618Y-89298059D01*
X127622618Y-89298059D02*
X127670237Y-89321869D01*
X127670237Y-89321869D02*
X127694047Y-89345678D01*
X127694047Y-89345678D02*
X127717856Y-89393297D01*
X127717856Y-89393297D02*
X127717856Y-89512345D01*
X127717856Y-89512345D02*
X127694047Y-89559964D01*
X127694047Y-89559964D02*
X127670237Y-89583773D01*
X127670237Y-89583773D02*
X127622618Y-89607583D01*
X127622618Y-89607583D02*
X127527380Y-89607583D01*
X127527380Y-89607583D02*
X127479761Y-89583773D01*
X127479761Y-89583773D02*
X127455952Y-89559964D01*
X127455952Y-89559964D02*
X127432142Y-89512345D01*
D10*
X144630952Y-91476109D02*
X144630952Y-91880871D01*
X144630952Y-91880871D02*
X144607142Y-91928490D01*
X144607142Y-91928490D02*
X144583333Y-91952300D01*
X144583333Y-91952300D02*
X144535714Y-91976109D01*
X144535714Y-91976109D02*
X144440476Y-91976109D01*
X144440476Y-91976109D02*
X144392857Y-91952300D01*
X144392857Y-91952300D02*
X144369047Y-91928490D01*
X144369047Y-91928490D02*
X144345238Y-91880871D01*
X144345238Y-91880871D02*
X144345238Y-91476109D01*
X143845237Y-91976109D02*
X144130951Y-91976109D01*
X143988094Y-91976109D02*
X143988094Y-91476109D01*
X143988094Y-91476109D02*
X144035713Y-91547538D01*
X144035713Y-91547538D02*
X144083332Y-91595157D01*
X144083332Y-91595157D02*
X144130951Y-91618966D01*
D11*
X127908333Y-86750440D02*
X127932142Y-86774250D01*
X127932142Y-86774250D02*
X128003571Y-86798059D01*
X128003571Y-86798059D02*
X128051190Y-86798059D01*
X128051190Y-86798059D02*
X128122618Y-86774250D01*
X128122618Y-86774250D02*
X128170237Y-86726630D01*
X128170237Y-86726630D02*
X128194047Y-86679011D01*
X128194047Y-86679011D02*
X128217856Y-86583773D01*
X128217856Y-86583773D02*
X128217856Y-86512345D01*
X128217856Y-86512345D02*
X128194047Y-86417107D01*
X128194047Y-86417107D02*
X128170237Y-86369488D01*
X128170237Y-86369488D02*
X128122618Y-86321869D01*
X128122618Y-86321869D02*
X128051190Y-86298059D01*
X128051190Y-86298059D02*
X128003571Y-86298059D01*
X128003571Y-86298059D02*
X127932142Y-86321869D01*
X127932142Y-86321869D02*
X127908333Y-86345678D01*
X127622618Y-86512345D02*
X127670237Y-86488535D01*
X127670237Y-86488535D02*
X127694047Y-86464726D01*
X127694047Y-86464726D02*
X127717856Y-86417107D01*
X127717856Y-86417107D02*
X127717856Y-86393297D01*
X127717856Y-86393297D02*
X127694047Y-86345678D01*
X127694047Y-86345678D02*
X127670237Y-86321869D01*
X127670237Y-86321869D02*
X127622618Y-86298059D01*
X127622618Y-86298059D02*
X127527380Y-86298059D01*
X127527380Y-86298059D02*
X127479761Y-86321869D01*
X127479761Y-86321869D02*
X127455952Y-86345678D01*
X127455952Y-86345678D02*
X127432142Y-86393297D01*
X127432142Y-86393297D02*
X127432142Y-86417107D01*
X127432142Y-86417107D02*
X127455952Y-86464726D01*
X127455952Y-86464726D02*
X127479761Y-86488535D01*
X127479761Y-86488535D02*
X127527380Y-86512345D01*
X127527380Y-86512345D02*
X127622618Y-86512345D01*
X127622618Y-86512345D02*
X127670237Y-86536154D01*
X127670237Y-86536154D02*
X127694047Y-86559964D01*
X127694047Y-86559964D02*
X127717856Y-86607583D01*
X127717856Y-86607583D02*
X127717856Y-86702821D01*
X127717856Y-86702821D02*
X127694047Y-86750440D01*
X127694047Y-86750440D02*
X127670237Y-86774250D01*
X127670237Y-86774250D02*
X127622618Y-86798059D01*
X127622618Y-86798059D02*
X127527380Y-86798059D01*
X127527380Y-86798059D02*
X127479761Y-86774250D01*
X127479761Y-86774250D02*
X127455952Y-86750440D01*
X127455952Y-86750440D02*
X127432142Y-86702821D01*
X127432142Y-86702821D02*
X127432142Y-86607583D01*
X127432142Y-86607583D02*
X127455952Y-86559964D01*
X127455952Y-86559964D02*
X127479761Y-86536154D01*
X127479761Y-86536154D02*
X127527380Y-86512345D01*
X127908333Y-80750440D02*
X127932142Y-80774250D01*
X127932142Y-80774250D02*
X128003571Y-80798059D01*
X128003571Y-80798059D02*
X128051190Y-80798059D01*
X128051190Y-80798059D02*
X128122618Y-80774250D01*
X128122618Y-80774250D02*
X128170237Y-80726630D01*
X128170237Y-80726630D02*
X128194047Y-80679011D01*
X128194047Y-80679011D02*
X128217856Y-80583773D01*
X128217856Y-80583773D02*
X128217856Y-80512345D01*
X128217856Y-80512345D02*
X128194047Y-80417107D01*
X128194047Y-80417107D02*
X128170237Y-80369488D01*
X128170237Y-80369488D02*
X128122618Y-80321869D01*
X128122618Y-80321869D02*
X128051190Y-80298059D01*
X128051190Y-80298059D02*
X128003571Y-80298059D01*
X128003571Y-80298059D02*
X127932142Y-80321869D01*
X127932142Y-80321869D02*
X127908333Y-80345678D01*
X127479761Y-80298059D02*
X127574999Y-80298059D01*
X127574999Y-80298059D02*
X127622618Y-80321869D01*
X127622618Y-80321869D02*
X127646428Y-80345678D01*
X127646428Y-80345678D02*
X127694047Y-80417107D01*
X127694047Y-80417107D02*
X127717856Y-80512345D01*
X127717856Y-80512345D02*
X127717856Y-80702821D01*
X127717856Y-80702821D02*
X127694047Y-80750440D01*
X127694047Y-80750440D02*
X127670237Y-80774250D01*
X127670237Y-80774250D02*
X127622618Y-80798059D01*
X127622618Y-80798059D02*
X127527380Y-80798059D01*
X127527380Y-80798059D02*
X127479761Y-80774250D01*
X127479761Y-80774250D02*
X127455952Y-80750440D01*
X127455952Y-80750440D02*
X127432142Y-80702821D01*
X127432142Y-80702821D02*
X127432142Y-80583773D01*
X127432142Y-80583773D02*
X127455952Y-80536154D01*
X127455952Y-80536154D02*
X127479761Y-80512345D01*
X127479761Y-80512345D02*
X127527380Y-80488535D01*
X127527380Y-80488535D02*
X127622618Y-80488535D01*
X127622618Y-80488535D02*
X127670237Y-80512345D01*
X127670237Y-80512345D02*
X127694047Y-80536154D01*
X127694047Y-80536154D02*
X127717856Y-80583773D01*
X144333333Y-79750440D02*
X144357142Y-79774250D01*
X144357142Y-79774250D02*
X144428571Y-79798059D01*
X144428571Y-79798059D02*
X144476190Y-79798059D01*
X144476190Y-79798059D02*
X144547618Y-79774250D01*
X144547618Y-79774250D02*
X144595237Y-79726630D01*
X144595237Y-79726630D02*
X144619047Y-79679011D01*
X144619047Y-79679011D02*
X144642856Y-79583773D01*
X144642856Y-79583773D02*
X144642856Y-79512345D01*
X144642856Y-79512345D02*
X144619047Y-79417107D01*
X144619047Y-79417107D02*
X144595237Y-79369488D01*
X144595237Y-79369488D02*
X144547618Y-79321869D01*
X144547618Y-79321869D02*
X144476190Y-79298059D01*
X144476190Y-79298059D02*
X144428571Y-79298059D01*
X144428571Y-79298059D02*
X144357142Y-79321869D01*
X144357142Y-79321869D02*
X144333333Y-79345678D01*
X143904761Y-79464726D02*
X143904761Y-79798059D01*
X144023809Y-79274250D02*
X144142856Y-79631392D01*
X144142856Y-79631392D02*
X143833333Y-79631392D01*
X144333333Y-82500440D02*
X144357142Y-82524250D01*
X144357142Y-82524250D02*
X144428571Y-82548059D01*
X144428571Y-82548059D02*
X144476190Y-82548059D01*
X144476190Y-82548059D02*
X144547618Y-82524250D01*
X144547618Y-82524250D02*
X144595237Y-82476630D01*
X144595237Y-82476630D02*
X144619047Y-82429011D01*
X144619047Y-82429011D02*
X144642856Y-82333773D01*
X144642856Y-82333773D02*
X144642856Y-82262345D01*
X144642856Y-82262345D02*
X144619047Y-82167107D01*
X144619047Y-82167107D02*
X144595237Y-82119488D01*
X144595237Y-82119488D02*
X144547618Y-82071869D01*
X144547618Y-82071869D02*
X144476190Y-82048059D01*
X144476190Y-82048059D02*
X144428571Y-82048059D01*
X144428571Y-82048059D02*
X144357142Y-82071869D01*
X144357142Y-82071869D02*
X144333333Y-82095678D01*
X144166666Y-82048059D02*
X143857142Y-82048059D01*
X143857142Y-82048059D02*
X144023809Y-82238535D01*
X144023809Y-82238535D02*
X143952380Y-82238535D01*
X143952380Y-82238535D02*
X143904761Y-82262345D01*
X143904761Y-82262345D02*
X143880952Y-82286154D01*
X143880952Y-82286154D02*
X143857142Y-82333773D01*
X143857142Y-82333773D02*
X143857142Y-82452821D01*
X143857142Y-82452821D02*
X143880952Y-82500440D01*
X143880952Y-82500440D02*
X143904761Y-82524250D01*
X143904761Y-82524250D02*
X143952380Y-82548059D01*
X143952380Y-82548059D02*
X144095237Y-82548059D01*
X144095237Y-82548059D02*
X144142856Y-82524250D01*
X144142856Y-82524250D02*
X144166666Y-82500440D01*
X127908333Y-92798059D02*
X128074999Y-92559964D01*
X128194047Y-92798059D02*
X128194047Y-92298059D01*
X128194047Y-92298059D02*
X128003571Y-92298059D01*
X128003571Y-92298059D02*
X127955952Y-92321869D01*
X127955952Y-92321869D02*
X127932142Y-92345678D01*
X127932142Y-92345678D02*
X127908333Y-92393297D01*
X127908333Y-92393297D02*
X127908333Y-92464726D01*
X127908333Y-92464726D02*
X127932142Y-92512345D01*
X127932142Y-92512345D02*
X127955952Y-92536154D01*
X127955952Y-92536154D02*
X128003571Y-92559964D01*
X128003571Y-92559964D02*
X128194047Y-92559964D01*
X127432142Y-92798059D02*
X127717856Y-92798059D01*
X127574999Y-92798059D02*
X127574999Y-92298059D01*
X127574999Y-92298059D02*
X127622618Y-92369488D01*
X127622618Y-92369488D02*
X127670237Y-92417107D01*
X127670237Y-92417107D02*
X127717856Y-92440916D01*
D10*
%TO.C,J2*%
X138150000Y-97450000D02*
X138150000Y-99450000D01*
X137550000Y-100350000D02*
X133950000Y-100350000D01*
X137250000Y-97450000D02*
X138150000Y-97450000D01*
X137250000Y-100350000D02*
X136850000Y-100350000D01*
X137050000Y-99450000D02*
X137250000Y-100350000D01*
X136850000Y-100350000D02*
X137050000Y-99450000D01*
X134250000Y-97450000D02*
X133350000Y-97450000D01*
X133350000Y-97450000D02*
X133350000Y-99450000D01*
D12*
%TO.C,C2*%
X144109420Y-85990000D02*
X144390580Y-85990000D01*
X144109420Y-87010000D02*
X144390580Y-87010000D01*
%TO.C,C7*%
X127684420Y-84490000D02*
X127965580Y-84490000D01*
X127684420Y-85510000D02*
X127965580Y-85510000D01*
%TO.C,C5*%
X144109420Y-77740000D02*
X144390580Y-77740000D01*
X144109420Y-78760000D02*
X144390580Y-78760000D01*
%TO.C,C1*%
X144365580Y-88740000D02*
X144084420Y-88740000D01*
X144365580Y-89760000D02*
X144084420Y-89760000D01*
%TO.C,C9*%
X127684420Y-90490000D02*
X127965580Y-90490000D01*
X127684420Y-91510000D02*
X127965580Y-91510000D01*
%TO.C,U1*%
X143350000Y-92440000D02*
X144000000Y-92440000D01*
X143350000Y-95560000D02*
X144000000Y-95560000D01*
X144650000Y-92440000D02*
X144000000Y-92440000D01*
X144650000Y-95560000D02*
X144000000Y-95560000D01*
X145162500Y-92490000D02*
X144922500Y-92160000D01*
X145402500Y-92160000D01*
X145162500Y-92490000D01*
G36*
X145162500Y-92490000D02*
G01*
X144922500Y-92160000D01*
X145402500Y-92160000D01*
X145162500Y-92490000D01*
G37*
%TO.C,C8*%
X127684420Y-87490000D02*
X127965580Y-87490000D01*
X127684420Y-88510000D02*
X127965580Y-88510000D01*
%TO.C,C6*%
X127684420Y-81490000D02*
X127965580Y-81490000D01*
X127684420Y-82510000D02*
X127965580Y-82510000D01*
%TO.C,C4*%
X144109420Y-80490000D02*
X144390580Y-80490000D01*
X144109420Y-81510000D02*
X144390580Y-81510000D01*
%TO.C,C3*%
X144109420Y-83240000D02*
X144390580Y-83240000D01*
X144109420Y-84260000D02*
X144390580Y-84260000D01*
%TO.C,R1*%
X127587742Y-93477500D02*
X128062258Y-93477500D01*
X127587742Y-94522500D02*
X128062258Y-94522500D01*
%TD*%
%LPC*%
D13*
%TO.C,U2*%
X130650000Y-81100000D03*
D14*
X130650000Y-82880000D03*
X130650000Y-84660000D03*
X130650000Y-86440000D03*
X130650000Y-88220000D03*
X130650000Y-90000000D03*
X130650000Y-91780000D03*
X130650000Y-93560000D03*
X141350000Y-94450000D03*
X141350000Y-92670000D03*
X141350000Y-90890000D03*
X141350000Y-89110000D03*
X141350000Y-87330000D03*
X141350000Y-85550000D03*
X141350000Y-83770000D03*
X141350000Y-81990000D03*
%TD*%
D15*
%TO.C,J2*%
X137000000Y-97500000D03*
X136500000Y-97500000D03*
X136000000Y-97500000D03*
X135500000Y-97500000D03*
X135000000Y-97500000D03*
X134500000Y-97500000D03*
D16*
X138150000Y-99950000D03*
X133350000Y-99950000D03*
%TD*%
D17*
%TO.C,C2*%
X145025000Y-86500000D03*
X143475000Y-86500000D03*
%TD*%
%TO.C,C7*%
X128600000Y-85000000D03*
X127050000Y-85000000D03*
%TD*%
%TO.C,C5*%
X145025000Y-78250000D03*
X143475000Y-78250000D03*
%TD*%
D18*
%TO.C,C1*%
X143450000Y-89250000D03*
X145000000Y-89250000D03*
%TD*%
D17*
%TO.C,C9*%
X128600000Y-91000000D03*
X127050000Y-91000000D03*
%TD*%
D19*
%TO.C,U1*%
X144937500Y-93050000D03*
X144937500Y-94950000D03*
X143062500Y-94000000D03*
%TD*%
D17*
%TO.C,C8*%
X128600000Y-88000000D03*
X127050000Y-88000000D03*
%TD*%
%TO.C,C6*%
X128600000Y-82000000D03*
X127050000Y-82000000D03*
%TD*%
%TO.C,C4*%
X145025000Y-81000000D03*
X143475000Y-81000000D03*
%TD*%
%TO.C,C3*%
X145025000Y-83750000D03*
X143475000Y-83750000D03*
%TD*%
D20*
%TO.C,R1*%
X128650000Y-94000000D03*
X127000000Y-94000000D03*
%TD*%
%LPD*%
M02*
