M48
; DRILL file {KiCad 9.0.2} date 2026-05-06T04:38:27+0900
; FORMAT={-:-/ absolute / inch / decimal}
; #@! TF.CreationDate,2026-05-06T04:38:27+09:00
; #@! TF.GenerationSoftware,Kicad,Pcbnew,9.0.2
; #@! TF.FileFunction,Plated,1,2,PTH
FMAT,2
INCH
; #@! TA.AperFunction,Plated,PTH,ViaDrill
T1C0.0118
; #@! TA.AperFunction,Plated,PTH,ComponentDrill
T2C0.0197
; #@! TA.AperFunction,Plated,PTH,ComponentDrill
T3C0.0320
; #@! TA.AperFunction,Plated,PTH,ComponentDrill
T4C0.0394
; #@! TA.AperFunction,Plated,PTH,ComponentDrill
T5C0.0866
%
G90
G05
T1
X3.3268Y-2.5984
X3.3268Y-3.2283
X3.3268Y-3.8976
X3.3268Y-4.5669
X3.3268Y-5.2165
X3.3976Y-3.2185
X3.6516Y-3.3169
X3.6516Y-4.6654
X3.6663Y-3.9813
X3.9961Y-3.3465
X3.9961Y-4.0157
X3.9961Y-4.685
X4.0551Y-2.5984
X4.0551Y-5.2165
X4.0673Y-3.2677
X4.3307Y-4.6555
X4.3406Y-3.3169
X4.3406Y-3.9862
X4.6654Y-3.3465
X4.6654Y-4.0157
X4.6654Y-4.685
X4.7244Y-2.5984
X4.7244Y-5.2165
X4.7362Y-3.878
X5.0Y-4.6555
X5.0098Y-3.3169
X5.0098Y-3.9862
X5.3346Y-3.3465
X5.3346Y-4.0157
X5.3346Y-4.685
X5.3937Y-2.5984
X5.3937Y-5.2165
X5.4055Y-3.9429
X5.6743Y-4.6555
X5.6791Y-3.3169
X5.6791Y-3.9862
X6.0039Y-3.3465
X6.0039Y-4.0157
X6.0039Y-4.685
X6.063Y-2.5984
X6.063Y-5.2165
X6.0748Y-3.9232
X6.3386Y-4.6555
X6.3436Y-3.9812
X6.3484Y-3.3169
X6.6142Y-4.4488
X6.6516Y-3.8976
X6.6535Y-4.2913
X6.6732Y-4.685
X6.6831Y-3.8976
X6.685Y-4.2934
X6.7146Y-3.8976
X6.7224Y-4.6358
X6.7323Y-2.5984
X6.7323Y-5.2165
X6.7421Y-3.5925
X6.752Y-4.2323
X6.752Y-4.3898
X6.7717Y-3.3661
X6.8504Y-3.3661
X6.9094Y-4.5472
X6.9488Y-2.5984
X6.9488Y-3.1201
X6.9488Y-3.4646
X6.9685Y-2.8248
X7.0866Y-3.7205
X7.128Y-4.5531
X7.1457Y-2.5984
X7.1654Y-4.252
X7.2047Y-3.4646
X7.2835Y-3.248
X7.3031Y-2.8248
X7.3031Y-5.1772
X7.3425Y-3.9961
X7.3622Y-2.5984
X7.3622Y-4.3031
X7.372Y-3.1299
X7.3819Y-2.7559
X7.3819Y-3.248
X7.5197Y-2.5984
X7.5197Y-3.3465
X7.5197Y-3.878
X7.5197Y-4.5669
X7.5197Y-5.2165
X7.5236Y-4.0945
T3
X6.8457Y-2.684
X6.8457Y-2.784
X6.8457Y-2.884
X6.8457Y-2.984
X6.8457Y-3.084
X6.8457Y-3.184
X6.8457Y-3.284
X7.4457Y-2.684
X7.4457Y-2.784
X7.4457Y-2.884
X7.4457Y-2.984
X7.4457Y-3.084
X7.4457Y-3.184
X7.4457Y-3.284
T4
X6.9685Y-4.4469
X6.9707Y-2.8965
X6.9707Y-2.9715
X7.0669Y-4.4469
X7.1654Y-4.4469
X7.2967Y-3.3506
X7.3707Y-3.3506
T5
X6.8465Y-4.1516
X7.2874Y-4.1516
T2
G00X7.4587Y-3.8937
M15
G01X7.4587Y-3.9055
M16
G05
G00X7.4587Y-3.9921
M15
G01X7.4587Y-4.0039
M16
G05
G00X7.4587Y-4.0906
M15
G01X7.4587Y-4.1024
M16
G05
M30
