M48
; DRILL file {KiCad 9.0.2} date 2025-12-07T23:47:29+0900
; FORMAT={-:-/ absolute / inch / decimal}
; #@! TF.CreationDate,2025-12-07T23:47:29+09:00
; #@! TF.GenerationSoftware,Kicad,Pcbnew,9.0.2
; #@! TF.FileFunction,Plated,1,2,PTH
FMAT,2
INCH
; #@! TA.AperFunction,Plated,PTH,ViaDrill
T1C0.0118
; #@! TA.AperFunction,Plated,PTH,ComponentDrill
T2C0.0295
; #@! TA.AperFunction,Plated,PTH,ComponentDrill
T3C0.0315
%
G90
G05
T1
X4.977Y-3.6179
X5.0459Y-3.7732
X5.0885Y-3.29
X5.1058Y-4.0538
X5.1153Y-3.8268
X5.1549Y-4.0506
X5.1663Y-3.7808
X5.28Y-4.0074
X5.2845Y-3.9467
X5.5072Y-3.9223
X5.5078Y-4.016
X5.5687Y-4.0104
X5.5859Y-3.7733
X5.6191Y-3.803
X5.6493Y-3.6394
X5.6524Y-3.9369
X5.6753Y-3.7958
X5.7002Y-3.7058
X5.7355Y-3.7008
T2
X5.1437Y-3.1929
X5.1437Y-3.263
X5.1437Y-3.3331
X5.1437Y-3.4031
X5.1437Y-3.4732
X5.1437Y-3.5433
X5.1437Y-3.6134
X5.1437Y-3.6835
X5.565Y-3.228
X5.565Y-3.298
X5.565Y-3.3681
X5.565Y-3.4382
X5.565Y-3.5083
X5.565Y-3.5783
X5.565Y-3.6484
X5.565Y-3.7185
T3
X5.0543Y-3.878
X5.1543Y-3.878
X5.2543Y-3.878
X5.3543Y-3.878
X5.4543Y-3.878
X5.5543Y-3.878
X5.6543Y-3.878
M30
